<svg width="200" height="154" viewBox="0 0 200 154" fill="none" xmlns="http://www.w3.org/2000/svg">
<path d="M148.051 85.1407C148.028 96.7503 143.663 107.931 135.814 116.486C127.966 125.041 117.201 130.35 105.636 131.37C94.0713 132.389 82.5433 129.046 73.3185 121.998C64.0936 114.949 57.8392 104.704 55.7848 93.278C53.7303 81.8516 56.0246 70.07 62.2164 60.2494C68.4082 50.4288 78.0497 43.2796 89.2454 40.2073C100.441 37.135 112.381 38.3618 122.718 43.6467C133.055 48.9315 141.041 57.8919 145.107 68.7665C145.208 69.0396 145.307 69.3126 145.403 69.5883V69.5909C145.832 70.8028 146.21 72.0373 146.537 73.2944C147.545 77.1624 148.054 81.1435 148.051 85.1407Z" fill="#2D355C"/>
<path d="M96.3594 53.44C94.2431 52.3112 91.8935 51.674 89.4896 51.577C87.0857 51.48 84.6911 51.9257 82.4885 52.8803C80.5491 53.7128 78.507 55.2063 77.86 57.9032C80.4766 56.38 83.8638 58.7867 84.5371 62.6475L84.38 62.6902C84.0243 65.3644 84.8182 68.2758 86.3553 69.9339C86.4695 69.1858 86.7513 68.4721 87.1802 67.8447C87.609 67.2174 88.1741 66.6921 88.8345 66.3071C89.9638 65.5749 91.2131 65.0429 92.075 63.7843C93.0969 62.2921 93.3564 60.1114 93.7623 58.122C94.1682 56.1326 94.9384 53.9944 96.3594 53.44Z" fill="#4DDAC5"/>
<path d="M82.1402 76.4882C81.4156 77.5617 80.4476 78.2352 79.579 79.0739C78.5763 79.9735 77.9185 81.1865 77.7163 82.5086C77.6064 83.4427 77.7765 84.3923 77.7529 85.3368C77.7294 86.2813 77.4102 87.3445 76.7588 87.5793C75.7306 87.9457 74.9458 86.062 73.8889 85.9303C73.0491 85.8271 72.293 87.1303 72.5363 88.2606C72.7796 89.3908 73.9229 89.8914 74.5795 89.1534C75.1734 90.1366 74.7548 91.9198 73.8627 92.2217C73.7685 92.841 73.6743 93.4578 73.5827 94.0771C71.3276 92.521 69.0489 90.9392 67.1313 88.6605C64.9985 86.1478 63.6757 83.0637 63.3326 79.8042C63.084 77.1849 63.4529 74.1889 62.2339 72.1735C61.258 70.5607 59.5836 70.2046 58.0767 70.3052C57.802 70.3232 57.5247 70.3542 57.25 70.3878C58.1387 67.755 59.2674 65.207 60.6222 62.7752C60.9288 62.6453 61.2137 62.4705 61.4672 62.2565C62.8695 61.0824 63.4922 58.7056 64.6302 57.0618C64.7034 56.956 64.7793 56.8528 64.8578 56.7522C66.022 55.2529 67.5812 54.4813 69.0881 53.7639C72.4237 52.1666 75.8561 50.5486 79.3775 50.7705L78.3755 50.866C77.2061 54.0968 76.0358 57.3277 74.8646 60.5585C74.6867 61.0539 74.5071 61.5502 74.3257 62.0475C73.6612 63.8848 72.9757 65.8409 73.0778 67.8975C73.138 69.1155 73.567 70.4162 74.3832 70.8342C75.1446 71.2213 75.9765 70.7464 76.7116 70.2768C77.023 70.0807 77.3317 69.8845 77.643 69.6858C78.7601 68.9762 79.9975 68.2485 81.1774 68.7233C82.2579 69.1568 83.0558 70.6045 83.2075 72.1657C83.3467 73.6834 82.9713 75.2036 82.1402 76.4882Z" fill="#4DDAC5"/>
<path d="M88.3563 98.2537C85.0937 96.2722 81.8311 94.2907 78.5684 92.3093L78.6238 92.1686C76.5952 92.9307 75.753 96.4874 76.0883 99.3961C76.4235 102.305 77.5603 104.905 78.1345 107.739C78.9089 111.617 78.6166 115.63 77.2881 119.359C81.5783 114.611 85.375 109.45 88.6214 103.955C89.0749 103.262 89.4205 102.506 89.6466 101.713C89.8861 100.867 89.8007 99.9633 89.4069 99.1756C89.1398 98.7869 88.7787 98.4701 88.3563 98.2537Z" fill="#4DDAC5"/>
<path d="M75.4798 62.2046C75.0968 63.016 75.0377 63.94 75.3145 64.7925C75.6364 65.4793 76.2204 66.0128 76.9393 66.2768L78.742 67.1582C79.3418 67.4515 79.9882 67.7476 80.5996 67.5064C81.337 67.2154 81.8483 66.075 81.716 65.0164C81.5752 63.8899 80.8554 63.115 80.1896 62.4551C79.2578 61.5317 78.3261 60.6083 77.3944 59.6848L76.8693 60.3192C76.3014 60.8656 75.8315 61.5031 75.4798 62.2046Z" fill="#4DDAC5"/>
<path d="M138.938 74.2478C139.749 74.4362 140.56 74.6245 141.371 74.8129C141.23 77.5147 139.872 80.0153 138.051 80.921C137.293 81.2978 136.448 81.4371 135.82 82.1416C135.252 82.7816 134.964 83.7777 134.7 84.7299C134.237 86.3918 133.774 88.0536 133.311 89.7155C132.814 91.5063 132.176 93.496 130.883 94.1411C129.774 94.6959 128.505 94.0172 127.652 92.8792C126.799 91.7412 126.279 90.211 125.774 88.7194C125.805 90.3452 125.039 91.9399 123.953 92.505C122.865 93.0701 121.541 92.5592 120.814 91.2974C120.29 90.3916 120.073 89.1968 119.56 88.2781C119.048 87.3595 117.972 86.8331 117.413 87.6949C117.044 88.2678 117.091 89.1452 116.908 89.8729C116.815 90.356 116.573 90.7988 116.214 91.1397C115.855 91.4805 115.397 91.7025 114.904 91.7748C114.45 91.7645 114.004 91.6634 113.591 91.4775C113.179 91.2916 112.809 91.0249 112.505 90.6935C110.903 89.077 109.86 87.0024 109.525 84.766C109.298 83.6938 109.326 82.5843 109.608 81.5249C109.93 80.5211 110.707 79.747 111.479 79.9379C111.987 78.8798 110.985 77.476 110.082 77.5999C109.177 77.7238 108.468 78.6811 107.725 79.4166C106.984 80.152 105.948 80.6862 105.203 79.9559C105.22 80.223 105.128 80.4857 104.948 80.6863C104.769 80.8868 104.515 81.0087 104.245 81.0251C104.218 81.0267 104.191 81.0273 104.164 81.0268C103.668 80.8865 103.208 80.6457 102.812 80.3198C101.103 79.2695 98.9345 79.9663 97.7206 81.9532C98.4793 78.7689 99.5911 75.1148 101.922 74.3664C102.874 74.0594 103.913 74.3122 104.813 73.7806C106.406 72.8388 106.728 69.2802 105.352 67.8119C105.527 69.2002 105.493 70.8208 104.75 71.7705C104.007 72.7201 102.448 72.1007 102.542 70.697C102.521 70.8944 102.437 71.0802 102.302 71.2277C102.168 71.3751 101.989 71.4768 101.792 71.518C101.595 71.5593 101.39 71.538 101.206 71.4573C101.022 71.3765 100.869 71.2405 100.768 71.0685C100.274 70.3254 100.316 69.1099 100.666 68.2222C101.028 67.4182 101.546 66.6922 102.192 66.0856C103.434 64.7721 104.695 63.4431 106.134 62.6173C107.576 61.7915 109.24 61.5128 110.684 62.3335C111.445 62.767 112.115 63.4895 112.892 63.8714C113.074 63.9832 113.278 64.0584 113.49 64.0927C113.702 64.127 113.918 64.1198 114.128 64.0715C114.337 64.0232 114.534 63.9347 114.709 63.811C114.883 63.6874 115.032 63.5311 115.145 63.351C115.154 63.3371 115.162 63.323 115.171 63.3089C115.749 62.3076 115.477 60.8212 115.691 59.5697C116.076 57.3582 118.318 56.3234 119.56 57.7839C118.632 57.5491 117.672 58.6329 117.556 59.9465C117.439 61.2599 118.111 62.5863 119.011 62.9837C120.523 63.6443 122.004 61.9825 123.147 60.4445C124.34 58.8342 125.535 57.2249 126.731 55.6163C126.922 55.3425 127.137 55.0852 127.372 54.8473C127.747 54.487 128.247 54.2807 128.77 54.2702C129.293 54.2597 129.801 54.4457 130.19 54.7906C131.399 55.7634 131.966 57.7582 132.958 59.131C134.397 61.1258 136.55 61.6109 138.554 61.998C140.048 62.2844 141.542 62.5726 143.038 62.8624C144.035 64.6919 144.905 66.5861 145.641 68.5319C142.898 69.7655 140.572 71.7492 138.938 74.2478Z" fill="#4DDAC5"/>
<path d="M143.04 105.86C141.919 108.105 140.615 110.256 139.142 112.293C138.2 111.896 137.187 112.605 136.306 113.271C135.385 113.968 134.278 114.647 133.334 114.012C132.369 113.361 132.057 111.542 132.363 110.1C132.715 108.769 133.33 107.52 134.174 106.425C134.959 105.269 135.798 104.069 136.889 103.62C137.983 103.171 139.388 103.806 139.707 105.339L140.481 105.313C140.047 104.724 140.275 103.506 140.858 103.292C141.53 103.042 142.114 103.953 142.511 104.758C142.689 105.122 142.87 105.488 143.04 105.86Z" fill="#4DDAC5"/>
<path d="M114.109 94.3968C112.445 94.5 111.126 92.4789 110.25 90.4905C109.374 88.5021 108.575 86.2283 107.073 85.2162C106.215 84.6379 105.236 84.5585 104.306 84.2783C103.778 84.1468 103.289 83.893 102.88 83.5381C102.472 83.1832 102.155 82.7373 101.955 82.2374L100.9 81.8167C99.4227 82.5449 98.0701 83.4962 96.8908 84.6361C95.5432 86.0481 94.7038 87.8582 94.5021 89.7872C94.3004 91.8718 95.0452 94.1963 96.4369 94.9794C97.5365 95.5982 98.8168 95.2082 99.9306 95.7746C101.322 96.4824 102.149 98.5383 102.461 100.568C102.774 102.598 102.695 104.708 102.919 106.761C103.142 108.814 103.759 110.95 105.035 112.002C106.632 113.319 108.976 112.225 109.692 109.828C110.044 108.653 110.032 107.326 110.295 106.106C110.758 103.957 112.007 102.362 112.998 100.6C113.988 98.8368 114.768 96.4426 114.109 94.3968Z" fill="#4DDAC5"/>
<path d="M97.6617 73.2798C97.8169 73.4207 97.9618 73.5724 98.0951 73.7336C98.2332 73.9684 98.3036 74.2359 98.2989 74.5072C98.2943 74.7786 98.2146 75.0435 98.0685 75.2735C98.269 75.2622 98.465 75.2101 98.644 75.1203C98.823 75.0306 98.9812 74.9052 99.1086 74.7521C99.4124 74.4108 99.6797 74.0395 99.9061 73.644C100.013 73.5086 100.089 73.3524 100.129 73.1857C100.17 73.0191 100.174 72.8458 100.141 72.6775C100.063 72.4561 99.8766 72.3617 99.7463 72.1952C99.5656 71.8698 99.4423 71.5164 99.3815 71.1501C99.3092 70.8069 99.1414 70.4903 98.8967 70.236C98.6521 69.9817 98.3404 69.7998 97.9967 69.7106L98.0801 69.7263C97.9381 69.8094 97.826 69.9343 97.7595 70.0833C97.6931 70.2324 97.6756 70.3983 97.7095 70.5577C97.76 70.8797 97.9698 71.147 97.9489 71.4755C97.9189 71.9477 97.4404 72.1693 97.4108 72.6417C97.4062 72.8786 97.4963 73.1079 97.6617 73.2798Z" fill="#4DDAC5"/>
<path d="M95.3091 67.4712C95.509 67.2981 95.6569 67.0743 95.7366 66.824C95.8163 66.5736 95.8247 66.3066 95.761 66.0518C95.6401 65.5149 95.2121 65.1538 94.8174 65.253C94.7028 65.3675 94.5607 65.4514 94.4042 65.4968C94.2478 65.5423 94.0822 65.5477 93.9231 65.5127C93.679 65.4507 93.4111 65.2911 93.1994 65.4725C93.0783 65.6079 92.9936 65.7711 92.9529 65.9472C92.8746 66.1845 92.7963 66.4217 92.7179 66.6588C92.6807 66.7438 92.671 66.8379 92.6901 66.9285C92.7051 66.9648 92.7293 66.9967 92.7604 67.0211C92.7915 67.0455 92.8285 67.0616 92.8677 67.0678L94.2779 67.4779C94.4398 67.5514 94.616 67.5889 94.7943 67.5878C94.9725 67.5866 95.1482 67.5468 95.3091 67.4712Z" fill="#4DDAC5"/>
<path d="M130.795 98.076C130.578 97.7251 130.361 97.3742 130.143 97.0233C129.93 96.6169 129.638 96.2555 129.284 95.9594C129.13 95.8316 128.93 95.7696 128.729 95.7871C128.528 95.8046 128.342 95.9002 128.212 96.0528L128.201 96.0665L128.227 96.2669C128.809 96.8822 129.206 97.6452 129.372 98.4704C129.422 98.829 129.405 99.2001 129.448 99.5603C129.453 99.7273 129.491 99.8918 129.56 100.044C129.629 100.197 129.728 100.334 129.851 100.449C130.193 100.675 130.594 100.342 130.838 99.9367C131.056 99.6035 131.153 99.2078 131.115 98.8132C131.061 98.5484 130.952 98.2975 130.795 98.076Z" fill="#4DDAC5"/>
<path d="M134.204 98.5326C134.245 98.2041 134.218 97.8707 134.124 97.5529C134.109 97.1229 134.224 96.6981 134.456 96.3336C134.686 95.9897 134.861 95.6125 134.973 95.2156C135.02 95.0348 135.012 94.8441 134.948 94.6681C134.876 94.5088 134.702 94.4361 134.602 94.5623L134.816 94.6981C134.527 94.6473 134.231 94.6615 133.948 94.7396C133.787 94.8004 133.643 94.8986 133.529 95.0259C133.414 95.1532 133.333 95.3059 133.291 95.4709C133.255 95.7282 133.198 95.9821 133.118 96.2297C132.991 96.4883 132.744 96.5743 132.588 96.8013C132.483 97.0026 132.429 97.2266 132.433 97.4533C132.437 97.6799 132.498 97.9021 132.61 98.0998C132.805 98.4231 133.115 98.6633 133.479 98.7739C133.741 98.8664 134.084 98.8712 134.204 98.5326Z" fill="#4DDAC5"/>
<path d="M140.274 100.339C140.368 100.582 140.495 100.811 140.65 101.02C140.941 101.309 141.336 101.132 141.688 101.061C142.008 101.012 142.336 101.048 142.636 101.167C142.937 101.286 143.199 101.483 143.396 101.737C143.259 101.064 142.961 100.434 142.526 99.8987C142.091 99.3634 141.532 98.9389 140.896 98.6609C140.07 98.3788 139.199 98.2445 138.325 98.2644L138.176 98.3021C138.557 99.3944 139.751 99.3699 140.274 100.339Z" fill="#4DDAC5"/>
<path d="M113.644 104.331C113.443 104.691 113.27 105.065 113.127 105.451C112.938 106.075 112.812 106.717 112.753 107.366C112.706 107.735 112.692 108.207 112.926 108.387C112.993 108.431 113.075 108.449 113.155 108.438C113.235 108.428 113.308 108.388 113.361 108.328C113.491 108.192 113.598 108.036 113.677 107.866C114.137 107.083 114.495 106.245 114.741 105.373C114.998 104.448 114.937 103.465 114.567 102.578C114.259 103.162 113.952 103.747 113.644 104.331Z" fill="#4DDAC5"/>
<path d="M104.76 57.4905C104.907 57.6315 105.091 57.7272 105.292 57.7659C105.493 57.8045 105.701 57.7844 105.89 57.708C106.282 57.5389 106.642 57.3046 106.953 57.0153C107.211 56.8271 107.43 56.5917 107.598 56.3219C107.69 56.1607 107.749 55.983 107.772 55.7992C107.795 55.6153 107.78 55.4289 107.729 55.2505C107.657 55.0796 107.542 54.9297 107.395 54.8149C107.248 54.7001 107.074 54.6242 106.889 54.5944C106.367 54.4417 105.845 54.2891 105.323 54.1366L105.701 53.801C105.312 53.5954 104.883 53.977 104.64 54.4493C104.484 54.7577 104.376 55.0872 104.318 55.4269C104.236 55.7819 104.232 56.1504 104.309 56.5067C104.385 56.8631 104.539 57.1988 104.76 57.4905Z" fill="#4DDAC5"/>
<path d="M113.972 54.4403C114.119 54.6002 114.322 54.6989 114.54 54.7164C114.758 54.7339 114.975 54.6689 115.146 54.5346C115.294 54.4253 115.416 54.2867 115.506 54.1276C115.595 53.9686 115.65 53.7927 115.666 53.6115C115.703 53.2067 115.5 52.7567 115.21 52.7218L115.277 52.3428C114.718 52.2433 114.031 52.2234 113.732 52.8921C113.631 53.1483 113.6 53.4261 113.642 53.6978C113.684 53.9695 113.798 54.2255 113.972 54.4403Z" fill="#4DDAC5"/>
<path d="M143.279 122.033C144.941 121.597 146.04 120.318 145.731 119.177C145.423 118.036 143.826 117.465 142.163 117.902C140.5 118.339 139.402 119.618 139.71 120.759C140.018 121.899 141.616 122.47 143.279 122.033Z" fill="#F2F2F2"/>
<path d="M149.285 114.929C150.036 114.837 150.536 113.9 150.402 112.835C150.268 111.771 149.551 110.982 148.801 111.074C148.05 111.166 147.55 112.103 147.684 113.168C147.817 114.232 148.534 115.021 149.285 114.929Z" fill="#F2F2F2"/>
<path d="M150.806 102.32C151.557 102.228 152.057 101.291 151.923 100.227C151.789 99.162 151.072 98.3735 150.321 98.4654C149.571 98.5572 149.071 99.4945 149.204 100.559C149.338 101.623 150.055 102.412 150.806 102.32Z" fill="#F2F2F2"/>
<path d="M130.277 126.559C131.028 126.467 131.528 125.53 131.394 124.465C131.26 123.401 130.543 122.612 129.793 122.704C129.042 122.796 128.542 123.733 128.676 124.798C128.809 125.862 129.526 126.651 130.277 126.559Z" fill="#F2F2F2"/>
<path d="M140.573 130.235C141.324 130.143 141.824 129.206 141.69 128.141C141.557 127.077 140.839 126.288 140.089 126.38C139.338 126.472 138.838 127.409 138.972 128.474C139.105 129.538 139.823 130.327 140.573 130.235Z" fill="#F2F2F2"/>
<path d="M38.4327 121.877C40.0954 121.44 41.1935 120.161 40.8855 119.021C40.5775 117.88 38.9799 117.309 37.3172 117.746C35.6545 118.182 34.5564 119.461 34.8644 120.602C35.1724 121.743 36.77 122.314 38.4327 121.877Z" fill="#F2F2F2"/>
<path d="M42.0514 105.164C43.7141 104.727 44.8122 103.448 44.5042 102.307C44.1961 101.166 42.5985 100.595 40.9359 101.032C39.2732 101.469 38.175 102.748 38.483 103.889C38.7911 105.03 40.3887 105.6 42.0514 105.164Z" fill="#F2F2F2"/>
<path d="M48.0571 98.0598C48.8078 97.968 49.308 97.0306 49.1742 95.9662C49.0404 94.9017 48.3233 94.1132 47.5726 94.205C46.8218 94.2968 46.3217 95.2342 46.4555 96.2986C46.5893 97.3631 47.3064 98.1516 48.0571 98.0598Z" fill="#F2F2F2"/>
<path d="M49.5776 85.4509C50.3283 85.3591 50.8285 84.4217 50.6947 83.3573C50.5609 82.2928 49.8438 81.5043 49.0931 81.5961C48.3423 81.6879 47.8422 82.6253 47.976 83.6897C48.1098 84.7542 48.8269 85.5427 49.5776 85.4509Z" fill="#F2F2F2"/>
<path d="M29.0492 109.69C29.7999 109.598 30.3001 108.661 30.1663 107.596C30.0325 106.532 29.3154 105.743 28.5647 105.835C27.8139 105.927 27.3138 106.864 27.4476 107.929C27.5814 108.993 28.2985 109.782 29.0492 109.69Z" fill="#F2F2F2"/>
<path d="M39.3453 113.366C40.0961 113.274 40.5962 112.337 40.4624 111.272C40.3286 110.208 39.6115 109.419 38.8608 109.511C38.1101 109.603 37.6099 110.54 37.7437 111.605C37.8775 112.669 38.5946 113.458 39.3453 113.366Z" fill="#F2F2F2"/>
<path d="M26.8439 123.777C27.5946 123.686 28.0947 122.748 27.9609 121.684C27.8271 120.619 27.11 119.831 26.3593 119.923C25.6086 120.014 25.1085 120.952 25.2423 122.016C25.3761 123.081 26.0931 123.869 26.8439 123.777Z" fill="#F2F2F2"/>
<path d="M162.162 44.6361C163.824 44.1994 164.923 42.9204 164.615 41.7795C164.306 40.6386 162.709 40.0678 161.046 40.5046C159.384 40.9413 158.285 42.2203 158.593 43.3612C158.901 44.5021 160.499 45.0729 162.162 44.6361Z" fill="#F2F2F2"/>
<path d="M141.796 45.0085C143.459 44.5718 144.557 43.2928 144.249 42.1519C143.941 41.011 142.343 40.4402 140.681 40.877C139.018 41.3138 137.92 42.5927 138.228 43.7336C138.536 44.8745 140.134 45.4453 141.796 45.0085Z" fill="#F2F2F2"/>
<path d="M165.78 27.9224C167.443 27.4856 168.541 26.2066 168.233 25.0657C167.925 23.9248 166.327 23.354 164.665 23.7908C163.002 24.2276 161.904 25.5065 162.212 26.6474C162.52 27.7883 164.118 28.3591 165.78 27.9224Z" fill="#F2F2F2"/>
<path d="M152.778 32.4491C153.529 32.3573 154.029 31.4199 153.895 30.3554C153.761 29.291 153.044 28.5024 152.294 28.5943C151.543 28.6861 151.043 29.6234 151.177 30.6879C151.31 31.7524 152.027 32.5409 152.778 32.4491Z" fill="#F2F2F2"/>
<path d="M163.074 36.1251C163.825 36.0333 164.325 35.0959 164.191 34.0315C164.058 32.967 163.341 32.1785 162.59 32.2703C161.839 32.3621 161.339 33.2995 161.473 34.3639C161.607 35.4284 162.324 36.2169 163.074 36.1251Z" fill="#F2F2F2"/>
<path d="M150.573 46.5367C151.324 46.4449 151.824 45.5076 151.69 44.4431C151.556 43.3786 150.839 42.5901 150.088 42.6819C149.338 42.7737 148.837 43.7111 148.971 44.7756C149.105 45.84 149.822 46.6285 150.573 46.5367Z" fill="#F2F2F2"/>
<path d="M32.3137 124.735C28.9818 124.735 26.8156 123.918 25.8569 122.295C23.9662 119.093 27.1327 113.476 35.2682 105.599L35.9516 106.285C28.3946 113.603 25.1088 119.116 26.6997 121.81C27.7064 123.514 30.7024 124.125 35.3655 123.576C39.9948 123.031 46.1296 121.406 53.5996 118.747C68.9782 113.272 88.2723 104.038 107.928 92.7446C127.582 81.4515 145.244 69.4521 157.658 58.9571C160.043 56.9409 162.207 55.0013 164.09 53.1927C166.563 50.8762 168.844 48.3687 170.911 45.6941C173.696 41.9646 174.636 39.0925 173.629 37.3881C171.948 34.5415 164.885 34.8092 153.742 38.1429L153.459 37.2219C165.415 33.6458 172.485 33.5385 174.472 36.9039C175.707 38.9948 174.773 42.1443 171.697 46.2648C169.598 48.9819 167.281 51.5291 164.771 53.8821C162.873 55.7051 160.693 57.6583 158.293 59.6878C145.835 70.2195 128.123 82.2547 108.419 93.5759C88.7141 104.898 69.3631 114.159 53.9308 119.652C46.3913 122.336 40.1839 123.978 35.4811 124.531C34.4303 124.661 33.3727 124.729 32.3137 124.735Z" fill="#F2F2F2"/>
</svg>
