<svg width="200" height="154" viewBox="0 0 200 154" fill="none" xmlns="http://www.w3.org/2000/svg">
<path d="M100 132C130.376 132 155 107.376 155 77C155 46.6243 130.376 22 100 22C69.6243 22 45 46.6243 45 77C45 107.376 69.6243 132 100 132Z" fill="#FF6584"/>
<g opacity="0.7">
<path d="M47.6699 62.0485C48.7505 57.4234 52.7143 48.7447 55.1456 46.2961C58.6575 42.2151 73.3224 46.704 81.4862 51.351C87.6996 54.8879 108.501 50.2628 118.767 44.8215C136.683 35.3247 127.952 41.0126 124.71 44.8215C121.54 48.5454 97.425 66.3495 78.2445 58.4247C67.7087 54.0717 46.6327 66.4879 47.6699 62.0485Z" fill="#FBCD99"/>
<path d="M154.156 74.2044C155.777 71.2117 150.644 54.6159 147.943 51.079C150.644 65.2264 112.013 61.4174 107.691 66.8587C103.368 72.3 66.358 77.4692 69.8699 78.0133C73.3818 78.5574 99.0459 81.006 110.662 74.2044C122.279 67.4028 152.535 77.1971 154.156 74.2044Z" fill="#FBCD99"/>
<path d="M59.8744 114.198C55.5521 112.021 48.2581 96.5137 46.9073 90.5283C62.846 98.146 65.8177 85.6311 82.5669 89.9842C100.124 94.5472 120.383 81.74 115.795 85.6311C110.662 89.9842 92.022 101.955 82.0266 100.05C72.0311 98.146 64.1968 116.374 59.8744 114.198Z" fill="#FBCD99"/>
<path d="M47.6699 62.0485C48.7505 57.4234 52.7143 48.7447 55.1456 46.2961C58.6575 42.2151 73.3224 46.704 81.4862 51.351C87.6996 54.8879 108.501 50.2628 118.767 44.8215C136.683 35.3247 127.952 41.0126 124.71 44.8215C121.54 48.5454 97.425 66.3495 78.2445 58.4247C67.7087 54.0717 46.6327 66.4879 47.6699 62.0485Z" stroke="#FBCD99"/>
<path d="M154.156 74.2044C155.777 71.2117 150.644 54.6159 147.943 51.079C150.644 65.2264 112.013 61.4174 107.691 66.8587C103.368 72.3 66.358 77.4692 69.8699 78.0133C73.3818 78.5574 99.0459 81.006 110.662 74.2044C122.279 67.4028 152.535 77.1971 154.156 74.2044Z" stroke="#FBCD99"/>
<path d="M59.8744 114.198C55.5521 112.021 48.2581 96.5137 46.9073 90.5283C62.846 98.146 65.8177 85.6311 82.5669 89.9842C100.124 94.5472 120.383 81.74 115.795 85.6311C110.662 89.9842 92.022 101.955 82.0266 100.05C72.0311 98.146 64.1968 116.374 59.8744 114.198Z" stroke="#FBCD99"/>
</g>
</svg>
