<svg width="200" height="154" viewBox="0 0 200 154" fill="none" xmlns="http://www.w3.org/2000/svg">
<path d="M100 132C130.376 132 155 107.376 155 77C155 46.6243 130.376 22 100 22C69.6244 22 45 46.6243 45 77C45 107.376 69.6244 132 100 132Z" fill="#E6E6E6"/>
<path d="M90.2604 43.8381C93.2979 43.8381 95.7604 41.3757 95.7604 38.3381C95.7604 35.3006 93.2979 32.8381 90.2604 32.8381C87.2228 32.8381 84.7604 35.3006 84.7604 38.3381C84.7604 41.3757 87.2228 43.8381 90.2604 43.8381Z" fill="#CBCBCB"/>
<path d="M100.2 107.061C103.238 107.061 105.7 104.599 105.7 101.561C105.7 98.5236 103.238 96.0612 100.2 96.0612C97.1629 96.0612 94.7004 98.5236 94.7004 101.561C94.7004 104.599 97.1629 107.061 100.2 107.061Z" fill="#CBCBCB"/>
<path d="M122.722 70.6433C124.931 70.6433 126.722 68.8525 126.722 66.6433C126.722 64.4342 124.931 62.6433 122.722 62.6433C120.513 62.6433 118.722 64.4342 118.722 66.6433C118.722 68.8525 120.513 70.6433 122.722 70.6433Z" fill="#CBCBCB"/>
<path d="M75.3952 93.1592C82.5749 93.1592 88.3951 87.3389 88.3951 80.1592C88.3951 72.9795 82.5749 67.1592 75.3952 67.1592C68.2155 67.1592 62.3951 72.9795 62.3951 80.1592C62.3951 87.3389 68.2155 93.1592 75.3952 93.1592Z" fill="#CBCBCB"/>
</svg>
