<svg width="200" height="154" viewBox="0 0 200 154" fill="none" xmlns="http://www.w3.org/2000/svg">
<path d="M98.1415 116.451C120.633 116.451 138.865 98.2178 138.865 75.7266C138.865 53.2353 120.633 35.0026 98.1415 35.0026C75.6502 35.0026 57.4175 53.2353 57.4175 75.7266C57.4175 98.2178 75.6502 116.451 98.1415 116.451Z" fill="#4DDAC5"/>
<path d="M101.226 98.5517C59.8584 100.788 26.9796 94.8333 26.3745 84.9957C26.0118 79.0978 37.1702 73.2148 56.9886 68.8557C57.0591 68.8395 57.1322 68.8379 57.2037 68.8507C57.2752 68.8636 57.3436 68.8908 57.4052 68.9308C57.4667 68.9707 57.5201 69.0226 57.5623 69.0836C57.6045 69.1445 57.6347 69.2133 57.6512 69.2859C57.6676 69.3586 57.6701 69.4337 57.6583 69.507C57.6465 69.5803 57.6207 69.6503 57.5825 69.7131C57.5443 69.7759 57.4943 69.8302 57.4354 69.8729C57.3765 69.9156 57.3099 69.9459 57.2394 69.9621L57.2373 69.9626L57.2304 69.9641C38.5616 74.0705 27.1602 79.8075 27.4756 84.9362C28.0228 93.8323 61.7644 99.549 101.157 97.4198C140.549 95.2906 173.366 85.9762 172.819 77.0801C172.502 71.93 160.397 67.4511 141.228 65.3917C141.156 65.3845 141.085 65.3627 141.021 65.3276C140.957 65.2925 140.899 65.2448 140.853 65.1872C140.806 65.1296 140.771 65.0632 140.749 64.9919C140.727 64.9205 140.72 64.8457 140.726 64.7715C140.732 64.6973 140.753 64.6254 140.787 64.5597C140.82 64.494 140.866 64.4359 140.922 64.3888C140.978 64.3416 141.042 64.3063 141.111 64.2849C141.18 64.2634 141.253 64.2562 141.325 64.2638L141.327 64.264L141.331 64.2644C161.677 66.4503 173.556 71.0998 173.92 77.0206C174.525 86.8582 142.594 96.3157 101.226 98.5517Z" fill="#2D355C"/>
<path d="M103.312 91.8793C69.2291 115.491 38.3397 127.515 32.9898 119.253C29.7824 114.299 36.3808 103.326 51.0933 89.147C51.1454 89.096 51.2067 89.0562 51.2738 89.03C51.341 89.0038 51.4126 88.9917 51.4845 88.9943C51.5565 88.9969 51.6274 89.0143 51.6933 89.0453C51.7591 89.0763 51.8186 89.1205 51.8683 89.1752C51.918 89.2299 51.957 89.2942 51.983 89.3643C52.009 89.4344 52.0216 89.5089 52.0199 89.5837C52.0182 89.6585 52.0024 89.732 51.9733 89.8001C51.9442 89.8682 51.9025 89.9295 51.8504 89.9805L51.8489 89.982L51.8438 89.9869C37.9847 103.344 31.1079 114.317 33.897 118.624C38.7349 126.096 70.2413 113.413 102.697 90.9287C135.152 68.4447 158.485 43.1376 153.647 35.6661C150.846 31.3407 138.35 33.7734 121.034 42.0152C120.969 42.0466 120.899 42.0642 120.827 42.0672C120.755 42.0702 120.683 42.0584 120.615 42.0325C120.548 42.0067 120.485 41.9672 120.432 41.9164C120.378 41.8657 120.335 41.8046 120.304 41.7366C120.273 41.6687 120.255 41.5952 120.251 41.5205C120.248 41.4457 120.258 41.3711 120.282 41.3009C120.306 41.2306 120.343 41.1662 120.392 41.1112C120.44 41.0563 120.498 41.0118 120.563 40.9805L120.565 40.9797L120.568 40.978C138.947 32.2301 151.334 30.0649 154.554 35.0376C159.904 43.2998 137.396 68.2676 103.312 91.8793Z" fill="#2D355C"/>
<path d="M100.738 90.6264C59.5867 72.1251 26.5581 80.6492 25.889 77.1099C25.5271 71.2251 36.6862 65.3539 56.505 61.0022C56.5756 60.986 56.6488 60.9842 56.7203 60.997C56.7919 61.0098 56.8604 61.0369 56.922 61.0767C56.9836 61.1165 57.037 61.1684 57.0793 61.2292C57.1215 61.29 57.1518 61.3587 57.1683 61.4312C57.1847 61.5038 57.1871 61.5788 57.1753 61.652C57.1635 61.7251 57.1377 61.7951 57.0994 61.8578C57.061 61.9204 57.011 61.9746 56.952 62.0172C56.893 62.0598 56.8263 62.09 56.7557 62.1061L56.7536 62.1065L56.7468 62.1081C38.0775 66.2076 26.6754 71.9332 26.9901 77.0503C27.536 85.9265 61.2766 91.6263 100.669 89.4971C140.061 87.3679 172.879 78.0704 172.333 69.1942C172.017 64.0556 159.913 59.5882 140.744 57.5357C140.672 57.5284 140.602 57.5066 140.538 57.4715C140.473 57.4364 140.416 57.3888 140.37 57.3314C140.323 57.2739 140.288 57.2078 140.267 57.1367C140.245 57.0656 140.237 56.991 140.244 56.9171C140.25 56.8432 140.271 56.7715 140.304 56.706C140.338 56.6406 140.384 56.5826 140.439 56.5356C140.495 56.4885 140.559 56.4532 140.628 56.4317C140.697 56.4103 140.77 56.403 140.842 56.4103L140.844 56.4105L140.848 56.4109C161.194 58.5895 173.071 63.2271 173.434 69.1347C174.038 78.9502 138.841 107.757 100.738 90.6264Z" fill="#2D355C"/>
</svg>
