<svg width="200" height="150" viewBox="0 0 200 150" fill="none" xmlns="http://www.w3.org/2000/svg">
<path d="M87.2953 124.596C110.654 124.596 129.591 105.66 129.591 82.3008C129.591 58.9417 110.654 40.0055 87.2953 40.0055C63.9362 40.0055 45 58.9417 45 82.3008C45 105.66 63.9362 124.596 87.2953 124.596Z" fill="#00BFA6"/>
<path d="M105.181 122.05C95.3281 122.05 85.6961 119.204 77.5035 113.872C69.3108 108.54 62.9254 100.961 59.1547 92.0945C55.384 83.2277 54.3974 73.471 56.3197 64.0581C58.242 54.6452 62.9868 45.9989 69.954 39.2126C76.9213 32.4263 85.7982 27.8047 95.4621 25.9324C105.126 24.0601 115.143 25.021 124.246 28.6938C133.349 32.3665 141.13 38.586 146.604 46.5659C152.078 54.5458 155 63.9276 155 73.5249C154.985 86.39 149.732 98.724 140.392 107.821C131.052 116.918 118.389 122.035 105.181 122.05ZM105.181 27.0872C95.7519 27.0872 86.5342 29.8107 78.694 34.9133C70.8537 40.0159 64.7429 47.2685 61.1344 55.7539C57.5259 64.2392 56.5818 73.5763 58.4214 82.5843C60.2609 91.5923 64.8017 99.8667 71.4692 106.361C78.1369 112.856 86.6319 117.278 95.8801 119.07C105.128 120.862 114.714 119.942 123.426 116.428C132.138 112.913 139.584 106.961 144.822 99.3242C150.061 91.6875 152.857 82.7093 152.857 73.5248C152.843 61.2131 147.815 49.4096 138.877 40.7039C129.94 31.9982 117.821 27.1012 105.181 27.0872Z" fill="#3F3D56"/>
</svg>
