<svg width="1089" height="823" viewBox="0 0 1089 823" fill="none" xmlns="http://www.w3.org/2000/svg">
<g clip-path="url(#clip0_1032_3438)">
<path opacity="0.3" d="M308.88 1012.31C527.881 975.829 692.58 869.192 676.745 774.128C660.91 679.064 470.537 631.572 251.536 668.052C32.5354 704.531 -132.163 811.169 -116.328 906.232C-100.493 1001.3 89.8793 1048.79 308.88 1012.31Z" fill="#4DDAC5"/>
<path opacity="0.5" d="M630.62 769.99C634.044 790.522 628.084 812.41 613.08 834.405C598.076 856.4 574.322 878.071 543.175 898.18C512.028 918.289 474.098 936.443 431.55 951.605C389.003 966.767 342.672 978.639 295.203 986.545C252.892 993.582 210.378 997.374 169.571 997.751C105.759 998.311 48.1563 990.446 3.03321 975.013C-42.0899 959.58 -73.0037 937.171 -86.3425 910.224C-99.6812 883.278 -94.9338 852.828 -72.6168 822.19C-50.2999 791.551 -11.2689 761.898 40.2266 736.459C91.7222 711.02 153.709 690.77 219.437 677.914C285.166 665.057 352.117 660.088 413.002 663.546C473.887 667.004 526.372 678.757 564.743 697.525C603.114 716.294 625.9 741.359 630.62 769.99Z" fill="#227B9B"/>
<path d="M21.3184 444.586C61.6083 482.086 114.978 506.146 169.798 511.916C175.178 512.486 180.572 512.876 185.978 513.086C187.178 513.136 188.378 513.166 189.588 513.196C191.548 513.246 193.518 513.266 195.478 513.266C197.828 513.266 200.178 513.233 202.528 513.166C216.131 512.769 229.681 511.288 243.048 508.736C243.538 508.636 244.018 508.546 244.508 508.446C246.618 508.036 248.722 507.596 250.818 507.126C254.838 506.236 258.838 505.249 262.818 504.166C264.108 503.816 265.398 503.456 266.688 503.076C268.538 502.546 270.378 501.986 272.218 501.416C272.908 501.196 273.598 500.986 274.288 500.756C274.988 500.536 275.688 500.306 276.388 500.066C280.658 498.666 284.892 497.146 289.088 495.506C312.989 486.272 335.363 473.492 355.458 457.596C358.238 455.386 361.058 453.066 363.778 450.816C378.398 438.756 393.518 426.286 411.948 423.566C431.848 420.636 450.968 429.696 469.448 438.456C475.718 441.426 482.198 444.496 488.608 447.066C519.899 459.392 554.384 461.04 586.708 451.756C587.378 451.576 588.048 451.376 588.708 451.176V449.086C588.048 449.286 587.378 449.486 586.708 449.676C554.655 459.007 520.412 457.435 489.348 445.206C482.998 442.666 476.538 439.606 470.298 436.646C451.548 427.756 432.158 418.566 411.658 421.586C392.678 424.386 377.338 437.036 362.508 449.276C359.788 451.516 356.978 453.836 354.218 456.036C334.257 471.831 312.027 484.523 288.278 493.686H288.268C284.248 495.246 280.178 496.716 276.088 498.076C275.498 498.266 274.908 498.456 274.318 498.656C273.658 498.866 272.988 499.076 272.328 499.286C270.638 499.826 268.945 500.339 267.248 500.826C265.588 501.326 263.918 501.799 262.238 502.246H262.228C257.928 503.416 253.602 504.473 249.248 505.416C247.278 505.856 245.308 506.256 243.318 506.636C242.888 506.726 242.448 506.806 242.008 506.886C229.184 509.306 216.192 510.73 203.148 511.146H203.138C198.608 511.286 194.085 511.303 189.568 511.196C188.388 511.166 187.218 511.126 186.048 511.086C180.938 510.886 175.835 510.526 170.738 510.006H170.728C116.078 504.416 62.8384 480.496 22.6783 443.116C22.4832 442.937 22.225 442.842 21.9604 442.853C21.6957 442.864 21.4462 442.979 21.2663 443.174C21.0864 443.368 20.9909 443.626 21.0007 443.891C21.0104 444.155 21.1247 444.405 21.3184 444.586Z" fill="url(#paint0_linear_1032_3438)"/>
<path d="M188.039 520.865C187.551 518.937 189.401 516.805 192.173 516.103C194.944 515.401 197.587 516.394 198.075 518.322C198.564 520.25 196.713 522.382 193.942 523.084C191.171 523.787 188.528 522.793 188.039 520.865Z" fill="white"/>
<path d="M72.8846 355.034C72.396 353.106 74.2466 350.974 77.0179 350.271C79.7893 349.569 82.432 350.562 82.9205 352.49C83.4091 354.418 81.5586 356.55 78.7872 357.253C76.0158 357.955 73.3732 356.962 72.8846 355.034Z" fill="white"/>
<path d="M221.883 520.647C221.395 518.719 223.245 516.587 226.017 515.885C228.788 515.182 231.431 516.176 231.919 518.104C232.408 520.032 230.557 522.164 227.786 522.866C225.015 523.569 222.372 522.575 221.883 520.647Z" fill="#227B9B"/>
<path d="M152.885 348.034C152.396 346.106 154.247 343.974 157.018 343.271C159.789 342.569 162.432 343.562 162.921 345.49C163.409 347.418 161.559 349.55 158.787 350.253C156.016 350.955 153.373 349.962 152.885 348.034Z" fill="#227B9B"/>
<path d="M181.689 548.944C181.2 547.016 183.05 544.884 185.822 544.181C188.593 543.479 191.236 544.473 191.724 546.4C192.213 548.328 190.363 550.461 187.591 551.163C184.82 551.865 182.177 550.872 181.689 548.944Z" fill="#FBCD99"/>
<path d="M117.885 381.034C117.396 379.106 119.247 376.974 122.018 376.271C124.789 375.569 127.432 376.562 127.921 378.49C128.409 380.418 126.559 382.55 123.787 383.253C121.016 383.955 118.373 382.962 117.885 381.034Z" fill="#FBCD99"/>
<path d="M173.799 559.531C173.599 557.736 174.449 556.167 175.698 556.027C176.947 555.888 178.122 557.23 178.323 559.026C178.524 560.822 177.674 562.39 176.424 562.53C175.175 562.67 174 561.327 173.799 559.531Z" fill="#E6E6E6"/>
<path d="M171.016 580.739C170.816 578.944 171.666 577.375 172.915 577.235C174.164 577.096 175.339 578.438 175.54 580.234C175.741 582.03 174.891 583.598 173.641 583.738C172.392 583.878 171.217 582.535 171.016 580.739Z" fill="#4DDAC5"/>
<path d="M205.617 540.323C205.416 538.528 206.266 536.959 207.515 536.819C208.764 536.68 209.94 538.022 210.14 539.818C210.341 541.614 209.491 543.182 208.242 543.322C206.993 543.462 205.817 542.119 205.617 540.323Z" fill="#E6E6E6"/>
<path d="M226.363 398.756C226.163 396.961 227.013 395.392 228.262 395.252C229.511 395.113 230.686 396.455 230.887 398.251C231.088 400.047 230.238 401.615 228.988 401.755C227.739 401.895 226.564 400.552 226.363 398.756Z" fill="#E6E6E6"/>
<path d="M188.585 533.925C188.384 532.129 189.234 530.56 190.483 530.421C191.733 530.281 192.908 531.624 193.109 533.419C193.309 535.215 192.459 536.784 191.21 536.924C189.961 537.063 188.786 535.721 188.585 533.925Z" fill="#FBCD99"/>
<path d="M209.567 516.638C209.367 514.843 210.217 513.274 211.466 513.134C212.715 512.995 213.89 514.337 214.091 516.133C214.292 517.929 213.442 519.498 212.192 519.637C210.943 519.777 209.768 518.434 209.567 516.638Z" fill="#4DDAC5"/>
<path d="M135.763 376.756C135.563 374.961 136.413 373.392 137.662 373.252C138.911 373.113 140.086 374.455 140.287 376.251C140.488 378.047 139.638 379.615 138.389 379.755C137.139 379.895 135.964 378.552 135.763 376.756Z" fill="#4DDAC5"/>
<path d="M534.627 427.095C532.418 427.095 530.627 425.304 530.627 423.095C530.627 420.886 532.418 419.095 534.627 419.095C536.836 419.095 538.627 420.886 538.627 423.095C538.627 425.304 536.836 427.095 534.627 427.095Z" fill="white"/>
<path d="M30.1912 543.2C32.3018 542.548 34.5418 543.73 35.1945 545.84C35.8472 547.951 34.6654 550.191 32.5548 550.843C30.4443 551.496 28.2043 550.314 27.5516 548.204C26.8989 546.093 28.0807 543.853 30.1912 543.2Z" fill="white"/>
<path d="M632.627 465.095C631.523 465.095 630.627 464.199 630.627 463.095C630.627 461.99 631.523 461.095 632.627 461.095C633.732 461.095 634.627 461.99 634.627 463.095C634.627 464.199 633.732 465.095 632.627 465.095Z" fill="white"/>
<path d="M235.627 614.095C234.523 614.095 233.627 613.199 233.627 612.095C233.627 610.99 234.523 610.095 235.627 610.095C236.732 610.095 237.627 610.99 237.627 612.095C237.627 613.199 236.732 614.095 235.627 614.095Z" fill="white"/>
<path d="M493.627 522.095C492.523 522.095 491.627 521.199 491.627 520.095C491.627 518.99 492.523 518.095 493.627 518.095C494.732 518.095 495.627 518.99 495.627 520.095C495.627 521.199 494.732 522.095 493.627 522.095Z" fill="white"/>
<path d="M457.627 313.095C456.523 313.095 455.627 312.199 455.627 311.095C455.627 309.99 456.523 309.095 457.627 309.095C458.732 309.095 459.627 309.99 459.627 311.095C459.627 312.199 458.732 313.095 457.627 313.095Z" fill="white"/>
<path d="M137.435 629.362C138.49 629.035 139.61 629.626 139.937 630.682C140.263 631.737 139.672 632.857 138.617 633.183C137.562 633.51 136.442 632.919 136.115 631.863C135.789 630.808 136.38 629.688 137.435 629.362Z" fill="white"/>
<path d="M130.627 390.095C129.523 390.095 128.627 389.199 128.627 388.095C128.627 386.99 129.523 386.095 130.627 386.095C131.732 386.095 132.627 386.99 132.627 388.095C132.627 389.199 131.732 390.095 130.627 390.095Z" fill="white"/>
<path d="M427.088 459.188C428.143 458.861 429.263 459.452 429.589 460.508C429.916 461.563 429.325 462.683 428.27 463.009C427.214 463.335 426.094 462.745 425.768 461.689C425.442 460.634 426.033 459.514 427.088 459.188Z" fill="white"/>
<path d="M595.627 286.095C594.523 286.095 593.627 285.199 593.627 284.095C593.627 282.99 594.523 282.095 595.627 282.095C596.732 282.095 597.627 282.99 597.627 284.095C597.627 285.199 596.732 286.095 595.627 286.095Z" fill="white"/>
<path d="M231.627 276.095C229.418 276.095 227.627 274.304 227.627 272.095C227.627 269.886 229.418 268.095 231.627 268.095C233.836 268.095 235.627 269.886 235.627 272.095C235.627 274.304 233.836 276.095 231.627 276.095Z" fill="white"/>
<path d="M364.278 597.939C366.388 597.286 368.628 598.468 369.281 600.579C369.934 602.689 368.752 604.929 366.641 605.582C364.531 606.234 362.291 605.053 361.638 602.942C360.985 600.832 362.167 598.592 364.278 597.939Z" fill="white"/>
<path d="M332.627 363.095C310.536 363.095 292.627 345.186 292.627 323.095C292.627 301.003 310.536 283.095 332.627 283.095C354.719 283.095 372.627 301.003 372.627 323.095C372.627 345.186 354.719 363.095 332.627 363.095Z" fill="#F2F2F2"/>
<path d="M338.627 366.095C316.536 366.095 298.627 348.186 298.627 326.095C298.627 304.003 316.536 286.095 338.627 286.095C360.719 286.095 378.627 304.003 378.627 326.095C378.627 348.186 360.719 366.095 338.627 366.095Z" fill="#F2F2F2"/>
<path d="M294.628 764.04L332.12 764.039V763.564C332.12 759.694 330.582 755.983 327.846 753.246C325.109 750.509 321.397 748.972 317.527 748.972L310.678 743.776L297.9 748.972L294.627 748.973L294.628 764.04Z" fill="#3F3D56"/>
<path d="M312.081 743.791L344.114 763.273L344.36 762.868C346.371 759.561 346.986 755.591 346.07 751.831C345.154 748.071 342.782 744.828 339.476 742.817L336.324 734.819L322.707 732.618L319.911 730.917L312.081 743.791Z" fill="#3F3D56"/>
<path d="M290.057 637.565C290.227 638.765 290.477 642.845 290.767 648.785C292.177 677.585 294.627 750.095 294.627 750.095L309.897 745.345C309.897 745.345 328.057 690.565 325.057 660.565L327.217 650.125L330.917 632.285V632.275L342.187 577.945C342.187 577.945 344.657 592.665 344.857 596.115C345.057 599.565 347.057 600.565 348.057 600.565C353.067 600.565 351.527 599.675 350.797 604.625C350.267 608.185 354.607 628.595 357.087 639.755C358.047 644.095 358.727 647.035 358.727 647.035L354.487 656.175L319.337 731.975L332.627 739.095L385.647 660.515L390.877 652.765L391.997 644.075L400.817 575.705C400.817 575.705 403.567 567.975 400.817 567.775C398.057 567.565 396.497 568.435 397.277 565.505C398.057 562.565 382.057 513.565 382.057 513.565L299.057 531.565C299.057 531.565 290.877 547.825 294.057 555.565C297.247 563.305 291.447 623.245 294.757 625.905C298.057 628.565 300.187 626.435 295.627 631.005C294.93 631.733 294.106 632.329 293.197 632.765C290.377 634.045 289.257 631.965 290.057 637.565Z" fill="#F2F2F2"/>
<path d="M329.272 553.376C329.606 551.073 329.027 548.73 327.66 546.847C326.293 544.964 324.245 543.689 321.952 543.292C321.484 543.219 321.012 543.185 320.538 543.19L296.431 487.208L279.894 499.624L312.093 552.658C312.264 554.618 313.08 556.466 314.413 557.914C315.745 559.361 317.519 560.327 319.459 560.66C320.564 560.839 321.693 560.799 322.783 560.541C323.873 560.284 324.901 559.814 325.809 559.159C326.717 558.504 327.487 557.677 328.076 556.724C328.664 555.772 329.059 554.713 329.238 553.608C329.251 553.53 329.262 553.453 329.272 553.376Z" fill="#4DDAC5"/>
<path d="M396.803 557.939C395.181 556.27 394.274 554.035 394.275 551.708C394.276 549.38 395.185 547.146 396.809 545.478C397.144 545.145 397.507 544.839 397.892 544.566L384.538 485.095L405.214 485.436L410.288 547.271C411.3 548.958 411.725 550.933 411.496 552.888C411.267 554.842 410.398 556.665 409.024 558.074C408.235 558.868 407.297 559.498 406.263 559.929C405.23 560.361 404.122 560.584 403.002 560.587C401.883 560.59 400.773 560.373 399.738 559.947C398.702 559.521 397.761 558.896 396.967 558.106C396.912 558.051 396.857 557.996 396.803 557.939Z" fill="#4DDAC5"/>
<path d="M291.06 511.566C297.06 505.626 295.95 478.556 295.95 478.556C295.95 478.556 289.98 387.656 298.06 381.566C303.647 377.533 309.592 374.022 315.82 371.076C316.18 370.916 316.37 370.826 316.37 370.826L321.53 356.276L353.32 354.626L358.87 365.406C358.87 365.406 359.74 365.466 361.1 365.656C366.18 366.356 378.12 368.836 377.06 376.566C375.72 386.366 385.18 446.556 388.06 449.566C390.94 452.576 390.18 463.576 383.06 470.566C375.94 477.556 381.06 496.566 386.06 504.566C389.061 509.462 390.446 515.179 390.02 520.906C390.02 520.906 386.06 542.566 376.06 535.566C372.25 532.896 366.84 532.556 360.33 533.046C360.267 533.05 360.198 533.059 360.134 533.064L360.33 534.046C351.29 534.716 340.12 536.986 328.17 536.856L328.524 535.851C328.405 535.85 328.289 535.857 328.17 535.856C326.15 535.836 324.12 535.746 322.06 535.566C304.24 534.016 296.37 538.916 294.06 533.566C291.75 528.216 285.06 517.506 291.06 511.566Z" fill="#F2F2F2"/>
<path opacity="0.3" d="M342 355C325.431 355 312 341.568 312 325C312 308.431 325.431 295 342 295C358.569 295 372 308.431 372 325C372 341.568 358.569 355 342 355Z" fill="#4DDAC5"/>
<path d="M353.057 371.385C353.057 371.385 357.617 386.525 362.927 403.995C364.597 409.495 366.347 415.225 368.047 420.795C373.597 438.905 378.657 455.225 379.127 455.875C380.187 457.365 380.057 461.385 379.127 466.075C378.937 467.015 379.367 470.675 380.177 475.925C381.237 482.815 382.947 492.435 384.767 502.255C386.217 510.105 387.737 518.075 389.047 524.865C391.097 535.405 392.627 543.095 392.627 543.095H411.627C411.627 543.095 408.057 463.385 404.057 457.635C400.057 451.875 404.057 456.385 407.057 452.385C410.057 448.385 405.057 450.385 400.017 445.245C394.977 440.115 399.057 442.385 403.057 438.385C404.537 436.905 401.227 427.475 396.467 416.185C394.247 410.945 391.717 405.295 389.217 399.855C384.047 388.625 378.977 378.295 376.967 374.215C376.967 374.205 376.957 374.195 376.957 374.185L376.057 372.385L353.057 371.385Z" fill="#F2F2F2"/>
<path d="M311.627 375.095C332.506 383.205 351.278 384.603 366.627 375.095V357.095C348.55 367.941 330.21 367.645 311.627 357.095V375.095Z" fill="#3F3D56"/>
<path d="M295.627 490.095C327.895 498.205 356.906 499.603 380.627 490.095V472.095C352.69 482.941 324.346 482.645 295.627 472.095V490.095Z" fill="#3F3D56"/>
<path d="M263.557 458.385C266.557 462.385 270.557 457.875 266.557 463.635C263.807 467.595 279.567 504.715 289.657 527.455C294.217 537.745 297.627 545.095 297.627 545.095L314.637 535.245L316.627 534.095C316.627 534.095 301.027 494.835 296.007 480.725C295.177 478.385 294.627 476.735 294.497 476.075C293.557 471.385 293.437 467.365 294.497 465.875C294.748 465.319 294.962 464.748 295.137 464.165C297.147 458.275 303.267 438.385 308.997 419.575C310.667 414.055 312.317 408.635 313.817 403.685C317.667 390.975 320.557 381.385 320.557 381.385L297.557 382.385C297.557 382.385 297.177 383.025 296.507 384.185C294.907 386.945 291.627 392.635 287.827 399.475C285.087 404.395 282.067 409.925 279.217 415.365C271.957 429.205 265.707 442.535 267.557 444.385C271.557 448.385 275.647 446.115 270.607 451.245C265.557 456.385 260.557 454.385 263.557 458.385Z" fill="#F2F2F2"/>
<path d="M290.057 637.565C290.227 638.765 290.477 642.845 290.767 648.785C302.815 650.737 315.059 651.187 327.217 650.125L330.917 632.285C318.46 634.559 305.709 634.722 293.197 632.765C290.377 634.045 289.257 631.965 290.057 637.565Z" fill="#3F3D56"/>
<path d="M354.487 656.175C364.74 658.456 375.161 659.908 385.647 660.515L390.877 652.765L391.997 644.075C380.21 644.379 368.444 642.922 357.087 639.755C358.047 644.095 358.727 647.035 358.727 647.035L354.487 656.175Z" fill="#3F3D56"/>
<path d="M351.627 413.095C351.627 415.747 352.681 418.291 354.556 420.166C356.432 422.041 358.975 423.095 361.627 423.095C364.279 423.095 366.823 422.041 368.698 420.166C370.574 418.291 371.627 415.747 371.627 413.095C371.627 407.572 362.627 396.095 361.627 403.095C360.627 410.095 351.627 407.572 351.627 413.095Z" fill="#4DDAC5"/>
<path d="M360.54 396.139C360.9 396.109 361.26 396.099 361.63 396.099C365.983 396.105 370.169 397.778 373.327 400.774C376.485 403.77 378.376 407.862 378.61 412.209C378.62 412.499 378.63 412.799 378.63 413.099C378.63 413.509 378.62 413.909 378.58 414.309C378.329 417.869 376.962 421.259 374.675 423.999C372.388 426.738 369.297 428.688 365.839 429.571C362.382 430.454 358.734 430.226 355.413 428.919C352.093 427.612 349.268 425.292 347.34 422.289C346.953 421.697 346.605 421.079 346.3 420.439C345.098 417.932 344.529 415.168 344.645 412.39C344.76 409.611 345.555 406.904 346.961 404.505C348.367 402.106 350.341 400.088 352.708 398.63C355.076 397.171 357.765 396.316 360.54 396.139ZM348.8 421.999C350.368 423.886 352.328 425.408 354.544 426.461C356.759 427.515 359.177 428.074 361.63 428.099C365.283 428.094 368.808 426.758 371.547 424.341C374.286 421.925 376.05 418.593 376.51 414.969C376.59 414.349 376.631 413.725 376.63 413.099C376.632 413.013 376.628 412.926 376.62 412.839C376.551 408.908 374.942 405.161 372.139 402.405C369.335 399.648 365.562 398.102 361.63 398.099C361.54 398.339 361.45 398.569 361.35 398.789C357.08 408.889 347.82 408.129 346.63 413.099C346.054 415.502 346.404 418.033 347.61 420.189C347.949 420.829 348.347 421.435 348.8 421.999Z" fill="#FBCD99"/>
<path d="M258.146 314.621C257.946 312.826 258.796 311.257 260.045 311.117C261.294 310.978 262.469 312.32 262.67 314.116C262.871 315.911 262.021 317.48 260.771 317.62C259.522 317.76 258.347 316.417 258.146 314.621Z" fill="#E6E6E6"/>
<path d="M210.036 296.034C209.547 294.106 211.398 291.974 214.169 291.271C216.94 290.569 219.583 291.562 220.072 293.49C220.56 295.418 218.71 297.55 215.938 298.253C213.167 298.955 210.524 297.962 210.036 296.034Z" fill="#FBCD99"/>
<path d="M174.363 299.756C174.163 297.961 175.013 296.392 176.262 296.252C177.511 296.113 178.686 297.455 178.887 299.251C179.088 301.047 178.238 302.615 176.988 302.755C175.739 302.895 174.564 301.552 174.363 299.756Z" fill="#E6E6E6"/>
<path d="M199.363 327.829C199.163 326.033 200.013 324.465 201.262 324.325C202.511 324.185 203.686 325.528 203.887 327.324C204.088 329.119 203.238 330.688 201.988 330.828C200.739 330.967 199.564 329.625 199.363 327.829Z" fill="#4DDAC5"/>
<path d="M233.914 329.627C233.714 327.832 234.564 326.263 235.813 326.123C237.062 325.984 238.237 327.326 238.438 329.122C238.638 330.918 237.788 332.486 236.539 332.626C235.29 332.766 234.115 331.423 233.914 329.627Z" fill="#4DDAC5"/>
<path opacity="0.3" d="M169.462 711.677L21 588L165.228 716.631C165.507 717.102 165.895 717.499 166.358 717.79C166.822 718.08 167.348 718.257 167.893 718.303C168.438 718.35 168.986 718.266 169.493 718.059C169.999 717.852 170.448 717.526 170.804 717.11C171.159 716.694 171.41 716.2 171.536 715.667C171.662 715.135 171.66 714.58 171.529 714.049C171.397 713.518 171.141 713.026 170.782 712.613C170.422 712.201 169.97 711.88 169.462 711.677Z" fill="#F2F2F2"/>
<path d="M115 315C113.895 315 113 314.104 113 313C113 311.895 113.895 311 115 311C116.105 311 117 311.895 117 313C117 314.104 116.105 315 115 315Z" fill="white"/>
<path d="M557 255C555.895 255 555 254.105 555 253C555 251.895 555.895 251 557 251C558.105 251 559 251.895 559 253C559 254.105 558.105 255 557 255Z" fill="white"/>
</g>
<path opacity="0.3" d="M871.462 207.678L723 84.0002L867.228 212.632C867.507 213.102 867.895 213.499 868.358 213.79C868.822 214.081 869.348 214.257 869.893 214.304C870.438 214.351 870.986 214.267 871.493 214.06C871.999 213.852 872.448 213.527 872.804 213.111C873.159 212.695 873.41 212.2 873.536 211.668C873.662 211.136 873.66 210.581 873.529 210.05C873.397 209.519 873.141 209.026 872.782 208.614C872.422 208.201 871.97 207.881 871.462 207.678Z" fill="#F2F2F2"/>
<path d="M21.5064 297.504C85.5919 261.738 170.483 238.79 257.68 233.287C266.237 232.743 274.816 232.371 283.416 232.171C285.324 232.123 287.233 232.095 289.158 232.066C292.275 232.019 295.409 232 298.526 232C302.264 232 306.002 232.031 309.74 232.095C331.377 232.473 352.929 233.886 374.191 236.32C374.971 236.415 375.734 236.501 376.514 236.597C379.87 236.988 383.215 237.407 386.55 237.856C392.945 238.704 399.307 239.645 405.638 240.679C407.689 241.013 409.741 241.356 411.793 241.718C414.736 242.224 417.663 242.758 420.589 243.302C421.687 243.511 422.784 243.712 423.882 243.931C424.995 244.141 426.109 244.36 427.222 244.589C434.014 245.924 440.748 247.374 447.423 248.938C485.439 257.745 521.028 269.934 552.991 285.095C557.413 287.203 561.899 289.416 566.225 291.562C589.48 303.064 613.53 314.957 642.845 317.552C674.498 320.346 704.91 311.705 734.304 303.35C744.277 300.518 754.585 297.59 764.78 295.138C814.552 283.383 869.404 281.81 920.819 290.665C921.884 290.837 922.95 291.028 924 291.218V293.212C922.95 293.021 921.884 292.83 920.819 292.649C869.835 283.749 815.367 285.249 765.957 296.912C755.857 299.335 745.582 302.253 735.656 305.077C705.833 313.555 674.991 322.321 642.383 319.44C612.194 316.77 587.794 304.705 564.205 293.031C559.879 290.894 555.409 288.681 551.019 286.583C519.268 271.519 483.909 259.413 446.134 250.674H446.119C439.724 249.186 433.251 247.784 426.745 246.487C425.806 246.306 424.868 246.125 423.93 245.934C422.88 245.734 421.814 245.533 420.764 245.333C418.076 244.818 415.383 244.328 412.684 243.864C410.044 243.387 407.387 242.936 404.715 242.51H404.699C397.859 241.394 390.977 240.386 384.053 239.487C380.92 239.067 377.786 238.685 374.621 238.323C373.937 238.237 373.237 238.161 372.537 238.084C352.139 235.776 331.474 234.418 310.726 234.021H310.71C303.505 233.888 296.31 233.872 289.126 233.974C287.249 234.002 285.388 234.041 283.527 234.079C275.399 234.269 267.281 234.613 259.175 235.109H259.159C172.232 240.44 87.5484 263.254 23.6696 298.906C23.3592 299.077 22.9485 299.167 22.5276 299.156C22.1067 299.146 21.7097 299.036 21.4236 298.851C21.1375 298.665 20.9856 298.419 21.0011 298.167C21.0166 297.914 21.1983 297.676 21.5064 297.504Z" fill="url(#paint1_linear_1032_3438)"/>
<path d="M538.541 615.538C538.341 613.742 539.191 612.174 540.44 612.034C541.689 611.894 542.865 613.237 543.065 615.033C543.266 616.828 542.416 618.397 541.167 618.537C539.917 618.676 538.742 617.334 538.541 615.538Z" fill="#4DDAC5"/>
<path d="M458.363 233.857C458.163 232.061 459.013 230.493 460.262 230.353C461.511 230.213 462.686 231.556 462.887 233.352C463.088 235.147 462.238 236.716 460.989 236.856C459.739 236.995 458.564 235.653 458.363 233.857Z" fill="#4DDAC5"/>
<path d="M787.338 332.756C787.137 330.961 787.987 329.392 789.236 329.252C790.485 329.113 791.661 330.455 791.861 332.251C792.062 334.047 791.212 335.615 789.963 335.755C788.714 335.895 787.538 334.552 787.338 332.756Z" fill="#4DDAC5"/>
<path d="M731.338 324.756C731.137 322.961 731.987 321.392 733.236 321.252C734.485 321.113 735.661 322.455 735.861 324.251C736.062 326.047 735.212 327.615 733.963 327.755C732.714 327.895 731.538 326.552 731.338 324.756Z" fill="#4DDAC5"/>
<path d="M615 228.999C612.791 228.999 611 227.209 611 224.999C611 222.79 612.791 220.999 615 220.999C617.209 220.999 619 222.79 619 224.999C619 227.209 617.209 228.999 615 228.999Z" fill="white"/>
<path d="M713 266.999C711.896 266.999 711 266.104 711 264.999C711 263.895 711.896 262.999 713 262.999C714.105 262.999 715 263.895 715 264.999C715 266.104 714.105 266.999 713 266.999Z" fill="white"/>
<path d="M574 323.999C572.896 323.999 572 323.104 572 321.999C572 320.895 572.896 319.999 574 319.999C575.105 319.999 576 320.895 576 321.999C576 323.104 575.105 323.999 574 323.999Z" fill="white"/>
<path d="M23.0358 653.327C24.0911 653 25.2111 653.591 25.5374 654.647C25.8638 655.702 25.2729 656.822 24.2176 657.148C23.1623 657.475 22.0423 656.884 21.716 655.828C21.3896 654.773 21.9805 653.653 23.0358 653.327Z" fill="white"/>
<path d="M408.83 672.186C409.885 671.86 411.005 672.451 411.332 673.506C411.658 674.562 411.067 675.682 410.012 676.008C408.957 676.334 407.837 675.743 407.51 674.688C407.184 673.633 407.775 672.513 408.83 672.186Z" fill="white"/>
<path d="M676 88.0002C674.896 88.0002 674 87.1048 674 86.0002C674 84.8957 674.896 84.0002 676 84.0002C677.105 84.0002 678 84.8957 678 86.0002C678 87.1048 677.105 88.0002 676 88.0002Z" fill="white"/>
<path d="M440 91.7138C438.895 91.7138 438 90.8183 438 89.7138C438 88.6092 438.895 87.7138 440 87.7138C441.105 87.7138 442 88.6092 442 89.7138C442 90.8183 441.105 91.7138 440 91.7138Z" fill="white"/>
<path d="M312 78.0002C309.791 78.0002 308 76.2094 308 74.0002C308 71.7911 309.791 70.0002 312 70.0002C314.209 70.0002 316 71.7911 316 74.0002C316 76.2094 314.209 78.0002 312 78.0002Z" fill="white"/>
<path d="M148 55C145.791 55 144 53.2091 144 51C144 48.7909 145.791 47 148 47C150.209 47 152 48.7909 152 51C152 53.2091 150.209 55 148 55Z" fill="white"/>
<path d="M57.5461 217.918C57.3455 216.122 58.1955 214.553 59.4447 214.414C60.6938 214.274 61.8692 215.617 62.0698 217.412C62.2704 219.208 61.4204 220.777 60.1713 220.917C58.9221 221.056 57.7468 219.714 57.5461 217.918Z" fill="#E6E6E6"/>
<path d="M568.172 54.65C567.971 52.8543 568.821 51.2855 570.071 51.1459C571.32 51.0063 572.495 52.3488 572.696 54.1445C572.896 55.9402 572.046 57.5091 570.797 57.6487C569.548 57.7882 568.373 56.4457 568.172 54.65Z" fill="#E6E6E6"/>
<path d="M332.172 58.3635C331.971 56.5678 332.821 54.999 334.071 54.8594C335.32 54.7198 336.495 56.0624 336.696 57.8581C336.896 59.6537 336.046 61.2226 334.797 61.3622C333.548 61.5018 332.373 60.1592 332.172 58.3635Z" fill="#E6E6E6"/>
<path d="M54.7632 239.126C54.5625 237.33 55.4125 235.761 56.6617 235.622C57.9109 235.482 59.0862 236.825 59.2868 238.62C59.4875 240.416 58.6375 241.985 57.3883 242.124C56.1391 242.264 54.9638 240.921 54.7632 239.126Z" fill="#4DDAC5"/>
<path d="M454.363 299.756C454.163 297.961 455.013 296.392 456.262 296.252C457.511 296.113 458.686 297.455 458.887 299.251C459.088 301.047 458.238 302.615 456.989 302.755C455.739 302.895 454.564 301.552 454.363 299.756Z" fill="#4DDAC5"/>
<path d="M597.363 93.7571C597.163 91.9614 598.013 90.3926 599.262 90.253C600.511 90.1134 601.686 91.456 601.887 93.2516C602.088 95.0473 601.238 96.6162 599.989 96.7558C598.739 96.8953 597.564 95.5528 597.363 93.7571Z" fill="#4DDAC5"/>
<path d="M361.363 97.4706C361.163 95.675 362.013 94.1061 363.262 93.9665C364.511 93.827 365.686 95.1695 365.887 96.9652C366.088 98.7609 365.238 100.33 363.988 100.469C362.739 100.609 361.564 99.2663 361.363 97.4706Z" fill="#4DDAC5"/>
<path d="M894.363 174.756C894.163 172.961 895.013 171.392 896.262 171.252C897.511 171.113 898.686 172.455 898.887 174.251C899.088 176.047 898.238 177.615 896.989 177.755C895.739 177.895 894.564 176.552 894.363 174.756Z" fill="#4DDAC5"/>
<path d="M90.8848 97.0344C90.3962 95.1065 92.2468 92.9742 95.0182 92.2719C97.7895 91.5696 100.432 92.5631 100.921 94.491C101.409 96.4189 99.5588 98.5512 96.7874 99.2535C94.0161 99.9558 91.3734 98.9623 90.8848 97.0344Z" fill="white"/>
<path d="M526.412 7.98377C525.924 6.05586 527.774 3.92364 530.546 3.22131C533.317 2.51899 535.96 3.51252 536.448 5.44043C536.937 7.36834 535.086 9.50056 532.315 10.2029C529.544 10.9052 526.901 9.91168 526.412 7.98377Z" fill="white"/>
<path d="M49.6299 171.034C49.1414 169.106 50.9919 166.973 53.7633 166.271C56.5346 165.569 59.1773 166.562 59.6659 168.49C60.1545 170.418 58.3039 172.55 55.5326 173.253C52.7612 173.955 50.1185 172.961 49.6299 171.034Z" fill="#227B9B"/>
<path d="M560.256 7.76557C559.768 5.83766 561.618 3.70544 564.389 3.00311C567.161 2.30079 569.804 3.29432 570.292 5.22223C570.781 7.15014 568.93 9.28236 566.159 9.98468C563.387 10.687 560.745 9.69348 560.256 7.76557Z" fill="#3F3D56"/>
<path d="M49.8848 120.775C49.3962 118.847 51.2468 116.715 54.0182 116.013C56.7895 115.311 59.4322 116.304 59.9208 118.232C60.4094 120.16 58.5588 122.292 55.7874 122.995C53.0161 123.697 50.3734 122.703 49.8848 120.775Z" fill="#FBCD99"/>
<path d="M520.061 36.062C519.573 34.1341 521.423 32.0019 524.195 31.2996C526.966 30.5972 529.609 31.5908 530.097 33.5187C530.586 35.4466 528.735 37.5788 525.964 38.2811C523.193 38.9835 520.55 37.9899 520.061 36.062Z" fill="#FBCD99"/>
<path d="M258.885 122.776C258.396 120.848 260.247 118.715 263.018 118.013C265.789 117.311 268.432 118.304 268.921 120.232C269.409 122.16 267.559 124.292 264.787 124.995C262.016 125.697 259.373 124.703 258.885 122.776Z" fill="#FBCD99"/>
<path d="M72.1721 171.649C71.9715 169.854 72.8215 168.285 74.0706 168.145C75.3198 168.006 76.4951 169.348 76.6958 171.144C76.8964 172.94 76.0464 174.508 74.7972 174.648C73.5481 174.788 72.3728 173.445 72.1721 171.649Z" fill="#E6E6E6"/>
<path d="M512.172 46.6499C511.971 44.8542 512.821 43.2854 514.071 43.1458C515.32 43.0062 516.495 44.3487 516.696 46.1444C516.896 47.9401 516.046 49.509 514.797 49.6485C513.548 49.7881 512.373 48.4456 512.172 46.6499Z" fill="#E6E6E6"/>
<path d="M276.172 50.3634C275.971 48.5677 276.821 46.9989 278.071 46.8593C279.32 46.7197 280.495 48.0623 280.696 49.8579C280.896 51.6536 280.046 53.2225 278.797 53.3621C277.548 53.5017 276.373 52.1591 276.172 50.3634Z" fill="#E6E6E6"/>
<path d="M69.3892 192.857C69.1885 191.061 70.0385 189.493 71.2877 189.353C72.5369 189.213 73.7122 190.556 73.9128 192.352C74.1135 194.147 73.2635 195.716 72.0143 195.856C70.7651 195.995 69.5898 194.653 69.3892 192.857Z" fill="#4DDAC5"/>
<path d="M398.363 291.756C398.163 289.961 399.013 288.392 400.262 288.252C401.511 288.113 402.686 289.455 402.887 291.251C403.088 293.047 402.238 294.615 400.989 294.755C399.739 294.895 398.564 293.552 398.363 291.756Z" fill="#4DDAC5"/>
<path d="M509.389 67.858C509.189 66.0623 510.039 64.4934 511.288 64.3539C512.537 64.2143 513.712 65.5568 513.913 67.3525C514.114 69.1482 513.264 70.717 512.014 70.8566C510.765 70.9962 509.59 69.6537 509.389 67.858Z" fill="#227B9B"/>
<path d="M273.389 71.5715C273.189 69.7758 274.039 68.207 275.288 68.0674C276.537 67.9278 277.712 69.2704 277.913 71.066C278.113 72.8617 277.263 74.4306 276.014 74.5701C274.765 74.7097 273.59 73.3672 273.389 71.5715Z" fill="#227B9B"/>
<path d="M33.3635 190.71C33.1629 188.914 34.0129 187.345 35.2621 187.206C36.5112 187.066 37.6865 188.409 37.8872 190.204C38.0878 192 37.2378 193.569 35.9887 193.708C34.7395 193.848 33.5642 192.506 33.3635 190.71Z" fill="#E6E6E6"/>
<path d="M543.989 27.4417C543.789 25.646 544.639 24.0772 545.888 23.9376C547.137 23.798 548.313 25.1405 548.513 26.9362C548.714 28.7319 547.864 30.3007 546.615 30.4403C545.365 30.5799 544.19 29.2374 543.989 27.4417Z" fill="#E6E6E6"/>
<path d="M307.989 31.1552C307.789 29.3595 308.639 27.7907 309.888 27.6511C311.137 27.5115 312.312 28.8541 312.513 30.6498C312.714 32.4454 311.864 34.0143 310.615 34.1539C309.365 34.2934 308.19 32.9509 307.989 31.1552Z" fill="#E6E6E6"/>
<path d="M56.781 105.757C56.5804 103.961 57.4304 102.392 58.6795 102.253C59.9287 102.113 61.104 103.456 61.3047 105.252C61.5053 107.047 60.6553 108.616 59.4061 108.756C58.157 108.895 56.9816 107.553 56.781 105.757Z" fill="#FBCD99"/>
<path d="M526.958 21.0433C526.757 19.2476 527.607 17.6788 528.856 17.5392C530.106 17.3996 531.281 18.7422 531.482 20.5378C531.682 22.3335 530.832 23.9024 529.583 24.0419C528.334 24.1815 527.159 22.839 526.958 21.0433Z" fill="#FBCD99"/>
<path d="M265.781 107.757C265.58 105.961 266.43 104.392 267.68 104.253C268.929 104.113 270.104 105.456 270.305 107.251C270.505 109.047 269.655 110.616 268.406 110.755C267.157 110.895 265.982 109.553 265.781 107.757Z" fill="#FBCD99"/>
<path d="M48.3635 77.7571C48.1629 75.9614 49.0129 74.3925 50.2621 74.2529C51.5112 74.1134 52.6865 75.4559 52.8872 77.2516C53.0878 79.0473 52.2378 80.6161 50.9887 80.7557C49.7395 80.8953 48.5642 79.5527 48.3635 77.7571Z" fill="#4DDAC5"/>
<path d="M547.94 3.75684C547.74 1.96115 548.59 0.392316 549.839 0.252735C551.088 0.113155 552.263 1.45569 552.464 3.25137C552.664 5.04706 551.814 6.6159 550.565 6.75548C549.316 6.89506 548.141 5.55253 547.94 3.75684Z" fill="#3F3D56"/>
<path d="M39.0002 135.213C37.8957 135.213 37.0002 134.317 37.0002 133.213C37.0002 132.108 37.8957 131.213 39.0002 131.213C40.1048 131.213 41.0002 132.108 41.0002 133.213C41.0002 134.317 40.1048 135.213 39.0002 135.213Z" fill="white"/>
<path d="M479 10.2133C477.896 10.2133 477 9.31783 477 8.21326C477 7.10869 477.896 6.21326 479 6.21326C480.105 6.21326 481 7.10869 481 8.21326C481 9.31783 480.105 10.2133 479 10.2133Z" fill="white"/>
<path d="M781.513 18.598C747.419 48.2969 698.85 74.0406 646.441 90.4276C641.298 92.0378 636.119 93.5557 630.902 94.9813C629.745 95.2994 628.584 95.607 627.415 95.9171C625.52 96.42 623.612 96.9094 621.711 97.3858C619.431 97.957 617.147 98.5104 614.859 99.0462C601.611 102.142 588.271 104.649 574.965 106.543C574.476 106.609 573.998 106.678 573.51 106.744C571.409 107.039 569.31 107.317 567.213 107.577C563.196 108.082 559.184 108.53 555.18 108.922C553.882 109.05 552.583 109.172 551.281 109.284C549.416 109.453 547.556 109.603 545.696 109.747C544.997 109.798 544.3 109.854 543.6 109.9C542.892 109.953 542.182 110.001 541.471 110.044C537.143 110.339 532.834 110.561 528.545 110.71C504.133 111.618 480.73 110.272 459.123 106.717C456.133 106.22 453.089 105.674 450.151 105.141C434.365 102.292 418.04 99.3475 399.801 102.383C380.108 105.664 362.766 115.121 346.006 124.263C340.319 127.363 334.441 130.568 328.565 133.49C299.852 147.638 266.621 156.895 234.031 159.823C233.357 159.89 232.681 159.947 232.014 160.001L231.736 158.892C232.403 158.838 233.079 158.781 233.754 158.719C266.087 155.882 299.095 146.724 327.6 132.683C333.422 129.791 339.281 126.596 344.94 123.509C361.946 114.232 379.532 104.641 399.819 101.262C418.602 98.1348 435.165 101.121 451.178 104.014C454.114 104.542 457.149 105.091 460.119 105.588C481.582 109.121 504.834 110.455 529.089 109.547L529.099 109.545C533.206 109.396 537.349 109.187 541.497 108.915C542.095 108.872 542.693 108.83 543.292 108.792C543.96 108.744 544.638 108.692 545.306 108.643C547.017 108.519 548.728 108.38 550.438 108.226C552.115 108.088 553.798 107.933 555.487 107.762L555.496 107.76C559.823 107.336 564.161 106.845 568.509 106.288C570.478 106.042 572.443 105.776 574.423 105.494C574.852 105.437 575.29 105.373 575.727 105.308C588.489 103.476 601.281 101.074 613.989 98.1246L613.998 98.1222C618.411 97.0955 622.801 96.0049 627.168 94.8505C628.309 94.5478 629.438 94.2422 630.568 93.9366C635.498 92.5884 640.401 91.1569 645.275 89.6422L645.285 89.6397C697.553 73.3896 746.014 47.7519 779.998 18.1482C780.164 18.0057 780.402 17.8928 780.66 17.8342C780.918 17.7756 781.175 17.7762 781.376 17.8356C781.576 17.8951 781.703 18.0087 781.729 18.1516C781.754 18.2945 781.677 18.455 781.513 18.598Z" fill="url(#paint2_linear_1032_3438)"/>
<path d="M897.513 14.5975C863.419 44.2964 814.85 70.0401 762.441 86.4271C757.298 88.0373 752.119 89.5552 746.902 90.9808C745.745 91.299 744.585 91.6065 743.415 91.9166C741.52 92.4195 739.612 92.9089 737.711 93.3853C735.431 93.9565 733.147 94.5099 730.859 95.0457C717.611 98.1413 704.271 100.648 690.965 102.543C690.476 102.609 689.999 102.677 689.51 102.743C687.409 103.039 685.31 103.316 683.214 103.576C679.196 104.081 675.185 104.53 671.18 104.922C669.882 105.05 668.583 105.172 667.281 105.284C665.416 105.452 663.557 105.602 661.696 105.747C660.997 105.798 660.3 105.854 659.6 105.899C658.892 105.953 658.182 106.001 657.471 106.044C653.143 106.338 648.835 106.56 644.546 106.71C620.133 107.617 596.73 106.271 575.124 102.717C572.133 102.22 569.089 101.673 566.151 101.14C550.366 98.2916 534.04 95.347 515.801 98.3826C496.108 101.664 478.767 111.121 462.006 120.262C456.319 123.363 450.442 126.567 444.566 129.49C415.853 143.638 382.621 152.895 350.031 155.823C349.357 155.89 348.681 155.947 348.014 156.001L347.736 154.891C348.403 154.837 349.079 154.78 349.755 154.719C382.088 151.881 415.095 142.724 443.6 128.682C449.422 125.79 455.281 122.596 460.941 119.508C477.946 110.232 495.532 100.64 515.819 97.2611C534.602 94.1343 551.165 97.1209 567.178 100.014C570.115 100.542 573.149 101.09 576.119 101.588C597.583 105.12 620.834 106.455 645.089 105.547L645.099 105.544C649.206 105.395 653.349 105.186 657.498 104.914C658.095 104.872 658.693 104.829 659.292 104.792C659.96 104.743 660.638 104.692 661.306 104.643C663.017 104.519 664.728 104.38 666.438 104.226C668.115 104.087 669.798 103.933 671.487 103.762L671.497 103.759C675.823 103.335 680.161 102.844 684.509 102.287C686.479 102.042 688.443 101.775 690.424 101.493C690.853 101.437 691.29 101.372 691.728 101.308C704.489 99.4755 717.281 97.0738 729.989 94.1241L729.999 94.1217C734.411 93.095 738.801 92.0044 743.168 90.85C744.309 90.5473 745.439 90.2417 746.568 89.9361C751.498 88.5879 756.401 87.1564 761.275 85.6417L761.285 85.6392C813.553 69.3891 862.015 43.7514 895.999 14.1477C896.164 14.0052 896.402 13.8923 896.66 13.8337C896.918 13.7751 897.176 13.7757 897.376 13.8352C897.576 13.8946 897.703 14.0082 897.729 14.1511C897.755 14.294 897.677 14.4545 897.513 14.5975Z" fill="url(#paint3_linear_1032_3438)"/>
<path d="M486.338 370.518C529.133 407.91 585.821 431.9 644.049 437.653C649.763 438.222 655.492 438.611 661.235 438.82C662.509 438.87 663.784 438.9 665.069 438.93C667.151 438.979 669.243 438.999 671.325 438.999C673.821 438.999 676.317 438.966 678.813 438.9C693.262 438.504 707.654 437.027 721.852 434.483C722.373 434.383 722.883 434.293 723.403 434.193C725.644 433.785 727.878 433.346 730.105 432.877C734.375 431.99 738.624 431.006 742.851 429.926C744.221 429.577 745.592 429.218 746.962 428.839C748.927 428.31 750.881 427.752 752.836 427.184C753.569 426.964 754.301 426.755 755.034 426.526C755.778 426.306 756.521 426.077 757.265 425.838C761.8 424.442 766.297 422.926 770.754 421.291C796.141 412.084 819.906 399.341 841.25 383.49C844.203 381.287 847.198 378.973 850.087 376.73C865.616 364.705 881.676 352.271 901.252 349.559C922.389 346.637 942.698 355.671 962.326 364.406C968.986 367.367 975.869 370.428 982.678 372.991C1015.91 385.281 1052.54 386.925 1086.88 377.667C1087.59 377.488 1088.3 377.288 1089 377.089V375.005C1088.3 375.204 1087.59 375.404 1086.88 375.593C1052.83 384.897 1016.46 383.33 983.464 371.136C976.719 368.603 969.857 365.552 963.229 362.601C943.314 353.736 922.718 344.573 900.944 347.584C880.784 350.376 864.49 362.99 848.739 375.194C845.849 377.428 842.865 379.741 839.933 381.935C818.731 397.684 795.119 410.34 769.894 419.476H769.883C765.613 421.031 761.29 422.497 756.946 423.853C756.32 424.043 755.693 424.232 755.066 424.432C754.365 424.641 753.654 424.85 752.952 425.06C751.157 425.598 749.359 426.11 747.557 426.595C745.793 427.094 744.02 427.566 742.235 428.011H742.225C737.657 429.178 733.062 430.232 728.438 431.172C726.345 431.611 724.253 432.01 722.139 432.389C721.682 432.478 721.215 432.558 720.748 432.638C707.126 435.051 693.327 436.471 679.472 436.886H679.461C674.65 437.025 669.845 437.042 665.048 436.935C663.794 436.906 662.552 436.866 661.309 436.826C655.881 436.626 650.461 436.267 645.047 435.749H645.037C586.989 430.175 530.44 406.324 487.783 369.052C487.576 368.874 487.301 368.779 487.02 368.79C486.739 368.801 486.474 368.916 486.283 369.11C486.092 369.304 485.991 369.561 486.001 369.824C486.011 370.088 486.133 370.338 486.338 370.518Z" fill="url(#paint4_linear_1032_3438)"/>
<path d="M108.815 173.74H121.135V181H99.41V142.39H108.815V173.74ZM123.751 165.6C123.751 162.446 124.338 159.678 125.511 157.295C126.721 154.911 128.353 153.078 130.406 151.795C132.459 150.511 134.751 149.87 137.281 149.87C139.444 149.87 141.333 150.31 142.946 151.19C144.596 152.07 145.861 153.225 146.741 154.655V150.31H156.146V181H146.741V176.655C145.824 178.085 144.541 179.24 142.891 180.12C141.278 181 139.389 181.44 137.226 181.44C134.733 181.44 132.459 180.798 130.406 179.515C128.353 178.195 126.721 176.343 125.511 173.96C124.338 171.54 123.751 168.753 123.751 165.6ZM146.741 165.655C146.741 163.308 146.081 161.456 144.761 160.1C143.478 158.743 141.901 158.065 140.031 158.065C138.161 158.065 136.566 158.743 135.246 160.1C133.963 161.42 133.321 163.253 133.321 165.6C133.321 167.946 133.963 169.816 135.246 171.21C136.566 172.566 138.161 173.245 140.031 173.245C141.901 173.245 143.478 172.566 144.761 171.21C146.081 169.853 146.741 168.001 146.741 165.655ZM194.295 181L186.265 166.425H184.01V181H174.605V142.39H190.39C193.434 142.39 196.019 142.921 198.145 143.985C200.309 145.048 201.922 146.515 202.985 148.385C204.049 150.218 204.58 152.271 204.58 154.545C204.58 157.111 203.847 159.403 202.38 161.42C200.95 163.436 198.824 164.866 196 165.71L204.91 181H194.295ZM184.01 159.77H189.84C191.564 159.77 192.847 159.348 193.69 158.505C194.57 157.661 195.01 156.47 195.01 154.93C195.01 153.463 194.57 152.308 193.69 151.465C192.847 150.621 191.564 150.2 189.84 150.2H184.01V159.77ZM240.789 150.31V181H231.384V176.82C230.431 178.176 229.129 179.276 227.479 180.12C225.866 180.926 224.069 181.33 222.089 181.33C219.743 181.33 217.671 180.816 215.874 179.79C214.078 178.726 212.684 177.205 211.694 175.225C210.704 173.245 210.209 170.916 210.209 168.24V150.31H219.559V166.975C219.559 169.028 220.091 170.623 221.154 171.76C222.218 172.896 223.648 173.465 225.444 173.465C227.278 173.465 228.726 172.896 229.789 171.76C230.853 170.623 231.384 169.028 231.384 166.975V150.31H240.789ZM264.65 173.025V181H259.865C256.455 181 253.796 180.175 251.89 178.525C249.983 176.838 249.03 174.106 249.03 170.33V158.12H245.29V150.31H249.03V142.83H258.435V150.31H264.595V158.12H258.435V170.44C258.435 171.356 258.655 172.016 259.095 172.42C259.535 172.823 260.268 173.025 261.295 173.025H264.65ZM268.019 165.6C268.019 162.446 268.605 159.678 269.779 157.295C270.989 154.911 272.62 153.078 274.674 151.795C276.727 150.511 279.019 149.87 281.549 149.87C283.712 149.87 285.6 150.31 287.214 151.19C288.864 152.07 290.129 153.225 291.009 154.655V150.31H300.414V181H291.009V176.655C290.092 178.085 288.809 179.24 287.159 180.12C285.545 181 283.657 181.44 281.494 181.44C279 181.44 276.727 180.798 274.674 179.515C272.62 178.195 270.989 176.343 269.779 173.96C268.605 171.54 268.019 168.753 268.019 165.6ZM291.009 165.655C291.009 163.308 290.349 161.456 289.029 160.1C287.745 158.743 286.169 158.065 284.299 158.065C282.429 158.065 280.834 158.743 279.514 160.1C278.23 161.42 277.589 163.253 277.589 165.6C277.589 167.946 278.23 169.816 279.514 171.21C280.834 172.566 282.429 173.245 284.299 173.245C286.169 173.245 287.745 172.566 289.029 171.21C290.349 169.853 291.009 168.001 291.009 165.655ZM317.003 165.6C317.003 162.446 317.59 159.678 318.763 157.295C319.973 154.911 321.605 153.078 323.658 151.795C325.711 150.511 328.003 149.87 330.533 149.87C332.55 149.87 334.383 150.291 336.033 151.135C337.72 151.978 339.04 153.115 339.993 154.545V140.3H349.398V181H339.993V176.6C339.113 178.066 337.848 179.24 336.198 180.12C334.585 181 332.696 181.44 330.533 181.44C328.003 181.44 325.711 180.798 323.658 179.515C321.605 178.195 319.973 176.343 318.763 173.96C317.59 171.54 317.003 168.753 317.003 165.6ZM339.993 165.655C339.993 163.308 339.333 161.456 338.013 160.1C336.73 158.743 335.153 158.065 333.283 158.065C331.413 158.065 329.818 158.743 328.498 160.1C327.215 161.42 326.573 163.253 326.573 165.6C326.573 167.946 327.215 169.816 328.498 171.21C329.818 172.566 331.413 173.245 333.283 173.245C335.153 173.245 336.73 172.566 338.013 171.21C339.333 169.853 339.993 168.001 339.993 165.655ZM385.132 165.16C385.132 166.04 385.077 166.956 384.967 167.91H363.682C363.829 169.816 364.434 171.283 365.497 172.31C366.597 173.3 367.935 173.795 369.512 173.795C371.859 173.795 373.49 172.805 374.407 170.825H384.417C383.904 172.841 382.969 174.656 381.612 176.27C380.292 177.883 378.624 179.148 376.607 180.065C374.59 180.981 372.335 181.44 369.842 181.44C366.835 181.44 364.159 180.798 361.812 179.515C359.465 178.231 357.632 176.398 356.312 174.015C354.992 171.631 354.332 168.845 354.332 165.655C354.332 162.465 354.974 159.678 356.257 157.295C357.577 154.911 359.41 153.078 361.757 151.795C364.104 150.511 366.799 149.87 369.842 149.87C372.812 149.87 375.452 150.493 377.762 151.74C380.072 152.986 381.869 154.765 383.152 157.075C384.472 159.385 385.132 162.08 385.132 165.16ZM375.507 162.685C375.507 161.071 374.957 159.788 373.857 158.835C372.757 157.881 371.382 157.405 369.732 157.405C368.155 157.405 366.817 157.863 365.717 158.78C364.654 159.696 363.994 160.998 363.737 162.685H375.507ZM399.499 140.3V181H390.094V140.3H399.499ZM447.395 154.82C447.395 157.056 446.881 159.11 445.855 160.98C444.828 162.813 443.251 164.298 441.125 165.435C438.998 166.571 436.358 167.14 433.205 167.14H427.375V181H417.97V142.39H433.205C436.285 142.39 438.888 142.921 441.015 143.985C443.141 145.048 444.736 146.515 445.8 148.385C446.863 150.255 447.395 152.4 447.395 154.82ZM432.49 159.66C434.286 159.66 435.625 159.238 436.505 158.395C437.385 157.551 437.825 156.36 437.825 154.82C437.825 153.28 437.385 152.088 436.505 151.245C435.625 150.401 434.286 149.98 432.49 149.98H427.375V159.66H432.49ZM461.696 155.425C462.796 153.738 464.171 152.418 465.821 151.465C467.471 150.475 469.304 149.98 471.321 149.98V159.935H468.736C466.389 159.935 464.629 160.448 463.456 161.475C462.283 162.465 461.696 164.225 461.696 166.755V181H452.291V150.31H461.696V155.425ZM489.786 181.44C486.78 181.44 484.066 180.798 481.646 179.515C479.263 178.231 477.375 176.398 475.981 174.015C474.625 171.631 473.946 168.845 473.946 165.655C473.946 162.501 474.643 159.733 476.036 157.35C477.43 154.93 479.336 153.078 481.756 151.795C484.176 150.511 486.89 149.87 489.896 149.87C492.903 149.87 495.616 150.511 498.036 151.795C500.456 153.078 502.363 154.93 503.756 157.35C505.15 159.733 505.846 162.501 505.846 165.655C505.846 168.808 505.131 171.595 503.701 174.015C502.308 176.398 500.383 178.231 497.926 179.515C495.506 180.798 492.793 181.44 489.786 181.44ZM489.786 173.3C491.583 173.3 493.105 172.64 494.351 171.32C495.635 170 496.276 168.111 496.276 165.655C496.276 163.198 495.653 161.31 494.406 159.99C493.196 158.67 491.693 158.01 489.896 158.01C488.063 158.01 486.541 158.67 485.331 159.99C484.121 161.273 483.516 163.161 483.516 165.655C483.516 168.111 484.103 170 485.276 171.32C486.486 172.64 487.99 173.3 489.786 173.3ZM522.496 149.87C524.659 149.87 526.547 150.31 528.161 151.19C529.811 152.07 531.076 153.225 531.956 154.655V150.31H541.361V180.945C541.361 183.768 540.792 186.316 539.656 188.59C538.556 190.9 536.851 192.733 534.541 194.09C532.267 195.446 529.426 196.125 526.016 196.125C521.469 196.125 517.784 195.043 514.961 192.88C512.137 190.753 510.524 187.856 510.121 184.19H519.416C519.709 185.363 520.406 186.28 521.506 186.94C522.606 187.636 523.962 187.985 525.576 187.985C527.519 187.985 529.059 187.416 530.196 186.28C531.369 185.18 531.956 183.401 531.956 180.945V176.6C531.039 178.03 529.774 179.203 528.161 180.12C526.547 181 524.659 181.44 522.496 181.44C519.966 181.44 517.674 180.798 515.621 179.515C513.567 178.195 511.936 176.343 510.726 173.96C509.552 171.54 508.966 168.753 508.966 165.6C508.966 162.446 509.552 159.678 510.726 157.295C511.936 154.911 513.567 153.078 515.621 151.795C517.674 150.511 519.966 149.87 522.496 149.87ZM531.956 165.655C531.956 163.308 531.296 161.456 529.976 160.1C528.692 158.743 527.116 158.065 525.246 158.065C523.376 158.065 521.781 158.743 520.461 160.1C519.177 161.42 518.536 163.253 518.536 165.6C518.536 167.946 519.177 169.816 520.461 171.21C521.781 172.566 523.376 173.245 525.246 173.245C527.116 173.245 528.692 172.566 529.976 171.21C531.296 169.853 531.956 168.001 531.956 165.655ZM557.57 155.425C558.67 153.738 560.045 152.418 561.695 151.465C563.345 150.475 565.178 149.98 567.195 149.98V159.935H564.61C562.263 159.935 560.503 160.448 559.33 161.475C558.157 162.465 557.57 164.225 557.57 166.755V181H548.165V150.31H557.57V155.425ZM569.82 165.6C569.82 162.446 570.407 159.678 571.58 157.295C572.79 154.911 574.422 153.078 576.475 151.795C578.529 150.511 580.82 149.87 583.35 149.87C585.514 149.87 587.402 150.31 589.015 151.19C590.665 152.07 591.93 153.225 592.81 154.655V150.31H602.215V181H592.81V176.655C591.894 178.085 590.61 179.24 588.96 180.12C587.347 181 585.459 181.44 583.295 181.44C580.802 181.44 578.529 180.798 576.475 179.515C574.422 178.195 572.79 176.343 571.58 173.96C570.407 171.54 569.82 168.753 569.82 165.6ZM592.81 165.655C592.81 163.308 592.15 161.456 590.83 160.1C589.547 158.743 587.97 158.065 586.1 158.065C584.23 158.065 582.635 158.743 581.315 160.1C580.032 161.42 579.39 163.253 579.39 165.6C579.39 167.946 580.032 169.816 581.315 171.21C582.635 172.566 584.23 173.245 586.1 173.245C587.97 173.245 589.547 172.566 590.83 171.21C592.15 169.853 592.81 168.001 592.81 165.655ZM648.179 149.98C651.993 149.98 655.018 151.135 657.254 153.445C659.528 155.755 660.664 158.963 660.664 163.07V181H651.314V164.335C651.314 162.355 650.783 160.833 649.719 159.77C648.693 158.67 647.263 158.12 645.429 158.12C643.596 158.12 642.148 158.67 641.084 159.77C640.058 160.833 639.544 162.355 639.544 164.335V181H630.194V164.335C630.194 162.355 629.663 160.833 628.599 159.77C627.573 158.67 626.143 158.12 624.309 158.12C622.476 158.12 621.028 158.67 619.964 159.77C618.938 160.833 618.424 162.355 618.424 164.335V181H609.019V150.31H618.424V154.16C619.378 152.876 620.624 151.868 622.164 151.135C623.704 150.365 625.446 149.98 627.389 149.98C629.699 149.98 631.753 150.475 633.549 151.465C635.383 152.455 636.813 153.866 637.839 155.7C638.903 154.013 640.351 152.638 642.184 151.575C644.018 150.511 646.016 149.98 648.179 149.98ZM665.372 165.6C665.372 162.446 665.959 159.678 667.132 157.295C668.342 154.911 669.974 153.078 672.027 151.795C674.08 150.511 676.372 149.87 678.902 149.87C681.065 149.87 682.954 150.31 684.567 151.19C686.217 152.07 687.482 153.225 688.362 154.655V150.31H697.767V181H688.362V176.655C687.445 178.085 686.162 179.24 684.512 180.12C682.899 181 681.01 181.44 678.847 181.44C676.354 181.44 674.08 180.798 672.027 179.515C669.974 178.195 668.342 176.343 667.132 173.96C665.959 171.54 665.372 168.753 665.372 165.6ZM688.362 165.655C688.362 163.308 687.702 161.456 686.382 160.1C685.099 158.743 683.522 158.065 681.652 158.065C679.782 158.065 678.187 158.743 676.867 160.1C675.584 161.42 674.942 163.253 674.942 165.6C674.942 167.946 675.584 169.816 676.867 171.21C678.187 172.566 679.782 173.245 681.652 173.245C683.522 173.245 685.099 172.566 686.382 171.21C687.702 169.853 688.362 168.001 688.362 165.655ZM702.701 165.6C702.701 162.446 703.288 159.678 704.461 157.295C705.671 154.911 707.303 153.078 709.356 151.795C711.409 150.511 713.701 149.87 716.231 149.87C718.248 149.87 720.081 150.291 721.731 151.135C723.418 151.978 724.738 153.115 725.691 154.545V140.3H735.096V181H725.691V176.6C724.811 178.066 723.546 179.24 721.896 180.12C720.283 181 718.394 181.44 716.231 181.44C713.701 181.44 711.409 180.798 709.356 179.515C707.303 178.195 705.671 176.343 704.461 173.96C703.288 171.54 702.701 168.753 702.701 165.6ZM725.691 165.655C725.691 163.308 725.031 161.456 723.711 160.1C722.428 158.743 720.851 158.065 718.981 158.065C717.111 158.065 715.516 158.743 714.196 160.1C712.913 161.42 712.271 163.253 712.271 165.6C712.271 167.946 712.913 169.816 714.196 171.21C715.516 172.566 717.111 173.245 718.981 173.245C720.851 173.245 722.428 172.566 723.711 171.21C725.031 169.853 725.691 168.001 725.691 165.655ZM755.87 181.44C752.864 181.44 750.15 180.798 747.73 179.515C745.347 178.231 743.459 176.398 742.065 174.015C740.709 171.631 740.03 168.845 740.03 165.655C740.03 162.501 740.727 159.733 742.12 157.35C743.514 154.93 745.42 153.078 747.84 151.795C750.26 150.511 752.974 149.87 755.98 149.87C758.987 149.87 761.7 150.511 764.12 151.795C766.54 153.078 768.447 154.93 769.84 157.35C771.234 159.733 771.93 162.501 771.93 165.655C771.93 168.808 771.215 171.595 769.785 174.015C768.392 176.398 766.467 178.231 764.01 179.515C761.59 180.798 758.877 181.44 755.87 181.44ZM755.87 173.3C757.667 173.3 759.189 172.64 760.435 171.32C761.719 170 762.36 168.111 762.36 165.655C762.36 163.198 761.737 161.31 760.49 159.99C759.28 158.67 757.777 158.01 755.98 158.01C754.147 158.01 752.625 158.67 751.415 159.99C750.205 161.273 749.6 163.161 749.6 165.655C749.6 168.111 750.187 170 751.36 171.32C752.57 172.64 754.074 173.3 755.87 173.3ZM786.325 155.425C787.425 153.738 788.8 152.418 790.45 151.465C792.1 150.475 793.933 149.98 795.95 149.98V159.935H793.365C791.018 159.935 789.258 160.448 788.085 161.475C786.911 162.465 786.325 164.225 786.325 166.755V181H776.92V150.31H786.325V155.425Z" fill="white"/>
<defs>
<linearGradient id="paint0_linear_1032_3438" x1="588.708" y1="467.133" x2="21" y2="467.133" gradientUnits="userSpaceOnUse">
<stop stop-color="#2A112E"/>
<stop offset="0.490163" stop-color="#7452B0"/>
<stop offset="1" stop-color="#FBCD99"/>
</linearGradient>
<linearGradient id="paint1_linear_1032_3438" x1="924" y1="276" x2="21" y2="276" gradientUnits="userSpaceOnUse">
<stop stop-color="#2A112E"/>
<stop offset="0.490163" stop-color="#7452B0"/>
<stop offset="1" stop-color="#46FBF6"/>
</linearGradient>
<linearGradient id="paint2_linear_1032_3438" x1="234.136" y1="168.472" x2="784.821" y2="30.4892" gradientUnits="userSpaceOnUse">
<stop stop-color="#2A112E"/>
<stop offset="0.490163" stop-color="#7452B0"/>
<stop offset="1" stop-color="#46FBF6"/>
</linearGradient>
<linearGradient id="paint3_linear_1032_3438" x1="350.136" y1="164.471" x2="900.821" y2="26.4887" gradientUnits="userSpaceOnUse">
<stop stop-color="#2A112E"/>
<stop offset="0.490163" stop-color="#7452B0"/>
<stop offset="1" stop-color="#FBCD99"/>
</linearGradient>
<linearGradient id="paint4_linear_1032_3438" x1="1089" y1="392.999" x2="486" y2="392.999" gradientUnits="userSpaceOnUse">
<stop stop-color="#2A112E"/>
<stop offset="0.490163" stop-color="#7452B0"/>
<stop offset="1" stop-color="#46FBF6"/>
</linearGradient>
<clipPath id="clip0_1032_3438">
<rect width="693" height="616" fill="white" transform="matrix(-1 0 0 1 693 229)"/>
</clipPath>
</defs>
</svg>
