<svg width="848" height="810" viewBox="0 0 848 810" fill="none" xmlns="http://www.w3.org/2000/svg">
<g clip-path="url(#clip0_963_3421)">
<path opacity="0.3" d="M309.88 977.309C528.881 940.829 693.58 834.192 677.745 739.128C661.91 644.064 471.537 596.572 252.536 633.052C33.5354 669.532 -131.163 776.169 -115.328 871.233C-99.4929 966.297 90.8793 1013.79 309.88 977.309Z" fill="#4DDAC5"/>
<path opacity="0.5" d="M631.62 734.991C635.044 755.522 629.084 777.41 614.08 799.405C599.076 821.4 575.322 843.071 544.175 863.18C513.028 883.29 475.097 901.444 432.55 916.605C390.003 931.767 343.672 943.64 296.203 951.545C253.892 958.582 211.378 962.375 170.57 962.752C106.759 963.311 49.1562 955.446 4.03309 940.013C-41.09 924.58 -72.0038 902.171 -85.3426 875.225C-98.6813 848.279 -93.9339 817.829 -71.617 787.19C-49.3 756.551 -10.269 726.898 41.2265 701.459C92.722 676.02 154.708 655.77 220.437 642.914C286.165 630.058 353.117 625.088 414.002 628.546C474.887 632.004 527.372 643.757 565.743 662.526C604.114 681.294 626.9 706.359 631.62 734.991Z" fill="#227B9B"/>
<path d="M-14.6816 392.586C25.6083 430.086 78.9784 454.146 133.798 459.916C139.178 460.486 144.572 460.876 149.978 461.086C151.178 461.136 152.378 461.166 153.588 461.196C155.548 461.246 157.518 461.266 159.478 461.266C161.828 461.266 164.178 461.233 166.528 461.166C180.131 460.769 193.681 459.288 207.048 456.736C207.538 456.636 208.018 456.546 208.508 456.446C210.618 456.036 212.722 455.596 214.818 455.126C218.838 454.236 222.838 453.25 226.818 452.166C228.108 451.816 229.398 451.456 230.688 451.076C232.538 450.546 234.378 449.986 236.218 449.416C236.908 449.196 237.598 448.986 238.288 448.756C238.988 448.536 239.688 448.306 240.388 448.066C244.658 446.666 248.892 445.146 253.088 443.506C276.989 434.273 299.363 421.493 319.458 405.596C322.238 403.386 325.058 401.066 327.778 398.816C342.398 386.756 357.518 374.286 375.948 371.566C395.848 368.636 414.968 377.696 433.448 386.456C439.718 389.426 446.198 392.496 452.608 395.066C483.899 407.392 518.384 409.041 550.708 399.756C551.378 399.576 552.048 399.376 552.708 399.176V397.086C552.048 397.286 551.378 397.486 550.708 397.676C518.655 407.007 484.412 405.435 453.348 393.206C446.998 390.666 440.538 387.606 434.298 384.646C415.548 375.756 396.158 366.566 375.658 369.586C356.678 372.386 341.338 385.036 326.508 397.276C323.788 399.516 320.978 401.836 318.218 404.036C298.257 419.831 276.027 432.524 252.278 441.686H252.268C248.248 443.246 244.178 444.716 240.088 446.076C239.498 446.266 238.908 446.456 238.318 446.656C237.658 446.866 236.988 447.076 236.328 447.286C234.638 447.826 232.945 448.34 231.248 448.826C229.588 449.326 227.918 449.8 226.238 450.246H226.228C221.928 451.416 217.602 452.473 213.248 453.416C211.278 453.856 209.308 454.256 207.318 454.636C206.888 454.726 206.448 454.806 206.008 454.886C193.184 457.306 180.192 458.731 167.148 459.146H167.138C162.608 459.286 158.085 459.303 153.568 459.196C152.388 459.166 151.218 459.126 150.048 459.086C144.938 458.886 139.835 458.526 134.738 458.006H134.728C80.0784 452.416 26.8384 428.496 -13.3217 391.116C-13.5168 390.937 -13.775 390.843 -14.0396 390.854C-14.3043 390.864 -14.5538 390.98 -14.7337 391.174C-14.9136 391.368 -15.0091 391.626 -14.9993 391.891C-14.9896 392.156 -14.8753 392.406 -14.6816 392.586Z" fill="url(#paint0_linear_963_3421)"/>
<path d="M-59.4936 317.504C4.59186 281.738 89.4825 258.791 176.68 253.287C185.237 252.744 193.816 252.372 202.416 252.171C204.324 252.124 206.233 252.095 208.158 252.067C211.275 252.019 214.409 252 217.526 252C221.264 252 225.002 252.032 228.74 252.095C250.377 252.474 271.929 253.887 293.191 256.32C293.971 256.416 294.734 256.502 295.514 256.597C298.87 256.988 302.215 257.408 305.55 257.856C311.945 258.705 318.307 259.646 324.638 260.679C326.689 261.013 328.741 261.356 330.793 261.719C333.736 262.224 336.663 262.758 339.589 263.302C340.687 263.512 341.784 263.712 342.882 263.931C343.995 264.141 345.109 264.361 346.222 264.589C353.014 265.925 359.748 267.374 366.423 268.939C404.439 277.745 440.028 289.934 471.991 305.096C476.413 307.203 480.899 309.416 485.225 311.562C508.48 323.064 532.53 334.958 561.845 337.552C593.498 340.347 623.91 331.705 653.304 323.351C663.277 320.518 673.585 317.59 683.78 315.139C733.552 303.383 788.404 301.811 839.819 310.666C840.884 310.837 841.95 311.028 843 311.219V313.212C841.95 313.021 840.884 312.831 839.819 312.649C788.835 303.75 734.367 305.249 684.957 316.913C674.857 319.335 664.582 322.254 654.656 325.077C624.833 333.556 593.991 342.321 561.383 339.44C531.194 336.77 506.794 324.705 483.205 313.031C478.879 310.894 474.409 308.682 470.019 306.583C438.268 291.519 402.909 279.413 365.134 270.674H365.119C358.724 269.187 352.251 267.785 345.745 266.487C344.806 266.306 343.868 266.125 342.93 265.934C341.88 265.734 340.814 265.534 339.764 265.333C337.076 264.818 334.383 264.329 331.684 263.865C329.044 263.388 326.387 262.936 323.715 262.51H323.699C316.859 261.394 309.977 260.387 303.053 259.487C299.92 259.067 296.786 258.686 293.621 258.323C292.937 258.237 292.237 258.161 291.537 258.085C271.139 255.777 250.474 254.418 229.726 254.022H229.71C222.505 253.888 215.31 253.872 208.126 253.974C206.249 254.003 204.388 254.041 202.527 254.079C194.399 254.27 186.281 254.613 178.175 255.109H178.159C91.2322 260.441 6.5484 283.254 -57.3304 318.906C-57.6408 319.077 -58.0515 319.167 -58.4724 319.157C-58.8933 319.146 -59.2903 319.036 -59.5764 318.851C-59.8625 318.665 -60.0144 318.42 -59.9989 318.167C-59.9834 317.915 -59.8017 317.676 -59.4936 317.504Z" fill="url(#paint1_linear_963_3421)"/>
<path d="M189.039 485.866C188.551 483.938 190.401 481.806 193.173 481.103C195.944 480.401 198.587 481.394 199.075 483.322C199.564 485.25 197.713 487.382 194.942 488.085C192.171 488.787 189.528 487.794 189.039 485.866Z" fill="white"/>
<path d="M73.8846 320.034C73.3961 318.106 75.2466 315.974 78.018 315.271C80.7893 314.569 83.432 315.563 83.9206 317.491C84.4092 319.419 82.5586 321.551 79.7873 322.253C77.0159 322.955 74.3732 321.962 73.8846 320.034Z" fill="white"/>
<path d="M222.883 485.648C222.395 483.72 224.245 481.587 227.017 480.885C229.788 480.183 232.431 481.176 232.919 483.104C233.408 485.032 231.557 487.164 228.786 487.867C226.015 488.569 223.372 487.575 222.883 485.648Z" fill="#227B9B"/>
<path d="M153.885 313.034C153.396 311.106 155.247 308.974 158.018 308.271C160.789 307.569 163.432 308.563 163.921 310.491C164.409 312.419 162.559 314.551 159.787 315.253C157.016 315.955 154.373 314.962 153.885 313.034Z" fill="#227B9B"/>
<path d="M182.689 513.944C182.2 512.016 184.05 509.884 186.822 509.182C189.593 508.479 192.236 509.473 192.724 511.401C193.213 513.329 191.363 515.461 188.591 516.163C185.82 516.866 183.177 515.872 182.689 513.944Z" fill="#FBCD99"/>
<path d="M118.885 346.034C118.396 344.106 120.247 341.974 123.018 341.271C125.789 340.569 128.432 341.563 128.921 343.491C129.409 345.419 127.559 347.551 124.787 348.253C122.016 348.955 119.373 347.962 118.885 346.034Z" fill="#FBCD99"/>
<path d="M174.799 524.532C174.599 522.736 175.449 521.167 176.698 521.028C177.947 520.888 179.122 522.231 179.323 524.026C179.524 525.822 178.674 527.391 177.424 527.53C176.175 527.67 175 526.327 174.799 524.532Z" fill="#E6E6E6"/>
<path d="M172.016 545.74C171.816 543.944 172.666 542.375 173.915 542.236C175.164 542.096 176.339 543.439 176.54 545.234C176.741 547.03 175.891 548.599 174.641 548.738C173.392 548.878 172.217 547.535 172.016 545.74Z" fill="#4DDAC5"/>
<path d="M206.617 505.324C206.416 503.528 207.266 501.959 208.515 501.82C209.764 501.68 210.94 503.023 211.14 504.818C211.341 506.614 210.491 508.183 209.242 508.322C207.993 508.462 206.817 507.119 206.617 505.324Z" fill="#E6E6E6"/>
<path d="M227.363 363.757C227.163 361.961 228.013 360.392 229.262 360.253C230.511 360.113 231.686 361.456 231.887 363.251C232.088 365.047 231.238 366.616 229.988 366.755C228.739 366.895 227.564 365.552 227.363 363.757Z" fill="#E6E6E6"/>
<path d="M189.585 498.925C189.384 497.13 190.234 495.561 191.483 495.421C192.733 495.282 193.908 496.624 194.109 498.42C194.309 500.215 193.459 501.784 192.21 501.924C190.961 502.064 189.786 500.721 189.585 498.925Z" fill="#FBCD99"/>
<path d="M210.567 481.639C210.367 479.843 211.217 478.274 212.466 478.135C213.715 477.995 214.89 479.338 215.091 481.133C215.292 482.929 214.442 484.498 213.192 484.637C211.943 484.777 210.768 483.434 210.567 481.639Z" fill="#4DDAC5"/>
<path d="M136.763 341.757C136.563 339.961 137.413 338.392 138.662 338.253C139.911 338.113 141.086 339.456 141.287 341.251C141.488 343.047 140.638 344.616 139.388 344.755C138.139 344.895 136.964 343.552 136.763 341.757Z" fill="#4DDAC5"/>
<path d="M535.627 392.095C533.418 392.095 531.627 390.304 531.627 388.095C531.627 385.886 533.418 384.095 535.627 384.095C537.836 384.095 539.627 385.886 539.627 388.095C539.627 390.304 537.836 392.095 535.627 392.095Z" fill="white"/>
<path d="M31.1914 508.201C33.3019 507.548 35.5419 508.73 36.1946 510.84C36.8473 512.951 35.6655 515.191 33.555 515.844C31.4444 516.496 29.2044 515.315 28.5517 513.204C27.899 511.093 29.0808 508.853 31.1914 508.201Z" fill="white"/>
<path d="M633.627 430.095C632.523 430.095 631.627 429.2 631.627 428.095C631.627 426.991 632.523 426.095 633.627 426.095C634.732 426.095 635.627 426.991 635.627 428.095C635.627 429.2 634.732 430.095 633.627 430.095Z" fill="white"/>
<path d="M236.627 579.095C235.523 579.095 234.627 578.2 234.627 577.095C234.627 575.991 235.523 575.095 236.627 575.095C237.732 575.095 238.627 575.991 238.627 577.095C238.627 578.2 237.732 579.095 236.627 579.095Z" fill="white"/>
<path d="M494.627 487.095C493.523 487.095 492.627 486.2 492.627 485.095C492.627 483.991 493.523 483.095 494.627 483.095C495.732 483.095 496.627 483.991 496.627 485.095C496.627 486.2 495.732 487.095 494.627 487.095Z" fill="white"/>
<path d="M458.627 278.095C457.523 278.095 456.627 277.2 456.627 276.095C456.627 274.991 457.523 274.095 458.627 274.095C459.732 274.095 460.627 274.991 460.627 276.095C460.627 277.2 459.732 278.095 458.627 278.095Z" fill="white"/>
<path d="M138.435 594.362C139.49 594.036 140.61 594.627 140.937 595.682C141.263 596.737 140.672 597.857 139.617 598.184C138.562 598.51 137.442 597.919 137.115 596.864C136.789 595.809 137.38 594.689 138.435 594.362Z" fill="white"/>
<path d="M131.627 355.095C130.523 355.095 129.627 354.2 129.627 353.095C129.627 351.991 130.523 351.095 131.627 351.095C132.732 351.095 133.627 351.991 133.627 353.095C133.627 354.2 132.732 355.095 131.627 355.095Z" fill="white"/>
<path d="M428.088 424.188C429.143 423.862 430.263 424.453 430.589 425.508C430.916 426.563 430.325 427.683 429.27 428.009C428.214 428.336 427.094 427.745 426.768 426.69C426.442 425.634 427.033 424.514 428.088 424.188Z" fill="white"/>
<path d="M596.627 251.095C595.523 251.095 594.627 250.2 594.627 249.095C594.627 247.991 595.523 247.095 596.627 247.095C597.732 247.095 598.627 247.991 598.627 249.095C598.627 250.2 597.732 251.095 596.627 251.095Z" fill="white"/>
<path d="M232.627 241.095C230.418 241.095 228.627 239.304 228.627 237.095C228.627 234.886 230.418 233.095 232.627 233.095C234.836 233.095 236.627 234.886 236.627 237.095C236.627 239.304 234.836 241.095 232.627 241.095Z" fill="white"/>
<path d="M365.278 562.939C367.388 562.286 369.628 563.468 370.281 565.579C370.934 567.689 369.752 569.929 367.641 570.582C365.531 571.235 363.291 570.053 362.638 567.942C361.985 565.832 363.167 563.592 365.278 562.939Z" fill="white"/>
<path d="M333.627 328.095C311.536 328.095 293.627 310.187 293.627 288.095C293.627 266.004 311.536 248.095 333.627 248.095C355.719 248.095 373.627 266.004 373.627 288.095C373.627 310.187 355.719 328.095 333.627 328.095Z" fill="#F2F2F2"/>
<path d="M339.627 331.095C317.536 331.095 299.627 313.187 299.627 291.095C299.627 269.004 317.536 251.095 339.627 251.095C361.719 251.095 379.627 269.004 379.627 291.095C379.627 313.187 361.719 331.095 339.627 331.095Z" fill="#F2F2F2"/>
<path d="M295.628 729.04L333.12 729.039V728.565C333.12 724.695 331.582 720.983 328.846 718.246C326.109 715.51 322.397 713.972 318.527 713.972L311.678 708.776L298.9 713.973L295.627 713.973L295.628 729.04Z" fill="#3F3D56"/>
<path d="M313.081 708.791L345.114 728.273L345.36 727.868C347.371 724.562 347.986 720.592 347.07 716.831C346.154 713.071 343.782 709.829 340.476 707.817L337.324 699.819L323.707 697.618L320.911 695.917L313.081 708.791Z" fill="#3F3D56"/>
<path d="M291.057 602.565C291.227 603.765 291.477 607.845 291.767 613.785C293.177 642.585 295.627 715.095 295.627 715.095L310.897 710.345C310.897 710.345 329.057 655.565 326.057 625.565L328.217 615.125L331.917 597.285V597.275L343.187 542.945C343.187 542.945 345.657 557.665 345.857 561.115C346.057 564.565 348.057 565.565 349.057 565.565C354.067 565.565 352.527 564.675 351.797 569.625C351.267 573.185 355.607 593.595 358.087 604.755C359.047 609.095 359.727 612.035 359.727 612.035L355.487 621.175L320.337 696.975L333.627 704.095L386.647 625.515L391.877 617.765L392.997 609.075L401.817 540.705C401.817 540.705 404.567 532.975 401.817 532.775C399.057 532.565 397.497 533.435 398.277 530.505C399.057 527.565 383.057 478.565 383.057 478.565L300.057 496.565C300.057 496.565 291.877 512.825 295.057 520.565C298.247 528.305 292.447 588.245 295.757 590.905C299.057 593.565 301.187 591.435 296.627 596.005C295.93 596.733 295.106 597.329 294.197 597.765C291.377 599.045 290.257 596.965 291.057 602.565Z" fill="#F2F2F2"/>
<path d="M330.272 518.376C330.606 516.073 330.027 513.731 328.66 511.847C327.293 509.964 325.245 508.689 322.952 508.293C322.484 508.22 322.011 508.185 321.538 508.19L297.431 452.208L280.894 464.624L313.092 517.658C313.264 519.618 314.08 521.466 315.413 522.914C316.745 524.362 318.519 525.327 320.459 525.661C321.564 525.84 322.693 525.799 323.783 525.542C324.873 525.284 325.901 524.815 326.809 524.16C327.717 523.505 328.487 522.677 329.076 521.725C329.664 520.772 330.059 519.713 330.238 518.608C330.25 518.531 330.262 518.454 330.272 518.376Z" fill="#4DDAC5"/>
<path d="M397.803 522.939C396.181 521.271 395.274 519.035 395.275 516.708C395.276 514.381 396.185 512.146 397.809 510.479C398.144 510.145 398.507 509.84 398.892 509.566L385.538 450.095L406.214 450.436L411.288 512.271C412.3 513.959 412.725 515.934 412.496 517.888C412.267 519.842 411.398 521.666 410.024 523.074C409.235 523.868 408.297 524.498 407.263 524.93C406.23 525.361 405.122 525.584 404.002 525.587C402.883 525.591 401.773 525.373 400.738 524.947C399.702 524.522 398.761 523.896 397.967 523.107C397.912 523.052 397.857 522.996 397.803 522.939Z" fill="#4DDAC5"/>
<path d="M292.06 476.566C298.06 470.626 296.95 443.556 296.95 443.556C296.95 443.556 290.98 352.656 299.06 346.566C304.647 342.534 310.592 339.022 316.82 336.076C317.18 335.916 317.37 335.826 317.37 335.826L322.53 321.276L354.32 319.626L359.87 330.406C359.87 330.406 360.74 330.466 362.1 330.656C367.18 331.356 379.12 333.836 378.06 341.566C376.72 351.366 386.18 411.556 389.06 414.566C391.94 417.576 391.18 428.576 384.06 435.566C376.94 442.556 382.06 461.566 387.06 469.566C390.061 474.463 391.446 480.179 391.02 485.906C391.02 485.906 387.06 507.566 377.06 500.566C373.25 497.896 367.84 497.556 361.33 498.046C361.267 498.051 361.198 498.059 361.134 498.064L361.33 499.046C352.29 499.716 341.12 501.986 329.17 501.856L329.524 500.851C329.405 500.851 329.289 500.857 329.17 500.856C327.15 500.836 325.12 500.746 323.06 500.566C305.24 499.016 297.37 503.916 295.06 498.566C292.75 493.216 286.06 482.506 292.06 476.566Z" fill="#F2F2F2"/>
<path opacity="0.3" d="M343 320C326.431 320 313 306.568 313 290C313 273.431 326.431 260 343 260C359.569 260 373 273.431 373 290C373 306.568 359.569 320 343 320Z" fill="#4DDAC5"/>
<path d="M354.057 336.385C354.057 336.385 358.617 351.525 363.927 368.995C365.597 374.495 367.347 380.225 369.047 385.795C374.597 403.905 379.657 420.225 380.127 420.875C381.187 422.365 381.057 426.385 380.127 431.075C379.937 432.015 380.367 435.675 381.177 440.925C382.237 447.815 383.947 457.435 385.767 467.255C387.217 475.105 388.737 483.075 390.047 489.865C392.097 500.405 393.627 508.095 393.627 508.095H412.627C412.627 508.095 409.057 428.385 405.057 422.635C401.057 416.875 405.057 421.385 408.057 417.385C411.057 413.385 406.057 415.385 401.017 410.245C395.977 405.115 400.057 407.385 404.057 403.385C405.537 401.905 402.227 392.475 397.467 381.185C395.247 375.945 392.717 370.295 390.217 364.855C385.047 353.625 379.977 343.295 377.967 339.215C377.967 339.205 377.957 339.195 377.957 339.185L377.057 337.385L354.057 336.385Z" fill="#F2F2F2"/>
<path d="M312.627 340.095C333.506 348.205 352.278 349.603 367.627 340.095V322.095C349.55 332.942 331.21 332.645 312.627 322.095V340.095Z" fill="#3F3D56"/>
<path d="M296.627 455.095C328.895 463.205 357.906 464.603 381.627 455.095V437.095C353.69 447.942 325.346 447.645 296.627 437.095V455.095Z" fill="#3F3D56"/>
<path d="M264.557 423.385C267.557 427.385 271.557 422.875 267.557 428.635C264.807 432.595 280.567 469.715 290.657 492.455C295.217 502.745 298.627 510.095 298.627 510.095L315.637 500.245L317.627 499.095C317.627 499.095 302.027 459.835 297.007 445.725C296.177 443.385 295.627 441.735 295.497 441.075C294.557 436.385 294.437 432.365 295.497 430.875C295.748 430.32 295.962 429.749 296.137 429.165C298.147 423.275 304.267 403.385 309.997 384.575C311.667 379.055 313.317 373.635 314.817 368.685C318.667 355.975 321.557 346.385 321.557 346.385L298.557 347.385C298.557 347.385 298.177 348.025 297.507 349.185C295.907 351.945 292.627 357.635 288.827 364.475C286.087 369.395 283.067 374.925 280.217 380.365C272.957 394.205 266.707 407.535 268.557 409.385C272.557 413.385 276.647 411.115 271.607 416.245C266.557 421.385 261.557 419.385 264.557 423.385Z" fill="#F2F2F2"/>
<path d="M291.057 602.565C291.227 603.765 291.477 607.845 291.767 613.785C303.815 615.737 316.058 616.187 328.217 615.125L331.917 597.285C319.46 599.56 306.708 599.722 294.197 597.765C291.377 599.045 290.257 596.965 291.057 602.565Z" fill="#3F3D56"/>
<path d="M355.487 621.175C365.74 623.457 376.161 624.908 386.647 625.515L391.877 617.765L392.997 609.075C381.21 609.379 369.444 607.923 358.087 604.755C359.047 609.095 359.727 612.035 359.727 612.035L355.487 621.175Z" fill="#3F3D56"/>
<path d="M352.627 378.095C352.627 380.747 353.681 383.291 355.556 385.166C357.432 387.042 359.975 388.095 362.627 388.095C365.279 388.095 367.823 387.042 369.698 385.166C371.574 383.291 372.627 380.747 372.627 378.095C372.627 372.572 363.627 361.095 362.627 368.095C361.627 375.095 352.627 372.572 352.627 378.095Z" fill="#4DDAC5"/>
<path d="M361.54 361.14C361.9 361.11 362.26 361.1 362.63 361.1C366.983 361.105 371.169 362.778 374.327 365.774C377.485 368.771 379.376 372.863 379.61 377.21C379.62 377.5 379.63 377.8 379.63 378.1C379.63 378.51 379.62 378.91 379.58 379.31C379.329 382.87 377.962 386.26 375.675 388.999C373.388 391.739 370.297 393.688 366.839 394.571C363.382 395.455 359.734 395.226 356.413 393.919C353.093 392.612 350.268 390.293 348.34 387.29C347.953 386.697 347.605 386.079 347.3 385.44C346.098 382.932 345.529 380.168 345.645 377.39C345.76 374.612 346.555 371.904 347.961 369.505C349.367 367.106 351.341 365.089 353.708 363.63C356.076 362.172 358.765 361.316 361.54 361.14ZM349.8 387C351.368 388.886 353.328 390.408 355.544 391.462C357.759 392.515 360.177 393.074 362.63 393.1C366.283 393.094 369.808 391.758 372.547 389.342C375.286 386.925 377.05 383.593 377.51 379.97C377.59 379.35 377.631 378.725 377.63 378.1C377.632 378.013 377.628 377.926 377.62 377.84C377.551 373.909 375.942 370.162 373.139 367.405C370.335 364.648 366.562 363.102 362.63 363.1C362.54 363.34 362.45 363.57 362.35 363.79C358.08 373.89 348.82 373.13 347.63 378.1C347.054 380.502 347.404 383.034 348.61 385.19C348.949 385.829 349.347 386.435 349.8 387Z" fill="#FBCD99"/>
<path d="M259.146 279.622C258.946 277.826 259.796 276.257 261.045 276.118C262.294 275.978 263.469 277.32 263.67 279.116C263.871 280.912 263.021 282.481 261.771 282.62C260.522 282.76 259.347 281.417 259.146 279.622Z" fill="#E6E6E6"/>
<path d="M211.036 261.034C210.547 259.106 212.398 256.974 215.169 256.271C217.94 255.569 220.583 256.563 221.072 258.491C221.56 260.419 219.71 262.551 216.938 263.253C214.167 263.955 211.524 262.962 211.036 261.034Z" fill="#FBCD99"/>
<path d="M175.363 264.757C175.163 262.961 176.013 261.392 177.262 261.253C178.511 261.113 179.686 262.455 179.887 264.251C180.088 266.047 179.238 267.616 177.988 267.755C176.739 267.895 175.564 266.552 175.363 264.757Z" fill="#E6E6E6"/>
<path d="M200.363 292.829C200.163 291.034 201.013 289.465 202.262 289.325C203.511 289.186 204.686 290.528 204.887 292.324C205.088 294.12 204.238 295.689 202.988 295.828C201.739 295.968 200.564 294.625 200.363 292.829Z" fill="#4DDAC5"/>
<path d="M234.914 294.628C234.714 292.832 235.564 291.263 236.813 291.124C238.062 290.984 239.237 292.326 239.438 294.122C239.638 295.918 238.788 297.487 237.539 297.626C236.29 297.766 235.115 296.423 234.914 294.628Z" fill="#4DDAC5"/>
<path opacity="0.3" d="M145.462 652.678L-3 529L141.228 657.632C141.507 658.102 141.895 658.499 142.358 658.79C142.822 659.081 143.348 659.257 143.893 659.304C144.438 659.351 144.986 659.267 145.493 659.059C145.999 658.852 146.448 658.527 146.804 658.111C147.159 657.695 147.41 657.2 147.536 656.668C147.662 656.135 147.66 655.581 147.529 655.049C147.397 654.518 147.141 654.026 146.782 653.613C146.422 653.201 145.97 652.88 145.462 652.678Z" fill="#F2F2F2"/>
</g>
<path d="M515.541 584.538C515.341 582.742 516.191 581.173 517.44 581.034C518.689 580.894 519.864 582.237 520.065 584.033C520.266 585.828 519.416 587.397 518.167 587.537C516.917 587.676 515.742 586.334 515.541 584.538Z" fill="#4DDAC5"/>
<path d="M435.363 202.858C435.163 201.062 436.013 199.493 437.262 199.354C438.511 199.214 439.686 200.556 439.887 202.352C440.088 204.148 439.238 205.717 437.988 205.856C436.739 205.996 435.564 204.653 435.363 202.858Z" fill="#4DDAC5"/>
<path d="M592 198C589.791 198 588 196.209 588 194C588 191.791 589.791 190 592 190C594.209 190 596 191.791 596 194C596 196.209 594.209 198 592 198Z" fill="white"/>
<path d="M551 293C549.895 293 549 292.104 549 291C549 289.895 549.895 289 551 289C552.105 289 553 289.895 553 291C553 292.104 552.105 293 551 293Z" fill="white"/>
<path d="M0.0355653 622.327C1.09083 622 2.21084 622.591 2.53718 623.646C2.86352 624.702 2.27262 625.822 1.21736 626.148C0.162098 626.474 -0.957913 625.883 -1.28426 624.828C-1.6106 623.773 -1.01969 622.653 0.0355653 622.327Z" fill="white"/>
<path d="M515 83.9998C513.895 83.9998 513 83.1044 513 81.9998C513 80.8953 513.895 79.9998 515 79.9998C516.105 79.9998 517 80.8953 517 81.9998C517 83.1044 516.105 83.9998 515 83.9998Z" fill="white"/>
<path d="M188 161C186.895 161 186 160.104 186 159C186 157.895 186.895 157 188 157C189.105 157 190 157.895 190 159C190 160.104 189.105 161 188 161Z" fill="white"/>
<path d="M385.83 641.186C386.885 640.86 388.005 641.451 388.332 642.506C388.658 643.561 388.067 644.681 387.012 645.008C385.957 645.334 384.836 644.743 384.51 643.688C384.184 642.633 384.775 641.513 385.83 641.186Z" fill="white"/>
<path d="M653 57.0001C651.895 57.0001 651 56.1047 651 55.0001C651 53.8956 651.895 53.0001 653 53.0001C654.105 53.0001 655 53.8956 655 55.0001C655 56.1047 654.105 57.0001 653 57.0001Z" fill="white"/>
<path d="M289 47.0001C286.791 47.0001 285 45.2093 285 43.0001C285 40.791 286.791 39.0001 289 39.0001C291.209 39.0001 293 40.791 293 43.0001C293 45.2093 291.209 47.0001 289 47.0001Z" fill="white"/>
<path d="M34.5459 186.918C34.3452 185.123 35.1952 183.554 36.4444 183.414C37.6936 183.275 38.8689 184.617 39.0696 186.413C39.2702 188.208 38.4202 189.777 37.171 189.917C35.9219 190.056 34.7465 188.714 34.5459 186.918Z" fill="#E6E6E6"/>
<path d="M545.172 23.65C544.971 21.8543 545.821 20.2855 547.071 20.1459C548.32 20.0063 549.495 21.3488 549.696 23.1445C549.896 24.9402 549.046 26.5091 547.797 26.6487C546.548 26.7882 545.373 25.4457 545.172 23.65Z" fill="#E6E6E6"/>
<path d="M31.7631 208.126C31.5624 206.33 32.4124 204.762 33.6616 204.622C34.9108 204.482 36.0861 205.825 36.2867 207.621C36.4874 209.416 35.6374 210.985 34.3882 211.125C33.139 211.264 31.9637 209.922 31.7631 208.126Z" fill="#4DDAC5"/>
<path d="M431.363 268.757C431.163 266.961 432.013 265.392 433.262 265.253C434.511 265.113 435.686 266.456 435.887 268.251C436.088 270.047 435.238 271.616 433.988 271.755C432.739 271.895 431.564 270.552 431.363 268.757Z" fill="#4DDAC5"/>
<path d="M574.363 62.757C574.163 60.9613 575.013 59.3925 576.262 59.2529C577.511 59.1133 578.686 60.4558 578.887 62.2515C579.088 64.0472 578.238 65.6161 576.988 65.7556C575.739 65.8952 574.564 64.5527 574.363 62.757Z" fill="#4DDAC5"/>
<path d="M67.8847 66.0343C67.3961 64.1064 69.2467 61.9741 72.018 61.2718C74.7894 60.5695 77.4321 61.563 77.9207 63.4909C78.4092 65.4188 76.5587 67.5511 73.7873 68.2534C71.016 68.9557 68.3733 67.9622 67.8847 66.0343Z" fill="white"/>
<path d="M26.6299 140.034C26.1414 138.106 27.9919 135.974 30.7633 135.271C33.5346 134.569 36.1773 135.563 36.6659 137.491C37.1545 139.419 35.3039 141.551 32.5326 142.253C29.7612 142.955 27.1185 141.962 26.6299 140.034Z" fill="#227B9B"/>
<path d="M57.0613 130.062C56.5727 128.134 58.4233 126.002 61.1947 125.3C63.966 124.597 66.6087 125.591 67.0973 127.519C67.5859 129.447 65.7353 131.579 62.964 132.281C60.1926 132.983 57.5499 131.99 57.0613 130.062Z" fill="#FBCD99"/>
<path d="M497.061 5.06217C496.573 3.13426 498.423 1.00204 501.195 0.299714C503.966 -0.402611 506.609 0.590919 507.097 2.51883C507.586 4.44674 505.735 6.57896 502.964 7.28128C500.193 7.98361 497.55 6.99008 497.061 5.06217Z" fill="#FBCD99"/>
<path d="M49.172 140.65C48.9713 138.854 49.8213 137.285 51.0705 137.146C52.3197 137.006 53.495 138.349 53.6957 140.144C53.8963 141.94 53.0463 143.509 51.7971 143.648C50.5479 143.788 49.3726 142.445 49.172 140.65Z" fill="#E6E6E6"/>
<path d="M489.172 15.65C488.971 13.8543 489.821 12.2855 491.071 12.1459C492.32 12.0063 493.495 13.3488 493.696 15.1445C493.896 16.9402 493.046 18.5091 491.797 18.6487C490.548 18.7882 489.373 17.4457 489.172 15.65Z" fill="#E6E6E6"/>
<path d="M46.3892 161.858C46.1885 160.062 47.0385 158.493 48.2877 158.353C49.5369 158.214 50.7122 159.556 50.9128 161.352C51.1135 163.148 50.2635 164.717 49.0143 164.856C47.7651 164.996 46.5898 163.653 46.3892 161.858Z" fill="#4DDAC5"/>
<path d="M375.363 260.757C375.163 258.961 376.013 257.392 377.262 257.253C378.511 257.113 379.686 258.456 379.887 260.251C380.088 262.047 379.238 263.616 377.988 263.755C376.739 263.895 375.564 262.552 375.363 260.757Z" fill="#4DDAC5"/>
<path d="M486.389 36.8579C486.188 35.0622 487.038 33.4933 488.288 33.3537C489.537 33.2142 490.712 34.5567 490.913 36.3524C491.113 38.1481 490.263 39.7169 489.014 39.8565C487.765 39.9961 486.59 38.6535 486.389 36.8579Z" fill="#227B9B"/>
<path d="M10.3633 159.71C10.1626 157.915 11.0126 156.346 12.2618 156.206C13.511 156.067 14.6863 157.409 14.8869 159.205C15.0876 161 14.2376 162.569 12.9884 162.709C11.7392 162.848 10.5639 161.506 10.3633 159.71Z" fill="#E6E6E6"/>
<path d="M63.9578 115.043C63.7571 113.247 64.6071 111.679 65.8563 111.539C67.1055 111.399 68.2808 112.742 68.4814 114.538C68.6821 116.333 67.8321 117.902 66.5829 118.042C65.3337 118.181 64.1584 116.839 63.9578 115.043Z" fill="#FBCD99"/>
<path d="M84.9401 97.7567C84.7394 95.961 85.5894 94.3921 86.8386 94.2526C88.0878 94.113 89.2631 95.4555 89.4637 97.2512C89.6644 99.0469 88.8144 100.616 87.5652 100.755C86.316 100.895 85.1407 99.5523 84.9401 97.7567Z" fill="#4DDAC5"/>
<path d="M16 104.213C14.8954 104.213 14 103.318 14 102.213C14 101.109 14.8954 100.213 16 100.213C17.1046 100.213 18 101.109 18 102.213C18 103.318 17.1046 104.213 16 104.213Z" fill="white"/>
<path d="M549.223 2.22359C521.825 30.2449 482.125 53.7662 438.826 67.8706C434.577 69.2568 430.294 70.5501 425.976 71.7505C425.018 72.0188 424.057 72.2764 423.088 72.536C421.52 72.9573 419.939 73.3647 418.363 73.7595C416.474 74.2328 414.581 74.6884 412.683 75.1264C401.696 77.6555 390.607 79.5982 379.522 80.936C379.115 80.9816 378.717 81.0305 378.31 81.0761C376.56 81.2835 374.81 81.4735 373.062 81.6463C369.713 81.9836 366.366 82.2654 363.023 82.492C361.939 82.566 360.854 82.6347 359.767 82.6928C358.209 82.7841 356.656 82.8574 355.101 82.9255C354.517 82.9477 353.934 82.9752 353.349 82.992C352.757 83.0162 352.164 83.0351 351.569 83.0487C347.951 83.1656 344.346 83.2114 340.754 83.186C320.314 83.0983 300.629 80.8207 282.361 76.4297C279.833 75.8165 277.257 75.153 274.772 74.5064C261.416 71.0492 247.603 67.475 232.427 69.7431C216.041 72.1959 201.877 80.8563 188.187 89.2285C183.542 92.068 178.741 95.0028 173.931 97.6581C150.417 110.503 122.917 118.324 95.6986 119.906C95.1361 119.946 94.5709 119.974 94.0138 120.001L93.7358 118.892C94.2929 118.865 94.8581 118.836 95.4219 118.802C122.428 117.3 149.745 109.568 173.088 96.8198C177.855 94.1925 182.641 91.267 187.263 88.4389C201.152 79.9433 215.516 71.1595 232.396 68.6337C248.026 66.2972 262.039 69.9226 275.588 73.4331C278.072 74.0744 280.64 74.7399 283.151 75.3519C301.297 79.7157 320.855 81.9761 341.163 82.0568L341.171 82.0548C344.61 82.0732 348.077 82.0338 351.546 81.9319C352.045 81.914 352.545 81.896 353.046 81.8833C353.604 81.8619 354.171 81.8384 354.729 81.8169C356.159 81.7632 357.589 81.6946 359.017 81.6113C360.418 81.5423 361.824 81.4572 363.234 81.356L363.242 81.3539C366.854 81.1089 370.472 80.7984 374.097 80.4224C375.739 80.2592 377.376 80.0747 379.026 79.8756C379.384 79.8368 379.748 79.7906 380.112 79.7445C390.743 78.4462 401.375 76.5855 411.916 74.179L411.924 74.1769C415.584 73.3388 419.222 72.4366 422.838 71.4703C423.783 71.2167 424.718 70.9599 425.653 70.703C429.734 69.5676 433.789 68.3486 437.816 67.046L437.824 67.044C481.01 53.0694 520.625 29.6486 547.935 1.71717C548.068 1.58281 548.263 1.48065 548.477 1.4331C548.691 1.38555 548.907 1.39646 549.077 1.46343C549.248 1.53041 549.359 1.64799 549.386 1.79045C549.414 1.93292 549.355 2.08867 549.223 2.22359Z" fill="url(#paint2_linear_963_3421)"/>
<path d="M459.38 74.7531C488.558 93.7825 525.943 104.377 563.409 104.452C567.086 104.461 570.763 104.367 574.441 104.17C575.257 104.128 576.072 104.074 576.894 104.02C578.226 103.934 579.563 103.83 580.893 103.715C582.487 103.577 584.079 103.42 585.669 103.244C594.876 102.219 603.993 100.579 612.933 98.3387C613.26 98.2529 613.581 98.1734 613.909 98.0876C615.32 97.7299 616.725 97.3554 618.123 96.9642C620.806 96.2206 623.47 95.4229 626.116 94.5713C626.974 94.296 627.831 94.0149 628.687 93.7224C629.916 93.3115 631.136 92.884 632.356 92.4508C632.813 92.2848 633.271 92.1245 633.727 91.9528C634.191 91.7862 634.655 91.6139 635.118 91.4359C637.944 90.3866 640.741 89.271 643.506 88.0891C659.261 81.4187 673.805 72.8147 686.65 62.5665C688.426 61.1426 690.224 59.6535 691.958 58.2103C701.278 50.472 710.918 42.4706 723.283 39.8372C736.636 36.9978 750.051 41.0446 763.017 44.9577C767.416 46.2841 771.963 47.6553 776.437 48.7453C798.269 53.9408 821.739 52.8576 843.204 45.664C843.65 45.522 844.094 45.3686 844.532 45.2158L844.429 44.0234C843.991 44.1762 843.547 44.3297 843.102 44.4774C821.822 51.6818 798.519 52.7944 776.847 47.6407C772.415 46.5643 767.883 45.1977 763.504 43.8752C750.349 39.9037 736.744 35.7987 722.989 38.7247C710.254 41.4359 700.475 49.553 691.02 57.4062C689.286 58.8438 687.495 60.3322 685.732 61.7493C672.972 71.9316 658.522 80.4774 642.867 87.0984L642.86 87.0989C640.211 88.2248 637.523 89.3023 634.816 90.3182C634.425 90.4613 634.034 90.6043 633.644 90.753C633.207 90.9115 632.763 91.0707 632.325 91.2292C631.206 91.6364 630.083 92.0287 628.956 92.4059C627.855 92.7886 626.745 93.1566 625.628 93.51L625.621 93.5106C622.763 94.4304 619.88 95.2872 616.974 96.0808C615.66 96.4474 614.343 96.7913 613.012 97.1248C612.725 97.2014 612.431 97.2729 612.136 97.3443C603.558 99.4776 594.816 101.053 585.99 102.055L585.983 102.056C582.918 102.401 579.851 102.676 576.782 102.881C575.98 102.933 575.185 102.979 574.389 103.024C570.914 103.21 567.435 103.304 563.952 103.307L563.945 103.307C526.604 103.325 489.313 92.8033 460.23 73.8347C460.089 73.744 459.909 73.7052 459.73 73.7269C459.551 73.7486 459.388 73.829 459.275 73.9505C459.163 74.072 459.111 74.2246 459.13 74.375C459.15 74.5254 459.24 74.6614 459.38 74.7531Z" fill="url(#paint3_linear_963_3421)"/>
<path d="M1.23384 21.2704C30.8281 40.7791 70.0301 53.2959 110.297 56.2977C114.249 56.5942 118.211 56.7971 122.182 56.9063C123.063 56.9323 123.945 56.9479 124.834 56.9636C126.273 56.9896 127.72 57 129.16 57C130.886 57 132.612 56.9826 134.338 56.9479C144.33 56.7415 154.283 55.9709 164.102 54.6433C164.462 54.5913 164.814 54.5445 165.174 54.4924C166.724 54.2792 168.269 54.0502 169.809 53.8057C172.762 53.3427 175.7 52.8294 178.623 52.2659C179.571 52.0838 180.518 51.8965 181.466 51.6988C182.825 51.4231 184.176 51.1317 185.528 50.8352C186.035 50.7208 186.542 50.6115 187.048 50.4919C187.563 50.3774 188.077 50.2578 188.591 50.1329C191.727 49.4046 194.837 48.6138 197.92 47.7606C215.475 42.9569 231.91 36.3084 246.67 28.0386C248.712 26.8889 250.784 25.682 252.782 24.5115C263.521 18.2375 274.627 11.7502 288.164 10.3351C302.781 8.81085 316.826 13.5242 330.4 18.0814C335.005 19.6265 339.765 21.2236 344.473 22.5606C367.457 28.9728 392.788 29.8304 416.531 25.0005C417.023 24.9068 417.515 24.8028 418 24.6987V23.6115C417.515 23.7155 417.023 23.8196 416.531 23.9184C392.987 28.7727 367.834 27.9548 345.017 21.593C340.353 20.2716 335.608 18.6797 331.024 17.1398C317.252 12.5149 303.009 7.73397 287.951 9.30507C274.01 10.7617 262.742 17.3427 251.849 23.7103C249.851 24.8756 247.787 26.0826 245.76 27.2271C231.097 35.4439 214.768 42.0471 197.325 46.8138H197.317C194.364 47.6254 191.375 48.3901 188.371 49.0976C187.937 49.1965 187.504 49.2953 187.07 49.3994C186.586 49.5086 186.094 49.6179 185.609 49.7271C184.367 50.008 183.124 50.2751 181.877 50.5283C180.658 50.7884 179.431 51.0346 178.197 51.267H178.19C175.031 51.8757 171.853 52.4254 168.656 52.9161C167.209 53.145 165.762 53.3531 164.3 53.5508C163.984 53.5976 163.661 53.6393 163.338 53.6809C153.918 54.9399 144.375 55.6809 134.794 55.8971H134.786C131.459 55.9699 128.137 55.9786 124.819 55.9231C123.952 55.9075 123.093 55.8867 122.233 55.8659C118.48 55.7618 114.731 55.5745 110.988 55.304H110.98C70.8381 52.3959 31.7316 39.952 2.2328 20.5057C2.08945 20.4125 1.89982 20.3634 1.70544 20.369C1.51105 20.3746 1.32772 20.4346 1.1956 20.5357C1.06348 20.6369 0.993334 20.771 1.00049 20.9086C1.00765 21.0463 1.09158 21.1764 1.23384 21.2704Z" fill="url(#paint4_linear_963_3421)"/>
<path d="M85.815 142.74H98.135V150H76.41V111.39H85.815V142.74ZM100.751 134.6C100.751 131.446 101.338 128.678 102.511 126.295C103.721 123.911 105.353 122.078 107.406 120.795C109.459 119.511 111.751 118.87 114.281 118.87C116.444 118.87 118.333 119.31 119.946 120.19C121.596 121.07 122.861 122.225 123.741 123.655V119.31H133.146V150H123.741V145.655C122.824 147.085 121.541 148.24 119.891 149.12C118.278 150 116.389 150.44 114.226 150.44C111.733 150.44 109.459 149.798 107.406 148.515C105.353 147.195 103.721 145.343 102.511 142.96C101.338 140.54 100.751 137.753 100.751 134.6ZM123.741 134.655C123.741 132.308 123.081 130.456 121.761 129.1C120.478 127.743 118.901 127.065 117.031 127.065C115.161 127.065 113.566 127.743 112.246 129.1C110.963 130.42 110.321 132.253 110.321 134.6C110.321 136.946 110.963 138.816 112.246 140.21C113.566 141.566 115.161 142.245 117.031 142.245C118.901 142.245 120.478 141.566 121.761 140.21C123.081 138.853 123.741 137.001 123.741 134.655ZM171.295 150L163.265 135.425H161.01V150H151.605V111.39H167.39C170.434 111.39 173.019 111.921 175.145 112.985C177.309 114.048 178.922 115.515 179.985 117.385C181.049 119.218 181.58 121.271 181.58 123.545C181.58 126.111 180.847 128.403 179.38 130.42C177.95 132.436 175.824 133.866 173 134.71L181.91 150H171.295ZM161.01 128.77H166.84C168.564 128.77 169.847 128.348 170.69 127.505C171.57 126.661 172.01 125.47 172.01 123.93C172.01 122.463 171.57 121.308 170.69 120.465C169.847 119.621 168.564 119.2 166.84 119.2H161.01V128.77ZM217.789 119.31V150H208.384V145.82C207.431 147.176 206.129 148.276 204.479 149.12C202.866 149.926 201.069 150.33 199.089 150.33C196.743 150.33 194.671 149.816 192.874 148.79C191.078 147.726 189.684 146.205 188.694 144.225C187.704 142.245 187.209 139.916 187.209 137.24V119.31H196.559V135.975C196.559 138.028 197.091 139.623 198.154 140.76C199.218 141.896 200.648 142.465 202.444 142.465C204.278 142.465 205.726 141.896 206.789 140.76C207.853 139.623 208.384 138.028 208.384 135.975V119.31H217.789ZM241.65 142.025V150H236.865C233.455 150 230.796 149.175 228.89 147.525C226.983 145.838 226.03 143.106 226.03 139.33V127.12H222.29V119.31H226.03V111.83H235.435V119.31H241.595V127.12H235.435V139.44C235.435 140.356 235.655 141.016 236.095 141.42C236.535 141.823 237.268 142.025 238.295 142.025H241.65ZM245.019 134.6C245.019 131.446 245.605 128.678 246.779 126.295C247.989 123.911 249.62 122.078 251.674 120.795C253.727 119.511 256.019 118.87 258.549 118.87C260.712 118.87 262.6 119.31 264.214 120.19C265.864 121.07 267.129 122.225 268.009 123.655V119.31H277.414V150H268.009V145.655C267.092 147.085 265.809 148.24 264.159 149.12C262.545 150 260.657 150.44 258.494 150.44C256 150.44 253.727 149.798 251.674 148.515C249.62 147.195 247.989 145.343 246.779 142.96C245.605 140.54 245.019 137.753 245.019 134.6ZM268.009 134.655C268.009 132.308 267.349 130.456 266.029 129.1C264.745 127.743 263.169 127.065 261.299 127.065C259.429 127.065 257.834 127.743 256.514 129.1C255.23 130.42 254.589 132.253 254.589 134.6C254.589 136.946 255.23 138.816 256.514 140.21C257.834 141.566 259.429 142.245 261.299 142.245C263.169 142.245 264.745 141.566 266.029 140.21C267.349 138.853 268.009 137.001 268.009 134.655ZM294.003 134.6C294.003 131.446 294.59 128.678 295.763 126.295C296.973 123.911 298.605 122.078 300.658 120.795C302.711 119.511 305.003 118.87 307.533 118.87C309.55 118.87 311.383 119.291 313.033 120.135C314.72 120.978 316.04 122.115 316.993 123.545V109.3H326.398V150H316.993V145.6C316.113 147.066 314.848 148.24 313.198 149.12C311.585 150 309.696 150.44 307.533 150.44C305.003 150.44 302.711 149.798 300.658 148.515C298.605 147.195 296.973 145.343 295.763 142.96C294.59 140.54 294.003 137.753 294.003 134.6ZM316.993 134.655C316.993 132.308 316.333 130.456 315.013 129.1C313.73 127.743 312.153 127.065 310.283 127.065C308.413 127.065 306.818 127.743 305.498 129.1C304.215 130.42 303.573 132.253 303.573 134.6C303.573 136.946 304.215 138.816 305.498 140.21C306.818 141.566 308.413 142.245 310.283 142.245C312.153 142.245 313.73 141.566 315.013 140.21C316.333 138.853 316.993 137.001 316.993 134.655ZM362.132 134.16C362.132 135.04 362.077 135.956 361.967 136.91H340.682C340.829 138.816 341.434 140.283 342.497 141.31C343.597 142.3 344.935 142.795 346.512 142.795C348.859 142.795 350.49 141.805 351.407 139.825H361.417C360.904 141.841 359.969 143.656 358.612 145.27C357.292 146.883 355.624 148.148 353.607 149.065C351.59 149.981 349.335 150.44 346.842 150.44C343.835 150.44 341.159 149.798 338.812 148.515C336.465 147.231 334.632 145.398 333.312 143.015C331.992 140.631 331.332 137.845 331.332 134.655C331.332 131.465 331.974 128.678 333.257 126.295C334.577 123.911 336.41 122.078 338.757 120.795C341.104 119.511 343.799 118.87 346.842 118.87C349.812 118.87 352.452 119.493 354.762 120.74C357.072 121.986 358.869 123.765 360.152 126.075C361.472 128.385 362.132 131.08 362.132 134.16ZM352.507 131.685C352.507 130.071 351.957 128.788 350.857 127.835C349.757 126.881 348.382 126.405 346.732 126.405C345.155 126.405 343.817 126.863 342.717 127.78C341.654 128.696 340.994 129.998 340.737 131.685H352.507ZM376.499 109.3V150H367.094V109.3H376.499ZM424.395 123.82C424.395 126.056 423.881 128.11 422.855 129.98C421.828 131.813 420.251 133.298 418.125 134.435C415.998 135.571 413.358 136.14 410.205 136.14H404.375V150H394.97V111.39H410.205C413.285 111.39 415.888 111.921 418.015 112.985C420.141 114.048 421.736 115.515 422.8 117.385C423.863 119.255 424.395 121.4 424.395 123.82ZM409.49 128.66C411.286 128.66 412.625 128.238 413.505 127.395C414.385 126.551 414.825 125.36 414.825 123.82C414.825 122.28 414.385 121.088 413.505 120.245C412.625 119.401 411.286 118.98 409.49 118.98H404.375V128.66H409.49ZM438.696 124.425C439.796 122.738 441.171 121.418 442.821 120.465C444.471 119.475 446.304 118.98 448.321 118.98V128.935H445.736C443.389 128.935 441.629 129.448 440.456 130.475C439.283 131.465 438.696 133.225 438.696 135.755V150H429.291V119.31H438.696V124.425ZM466.786 150.44C463.78 150.44 461.066 149.798 458.646 148.515C456.263 147.231 454.375 145.398 452.981 143.015C451.625 140.631 450.946 137.845 450.946 134.655C450.946 131.501 451.643 128.733 453.036 126.35C454.43 123.93 456.336 122.078 458.756 120.795C461.176 119.511 463.89 118.87 466.896 118.87C469.903 118.87 472.616 119.511 475.036 120.795C477.456 122.078 479.363 123.93 480.756 126.35C482.15 128.733 482.846 131.501 482.846 134.655C482.846 137.808 482.131 140.595 480.701 143.015C479.308 145.398 477.383 147.231 474.926 148.515C472.506 149.798 469.793 150.44 466.786 150.44ZM466.786 142.3C468.583 142.3 470.105 141.64 471.351 140.32C472.635 139 473.276 137.111 473.276 134.655C473.276 132.198 472.653 130.31 471.406 128.99C470.196 127.67 468.693 127.01 466.896 127.01C465.063 127.01 463.541 127.67 462.331 128.99C461.121 130.273 460.516 132.161 460.516 134.655C460.516 137.111 461.103 139 462.276 140.32C463.486 141.64 464.99 142.3 466.786 142.3ZM499.496 118.87C501.659 118.87 503.547 119.31 505.161 120.19C506.811 121.07 508.076 122.225 508.956 123.655V119.31H518.361V149.945C518.361 152.768 517.792 155.316 516.656 157.59C515.556 159.9 513.851 161.733 511.541 163.09C509.267 164.446 506.426 165.125 503.016 165.125C498.469 165.125 494.784 164.043 491.961 161.88C489.137 159.753 487.524 156.856 487.121 153.19H496.416C496.709 154.363 497.406 155.28 498.506 155.94C499.606 156.636 500.962 156.985 502.576 156.985C504.519 156.985 506.059 156.416 507.196 155.28C508.369 154.18 508.956 152.401 508.956 149.945V145.6C508.039 147.03 506.774 148.203 505.161 149.12C503.547 150 501.659 150.44 499.496 150.44C496.966 150.44 494.674 149.798 492.621 148.515C490.567 147.195 488.936 145.343 487.726 142.96C486.552 140.54 485.966 137.753 485.966 134.6C485.966 131.446 486.552 128.678 487.726 126.295C488.936 123.911 490.567 122.078 492.621 120.795C494.674 119.511 496.966 118.87 499.496 118.87ZM508.956 134.655C508.956 132.308 508.296 130.456 506.976 129.1C505.692 127.743 504.116 127.065 502.246 127.065C500.376 127.065 498.781 127.743 497.461 129.1C496.177 130.42 495.536 132.253 495.536 134.6C495.536 136.946 496.177 138.816 497.461 140.21C498.781 141.566 500.376 142.245 502.246 142.245C504.116 142.245 505.692 141.566 506.976 140.21C508.296 138.853 508.956 137.001 508.956 134.655ZM534.57 124.425C535.67 122.738 537.045 121.418 538.695 120.465C540.345 119.475 542.178 118.98 544.195 118.98V128.935H541.61C539.263 128.935 537.503 129.448 536.33 130.475C535.157 131.465 534.57 133.225 534.57 135.755V150H525.165V119.31H534.57V124.425ZM546.82 134.6C546.82 131.446 547.407 128.678 548.58 126.295C549.79 123.911 551.422 122.078 553.475 120.795C555.529 119.511 557.82 118.87 560.35 118.87C562.514 118.87 564.402 119.31 566.015 120.19C567.665 121.07 568.93 122.225 569.81 123.655V119.31H579.215V150H569.81V145.655C568.894 147.085 567.61 148.24 565.96 149.12C564.347 150 562.459 150.44 560.295 150.44C557.802 150.44 555.529 149.798 553.475 148.515C551.422 147.195 549.79 145.343 548.58 142.96C547.407 140.54 546.82 137.753 546.82 134.6ZM569.81 134.655C569.81 132.308 569.15 130.456 567.83 129.1C566.547 127.743 564.97 127.065 563.1 127.065C561.23 127.065 559.635 127.743 558.315 129.1C557.032 130.42 556.39 132.253 556.39 134.6C556.39 136.946 557.032 138.816 558.315 140.21C559.635 141.566 561.23 142.245 563.1 142.245C564.97 142.245 566.547 141.566 567.83 140.21C569.15 138.853 569.81 137.001 569.81 134.655ZM625.179 118.98C628.993 118.98 632.018 120.135 634.254 122.445C636.528 124.755 637.664 127.963 637.664 132.07V150H628.314V133.335C628.314 131.355 627.783 129.833 626.719 128.77C625.693 127.67 624.263 127.12 622.429 127.12C620.596 127.12 619.148 127.67 618.084 128.77C617.058 129.833 616.544 131.355 616.544 133.335V150H607.194V133.335C607.194 131.355 606.663 129.833 605.599 128.77C604.573 127.67 603.143 127.12 601.309 127.12C599.476 127.12 598.028 127.67 596.964 128.77C595.938 129.833 595.424 131.355 595.424 133.335V150H586.019V119.31H595.424V123.16C596.378 121.876 597.624 120.868 599.164 120.135C600.704 119.365 602.446 118.98 604.389 118.98C606.699 118.98 608.753 119.475 610.549 120.465C612.383 121.455 613.813 122.866 614.839 124.7C615.903 123.013 617.351 121.638 619.184 120.575C621.018 119.511 623.016 118.98 625.179 118.98ZM642.372 134.6C642.372 131.446 642.959 128.678 644.132 126.295C645.342 123.911 646.974 122.078 649.027 120.795C651.08 119.511 653.372 118.87 655.902 118.87C658.065 118.87 659.954 119.31 661.567 120.19C663.217 121.07 664.482 122.225 665.362 123.655V119.31H674.767V150H665.362V145.655C664.445 147.085 663.162 148.24 661.512 149.12C659.899 150 658.01 150.44 655.847 150.44C653.354 150.44 651.08 149.798 649.027 148.515C646.974 147.195 645.342 145.343 644.132 142.96C642.959 140.54 642.372 137.753 642.372 134.6ZM665.362 134.655C665.362 132.308 664.702 130.456 663.382 129.1C662.099 127.743 660.522 127.065 658.652 127.065C656.782 127.065 655.187 127.743 653.867 129.1C652.584 130.42 651.942 132.253 651.942 134.6C651.942 136.946 652.584 138.816 653.867 140.21C655.187 141.566 656.782 142.245 658.652 142.245C660.522 142.245 662.099 141.566 663.382 140.21C664.702 138.853 665.362 137.001 665.362 134.655ZM679.701 134.6C679.701 131.446 680.288 128.678 681.461 126.295C682.671 123.911 684.303 122.078 686.356 120.795C688.409 119.511 690.701 118.87 693.231 118.87C695.248 118.87 697.081 119.291 698.731 120.135C700.418 120.978 701.738 122.115 702.691 123.545V109.3H712.096V150H702.691V145.6C701.811 147.066 700.546 148.24 698.896 149.12C697.283 150 695.394 150.44 693.231 150.44C690.701 150.44 688.409 149.798 686.356 148.515C684.303 147.195 682.671 145.343 681.461 142.96C680.288 140.54 679.701 137.753 679.701 134.6ZM702.691 134.655C702.691 132.308 702.031 130.456 700.711 129.1C699.428 127.743 697.851 127.065 695.981 127.065C694.111 127.065 692.516 127.743 691.196 129.1C689.913 130.42 689.271 132.253 689.271 134.6C689.271 136.946 689.913 138.816 691.196 140.21C692.516 141.566 694.111 142.245 695.981 142.245C697.851 142.245 699.428 141.566 700.711 140.21C702.031 138.853 702.691 137.001 702.691 134.655ZM732.87 150.44C729.864 150.44 727.15 149.798 724.73 148.515C722.347 147.231 720.459 145.398 719.065 143.015C717.709 140.631 717.03 137.845 717.03 134.655C717.03 131.501 717.727 128.733 719.12 126.35C720.514 123.93 722.42 122.078 724.84 120.795C727.26 119.511 729.974 118.87 732.98 118.87C735.987 118.87 738.7 119.511 741.12 120.795C743.54 122.078 745.447 123.93 746.84 126.35C748.234 128.733 748.93 131.501 748.93 134.655C748.93 137.808 748.215 140.595 746.785 143.015C745.392 145.398 743.467 147.231 741.01 148.515C738.59 149.798 735.877 150.44 732.87 150.44ZM732.87 142.3C734.667 142.3 736.189 141.64 737.435 140.32C738.719 139 739.36 137.111 739.36 134.655C739.36 132.198 738.737 130.31 737.49 128.99C736.28 127.67 734.777 127.01 732.98 127.01C731.147 127.01 729.625 127.67 728.415 128.99C727.205 130.273 726.6 132.161 726.6 134.655C726.6 137.111 727.187 139 728.36 140.32C729.57 141.64 731.074 142.3 732.87 142.3ZM763.325 124.425C764.425 122.738 765.8 121.418 767.45 120.465C769.1 119.475 770.933 118.98 772.95 118.98V128.935H770.365C768.018 128.935 766.258 129.448 765.085 130.475C763.911 131.465 763.325 133.225 763.325 135.755V150H753.92V119.31H763.325V124.425Z" fill="#F2F2F2"/>
<defs>
<linearGradient id="paint0_linear_963_3421" x1="552.708" y1="415.133" x2="-15" y2="415.133" gradientUnits="userSpaceOnUse">
<stop stop-color="#2A112E"/>
<stop offset="0.490163" stop-color="#7452B0"/>
<stop offset="1" stop-color="#FBCD99"/>
</linearGradient>
<linearGradient id="paint1_linear_963_3421" x1="843" y1="296" x2="-60" y2="296" gradientUnits="userSpaceOnUse">
<stop stop-color="#2A112E"/>
<stop offset="0.490163" stop-color="#7452B0"/>
<stop offset="1" stop-color="#46FBF6"/>
</linearGradient>
<linearGradient id="paint2_linear_963_3421" x1="96.1362" y1="128.472" x2="552.478" y2="14.1281" gradientUnits="userSpaceOnUse">
<stop stop-color="#2A112E"/>
<stop offset="0.490163" stop-color="#7452B0"/>
<stop offset="1" stop-color="#46FBF6"/>
</linearGradient>
<linearGradient id="paint3_linear_963_3421" x1="845.32" y1="54.3191" x2="460.277" y2="87.6347" gradientUnits="userSpaceOnUse">
<stop stop-color="#2A112E"/>
<stop offset="0.490163" stop-color="#7452B0"/>
<stop offset="1" stop-color="#FBCD99"/>
</linearGradient>
<linearGradient id="paint4_linear_963_3421" x1="418" y1="33" x2="1" y2="32.9999" gradientUnits="userSpaceOnUse">
<stop stop-color="#2A112E"/>
<stop offset="0.490163" stop-color="#7452B0"/>
<stop offset="1" stop-color="#46FBF6"/>
</linearGradient>
<clipPath id="clip0_963_3421">
<rect width="693" height="616" fill="white" transform="matrix(-1 0 0 1 694 194)"/>
</clipPath>
</defs>
</svg>
