<svg width="290" height="301" viewBox="0 0 290 301" fill="none" xmlns="http://www.w3.org/2000/svg">
<path d="M225.79 196.52C225.13 196.37 224.71 196.34 224.35 196.18C220.28 194.34 217.93 196.09 216.45 199.47C215.52 201.6 215.16 204 214.67 206.31C214.48 207.21 214.57 208.2 215.85 208.39C217.08 208.57 217.46 208.2 217.9 206.84C218.61 204.6 219.42 202.39 220.22 200.18C220.64 199.03 221.45 198.68 222.59 199.19C222.74 199.26 222.91 199.29 223.06 199.34C225.16 200.08 225.17 200.12 224.29 202.09C221.93 207.39 221.16 213.03 221.18 218.74C221.19 222.28 221.87 225.82 222.28 229.36C222.33 229.77 222.41 230.22 222.64 230.54C223.91 232.33 223.3 234.04 222.68 235.89C219.15 246.5 213.81 256.07 206.63 264.63C201.42 270.84 195.44 276.15 188.73 280.72C181.95 285.35 174.65 288.91 166.88 291.38C162.43 292.79 157.76 293.47 153.18 294.47C147.57 295.7 141.87 295.64 136.19 295.35C132.56 295.16 128.93 294.63 125.33 294.06C118.15 292.92 111.29 290.69 104.72 287.6C98.0899 284.48 91.8999 280.68 86.2299 275.98C81.5999 272.14 77.3599 267.97 73.5699 263.33C68.7699 257.45 64.8399 251.02 61.7799 244.06C56.4599 231.97 53.8899 219.34 54.3899 206.13C54.6399 199.6 55.4499 193.14 57.4599 186.87C58.5199 183.55 59.3199 180.12 60.6699 176.93C63.6699 169.8 67.2799 162.98 72.1899 156.92C72.7399 156.24 73.1699 156.02 74.0399 156.35C81.4699 159.22 88.3899 157.62 94.7299 153.43C100.89 149.36 103.06 141.2 100.2 134.38C99.8199 133.48 99.9899 133.02 100.83 132.61C108.72 128.71 116.93 125.9 125.62 124.27C134.17 122.67 142.72 122.36 151.27 123.5C160.17 124.69 168.84 126.97 176.97 130.96C178.01 131.47 179.05 132 180.13 132.42C181.06 132.78 181.09 133.25 180.66 134.03C178.89 137.26 178.41 140.77 179.11 144.3C180.15 149.53 182.9 153.58 187.91 155.94C191.96 157.84 196.11 159.14 200.62 158.84C203.21 158.67 205.69 158.05 207.9 156.55C208.13 156.4 208.79 156.53 208.99 156.75C209.79 157.69 210.51 158.71 211.22 159.73C215.74 166.19 219.35 173.11 221.95 180.58C223.54 185.14 224.91 189.74 225.59 194.53C225.67 195.09 225.71 195.66 225.81 196.5L225.79 196.52ZM132.1 266.47C132.19 259.35 129.66 253.13 125.57 247.47C121.92 242.41 117.18 238.76 111.18 236.91C104.16 234.75 97.2498 238.3 94.6798 245.17C92.6998 250.47 93.2199 255.68 94.8399 260.91C96.1599 265.16 98.1899 268.99 100.95 272.51C104.72 277.32 109.36 280.74 115.33 282.15C121.48 283.6 127.43 281.01 130.11 275.88C131.65 272.93 132.04 269.73 132.1 266.47ZM70.0199 194.21C70.5399 193.52 71.0699 192.94 71.4799 192.28C73.8999 188.35 75.0199 183.95 75.6899 179.47C76.0599 177 75.8699 174.43 75.6999 171.91C75.6199 170.63 74.9399 169.37 73.6099 168.89C72.1899 168.38 70.8499 168.82 69.8999 169.97C68.9299 171.15 67.9599 172.37 67.2899 173.72C66.3699 175.57 65.6399 177.53 64.9999 179.5C63.6799 183.56 63.0499 187.74 63.5599 192.02C63.7499 193.64 64.5299 194.89 66.0999 195.6C67.4899 196.24 68.8399 196.97 70.2199 197.65C72.1199 198.58 73.4699 198.5 74.7499 196.81C75.9999 195.15 76.8499 193.19 77.8399 191.33C78.2499 190.56 78.0099 189.95 77.1599 189.67C76.3499 189.41 75.7499 189.56 75.3599 190.45C74.8899 191.55 74.3399 192.63 73.7299 193.66C72.3999 195.89 72.2599 195.89 70.0299 194.19L70.0199 194.21ZM108.72 226.64C107.59 226.79 106.96 227.38 106.7 228.27C106.43 229.2 106.89 229.88 107.78 230.24C108.16 230.4 108.55 230.54 108.95 230.64C112 231.36 114.85 232.54 117.53 234.17C123.4 237.75 128.41 242.16 131.57 248.41C131.81 248.89 132.1 249.36 132.44 249.77C133.05 250.5 133.82 250.68 134.65 250.16C135.44 249.66 135.75 248.93 135.36 248.02C135.17 247.56 134.96 247.11 134.71 246.68C130 238.5 123.36 232.49 114.63 228.86C112.69 228.05 110.7 227.38 108.73 226.64H108.72ZM179.93 188.78C179.93 186.69 179.54 185.25 178.38 183.65C176.07 180.49 171.35 179.87 168.67 183.05C166.06 186.15 166.53 190.63 169.04 193.48C170.5 195.14 172.48 196.1 174.84 195.61C178.08 194.93 179.95 192.4 179.94 188.79L179.93 188.78ZM215.77 224.74C215.77 223.57 215.82 222.78 215.76 221.99C215.66 220.73 214.73 220.07 213.5 220.39C212.38 220.68 212.11 221.58 212.04 222.59C211.85 225.68 212.11 228.74 212.91 231.72C213.26 233.03 213.86 234.29 214.51 235.48C215.09 236.55 216.11 236.86 216.91 236.36C217.85 235.77 217.94 234.84 217.49 233.95C215.95 230.91 215.92 227.63 215.77 224.73V224.74ZM140.31 271.7C140.31 271.09 140.32 270.72 140.31 270.34C140.24 268.64 139.63 267.96 138.25 268.03C137.1 268.09 136.66 268.71 136.84 270.42C137.1 272.85 136.38 275.02 135.23 277.07C134.75 277.93 134.06 278.67 133.47 279.48C132.8 280.4 132.83 281.48 133.53 282.06C134.31 282.7 135.41 282.58 136.19 281.69C138.72 278.75 140.51 275.5 140.32 271.7H140.31ZM174.21 202.59C175.32 202.32 176.48 202.17 177.53 201.74C178 201.55 178.55 200.75 178.5 200.3C178.4 199.47 177.65 199.25 176.77 199.36C175.55 199.51 174.21 199.84 173.09 199.51C171.05 198.92 169.1 197.97 167.19 197.03C166.31 196.6 165.57 196.25 164.92 197.17C164.27 198.09 164.92 198.75 165.61 199.26C168.15 201.15 170.92 202.47 174.22 202.6L174.21 202.59ZM161.98 191.72C163.35 191.72 163.86 190.99 163.66 189.85C163.18 187.13 162.92 184.43 164.1 181.79C164.27 181.42 164.21 180.78 163.98 180.44C163.27 179.34 162.05 179.47 161.42 180.93C160.04 184.15 159.83 187.51 161.09 190.86C161.25 191.28 161.79 191.55 161.98 191.73V191.72ZM82.8099 174.51C82.5499 173.43 82.3499 172 81.8099 170.71C81.6299 170.29 80.5599 170.11 79.9099 170.12C79.6999 170.12 79.2299 171.22 79.3699 171.65C80.3299 174.47 79.7399 177.21 79.1099 179.96C78.9199 180.78 78.9399 181.59 79.8499 181.94C80.7899 182.31 81.5299 181.87 81.7999 180.62C82.2099 178.73 82.4399 176.8 82.8099 174.5V174.51Z" fill="#EDEDED"/>
<path d="M197.2 141.45C193.95 138.82 247.36 274.66 96.02 287.11C96.02 287.11 136.95 299.45 151.14 298.09C165.33 296.73 204.38 276.67 213.63 257.38C222.88 238.09 232.52 214.96 226.69 191.73C220.86 168.5 204.72 147.53 197.2 141.45Z" fill="#DADADA"/>
<path d="M139.77 300.39C132.59 300.27 125.5 299.46 118.56 297.73C112.17 296.13 105.89 294.07 100.1 290.84C95.83 288.46 91.48 286.17 87.5 283.35C80.26 278.21 74 271.94 68.48 264.99C65.05 260.67 62.13 255.96 59.63 251.04C55.72 243.32 52.86 235.23 51.21 226.69C49.77 219.26 49.17 211.79 49.56 204.28C49.84 198.82 50.9 193.44 52.07 188.08C53.79 180.23 56.6 172.8 60.54 165.84C62.8 161.84 65.45 158.06 68 154.23C68.58 153.36 68.7 152.81 68.05 151.84C64.04 145.81 63.47 138.06 67.81 131.85C68.12 131.41 68.61 131.1 68.9 130.66C69.37 129.95 69.98 129.21 70.13 128.41C71.34 121.95 73.27 115.78 76.89 110.24C78.25 108.17 79.7 106.14 81.21 104.18C81.98 103.18 82.15 102.36 81.39 101.29C80.27 99.7 79.28 98.01 78.19 96.4C77.99 96.1 77.57 95.84 77.21 95.78C72.29 94.94 69.49 91.61 67.67 87.37C64.66 80.37 63.78 72.94 64.33 65.41C64.71 60.15 65.92 54.95 68.35 50.23C69.42 48.15 71.25 46.42 72.94 44.74C74.19 43.49 75.99 43.28 77.72 43.33C78.87 43.36 79.61 42.94 80.1 41.92C82.04 37.9 84.51 34.21 87.26 30.72C90.6 26.47 94.34 22.55 98.75 19.39C102.52 16.68 106.28 13.87 110.38 11.76C117.32 8.19003 124.61 5.48003 132.5 4.61003C137.8 4.03003 143.08 3.69003 148.39 4.19003C155.57 4.87003 162.59 6.31003 169.14 9.44003C172.35 10.97 175.52 12.63 178.61 14.39C184.8 17.93 189.89 22.78 194.76 27.94C198.67 32.09 201.78 36.74 204.53 41.68C205.08 42.67 205.71 43.29 207.14 43.22C210.64 43.04 213.21 44.96 215.19 47.65C218.07 51.55 219.34 56.12 220.25 60.77C221.12 65.18 221.4 69.67 220.85 74.16C220.17 79.71 218.86 85.07 216.16 90.03C214.82 92.49 212.68 94.03 210.29 95.23C209.41 95.67 208.25 95.51 207.26 95.78C206.68 95.94 206.03 96.28 205.67 96.74C204.82 97.81 204.17 99.03 203.36 100.13C202.74 100.97 202.71 101.68 203.42 102.46C206.59 105.94 208.72 110.08 210.7 114.28C212.66 118.43 213.49 122.93 214.42 127.4C215.08 130.59 215.54 133.78 215.4 137.02C215.24 140.89 215.94 144.85 214.35 148.59C213.96 149.5 213.66 150.5 213.07 151.27C212.19 152.42 212.52 153.29 213.26 154.27C214.41 155.79 215.56 157.31 216.62 158.9C219.63 163.39 222 168.22 224.34 173.09C226.5 177.59 227.6 182.41 228.99 187.12C229.99 190.52 230.37 194.1 231.03 197.6C231.1 197.96 231.1 198.39 231.3 198.66C233.32 201.37 234.09 204.49 234.6 207.77C235.35 212.54 235.34 217.29 234.43 222C233.79 225.28 232.95 228.55 231.85 231.7C231.38 233.04 230.17 234.28 229 235.15C228.05 235.85 227.43 236.57 227.12 237.62C225.01 244.61 222.12 251.25 217.96 257.27C215.14 261.36 212.24 265.39 209.21 269.32C207.78 271.18 205.96 272.74 204.3 274.41C200.61 278.13 196.56 281.42 192.26 284.4C187.07 288 181.55 291.09 175.71 293.43C167.58 296.7 159.21 299.29 150.34 299.73C146.82 299.9 143.31 300.15 139.79 300.36L139.77 300.39ZM225.79 196.53C225.7 195.69 225.65 195.12 225.57 194.56C224.89 189.77 223.52 185.17 221.93 180.61C219.33 173.14 215.72 166.22 211.2 159.76C210.49 158.74 209.77 157.73 208.97 156.78C208.78 156.55 208.11 156.42 207.88 156.58C205.67 158.07 203.2 158.69 200.6 158.87C196.09 159.17 191.94 157.87 187.89 155.97C182.87 153.62 180.12 149.56 179.09 144.33C178.39 140.8 178.87 137.29 180.64 134.06C181.07 133.28 181.04 132.8 180.11 132.45C179.03 132.04 177.99 131.5 176.95 130.99C168.82 127 160.15 124.72 151.25 123.53C142.7 122.38 134.15 122.69 125.6 124.3C116.91 125.93 108.7 128.74 100.81 132.64C99.97 133.06 99.8 133.52 100.18 134.41C103.05 141.23 100.88 149.39 94.71 153.46C88.37 157.65 81.45 159.25 74.02 156.38C73.15 156.04 72.72 156.26 72.17 156.95C67.25 163 63.65 169.82 60.65 176.96C59.3 180.16 58.51 183.59 57.44 186.9C55.44 193.16 54.62 199.63 54.37 206.16C53.87 219.36 56.44 232 61.76 244.09C64.82 251.05 68.75 257.48 73.55 263.36C77.34 268 81.58 272.17 86.21 276.01C91.88 280.71 98.08 284.51 104.7 287.63C111.27 290.72 118.13 292.95 125.31 294.09C128.91 294.66 132.54 295.2 136.17 295.38C141.85 295.67 147.55 295.73 153.16 294.5C157.74 293.5 162.41 292.82 166.86 291.41C174.63 288.94 181.93 285.38 188.71 280.75C195.41 276.17 201.4 270.87 206.61 264.66C213.79 256.1 219.13 246.53 222.66 235.92C223.28 234.06 223.89 232.36 222.62 230.57C222.39 230.25 222.31 229.79 222.26 229.39C221.86 225.85 221.18 222.31 221.16 218.77C221.14 213.06 221.92 207.42 224.27 202.12C225.14 200.15 225.14 200.12 223.04 199.37C222.88 199.31 222.72 199.29 222.57 199.22C221.42 198.7 220.61 199.06 220.2 200.21C219.4 202.42 218.59 204.63 217.88 206.87C217.45 208.24 217.07 208.61 215.83 208.42C214.55 208.23 214.46 207.24 214.65 206.34C215.15 204.03 215.5 201.63 216.43 199.5C217.91 196.12 220.27 194.37 224.33 196.21C224.69 196.37 225.11 196.4 225.77 196.55L225.79 196.53ZM86.79 49.07C87.37 48.65 87.87 48.34 88.31 47.95C94.21 42.76 100.95 38.93 108.29 36.28C116.08 33.48 124.14 31.78 132.41 31.09C143.59 30.15 154.6 31 165.51 33.67C173.02 35.51 180.21 38.1 186.68 42.36C190.47 44.86 194 47.76 197.67 50.51C198.66 49.18 199.84 47.65 200.95 46.07C201.1 45.86 200.96 45.34 200.8 45.05C197.71 39.57 194.24 34.35 189.86 29.82C184.05 23.8 177.4 18.94 169.85 15.24C162.89 11.83 155.56 9.90003 147.94 9.00003C142.66 8.38003 137.38 8.77003 132.09 9.65003C121.24 11.46 111.55 15.83 102.82 22.36C97.55 26.3 92.96 31.02 89.17 36.43C87.34 39.04 85.8 41.85 84.19 44.61C83.97 44.98 83.96 45.73 84.19 46.05C85.02 47.17 86.01 48.18 86.79 49.07ZM198.63 90.11C198.37 90.56 198.2 91.07 197.87 91.43C192.02 97.78 184.93 102.35 176.92 105.39C172.09 107.22 167.08 108.63 162.08 109.93C155.37 111.67 148.48 112.1 141.57 111.93C136.39 111.8 131.17 111.74 126.05 111.05C119.11 110.12 112.35 108.23 105.83 105.56C99.69 103.04 93.97 99.78 88.92 95.45C87.65 94.36 86.63 92.96 85.46 91.66C84.7 92.36 84.3 92.86 83.78 93.18C82.6 93.91 82.81 94.73 83.48 95.65C84.5 97.06 85.51 98.49 86.53 99.9C90.21 104.96 95.01 108.73 100.27 111.99C105.58 115.27 111.42 117.27 117.32 119.13C119.82 119.92 122.33 120.17 124.93 119.67C126.72 119.32 128.53 119.09 130.34 118.83C138.97 117.62 147.56 117.99 156.1 119.64C158.23 120.05 160.36 120.29 162.5 119.68C163.42 119.42 164.35 119.22 165.27 118.94C174.97 116.07 184.18 112.22 191.87 105.37C195.43 102.2 198.52 98.63 201.09 94.63C201.36 94.21 201.47 93.37 201.23 93.01C200.62 92.1 199.77 91.34 198.64 90.12L198.63 90.11ZM69.18 69.25C69.12 73.52 69.56 77.74 71.05 81.74C71.97 84.2 73.12 86.64 74.57 88.82C76.32 91.45 78.45 91.44 80.69 89.23C83.33 86.63 84.24 83.13 85.17 79.79C86.53 74.93 86.65 69.91 86.2 64.85C85.81 60.53 84.84 56.41 82.82 52.59C82.21 51.44 81.36 50.36 80.42 49.46C78.69 47.8 76.23 47.9 74.7 49.74C73.71 50.93 72.85 52.31 72.24 53.74C70.13 58.68 69.1 63.87 69.18 69.25ZM216.11 68.06C215.92 66.43 215.74 63.65 215.24 60.92C214.49 56.89 213.25 53.02 210.52 49.82C208.83 47.83 206.11 47.72 204.45 49.72C203.25 51.17 202.09 52.8 201.47 54.55C197.77 64.96 197.66 75.37 202.16 85.6C202.87 87.21 204.18 88.61 205.42 89.91C206.58 91.14 208.03 91.19 209.34 90.07C210.33 89.22 211.2 88.16 211.87 87.05C215.17 81.57 215.91 75.45 216.12 68.06H216.11ZM194.43 130.93C193.72 130.93 193.01 130.85 192.32 130.94C190.39 131.19 188.36 131.29 187.11 133.11C186.24 134.37 185.33 135.64 184.74 137.04C182.96 141.3 183.64 146.41 187.56 149.73C190.71 152.39 194.4 153.47 198.43 153.81C205.03 154.38 209.62 150.03 210.43 144.25C211.12 139.31 209.76 136.1 205.75 133.79C202.23 131.77 198.42 131.02 194.44 130.93H194.43ZM85.87 130.1C82.1 130.12 78.41 130.63 75.06 132.48C72.4 133.95 70.25 135.99 69.86 139.19C69.53 141.84 69.58 144.49 70.98 146.94C72.85 150.21 75.39 152.54 79.34 152.81C82.84 153.05 86.16 152.39 89.35 150.89C94.6 148.42 97.05 144.26 96.16 138.53C95.44 133.86 92.81 129.53 86.62 130.1C86.37 130.12 86.12 130.1 85.87 130.1ZM209.93 130.57C209.84 129.67 209.82 129.01 209.7 128.37C208.21 120.2 205.08 112.74 200.1 106.07C199.55 105.34 199.1 105.24 198.41 105.93C196.91 107.42 195.47 109.02 193.79 110.28C186.99 115.38 179.69 119.59 171.51 122.12C170.99 122.28 170.51 122.56 170.12 122.74C174.49 124.72 178.76 126.68 183.07 128.57C183.53 128.77 184.24 128.64 184.74 128.42C185.76 127.98 186.65 127.17 187.69 126.89C195.12 124.91 202.13 126.02 208.73 129.91C209.07 130.11 209.41 130.29 209.93 130.58V130.57ZM85.54 106.53C80.86 112.57 77.06 118.87 75.66 126.54C76.08 126.48 76.41 126.49 76.7 126.39C80.47 125.2 84.35 124.97 88.27 125.17C91.38 125.34 94.38 125.83 96.58 128.43C96.82 128.71 97.65 128.75 98.08 128.57C101.86 126.98 105.61 125.33 109.36 123.68C110.21 123.31 111.04 122.9 112.06 122.42C101.82 119.23 93.14 113.95 85.53 106.51L85.54 106.53ZM228.89 201.6C228.44 202.22 228.04 202.61 227.85 203.08C227.3 204.5 226.64 205.92 226.37 207.41C225.83 210.42 225.35 213.46 225.16 216.5C224.93 220.13 224.83 223.8 225.76 227.38C225.88 227.83 226.07 228.25 226.25 228.76C230.55 223.24 230.99 216.94 230.8 210.51C230.71 207.52 230.63 204.51 228.88 201.6H228.89Z" fill="black"/>
<path d="M86.79 49.06C86.01 48.17 85.0199 47.17 84.1899 46.04C83.9499 45.72 83.9699 44.97 84.1899 44.6C85.7999 41.84 87.34 39.03 89.17 36.42C92.97 31.02 97.5499 26.3 102.82 22.35C111.55 15.82 121.24 11.45 132.09 9.63999C137.38 8.75999 142.66 8.36999 147.94 8.98999C155.55 9.88999 162.89 11.82 169.85 15.23C177.4 18.93 184.05 23.8 189.86 29.81C194.24 34.34 197.71 39.57 200.8 45.04C200.96 45.33 201.09 45.85 200.95 46.06C199.84 47.64 198.67 49.17 197.67 50.5C194 47.76 190.47 44.85 186.68 42.35C180.21 38.09 173.02 35.49 165.51 33.66C154.61 30.99 143.59 30.15 132.41 31.08C124.14 31.77 116.07 33.47 108.29 36.27C100.94 38.92 94.2099 42.75 88.3099 47.94C87.8699 48.32 87.37 48.63 86.79 49.06Z" fill="#BCE4FA"/>
<path d="M198.63 90.11C199.76 91.34 200.61 92.09 201.22 93C201.46 93.36 201.35 94.2 201.08 94.62C198.51 98.62 195.42 102.19 191.86 105.36C184.18 112.21 174.97 116.06 165.26 118.93C164.35 119.2 163.41 119.41 162.49 119.67C160.35 120.27 158.22 120.04 156.09 119.63C147.55 117.98 138.96 117.61 130.33 118.82C128.52 119.07 126.71 119.31 124.92 119.66C122.32 120.16 119.81 119.91 117.31 119.12C111.41 117.26 105.57 115.27 100.26 111.98C95 108.72 90.19 104.95 86.52 99.89C85.5 98.48 84.49 97.06 83.47 95.64C82.81 94.72 82.6 93.9 83.77 93.17C84.28 92.85 84.68 92.35 85.45 91.65C86.62 92.95 87.64 94.34 88.91 95.44C93.96 99.78 99.67 103.03 105.82 105.55C112.33 108.22 119.09 110.11 126.04 111.04C131.16 111.73 136.38 111.79 141.56 111.92C148.47 112.1 155.36 111.66 162.07 109.92C167.08 108.62 172.08 107.21 176.91 105.38C184.92 102.35 192.01 97.78 197.86 91.42C198.19 91.06 198.37 90.55 198.62 90.1L198.63 90.11Z" fill="#BCE4FA"/>
<path d="M69.1801 69.25C69.1001 63.8601 70.1301 58.6801 72.2401 53.7301C72.8501 52.3001 73.7001 50.9201 74.7001 49.7301C76.2301 47.8901 78.6901 47.79 80.4201 49.45C81.3601 50.35 82.2101 51.4301 82.8201 52.5801C84.8401 56.4101 85.8101 60.5201 86.2001 64.8401C86.6501 69.9001 86.5301 74.92 85.1701 79.78C84.2401 83.12 83.3301 86.6201 80.6901 89.2201C78.4501 91.43 76.3201 91.44 74.5701 88.81C73.1201 86.63 71.9701 84.19 71.0501 81.73C69.5601 77.73 69.1201 73.51 69.1801 69.24V69.25Z" fill="#BCE4FA"/>
<path d="M216.11 68.06C215.9 75.45 215.16 81.57 211.86 87.05C211.19 88.17 210.31 89.23 209.33 90.07C208.02 91.19 206.58 91.15 205.41 89.91C204.18 88.6 202.86 87.21 202.15 85.6C197.65 75.38 197.76 64.96 201.46 54.55C202.08 52.8 203.24 51.16 204.44 49.72C206.1 47.72 208.82 47.83 210.51 49.82C213.23 53.02 214.48 56.9 215.23 60.92C215.73 63.64 215.91 66.43 216.1 68.06H216.11Z" fill="#BCE4FA"/>
<path d="M194.43 130.93C198.42 131.02 202.22 131.77 205.74 133.79C209.76 136.1 211.11 139.3 210.42 144.25C209.61 150.03 205.01 154.38 198.42 153.81C194.39 153.46 190.7 152.39 187.55 149.73C183.63 146.41 182.95 141.3 184.73 137.04C185.31 135.64 186.23 134.37 187.1 133.11C188.35 131.29 190.39 131.19 192.31 130.94C193 130.85 193.72 130.93 194.42 130.93H194.43Z" fill="#A1DAF8"/>
<path d="M85.87 130.1C86.12 130.1 86.37 130.12 86.62 130.1C92.82 129.53 95.4401 133.86 96.1601 138.53C97.0501 144.25 94.5901 148.42 89.3501 150.89C86.1601 152.39 82.8401 153.05 79.3401 152.81C75.3901 152.54 72.8501 150.22 70.9801 146.94C69.5801 144.5 69.5401 141.84 69.8601 139.19C70.2501 135.98 72.4001 133.95 75.0601 132.48C78.4101 130.63 82.1 130.12 85.87 130.1Z" fill="#A1DAF8"/>
<path d="M209.93 130.58C209.41 130.29 209.07 130.11 208.73 129.91C202.13 126.02 195.11 124.91 187.69 126.89C186.65 127.17 185.76 127.98 184.74 128.42C184.24 128.63 183.53 128.77 183.07 128.57C178.76 126.69 174.49 124.72 170.12 122.74C170.51 122.56 170.99 122.28 171.51 122.12C179.69 119.6 186.99 115.38 193.79 110.28C195.47 109.02 196.91 107.43 198.41 105.93C199.1 105.24 199.55 105.34 200.1 106.07C205.08 112.74 208.21 120.2 209.7 128.37C209.82 129.01 209.84 129.67 209.93 130.57V130.58Z" fill="#AFDFF9"/>
<path d="M85.5399 106.53C93.1499 113.96 101.82 119.25 112.07 122.44C111.05 122.92 110.22 123.33 109.37 123.7C105.62 125.35 101.86 127 98.0899 128.59C97.6699 128.77 96.8299 128.73 96.5899 128.45C94.3899 125.85 91.3899 125.36 88.2799 125.19C84.3599 124.98 80.4899 125.22 76.7099 126.41C76.4199 126.5 76.0899 126.5 75.6699 126.56C77.0699 118.89 80.87 112.59 85.55 106.55L85.5399 106.53Z" fill="#AFDFF9"/>
<path d="M228.89 201.61C230.64 204.52 230.72 207.53 230.81 210.52C231 216.95 230.56 223.24 226.26 228.77C226.08 228.26 225.88 227.83 225.77 227.39C224.84 223.81 224.93 220.14 225.17 216.51C225.36 213.46 225.84 210.43 226.38 207.42C226.65 205.94 227.31 204.51 227.86 203.09C228.04 202.62 228.45 202.24 228.9 201.61H228.89Z" fill="#B2B2B2"/>
<path d="M132.1 266.47C132.04 269.73 131.65 272.93 130.11 275.88C127.43 281.01 121.48 283.6 115.33 282.15C109.37 280.75 104.72 277.32 100.95 272.51C98.1901 268.99 96.1601 265.16 94.8401 260.91C93.2201 255.67 92.7001 250.46 94.6801 245.17C97.2501 238.3 104.16 234.75 111.18 236.91C117.18 238.76 121.92 242.41 125.57 247.47C129.65 253.13 132.19 259.35 132.1 266.47ZM121.44 274.66C122.43 274.47 123.46 274.45 124.32 274.06C125.21 273.66 125.91 272.88 126.74 272.33C127.76 271.67 128.31 270.75 128.45 269.57C128.58 268.42 128.73 267.26 128.73 266.1C128.72 261.67 127.27 257.61 125.18 253.79C122.01 247.99 118 242.98 111.39 240.83C106.13 239.12 101.51 240.32 98.7701 244.82C96.5101 248.53 96.5501 257.52 100.48 260.79C100.88 261.12 101.07 261.68 101.39 262.11C103.31 264.7 104.91 267.67 107.27 269.77C109.32 271.59 112.15 272.7 114.81 273.63C116.88 274.36 119.21 274.34 121.44 274.65V274.66Z" fill="black"/>
<path d="M70.0201 194.21C72.2501 195.91 72.3801 195.91 73.7201 193.68C74.3401 192.65 74.88 191.57 75.35 190.47C75.7301 189.57 76.3301 189.43 77.1501 189.69C78.0101 189.97 78.2501 190.57 77.8301 191.35C76.8401 193.2 75.9901 195.17 74.7401 196.83C73.4601 198.52 72.1101 198.6 70.2101 197.67C68.8301 197 67.4801 196.26 66.0901 195.62C64.5301 194.91 63.7401 193.66 63.5501 192.04C63.0501 187.76 63.6801 183.59 64.9901 179.52C65.6301 177.55 66.3701 175.59 67.2801 173.74C67.9501 172.39 68.9201 171.16 69.8901 169.99C70.8401 168.84 72.18 168.4 73.6 168.91C74.93 169.39 75.6101 170.65 75.6901 171.93C75.8501 174.44 76.0501 177.02 75.6801 179.49C75.0101 183.97 73.8801 188.37 71.4701 192.3C71.0601 192.96 70.5301 193.55 70.0101 194.23L70.0201 194.21ZM71.9101 173.28C71.5001 173.88 71.0201 174.45 70.6701 175.08C68.8901 178.33 68.1501 181.91 67.4701 185.49C67.3301 186.22 67.6301 187.04 67.7301 187.81C68.4501 187.34 69.1801 186.87 69.8901 186.39C69.9801 186.33 70.0301 186.18 70.0701 186.07C71.6201 182 72.5801 177.84 71.9001 173.28H71.9101Z" fill="black"/>
<path d="M108.72 226.65C110.69 227.39 112.68 228.06 114.62 228.87C123.35 232.5 129.99 238.51 134.7 246.69C134.95 247.12 135.16 247.57 135.35 248.03C135.74 248.94 135.43 249.66 134.64 250.17C133.81 250.7 133.04 250.52 132.43 249.78C132.09 249.37 131.81 248.9 131.56 248.42C128.4 242.17 123.4 237.76 117.52 234.18C114.84 232.54 111.99 231.37 108.94 230.65C108.54 230.56 108.15 230.41 107.77 230.25C106.88 229.89 106.42 229.21 106.69 228.28C106.95 227.38 107.58 226.79 108.71 226.65H108.72Z" fill="black"/>
<path d="M179.93 188.78C179.95 192.4 178.08 194.93 174.83 195.6C172.47 196.09 170.5 195.13 169.03 193.47C166.52 190.62 166.05 186.14 168.66 183.04C171.34 179.87 176.06 180.48 178.37 183.64C179.54 185.24 179.91 186.69 179.92 188.77L179.93 188.78ZM173.22 191.23C175.48 191.2 177.16 189.96 177.12 188.36C177.07 186.13 175.12 183.87 173.26 183.86C171.21 183.86 169.89 185.47 169.94 187.94C169.99 190.12 171.13 191.26 173.23 191.23H173.22Z" fill="black"/>
<path d="M215.77 224.75C215.93 227.64 215.95 230.93 217.49 233.97C217.94 234.86 217.85 235.79 216.91 236.38C216.11 236.88 215.08 236.57 214.51 235.5C213.86 234.3 213.26 233.04 212.91 231.74C212.11 228.76 211.85 225.7 212.04 222.61C212.1 221.59 212.38 220.69 213.5 220.41C214.73 220.09 215.66 220.75 215.76 222.01C215.82 222.79 215.77 223.59 215.77 224.76V224.75Z" fill="black"/>
<path d="M140.32 271.71C140.5 275.51 138.72 278.76 136.19 281.7C135.42 282.6 134.31 282.72 133.53 282.07C132.83 281.49 132.8 280.41 133.47 279.49C134.06 278.69 134.75 277.94 135.23 277.08C136.38 275.03 137.1 272.86 136.84 270.43C136.66 268.72 137.1 268.1 138.25 268.04C139.64 267.97 140.25 268.65 140.31 270.35C140.32 270.72 140.31 271.1 140.31 271.71H140.32Z" fill="black"/>
<path d="M174.22 202.61C170.91 202.48 168.15 201.16 165.61 199.27C164.93 198.76 164.27 198.11 164.92 197.18C165.57 196.25 166.32 196.61 167.19 197.04C169.11 197.98 171.06 198.93 173.09 199.52C174.21 199.85 175.55 199.52 176.77 199.37C177.64 199.26 178.4 199.48 178.5 200.31C178.56 200.76 178 201.56 177.53 201.75C176.49 202.18 175.32 202.34 174.21 202.6L174.22 202.61Z" fill="black"/>
<path d="M161.99 191.73C161.81 191.56 161.26 191.28 161.1 190.86C159.85 187.52 160.05 184.16 161.43 180.93C162.06 179.47 163.28 179.34 163.99 180.44C164.21 180.78 164.27 181.42 164.11 181.79C162.92 184.43 163.19 187.13 163.67 189.85C163.87 190.99 163.36 191.71 161.99 191.72V191.73Z" fill="black"/>
<path d="M82.8199 174.52C82.4499 176.82 82.2199 178.75 81.8099 180.64C81.5399 181.89 80.7999 182.32 79.8599 181.96C78.9499 181.6 78.9299 180.8 79.1199 179.98C79.7499 177.23 80.3399 174.49 79.3799 171.67C79.2399 171.24 79.7099 170.14 79.9199 170.14C80.5799 170.13 81.6499 170.31 81.8199 170.73C82.3599 172.02 82.5599 173.45 82.8199 174.53V174.52Z" fill="black"/>
<path d="M106.62 49.86C112.11 45.69 119.05 42.63 128.35 41.5C145.6 39.4 162.09 40.08 175.85 45.82C186.97 50.46 191.65 57.24 193.03 64.65C193.6 67.73 192.92 70.92 192 74.01C189.81 70.34 188.21 66.51 185.26 63.03C182.44 59.71 178.86 56.46 174.46 53.7C162.98 46.48 147.22 45.02 129.84 46.72C122.2 47.47 114.7 48.76 106.61 49.87L106.62 49.86Z" fill="white"/>
<path d="M132.89 105.98C129.74 106.46 125.98 106.36 121.27 105.32C112.53 103.38 104.45 100.69 98.27 96.83C93.27 93.71 91.68 90.89 91.78 88.37C91.82 87.32 92.5 86.43 93.28 85.61C93.97 87.09 94.35 88.52 95.44 90.05C96.48 91.51 97.9 93.06 99.78 94.59C104.68 98.57 112.31 101.39 121.08 103.48C124.93 104.4 128.78 105.12 132.89 105.99V105.98Z" fill="white"/>
<path d="M121.44 274.66C119.21 274.35 116.88 274.37 114.81 273.64C112.15 272.71 109.32 271.6 107.27 269.78C104.91 267.68 103.31 264.72 101.39 262.12C101.07 261.69 100.88 261.13 100.48 260.8C96.5601 257.53 96.5101 248.54 98.7701 244.83C101.52 240.33 106.13 239.13 111.39 240.84C118 242.99 122 248 125.18 253.8C127.27 257.62 128.71 261.68 128.73 266.11C128.73 267.27 128.58 268.43 128.45 269.58C128.32 270.76 127.76 271.67 126.74 272.34C125.91 272.88 125.2 273.67 124.32 274.07C123.45 274.46 122.43 274.48 121.44 274.67V274.66Z" fill="#C6C6C6"/>
<path d="M71.91 173.29C72.59 177.85 71.6299 182.02 70.0799 186.08C70.0399 186.2 69.9899 186.34 69.8999 186.4C69.1899 186.88 68.4599 187.35 67.7399 187.82C67.6399 187.04 67.3399 186.23 67.4799 185.5C68.1599 181.92 68.8999 178.33 70.6799 175.09C71.0299 174.46 71.4999 173.89 71.9199 173.29H71.91Z" fill="#C6C6C6"/>
<path d="M173.22 191.23C171.12 191.26 169.98 190.11 169.93 187.94C169.88 185.47 171.2 183.86 173.25 183.86C175.11 183.86 177.06 186.13 177.11 188.36C177.15 189.97 175.47 191.2 173.21 191.23H173.22Z" fill="#C6C6C6"/>
<path d="M10.31 86.5L7.76999 82.46L3 82.27L6.04999 78.6L4.75998 74L9.19 75.77L13.16 73.12L12.85 77.89L16.6 80.85L11.97 82.02L10.31 86.5Z" fill="white" stroke="#1D1D1B" stroke-width="2" stroke-miterlimit="10"/>
<path d="M34.06 153.87L31.51 149.83L26.74 149.64L29.79 145.97L28.5 141.37L32.94 143.14L36.91 140.49L36.6 145.26L40.34 148.21L35.71 149.39L34.06 153.87Z" fill="white" stroke="#1D1D1B" stroke-width="2" stroke-miterlimit="10"/>
<path d="M235.66 36.28L233.11 32.25L228.34 32.06L231.39 28.38L230.1 23.79L234.54 25.56L238.51 22.91L238.2 27.67L241.94 30.63L237.31 31.81L235.66 36.28Z" fill="white" stroke="#1D1D1B" stroke-width="2" stroke-miterlimit="10"/>
<path d="M228.45 111.75L225.9 107.72L221.13 107.53L224.18 103.85L222.89 99.26L227.32 101.03L231.3 98.38L230.98 103.14L234.73 106.1L230.1 107.28L228.45 111.75Z" fill="white" stroke="#1D1D1B" stroke-width="2" stroke-miterlimit="10"/>
<path d="M259.67 281.35L257.12 277.31L252.35 277.12L255.41 273.45L254.11 268.85L258.55 270.62L262.52 267.97L262.21 272.74L265.96 275.7L261.33 276.87L259.67 281.35Z" fill="white" stroke="#1D1D1B" stroke-width="2" stroke-miterlimit="10"/>
<path d="M235.25 264.07L232.7 260.03L227.93 259.84L230.98 256.17L229.69 251.57L234.13 253.34L238.1 250.69L237.78 255.46L241.53 258.42L236.9 259.59L235.25 264.07Z" fill="white" stroke="#1D1D1B" stroke-width="2" stroke-miterlimit="10"/>
<path d="M40.86 266.1L38.3101 262.06L33.54 261.87L36.6 258.2L35.3 253.6L39.7401 255.37L43.7101 252.72L43.4001 257.49L47.14 260.45L42.5201 261.62L40.86 266.1Z" fill="white" stroke="#1D1D1B" stroke-width="2" stroke-miterlimit="10"/>
<path d="M81.4401 15.38L78.8901 11.34L74.1201 11.15L77.1801 7.48L75.8801 2.88L80.3201 4.65L84.2901 2L83.9801 6.76L87.7201 9.72L83.1001 10.9L81.4401 15.38Z" fill="white" stroke="#1D1D1B" stroke-width="2" stroke-miterlimit="10"/>
<path d="M27.48 45.82L23.8401 40.06L17.04 39.79L21.4001 34.56L19.55 28L25.88 30.52L31.54 26.75L31.1 33.54L36.4401 37.76L29.8401 39.44L27.48 45.82Z" fill="white" stroke="#1D1D1B" stroke-width="2" stroke-miterlimit="10"/>
<path d="M274.26 231.73L269.17 223.65L259.63 223.27L265.74 215.94L263.15 206.75L272.02 210.28L279.96 204.99L279.33 214.51L286.82 220.43L277.57 222.77L274.26 231.73Z" fill="white" stroke="#1D1D1B" stroke-width="2" stroke-miterlimit="10"/>
<path d="M17.63 251.93L12.54 243.85L3 243.47L9.10999 236.13L6.51999 226.95L15.39 230.48L23.33 225.19L22.7 234.71L30.19 240.63L20.94 242.97L17.63 251.93Z" fill="white" stroke="#1D1D1B" stroke-width="2" stroke-miterlimit="10"/>
<path d="M74.6802 137.49C76.7202 134.94 87.1002 134.09 87.1002 134.09L74.6802 137.49Z" fill="white"/>
<path d="M74.9901 138.15L74.9001 138.04C74.4101 137.48 74.4301 136.39 74.9501 135.89C77.6601 133.27 83.6201 132.15 86.2201 131.77C86.7401 131.69 87.2001 132.25 87.2401 132.99V133.18C87.2901 133.9 86.9301 134.54 86.4201 134.61C82.9401 135.12 78.0101 136.38 76.1301 138.16C75.7801 138.5 75.3201 138.52 74.9901 138.14V138.15Z" fill="white"/>
<path d="M193.28 135.07L193.26 134.93C193.16 134.19 193.78 133.3 194.49 133.17C198.2 132.49 203.78 134.85 206.15 135.98C206.62 136.2 206.7 136.92 206.32 137.56L206.22 137.73C205.86 138.35 205.2 138.68 204.74 138.47C201.56 136.97 196.75 135.29 194.21 135.73C193.73 135.81 193.34 135.58 193.27 135.08L193.28 135.07Z" fill="white"/>
</svg>
