<svg width="376" height="393" viewBox="0 0 376 393" fill="none" xmlns="http://www.w3.org/2000/svg">
<path d="M246.64 265.79C246.64 265.79 246.77 274.98 242.75 275.43C238.73 275.88 244.99 282.83 244.99 282.83C244.99 282.83 238.41 297.06 239.3 306.83C240.19 316.6 261.45 310.04 267.96 310.45C270.81 310.63 273.04 316.73 275.61 313.79C278.18 310.85 281.11 321.19 279.96 322.92C278.81 324.65 274.85 333.13 279.39 333.64C283.93 334.15 302.05 329.24 307.22 319.47C312.39 309.7 304.79 306.19 302.94 305.17C301.09 304.15 292 291.7 291.77 290.04C291.54 288.38 300.7 283.59 302.43 275.23C304.16 266.87 292.28 276.51 290.62 270.19C288.96 263.87 287.3 253.28 284.81 253.72C282.32 254.16 246.96 263.29 246.64 265.78V265.79Z" fill="white"/>
<path d="M56.4701 314.84C55.6601 313.25 55.1101 311.44 53.9901 310.1C39.9901 293.27 29.5401 274.71 23.4901 253.45C17.7301 233.23 17.8101 212.77 19.0901 192.27C24.6601 102.97 92.7901 45.43 162.08 29.14C198.1 20.67 233.45 21.95 267.72 36.73C284.68 44.04 299.76 54.13 312.35 67.97C315.44 71.37 313.78 75.13 315.64 78.27C313.13 76.57 310.83 74.22 308.06 73.29C287.06 66.19 265.45 62.16 243.28 64.05C196.13 68.08 161 91.46 137.46 132.24C123.94 155.64 117.1 181.19 117.52 208.12C118.48 269.75 154.05 315.63 212.57 331.73C239.97 339.27 267.7 340.16 295.72 336.86C302.48 336.06 309.2 334.83 315.98 334.2C317.76 334.04 319.69 335.38 321.54 336.04C320.92 337.72 320.76 339.89 319.6 341.01C304.63 355.52 287.12 365.89 267.23 372.04C224.95 385.12 183.07 382.05 141.67 368.02C110.4 357.43 83.0301 340.45 59.9601 316.68C59.0801 315.78 57.6301 315.43 56.4501 314.82L56.4701 314.84ZM113.22 275.95C112.5 261.86 107.86 251.26 97.9501 243.22C93.1401 239.32 87.6101 237.35 81.7301 239.88C75.5101 242.56 73.5801 248.41 73.4701 254.68C73.1901 269.75 79.3001 281.81 91.5101 290.59C98.6501 295.72 108.09 292.89 111.35 284.67C112.6 281.51 112.82 277.95 113.23 275.95H113.22ZM76.3501 130C68.4401 131.82 64.4401 144.13 66.9901 152.63C70.3701 163.9 81.3401 170.97 92.8001 169.22C104.15 167.49 112.79 157.5 112.61 146.31C112.5 139.05 108.41 132.11 103.99 131.65C109.88 145.23 108.96 153.6 100.87 159.93C93.9401 165.36 85.1001 165.72 78.3501 159.97C75.3401 157.41 72.7101 153.68 71.4401 149.96C68.9501 142.68 71.8801 136.08 76.3401 129.99L76.3501 130ZM60.2101 197.54C58.2601 192.56 55.0801 189.93 50.6401 189.26C45.4501 188.47 41.7301 191.29 39.0301 195.45C33.2701 204.32 35.0001 218.5 42.5801 225.88C45.8201 229.04 49.5901 230.24 53.9801 229.34C58.1001 228.5 60.5901 225.46 60.2901 221.85C51.7101 227.22 46.5501 225.76 43.1601 216.46C42.0001 213.29 41.8501 209.67 41.7101 206.24C41.5201 201.4 42.6601 196.81 47.3101 194.32C51.7901 191.92 55.1401 195.02 58.5201 197.41C58.6401 197.49 58.8501 197.44 60.2101 197.53V197.54ZM158.26 72C153.54 64.19 155.19 59.73 163.42 57.19C165.46 56.56 167.64 56.15 169.77 56.12C178.8 56 181.38 60.42 177.09 68.37C176.99 68.56 177.25 68.95 177.34 69.25C183.92 67.5 186.03 60.2 181.28 55.05C176.42 49.79 170.09 49.67 163.7 51.05C157.91 52.3 153.21 55.36 151.06 61.2C149.17 66.32 152.16 70.95 158.26 72ZM115.2 336.21C114.67 334.7 114.11 333.2 113.6 331.68C109.86 320.67 117.24 310.24 128.78 310.69C132.49 310.83 136.16 312.29 139.83 313.21C141.25 313.57 142.62 314.13 144.01 314.6C138.54 306.93 131.24 303.51 122.42 305.26C114.93 306.75 110.1 312.02 108.52 319.37C107.11 325.96 108.42 332.21 115.2 336.2V336.21ZM103.2 79.16C99.5001 85.79 102.61 92.43 109.05 93.37C119.76 94.94 131.97 81.34 129.05 70.82C128.36 68.35 126.37 66.24 124.98 63.96C124.47 64.11 123.96 64.26 123.45 64.41C123.21 65.69 122.49 67.09 122.8 68.22C124.94 75.94 122.76 82.21 116.17 86.57C109.72 90.84 106.38 89.55 104.4 82.06C104.2 81.31 103.81 80.61 103.2 79.15V79.16ZM229.94 42.43C228.7 44.37 228.25 45.74 227.31 46.4C224.92 48.08 222.25 50.66 219.26 48.42C216.27 46.19 215.69 42.65 218.12 39.63C219.34 38.11 221.69 37.5 223.76 36.34C219.88 34.37 217.05 35.77 215.02 38.72C212.29 42.68 213.07 46.67 216.15 50.08C218.92 53.15 222.51 54.44 226.47 52.6C230.26 50.84 231.65 47.76 229.94 42.43Z" fill="#F9B233"/>
<path d="M306.36 63.96C308.18 74.79 282.45 56.17 241.66 58.22C190.23 60.8 157.55 92.45 143.74 110.12C118.11 142.93 111.31 184.42 112.61 209.38C113.83 232.89 120.33 274.68 84.0001 282.56C59.2701 287.92 35.6201 265.96 35.6201 265.96C79.1001 362.05 192.77 380.38 192.77 380.38C126.01 374.13 52.8601 338.73 25.7901 268.6C10.2101 228.24 8.68005 175.41 35.6201 121.72C77.6601 37.93 177.95 21.69 190.34 20.43C215.74 17.84 301.49 34.98 306.36 63.96Z" fill="#FFD300"/>
<path d="M230.99 248.18C224.15 249.61 217.49 249.3 210.54 246.7C210.68 239.78 213.02 233.74 217.27 228.46C217.92 227.65 219.56 227.58 220.76 227.26C224.85 226.18 229.34 225.88 232.97 223.96C243.44 218.42 254.37 215 266.19 214.28C269.47 214.08 271.32 214.85 272.2 218.39C273.69 224.34 275.92 230.11 277.44 236.06C277.8 237.47 276.97 240.44 276.06 240.73C266.49 243.84 256.82 246.65 247.08 249.17C242.65 251.12 242.42 248 241.22 246.8C241.8 245.97 244.1 244.71 244.38 244.18C242.24 244.87 240.11 245.56 237.32 246.46" fill="white"/>
<path d="M213.62 225.65C210.92 232.23 208.41 238.34 205.72 244.89C199.21 241.86 192.57 238.24 189.18 231.26C187.66 228.14 187.28 223.7 188.18 220.34C189.67 214.81 196.08 213.38 200.81 216.8C202.97 218.36 204.94 220.17 207.13 221.68C209.31 223.18 211.64 224.45 213.61 225.65H213.62Z" fill="white"/>
<path d="M187.26 222.95C187.26 222.95 210.44 250.23 242.23 246.15C242.23 246.15 188.17 261.04 187.26 222.95Z" fill="#B2B2B2"/>
<path d="M288.68 169.36C289.5 162.57 292.91 157.35 297.11 157.32C301.18 157.29 305.38 162.58 305.39 168.74C305.39 172.08 304.77 175.75 303.29 178.7C300.83 183.6 295.53 183.86 292.57 179.27C290.68 176.35 289.94 172.69 288.69 169.36H288.68Z" fill="white"/>
<path d="M294.69 154.62C283.29 163.74 285.72 176.49 292.88 183.82C286.2 181.9 282.37 174.58 283.53 165.95C284.53 158.58 288.48 154.57 294.69 154.62Z" fill="white"/>
<path d="M306.34 166.19C306.32 164.79 301.36 184.33 289.07 174.19C286.68 172.22 291.35 180.46 285.08 177.04C278.81 173.62 294.38 191.32 299.92 185.11C305.46 178.9 306.42 170.89 306.35 166.2L306.34 166.19Z" fill="#B2B2B2"/>
<path d="M307.17 256.13C309.66 268.36 309.14 265.97 296.63 270.54C292.75 271.96 291.46 269.98 289.96 261.45C295.56 259.72 301.16 257.99 307.17 256.13Z" fill="white"/>
<path d="M312.26 264.66C310.04 243.78 302.87 224.93 293.89 206.66C297.71 203.35 301.29 203.97 303.25 209.04C307.62 220.35 311.59 231.82 315.59 243.26C316.79 246.7 317.7 250.27 318.48 253.84C319.63 259.08 317.91 262.09 312.25 264.66H312.26Z" fill="white"/>
<path d="M289.94 257.17C289.3 256.48 287.87 255.57 287.42 254.31C285.57 249.16 283.81 243.96 282.5 238.66C282.17 237.31 283.43 235.42 284.31 233.99C284.76 233.26 285.98 232.98 286.89 232.57C298.1 227.5 299.42 228.1 302.82 239.74C303.1 240.7 303.38 241.65 303.67 242.6C306.6 252 305.43 254 295.75 256.09C294.13 256.44 292.49 256.7 289.93 257.17H289.94Z" fill="white"/>
<path d="M308.35 217.28C309.14 224.66 307.29 233.43 303.32 232.03C301.41 231.36 302.04 252.51 283.62 246.64C282.54 246.3 288.26 270.9 292.47 271.66C296.68 272.42 318.51 267.52 320.94 261.04C323.37 254.56 308.24 216.2 308.36 217.28H308.35Z" fill="#B2B2B2"/>
<path d="M278.3 232.51C277.11 243.35 277.46 218.1 253.11 222.09C246.47 223.18 238.83 224.96 233.28 227.32C229.94 228.74 218.76 228.09 217.13 226.89C215.5 225.69 236.58 220.59 240.21 218.29C243.84 215.99 270.05 209.18 271.41 212.08C272.77 214.98 278.5 230.76 278.3 232.51Z" fill="#B2B2B2"/>
<path d="M274.98 301.4C269.75 304.02 277.79 318.89 279.89 319.21C281.99 319.53 276.63 328.98 279.89 330.51C283.15 332.04 299.23 332.49 303.63 324.51C308.03 316.53 309.28 314.07 308.98 312.65C308.68 311.23 301.21 319.28 292.59 316.4C279.72 312.11 274.97 301.4 274.97 301.4H274.98Z" fill="#B2B2B2"/>
<path d="M236.36 249.04C237.06 250.34 236.91 250.68 237.61 251.98C238.92 256.92 236.88 262.79 243.58 265.98C244.67 266.5 244.56 269.56 244.99 271.39C237.16 274.31 235.84 273.77 233.91 266.14C232.74 261.53 232.13 256.77 231.31 252.3C232.63 251.05 233.77 251.11 235.28 249.68L236.37 249.04H236.36Z" fill="white"/>
<path d="M238.6 251.19C235.88 255.63 236 267.66 242.73 273.28C244.82 275.02 232.57 275.66 232.35 265.11C232.13 254.56 228.56 251.07 230.52 250.6C232.48 250.13 238.61 251.2 238.61 251.2L238.6 251.19Z" fill="#B2B2B2"/>
<path d="M268.99 332.9C259.02 331.94 249.44 331.12 239.9 329.99C238.69 329.85 237.67 328.1 236.56 327.09C237.74 325.91 238.82 323.87 240.12 323.71C243.86 323.25 247.7 323.55 251.68 323C248.07 319.54 238.51 323.01 241.07 313.11C245.94 313.11 251 313.34 256.02 313.03C259.34 312.83 262.43 312.54 265.68 312.7C267.38 312.79 270.52 314.01 270.54 315.42C270.59 320.82 269.68 326.24 268.99 332.9Z" fill="white"/>
<path d="M250.72 273.83C250.61 268.69 240.89 288 239.74 298.34C238.59 308.68 241.14 322.16 238.14 324.1C235.14 326.04 232.71 329.33 246.38 332.9C276.06 340.66 249.14 323.18 247.78 300.32C247.4 293.97 250.85 279.99 250.72 273.83Z" fill="#B2B2B2"/>
<path d="M290.66 290.16C291.38 289.34 292.1 288.52 292.19 288.41C294.37 291.81 296.23 295.41 298.77 298.45C301.09 301.24 304.14 303.42 306.86 305.88C311.4 310 312.21 313.26 309.18 318.56C307.14 322.13 304.36 325.26 301.22 329.52C305.99 328.8 310.23 328.21 314.45 327.5C318.97 326.74 323.12 327.1 326.27 330.92C330.04 335.51 329.28 340.99 324.13 345.92C306.66 362.63 286.11 374.04 262.82 380.02C208.85 393.89 157.53 385.26 108.4 360.46C88.0099 350.16 69.8899 336.68 54.2999 319.92C53.1899 318.73 52.8799 316.8 52.1899 315.21C53.6299 315.05 55.0799 314.9 56.5299 314.75C57.7099 315.36 59.1599 315.7 60.0399 316.61C83.1099 340.38 110.48 357.35 141.75 367.95C183.15 381.98 225.02 385.04 267.31 371.97C287.2 365.82 304.71 355.45 319.68 340.94C320.84 339.81 321 337.65 321.62 335.97C319.76 335.32 317.84 333.97 316.06 334.13C309.28 334.76 302.57 335.99 295.8 336.79C267.78 340.09 240.05 339.2 212.65 331.66C154.13 315.57 118.56 269.69 117.6 208.05C117.18 181.12 124.02 155.57 137.54 132.17C161.09 91.3901 196.21 68.0101 243.36 63.9801C265.53 62.0801 287.14 66.1201 308.14 73.2201C310.91 74.1601 313.2 76.51 315.72 78.2L315.57 78.0001C314.92 78.9501 314.24 80.7201 313.63 80.6901C311.19 80.6001 308.69 80.2201 306.36 79.4701C276.74 69.8201 246.72 66.4801 216.46 75.6501C176.34 87.8101 150.12 115.26 134.71 153.43C122.74 183.08 120.62 213.82 129.53 244.54C139.96 280.52 163.45 305.56 198.04 319.71C208.86 324.14 220.42 326.78 231.63 330.24L231.55 328.62C233.14 326.08 234.83 323.6 236.26 320.98C236.92 319.78 237.52 318.26 237.4 316.95C236.38 305.87 236.71 295.08 241.1 284.52C241.76 282.92 238.79 278.73 236.51 277.28C234.2 275.81 229.07 277.28 228.01 275.63C225.5 271.74 223.91 266.85 223.36 262.2C222.61 255.94 220.77 253.62 215.01 251.64C207.67 249.11 200.75 246.04 194.05 242.3C192.76 241.58 191.58 240.47 190.74 239.53C188.62 242.04 186.61 244.66 184.34 247.03C181.49 250 178.11 250.49 175.13 247.42C172.2 244.4 173.34 241.35 176.07 238.68C177.38 237.4 178.56 235.96 179.97 234.8C183.03 232.31 184.15 229.57 183.89 225.26C183.7 222.06 185.42 217.5 187.58 215.13C190.5 211.92 193.75 209.17 196.22 205.36C199.74 199.93 206.05 197.7 211.51 198.29C208.94 191.75 205.34 185.11 203.74 178.02C198.07 152.93 213.84 127.56 238.61 120.76C246.8 118.51 255.03 118.08 263.28 120.17C265.28 120.68 267.04 122.11 269 122.87C273.27 124.54 277.61 126.07 282.71 126.92C278.27 123.44 273.84 119.95 269.39 116.48C268.58 115.85 267.2 114.91 266.32 114.38C255.61 107.98 244.86 101.64 234.21 95.1601C232.85 94.3301 231.95 92.76 230.84 91.5301C232.48 91.17 234.2 90.27 235.74 90.52C249.83 92.81 263.16 97.4301 275.62 104.39C278.33 105.91 280.41 108.6 283.18 109.95C288.82 112.7 293.07 118.45 300.52 117.48C304.12 117.01 306.45 120.98 306.03 124.78C305.83 126.59 306.2 128.93 307.25 130.33C314.15 139.5 319.3 149.47 322.15 160.6C322.36 161.4 322.75 162.24 322.66 163.02C322.52 164.39 322.08 165.73 321.76 167.08C320.4 166.44 318.63 166.16 317.74 165.12C311.43 157.81 305.36 150.29 299.07 142.96C297.93 141.63 296.18 140.83 294.71 139.78L293.13 141.21C296.24 145.66 298.86 150.56 302.54 154.47C311.62 164.12 309.94 180.17 298.76 187.06C297.56 187.8 296.68 189.06 295.7 190.14C293.35 192.73 290.91 195.25 288.77 198.01C287.83 199.23 287.53 200.94 286.89 202.55C288.38 203.17 289.7 203.72 291.01 204.27C296.6 198.99 303.67 200.03 306.38 207.32C312.1 222.74 317.34 238.35 322.34 254.03C324.17 259.79 320.05 265.92 314.35 267.8C311.57 268.72 308.65 269.55 306.25 271.13C304.95 271.99 304.53 274.28 303.86 275.99C302.83 278.62 303.26 283.15 298.44 282.5C299.84 279.85 300.01 276.71 300.67 274.27C297.15 273.93 293.5 274.58 291.34 273.08C289.07 271.51 288.03 267.96 286.84 265.11C285.64 262.24 284.93 259.17 284.01 256.21C271.79 259.43 259.98 262.55 247.87 265.74C248.87 270.59 249.9 275.66 242.29 276.49C243.09 277.68 243.62 278.46 244.83 280.26C246.96 276.91 248.63 274.28 250.47 271.39L252.44 272.57C246.08 283.68 238.61 294.42 241.14 308.78C249.06 308.99 257.17 309.05 265.27 309.51C268.23 309.68 269.86 310.48 272.3 311.05C271.97 310.15 269.49 303.32 276.96 297.8C277.49 297.57 277.74 299.4 278.27 299.17C272.37 304.05 274.62 308.24 275.39 309.76C279.83 309.58 289.59 302.48 290.78 298.36C294.01 299.99 294.25 300.25 291.89 302.38C287.46 306.39 282.74 310.06 277.9 314.07C278.37 314.61 278.94 315.65 279.83 316.21C282.93 318.19 283.68 320.18 281.27 323.5C280.23 324.93 279.93 328.04 280.82 329.39C281.64 330.63 284.58 331.18 286.43 330.93C295.71 329.69 302.26 324.45 306.46 316.17C307.91 313.3 307.71 310.92 304.88 308.78C301.97 306.57 298.91 304.29 296.77 301.4C294.22 297.97 292.63 294.02 290.6 290.21L290.63 290.15L290.66 290.16ZM256.45 127.98C270.64 131.04 280.36 139.94 287.49 152.2C289.76 151.5 291.76 150.89 293.76 150.27C286.02 128.19 258.5 115.36 238.92 124.73C243.82 125.66 250.19 126.87 256.58 128.08C255.15 128.23 253.71 128.53 252.28 128.5C247.14 128.41 241.97 127.77 236.88 128.16C228.74 128.79 221.65 131.81 216.54 139.87C237.2 124.18 269.38 129.36 284.05 155.73C284.45 154.1 284.62 152.33 283.91 151.04C279.61 143.25 273.22 137.56 265.48 133.29C262.42 131.6 259.46 129.74 256.45 127.96V127.98ZM237.4 246.4C240.19 245.5 242.33 244.81 244.46 244.12C244.18 244.64 242.4 245.42 241.3 246.74C242.5 247.94 242.81 251.12 247.16 249.11C256.9 246.58 266.57 243.77 276.14 240.67C277.05 240.37 277.88 237.41 277.52 236C276 230.05 273.76 224.29 272.28 218.33C271.4 214.79 269.55 214.02 266.27 214.22C254.44 214.94 243.52 218.36 233.05 223.9C229.41 225.82 224.93 226.13 220.84 227.2C219.63 227.52 218 227.59 217.35 228.4C213.1 233.68 210.76 239.72 210.62 246.64C217.56 249.23 224.23 249.55 231.07 248.12M231.39 252.25C232.21 256.72 232.82 261.47 233.99 266.09C235.92 273.72 237.24 274.26 245.07 271.34C244.64 269.51 244.76 266.45 243.66 265.93C236.96 262.74 239 256.87 237.69 251.93M269.07 332.85C269.75 326.19 270.67 320.78 270.62 315.37C270.61 313.96 267.46 312.74 265.76 312.65C262.51 312.48 259.41 312.77 256.1 312.98C251.07 313.29 246.01 313.06 241.15 313.06C238.59 322.96 248.15 319.49 251.76 322.95C247.78 323.5 243.94 323.2 240.2 323.66C238.89 323.82 237.82 325.86 236.64 327.04C237.75 328.04 238.77 329.79 239.98 329.94C249.53 331.07 259.11 331.89 269.07 332.85ZM213.69 225.6C211.72 224.41 209.38 223.14 207.21 221.63C205.02 220.12 203.05 218.31 200.89 216.75C196.17 213.34 189.75 214.77 188.26 220.29C187.35 223.64 187.74 228.09 189.26 231.21C192.65 238.19 199.28 241.81 205.8 244.84C208.49 238.28 211 232.18 213.7 225.6H213.69ZM290.02 257.12C292.58 256.65 294.22 256.39 295.84 256.04C305.52 253.95 306.69 251.95 303.76 242.55C303.46 241.6 303.19 240.64 302.91 239.69C299.51 228.05 298.19 227.45 286.98 232.52C286.07 232.93 284.86 233.22 284.4 233.94C283.52 235.36 282.25 237.26 282.59 238.61C283.9 243.91 285.66 249.11 287.51 254.26C287.96 255.52 289.39 256.43 290.03 257.12H290.02ZM312.34 264.61C318 262.05 319.72 259.04 318.57 253.79C317.79 250.22 316.88 246.65 315.68 243.21C311.68 231.76 307.71 220.29 303.34 208.99C301.38 203.92 297.8 203.3 293.97 206.61C302.95 224.88 310.12 243.73 312.34 264.61ZM251.91 139.89C235.6 135.62 220.45 141.39 214.57 153.38C209.32 164.07 209.1 179.52 217.37 184.35C216.15 173.56 214.24 162.83 222.63 154.06C230.32 146.04 240.44 142.86 251.91 139.89ZM280.11 231.3C286.38 229.21 292.16 227.28 298.33 225.22C297.39 222.83 296.49 220 295.19 217.37C288.57 203.91 291.98 206.57 278.18 210.33C277.86 210.42 277.4 210.47 277.27 210.69C276.45 212.1 274.8 213.78 275.09 214.95C276.48 220.52 278.41 225.96 280.1 231.3H280.11ZM243.15 261.72C257.12 260.24 270.12 257.12 282.74 251.78C281.74 248.56 280.92 245.94 280.43 244.35C267.29 247.95 254.63 251.42 241.74 254.95C242.14 256.89 242.57 258.96 243.15 261.72ZM288.76 169.3C290.02 172.63 290.76 176.29 292.64 179.21C295.6 183.8 300.9 183.55 303.36 178.64C304.84 175.69 305.47 172.02 305.46 168.68C305.46 162.51 301.25 157.23 297.18 157.26C292.98 157.29 289.58 162.51 288.75 169.3H288.76ZM289.05 118.05C278.14 107.79 265.25 102.12 250.32 98.1701C261.14 105.94 271.23 112.84 280.9 120.28C285.25 123.63 286.87 121.29 289.05 118.05ZM307.25 256.06C301.24 257.92 295.64 259.65 290.05 261.38C291.55 269.91 292.84 271.88 296.71 270.47C309.22 265.9 309.74 268.29 307.25 256.06ZM234.38 209.33C248.82 217.91 277.99 208.25 285.73 186.73C286.07 185.78 285.2 184.4 284.65 182.26C274.5 204.74 257.55 212.21 234.38 209.33ZM218.01 213.78C216.31 215.09 215.08 216.03 213.95 216.91C215.53 223.12 218.22 224.66 223.28 223.24C222.32 220 221.09 216.8 220.47 213.48C220.08 211.4 221.81 208.37 218.06 208.2C215.1 208.07 211.69 208.07 211.14 212.8C213.32 213.11 215.24 213.39 218.01 213.78ZM294.78 154.56C288.57 154.51 284.62 158.53 283.62 165.89C282.45 174.52 286.28 181.84 292.97 183.76C285.82 176.43 283.38 163.68 294.78 154.56ZM240.23 216.07C234.74 213.75 229.83 211.67 225.02 209.63C222.33 215.21 225.1 218.81 229.03 222.1C232.74 220.1 236.32 218.18 240.23 216.07ZM314.57 153.84C315.11 153.52 315.65 153.21 316.19 152.89C312.47 146.29 308.75 139.7 304.87 132.83C300.48 137.2 300.31 137.53 302.47 140.06C306.43 144.71 310.53 149.25 314.58 153.84H314.57ZM199.38 207.32C197.74 208.56 198.07 211.12 199.97 211.9C204.37 213.71 205.02 212.81 208.25 208.36C208.63 207.83 209.28 207.43 209.51 206.86C209.63 206.55 209.75 206.23 209.86 205.91C210.53 203.96 208.95 201.84 206.92 202.23C206.69 202.27 206.49 202.35 206.3 202.46C203.98 203.84 201.82 205.48 199.38 207.32ZM291.89 187.43C290.55 187.78 288.64 187.67 287.97 188.54C282.93 195.04 278.14 201.73 274.09 207.26C281.37 203.84 287.43 196.92 291.9 187.43H291.89ZM230.83 274.15L232.43 273.68C231.14 267.28 225.99 261.2 229.91 253.96C229.18 253.75 229.38 253.51 228.71 253.32C226.82 252.77 224.83 253.95 224.47 255.89C224.32 256.68 224.27 257.41 224.44 258.08C225.26 261.2 226.78 264.13 228 267.15C228.95 269.49 229.89 271.83 230.83 274.16V274.15ZM187.07 234.95C186.56 234.81 186.04 234.68 185.53 234.54C183.26 236.92 180.9 239.21 178.79 241.72C178.23 242.38 178.43 243.68 178.28 244.69C179.33 244.61 180.71 244.93 181.38 244.38C183.42 242.74 185.41 240.92 186.97 238.84C187.6 237.99 187.07 236.27 187.07 234.95ZM273.81 316.39C273.6 321.23 273.32 325.34 273.32 329.46C273.32 330.25 274.4 331.04 274.98 331.83C275.53 331.04 276.4 330.32 276.56 329.46C276.93 327.54 276.36 325.22 277.23 323.65C279.31 319.88 277.23 318.37 273.81 316.39ZM296.34 124.39C294.58 123.04 293.18 121.83 293.09 121.92C291.23 123.77 289.52 125.78 287.78 127.75C288.58 128.38 289.87 129.7 290.11 129.53C292.09 128.14 293.88 126.48 296.33 124.38L296.34 124.39Z" fill="black"/>
<path d="M87.1601 281.28C86.4001 279.55 85.1801 276.56 83.7901 273.66C80.4301 266.68 77.8701 259.59 79.7101 251.64C81.2701 244.93 85.8701 242.73 92.0201 245.81C102.24 250.93 110.26 270.67 106.48 281.4C104.21 287.85 97.7401 288.7 91.5201 283.47C90.5101 282.62 89.1001 282.23 87.1601 281.28Z" fill="#F9B233"/>
<path d="M311.74 61.15C323.44 71.14 243.57 12.25 163.88 37.02C82.21 62.4 61.5 101.32 52.12 114.38C38.92 132.76 24.06 177.26 15.22 222.16C15.22 222.16 5.62002 117.06 83.75 62.29C161.88 7.52004 246.13 5.10004 311.75 61.14L311.74 61.15Z" fill="#FFF7AE"/>
<path d="M56.47 314.84C55.02 314.99 53.57 315.15 52.13 315.3C50.55 314.32 48.55 313.68 47.43 312.32C24.51 284.44 12.52 252.71 12.32 216.32C12.16 187.16 15.43 158.79 27.34 131.94C49.84 81.25 88.46 47.93 140.08 29.39C177.95 15.79 216.54 13.75 255.35 25.64C278.72 32.8 299.01 45.18 316.1 62.72C323.32 70.13 323.38 70.65 317.92 79.77C317.11 79.2 316.32 78.63 315.52 78.07L315.67 78.27C313.81 75.13 315.47 71.37 312.38 67.97C299.79 54.13 284.71 44.04 267.75 36.73C233.48 21.95 198.13 20.67 162.11 29.14C92.79 45.43 24.66 102.97 19.08 192.27C17.8 212.77 17.72 233.23 23.48 253.45C29.54 274.71 39.99 293.27 53.98 310.1C55.09 311.44 55.65 313.25 56.46 314.84H56.47Z" fill="black"/>
<path d="M302.42 280.81C300.27 285.25 288.77 293.23 288.57 293.69C285.68 295.49 283.91 296.4 281.85 297.47C280.59 298.12 279.59 298.72 278 299.46C277.79 299.56 276.86 297.96 276.94 297.88C277.86 297.02 279.24 296.34 280.36 295.81C285.63 293.31 296.36 285.26 298.96 281.07C300.53 277.11 302.43 280.82 302.43 280.82L302.42 280.81Z" fill="black"/>
<path d="M255.112 198.96C272.986 191.013 281.407 170.919 273.92 154.079C266.433 137.238 245.873 130.029 227.998 137.976C210.123 145.923 201.702 166.018 209.189 182.858C216.677 199.698 237.237 206.908 255.112 198.96Z" fill="#4053A1"/>
<path d="M246.9 140.87C236.9 143.7 228.08 146.73 221.38 154.38C214.06 162.74 215.73 172.97 216.79 183.26C209.59 178.65 209.77 163.92 214.35 153.73C219.48 142.3 232.68 136.8 246.89 140.87H246.9Z" fill="white"/>
<path d="M256.52 128.16C250.14 126.95 243.77 125.74 238.87 124.82C258.45 115.45 285.97 128.28 293.71 150.36C291.7 150.98 289.7 151.59 287.44 152.29C280.3 140.03 270.59 131.13 256.4 128.07L256.53 128.17L256.52 128.16Z" fill="white"/>
<path d="M280.03 231.36C278.34 226.03 276.41 220.59 275.02 215.01C274.73 213.84 276.38 212.16 277.2 210.75C277.33 210.53 277.79 210.48 278.11 210.39C291.91 206.63 288.5 203.97 295.12 217.43C296.42 220.06 297.31 222.89 298.26 225.28C292.09 227.34 286.31 229.27 280.04 231.36H280.03Z" fill="white"/>
<path d="M243.07 261.78C242.49 259.02 242.06 256.94 241.66 255.01C254.55 251.48 267.21 248.01 280.35 244.41C280.84 246 281.66 248.61 282.66 251.84C270.04 257.18 257.04 260.3 243.07 261.78Z" fill="white"/>
<path d="M256.39 128.06C259.4 129.84 262.36 131.7 265.42 133.39C273.17 137.66 279.55 143.35 283.85 151.14C284.56 152.43 284.39 154.2 283.99 155.83C269.32 129.45 237.14 124.28 216.48 139.97C221.59 131.91 228.68 128.88 236.82 128.26C241.91 127.87 247.08 128.51 252.22 128.6C253.65 128.62 255.09 128.33 256.52 128.18L256.39 128.08V128.06Z" fill="white"/>
<path d="M288.97 118.12C286.8 121.37 285.18 123.7 280.82 120.35C271.15 112.91 261.06 106 250.24 98.24C265.17 102.19 278.06 107.86 288.97 118.12Z" fill="#706F6F"/>
<path d="M234.3 209.39C257.47 212.26 274.42 204.79 284.57 182.32C285.12 184.46 285.99 185.84 285.65 186.79C277.91 208.32 248.74 217.97 234.3 209.39Z" fill="#B2B2B2"/>
<path d="M265.32 150.66C269.48 150.75 272.1 153.73 272.14 157.68C272.18 161.44 270.38 163.78 266.63 163.99C263.17 164.18 260.34 160.42 260.46 156.34C260.56 152.77 262.29 150.8 265.33 150.66H265.32Z" fill="white"/>
<path d="M217.92 213.84C215.15 213.44 213.23 213.17 211.05 212.86C211.6 208.13 215 208.13 217.97 208.26C221.72 208.43 219.99 211.46 220.38 213.54C221 216.86 222.23 220.06 223.19 223.3C218.13 224.73 215.44 223.19 213.86 216.97C214.99 216.1 216.22 215.15 217.92 213.84Z" fill="#9D9D9C"/>
<path d="M314.48 153.9C310.44 149.31 306.34 144.78 302.37 140.12C300.22 137.59 300.38 137.26 304.77 132.89C308.64 139.76 312.37 146.35 316.09 152.95C315.55 153.27 315.01 153.58 314.47 153.9H314.48Z" fill="#706F6F"/>
<path d="M200.03 212.03C198.06 211.23 197.73 208.57 199.43 207.29C201.81 205.48 203.94 203.89 206.22 202.53C206.41 202.42 206.61 202.35 206.84 202.3C208.87 201.9 210.46 204.02 209.78 205.98C209.67 206.3 209.55 206.61 209.43 206.93C209.2 207.51 208.55 207.9 208.17 208.43C204.98 212.83 204.31 213.76 200.04 212.03H200.03Z" fill="#B2B2B2"/>
<path d="M200.56 209.6C198.71 209.78 198.05 208.68 199.37 207.65C201.23 206.19 202.89 204.9 204.72 203.67C204.87 203.57 205.04 203.48 205.24 203.4C206.98 202.67 208.68 203.18 208.35 204.24C208.3 204.41 208.24 204.58 208.17 204.76C208.05 205.08 207.53 205.43 207.26 205.78C205.04 208.62 204.58 209.22 200.56 209.61V209.6Z" fill="white"/>
<path d="M291.8 187.5C287.34 196.99 281.27 203.91 273.99 207.33C278.05 201.8 282.84 195.11 287.87 188.61C288.54 187.75 290.46 187.85 291.79 187.5H291.8Z" fill="#B2B2B2"/>
<path d="M229.94 252.91C229.62 258.04 231.06 267.35 232.35 273.75L230.75 274.22C229.81 271.88 228.86 269.54 227.92 267.21C227.17 265.37 225.28 262 224.42 258.31C223.7 255.21 225.62 252.96 227.96 253.17C228.41 253.21 228.86 253.12 229.29 252.99L229.95 252.92L229.94 252.91Z" fill="#B2B2B2"/>
<path d="M186.99 235.02C186.99 236.34 187.52 238.06 186.89 238.91C185.33 241 183.35 242.81 181.3 244.45C180.62 245 179.25 244.68 178.2 244.76C178.35 243.75 178.15 242.45 178.71 241.79C180.82 239.28 183.18 236.99 185.45 234.61C185.96 234.75 186.48 234.88 186.99 235.02Z" fill="#B17F4A"/>
<path d="M301.36 129.63L295.06 137C295.06 137 290.76 130.14 289.85 129.6C289.61 129.46 296.25 124.47 296.25 124.47L301.35 129.63H301.36Z" fill="#90242A"/>
<path d="M296.26 124.47C293.81 126.57 292.02 128.23 290.04 129.62C289.8 129.79 288.51 128.47 287.71 127.84C289.45 125.87 291.16 123.86 293.02 122.01C293.11 121.92 294.51 123.13 296.27 124.48L296.26 124.47Z" fill="#BE1622"/>
<path d="M104.281 286.475C109.812 284.304 110.801 273.638 106.489 262.651C102.177 251.665 94.1968 244.519 88.665 246.69C83.1333 248.861 82.1446 259.527 86.4568 270.514C90.7689 281.5 98.749 288.646 104.281 286.475Z" fill="#FFD300"/>
<path d="M58.21 223.69C51.65 226.37 49.83 226.65 45 222C39.62 216.81 37.53 210.42 39.86 204.21C43.53 189.96 48.56 192 57.13 195C56.08 195.74 53.56 195.31 51.45 195.89C48.17 197.1 46.98 198.07 45.71 201.7C43.22 209.5 43.54 219.76 54.34 223.78C55.82 224.33 56.7 223.24 58.22 223.69H58.21Z" fill="#F9B233"/>
<path d="M113.21 275.94C112.8 277.94 112.58 281.5 111.33 284.66C108.08 292.88 98.63 295.72 91.49 290.58C79.29 281.81 73.18 269.74 73.45 254.67C73.57 248.39 75.5 242.55 81.71 239.87C87.59 237.34 93.12 239.31 97.93 243.21C107.84 251.25 112.48 261.85 113.2 275.94H113.21ZM87.16 281.28C89.1 282.24 90.51 282.62 91.52 283.47C97.74 288.71 104.21 287.86 106.48 281.4C110.26 270.67 102.23 250.93 92.02 245.81C85.87 242.73 81.27 244.93 79.71 251.64C77.87 259.58 80.42 266.68 83.79 273.66C85.19 276.56 86.4 279.54 87.16 281.28Z" fill="black"/>
<path d="M100.54 164.89C96.53 171.57 84.76 168.12 78.3 163.34C70.93 157.88 68.55 150.81 69.18 143.35C69.88 135.12 72.68 127.71 82.15 124.58C91.41 121.52 100.62 123.55 104.89 128.26C104.43 128.22 98.76 125.43 93.65 125.98C86.07 126.8 82.2 130.2 78.88 138.71C77.91 141.19 77.71 144.02 77.75 146.74C77.92 157.73 87.51 166.58 100.53 164.9L100.54 164.89Z" fill="#F9B233"/>
<path d="M76.3499 130C71.8799 136.09 68.9599 142.7 71.4499 149.97C72.7199 153.69 75.3499 157.42 78.3599 159.98C85.1099 165.73 93.9399 165.37 100.88 159.94C108.97 153.61 109.89 145.24 104 131.66C108.42 132.11 112.51 139.06 112.62 146.32C112.79 157.51 104.16 167.5 92.8099 169.23C81.3599 170.98 70.3899 163.91 66.9999 152.64C64.4499 144.14 68.4499 131.82 76.3599 130.01L76.3499 130Z" fill="black"/>
<path d="M161.5 73.95C155.8 73.87 152.47 70.24 153.52 65.52C154.72 60.13 158.61 56.83 163.72 54.94C169.36 52.86 175.15 52.11 180.27 56.03C185.28 59.86 184.31 66.52 178.54 68.95C178.42 68.7 178.13 68.4 178.2 68.22C181.07 60.7 178.14 57.2 169.92 58.54C167.99 58.85 166.05 59.51 164.27 60.34C157.09 63.68 156.18 67.79 161.5 73.96V73.95Z" fill="#F9B233"/>
<path d="M226.05 36.67C218.83 39.72 217.13 44.91 222.32 50.18C216.64 50.22 213.39 47.12 214.53 42.99C215.83 38.27 216.03 37.52 221.17 35.78L226.05 36.67Z" fill="#F9B233"/>
<path d="M60.21 197.54C58.85 197.45 58.64 197.5 58.52 197.42C55.15 195.03 51.8 191.93 47.31 194.33C42.66 196.81 41.52 201.41 41.71 206.25C41.85 209.68 42 213.3 43.16 216.47C46.55 225.76 51.72 227.23 60.29 221.86C60.59 225.46 58.1 228.5 53.98 229.35C49.59 230.25 45.82 229.05 42.58 225.89C35 218.51 33.27 204.33 39.03 195.46C41.73 191.3 45.45 188.48 50.64 189.27C55.07 189.94 58.25 192.57 60.21 197.55V197.54Z" fill="black"/>
<path d="M158.26 72C152.16 70.96 149.17 66.32 151.06 61.2C153.22 55.36 157.91 52.3 163.7 51.05C170.09 49.67 176.41 49.79 181.28 55.05C186.04 60.19 183.92 67.49 177.34 69.25C177.25 68.95 176.98 68.56 177.09 68.37C181.38 60.42 178.8 56 169.77 56.12C167.65 56.15 165.46 56.56 163.42 57.19C155.18 59.73 153.54 64.19 158.26 72Z" fill="black"/>
<path d="M112.8 89.95C107.57 92.34 103.16 90.69 102.36 86.23C101.44 81.14 103.75 76.66 107.72 72.85C112.09 68.65 117.09 65.52 123.24 66.64C129.25 67.74 130.85 73.81 126.49 78.36C126.29 78.2 125.91 78.07 125.9 77.89C125.71 70.27 121.72 68.56 114.72 73.24C113.07 74.34 111.55 75.73 110.24 77.2C104.94 83.13 105.64 87.02 112.81 89.96L112.8 89.95Z" fill="#F9B233"/>
<path d="M115.2 336.21C108.42 332.22 107.11 325.97 108.52 319.38C110.09 312.03 114.93 306.76 122.42 305.27C131.24 303.52 138.54 306.94 144.01 314.61C142.62 314.14 141.25 313.58 139.83 313.22C136.16 312.29 132.49 310.84 128.78 310.7C117.24 310.25 109.86 320.68 113.6 331.69C114.11 333.2 114.67 334.71 115.2 336.22V336.21Z" fill="black"/>
<path d="M103.21 79.16C103.82 80.62 104.21 81.32 104.41 82.07C106.39 89.56 109.72 90.84 116.18 86.58C122.77 82.22 124.95 75.95 122.81 68.23C122.5 67.11 123.22 65.7 123.46 64.42C123.97 64.27 124.48 64.12 124.99 63.97C126.38 66.25 128.37 68.35 129.06 70.83C131.98 81.36 119.76 94.96 109.06 93.38C102.62 92.43 99.52 85.79 103.21 79.17V79.16Z" fill="black"/>
<path d="M231.99 357.41C229.79 346.73 221.7 339.66 212.3 352.23C211.97 348 212.65 345.28 216.38 343.04C220.52 340.56 225.8 341.01 229.39 344.16C233.31 347.6 234.3 352.64 231.99 357.41Z" fill="black"/>
<path d="M163.94 355.08C171.74 343.49 167.61 336.57 156.52 335.61C159.95 332.56 162.8 332.15 166.29 333.41C170.99 335.12 173.4 338.82 173.49 343.78C173.58 348.86 170.19 352.86 163.94 355.08Z" fill="black"/>
<path d="M229.95 42.43C231.66 47.76 230.27 50.84 226.48 52.6C222.52 54.44 218.94 53.15 216.16 50.08C213.09 46.67 212.31 42.68 215.03 38.72C217.06 35.77 219.89 34.37 223.77 36.34C221.7 37.5 219.35 38.11 218.13 39.63C215.7 42.65 216.28 46.19 219.27 48.42C222.27 50.66 224.93 48.08 227.32 46.4C228.26 45.74 228.7 44.37 229.95 42.43Z" fill="black"/>
<path d="M81.8312 96.9534C89.9736 88.8109 93.6365 79.2723 90.0124 75.6482C86.3884 72.0242 76.8497 75.687 68.7073 83.8295C60.5649 91.9719 56.902 101.511 60.5261 105.135C64.1501 108.759 73.6888 105.096 81.8312 96.9534Z" fill="#FFF7AE"/>
<path d="M147.28 285.78C147.02 293.05 181.53 293.39 172.16 286.82C162.79 280.25 166.63 265.07 159.81 275.67C155.66 282.13 147.69 274.24 147.28 285.78Z" fill="#F9B233" stroke="black" stroke-width="5" stroke-miterlimit="10"/>
<path d="M148.21 259.36C154.58 255.85 137.12 226.07 136.3 237.49C135.48 248.91 120.49 253.42 133.09 253.81C140.77 254.05 138.09 264.94 148.21 259.36Z" fill="#F9B233" stroke="black" stroke-width="5" stroke-miterlimit="10"/>
<path d="M120.93 283.69C124.68 289.92 153.78 271.38 142.34 270.98C130.9 270.58 125.83 255.77 125.91 268.38C125.96 276.06 114.97 273.79 120.93 283.69Z" fill="#F9B233" stroke="black" stroke-width="5" stroke-miterlimit="10"/>
</svg>
