<svg width="844" height="778" viewBox="0 0 844 778" fill="none" xmlns="http://www.w3.org/2000/svg">
<path d="M517.417 585.899C517.216 584.103 518.066 582.535 519.315 582.395C520.564 582.255 521.74 583.598 521.94 585.394C522.141 587.189 521.291 588.758 520.042 588.898C518.793 589.037 517.617 587.695 517.417 585.899Z" fill="#4DDAC5"/>
<path d="M437.238 204.219C437.038 202.423 437.888 200.854 439.137 200.715C440.386 200.575 441.561 201.918 441.762 203.713C441.963 205.509 441.113 207.078 439.864 207.217C438.614 207.357 437.439 206.015 437.238 204.219Z" fill="#4DDAC5"/>
<path d="M593.875 199.361C591.666 199.361 589.875 197.57 589.875 195.361C589.875 193.152 591.666 191.361 593.875 191.361C596.084 191.361 597.875 193.152 597.875 195.361C597.875 197.57 596.084 199.361 593.875 199.361Z" fill="white"/>
<path d="M552.875 294.361C551.771 294.361 550.875 293.465 550.875 292.361C550.875 291.256 551.771 290.361 552.875 290.361C553.98 290.361 554.875 291.256 554.875 292.361C554.875 293.465 553.98 294.361 552.875 294.361Z" fill="white"/>
<path d="M1.91069 623.688C2.96595 623.361 4.08596 623.952 4.4123 625.007C4.73864 626.063 4.14774 627.183 3.09248 627.509C2.03722 627.835 0.917209 627.245 0.590866 626.189C0.264523 625.134 0.855427 624.014 1.91069 623.688Z" fill="white"/>
<path d="M516.875 85.361C515.771 85.361 514.875 84.4656 514.875 83.361C514.875 82.2564 515.771 81.361 516.875 81.361C517.98 81.361 518.875 82.2564 518.875 83.361C518.875 84.4656 517.98 85.361 516.875 85.361Z" fill="white"/>
<path d="M189.875 162.361C188.771 162.361 187.875 161.466 187.875 160.361C187.875 159.256 188.771 158.361 189.875 158.361C190.98 158.361 191.875 159.256 191.875 160.361C191.875 161.466 190.98 162.361 189.875 162.361Z" fill="white"/>
<path d="M387.705 642.547C388.76 642.221 389.88 642.812 390.207 643.867C390.533 644.922 389.942 646.042 388.887 646.369C387.832 646.695 386.712 646.104 386.385 645.049C386.059 643.994 386.65 642.874 387.705 642.547Z" fill="white"/>
<path d="M525 29C523.895 29 523 28.1046 523 27C523 25.8954 523.895 25 525 25C526.105 25 527 25.8954 527 27C527 28.1046 526.105 29 525 29Z" fill="white"/>
<path d="M290.875 48.3613C288.666 48.3613 286.875 46.5704 286.875 44.3613C286.875 42.1522 288.666 40.3613 290.875 40.3613C293.084 40.3613 294.875 42.1522 294.875 44.3613C294.875 46.5704 293.084 48.3613 290.875 48.3613Z" fill="white"/>
<path d="M36.421 188.279C36.2204 186.484 37.0704 184.915 38.3195 184.775C39.5687 184.636 40.744 185.978 40.9447 187.774C41.1453 189.57 40.2953 191.138 39.0461 191.278C37.797 191.418 36.6217 190.075 36.421 188.279Z" fill="#E6E6E6"/>
<path d="M547.047 25.0111C546.846 23.2155 547.696 21.6466 548.946 21.507C550.195 21.3675 551.37 22.71 551.571 24.5057C551.771 26.3014 550.921 27.8702 549.672 28.0098C548.423 28.1494 547.248 26.8068 547.047 25.0111Z" fill="#E6E6E6"/>
<path d="M33.6382 209.487C33.4375 207.692 34.2875 206.123 35.5367 205.983C36.7859 205.844 37.9612 207.186 38.1618 208.982C38.3625 210.778 37.5125 212.346 36.2633 212.486C35.0141 212.626 33.8388 211.283 33.6382 209.487Z" fill="#4DDAC5"/>
<path d="M433.238 270.118C433.038 268.322 433.888 266.753 435.137 266.614C436.386 266.474 437.561 267.817 437.762 269.612C437.963 271.408 437.113 272.977 435.864 273.116C434.614 273.256 433.439 271.913 433.238 270.118Z" fill="#4DDAC5"/>
<path d="M77.8846 169.034C77.3961 167.106 79.2466 164.974 82.018 164.272C84.7893 163.569 87.432 164.563 87.9206 166.491C88.4092 168.419 86.5586 170.551 83.7873 171.253C81.0159 171.956 78.3732 170.962 77.8846 169.034Z" fill="white"/>
<path d="M28.5051 141.395C28.0165 139.467 29.867 137.335 32.6384 136.633C35.4097 135.93 38.0524 136.924 38.541 138.852C39.0296 140.78 37.179 142.912 34.4077 143.614C31.6363 144.317 28.9936 143.323 28.5051 141.395Z" fill="#227B9B"/>
<path d="M58.9364 131.423C58.4479 129.495 60.2984 127.363 63.0698 126.661C65.8411 125.958 68.4838 126.952 68.9724 128.88C69.461 130.808 67.6104 132.94 64.8391 133.642C62.0677 134.345 59.425 133.351 58.9364 131.423Z" fill="#FBCD99"/>
<path d="M498.936 6.42332C498.448 4.49541 500.298 2.36318 503.07 1.66086C505.841 0.958534 508.484 1.95206 508.972 3.87997C509.461 5.80788 507.61 7.9401 504.839 8.64243C502.068 9.34475 499.425 8.35123 498.936 6.42332Z" fill="#FBCD99"/>
<path d="M51.0471 142.011C50.8465 140.215 51.6965 138.646 52.9456 138.507C54.1948 138.367 55.3701 139.71 55.5708 141.505C55.7714 143.301 54.9214 144.87 53.6722 145.01C52.4231 145.149 51.2478 143.807 51.0471 142.011Z" fill="#E6E6E6"/>
<path d="M491.047 17.0111C490.846 15.2155 491.696 13.6466 492.946 13.507C494.195 13.3675 495.37 14.71 495.571 16.5057C495.771 18.3014 494.921 19.8702 493.672 20.0098C492.423 20.1494 491.248 18.8068 491.047 17.0111Z" fill="#E6E6E6"/>
<path d="M48.2643 163.219C48.0636 161.423 48.9136 159.854 50.1628 159.715C51.412 159.575 52.5873 160.918 52.7879 162.713C52.9886 164.509 52.1386 166.078 50.8894 166.217C49.6403 166.357 48.4649 165.014 48.2643 163.219Z" fill="#4DDAC5"/>
<path d="M377.238 262.118C377.038 260.322 377.888 258.753 379.137 258.614C380.386 258.474 381.561 259.817 381.762 261.612C381.963 263.408 381.113 264.977 379.864 265.116C378.614 265.256 377.439 263.913 377.238 262.118Z" fill="#4DDAC5"/>
<path d="M488.264 38.219C488.064 36.4233 488.914 34.8545 490.163 34.7149C491.412 34.5753 492.587 35.9179 492.788 37.7136C492.989 39.5092 492.139 41.0781 490.889 41.2177C489.64 41.3572 488.465 40.0147 488.264 38.219Z" fill="#227B9B"/>
<path d="M12.2384 161.071C12.0378 159.276 12.8878 157.707 14.1369 157.567C15.3861 157.428 16.5614 158.77 16.7621 160.566C16.9627 162.362 16.1127 163.93 14.8635 164.07C13.6144 164.21 12.439 162.867 12.2384 161.071Z" fill="#E6E6E6"/>
<path d="M65.8329 116.404C65.6322 114.609 66.4822 113.04 67.7314 112.9C68.9806 112.761 70.1559 114.103 70.3565 115.899C70.5572 117.695 69.7072 119.263 68.458 119.403C67.2088 119.543 66.0335 118.2 65.8329 116.404Z" fill="#FBCD99"/>
<path d="M17.8751 105.574C16.7706 105.574 15.8751 104.679 15.8751 103.574C15.8751 102.47 16.7706 101.574 17.8751 101.574C18.9797 101.574 19.8751 102.47 19.8751 103.574C19.8751 104.679 18.9797 105.574 17.8751 105.574Z" fill="white"/>
<path d="M436.223 124.585C408.825 152.606 369.125 176.127 325.826 190.232C321.577 191.618 317.294 192.911 312.976 194.112C312.018 194.38 311.057 194.637 310.088 194.897C308.52 195.318 306.939 195.726 305.363 196.121C303.474 196.594 301.581 197.05 299.683 197.487C288.696 200.017 277.607 201.959 266.522 203.297C266.115 203.343 265.717 203.392 265.31 203.437C263.56 203.645 261.81 203.835 260.062 204.007C256.713 204.345 253.366 204.627 250.023 204.853C248.939 204.927 247.854 204.996 246.767 205.054C245.209 205.145 243.656 205.219 242.101 205.287C241.517 205.309 240.934 205.336 240.349 205.353C239.757 205.377 239.164 205.396 238.569 205.41C234.951 205.527 231.346 205.572 227.754 205.547C207.314 205.459 187.629 203.182 169.361 198.791C166.833 198.178 164.257 197.514 161.772 196.867C148.416 193.41 134.603 189.836 119.427 192.104C103.041 194.557 88.8765 203.217 75.1869 211.59C70.5419 214.429 65.7414 217.364 60.9307 220.019C37.4175 232.864 9.91653 240.685 -17.3014 242.267C-17.8639 242.307 -18.4291 242.336 -18.9862 242.362L-19.2642 241.253C-18.7071 241.226 -18.1419 241.197 -17.5781 241.163C9.42831 239.661 36.7454 231.929 60.0884 219.181C64.8549 216.554 69.6407 213.628 74.2629 210.8C88.1523 202.304 102.516 193.521 119.396 190.995C135.026 188.658 149.039 192.284 162.588 195.794C165.072 196.435 167.64 197.101 170.151 197.713C188.297 202.077 207.855 204.337 228.163 204.418L228.171 204.416C231.61 204.434 235.077 204.395 238.546 204.293C239.045 204.275 239.545 204.257 240.046 204.244C240.604 204.223 241.171 204.199 241.729 204.178C243.159 204.124 244.589 204.056 246.017 203.972C247.418 203.903 248.824 203.818 250.234 203.717L250.242 203.715C253.854 203.47 257.472 203.16 261.097 202.783C262.739 202.62 264.376 202.436 266.026 202.237C266.384 202.198 266.748 202.152 267.112 202.106C277.743 200.807 288.375 198.947 298.916 196.54L298.924 196.538C302.584 195.7 306.222 194.798 309.838 193.831C310.783 193.578 311.718 193.321 312.653 193.064C316.734 191.929 320.789 190.71 324.816 189.407L324.824 189.405C368.01 175.431 407.625 152.01 434.935 124.078C435.068 123.944 435.263 123.842 435.477 123.794C435.691 123.747 435.907 123.758 436.077 123.825C436.248 123.891 436.359 124.009 436.386 124.152C436.414 124.294 436.355 124.45 436.223 124.585Z" fill="url(#paint0_linear_963_3421)"/>
<path d="M456.604 174.023C487.45 190.209 525.669 197.221 562.974 193.753C566.636 193.415 570.288 192.973 573.93 192.429C574.738 192.31 575.545 192.18 576.359 192.049C577.676 191.837 578.998 191.607 580.31 191.366C581.884 191.078 583.454 190.772 585.021 190.446C594.089 188.556 603.01 186.061 611.699 182.985C612.016 182.869 612.328 182.759 612.646 182.643C614.017 182.153 615.38 181.648 616.736 181.126C619.336 180.132 621.913 179.086 624.466 177.988C625.294 177.633 626.121 177.272 626.946 176.9C628.13 176.375 629.304 175.834 630.478 175.287C630.917 175.079 631.358 174.876 631.796 174.662C632.242 174.452 632.687 174.237 633.131 174.016C635.846 172.704 638.524 171.329 641.166 169.891C656.219 161.761 669.885 151.82 681.703 140.404C683.337 138.818 684.986 137.166 686.575 135.565C695.123 126.98 703.962 118.103 716.024 114.313C729.048 110.224 742.785 112.984 756.064 115.654C760.568 116.558 765.224 117.493 769.782 118.155C792.006 121.264 815.269 117.966 835.958 108.775C836.388 108.592 836.816 108.397 837.238 108.204L837.022 107.026C836.601 107.22 836.173 107.415 835.744 107.604C815.241 116.788 792.148 120.099 770.086 117.017C765.571 116.364 760.93 115.433 756.446 114.53C742.974 111.82 729.042 109.02 715.625 113.233C703.204 117.136 694.235 126.141 685.566 134.853C683.976 136.448 682.333 138.1 680.712 139.677C668.972 151.02 655.394 160.894 640.436 168.965L640.429 168.966C637.898 170.338 635.324 171.664 632.725 172.932C632.35 173.111 631.974 173.29 631.6 173.475C631.179 173.675 630.752 173.875 630.332 174.074C629.256 174.585 628.175 175.082 627.089 175.564C626.029 176.049 624.959 176.52 623.88 176.978L623.873 176.979C621.115 178.165 618.326 179.291 615.508 180.355C614.234 180.845 612.956 181.311 611.663 181.769C611.384 181.873 611.098 181.972 610.811 182.071C602.473 185.005 593.92 187.4 585.228 189.232L585.221 189.234C582.202 189.868 579.175 190.431 576.139 190.925C575.346 191.052 574.558 191.173 573.771 191.294C570.328 191.808 566.873 192.23 563.407 192.562L563.4 192.563C526.227 196.112 488.109 189.162 457.363 173.028C457.214 172.951 457.031 172.93 456.855 172.968C456.679 173.007 456.524 173.102 456.423 173.234C456.323 173.365 456.285 173.522 456.319 173.67C456.353 173.818 456.455 173.945 456.604 174.023Z" fill="url(#paint1_linear_963_3421)"/>
<path d="M429.644 738.817C460.49 755.003 498.71 762.015 536.015 758.547C539.676 758.209 543.328 757.768 546.971 757.223C547.779 757.104 548.586 756.974 549.399 756.843C550.717 756.631 552.038 756.401 553.351 756.16C554.925 755.873 556.495 755.566 558.062 755.24C567.13 753.35 576.051 750.855 584.739 747.779C585.057 747.663 585.369 747.553 585.687 747.437C587.058 746.948 588.421 746.442 589.777 745.92C592.377 744.926 594.954 743.88 597.507 742.782C598.335 742.427 599.162 742.066 599.986 741.694C601.171 741.169 602.345 740.628 603.519 740.081C603.958 739.873 604.398 739.67 604.837 739.456C605.283 739.246 605.728 739.031 606.172 738.81C608.887 737.498 611.565 736.123 614.206 734.685C629.26 726.555 642.925 716.614 654.744 705.198C656.377 703.612 658.027 701.96 659.616 700.359C668.163 691.774 677.003 682.897 689.064 679.107C702.089 675.018 715.826 677.778 729.104 680.448C733.609 681.352 738.265 682.287 742.822 682.95C765.047 686.058 788.31 682.76 808.999 673.57C809.429 673.386 809.857 673.191 810.278 672.998L810.063 671.821C809.642 672.014 809.214 672.209 808.784 672.398C788.282 681.582 765.188 684.893 743.126 681.811C738.612 681.159 733.971 680.227 729.487 679.324C716.015 676.614 702.083 673.814 688.666 678.027C676.245 681.93 667.276 690.936 658.607 699.647C657.016 701.242 655.374 702.894 653.752 704.471C642.013 715.814 628.435 725.688 613.476 733.759L613.47 733.76C610.938 735.132 608.364 736.459 605.766 737.726C605.39 737.905 605.015 738.085 604.64 738.269C604.22 738.469 603.793 738.669 603.373 738.868C602.297 739.379 601.216 739.876 600.13 740.358C599.069 740.843 598 741.315 596.921 741.772L596.914 741.773C594.155 742.959 591.367 744.085 588.549 745.149C587.275 745.639 585.997 746.105 584.704 746.563C584.425 746.667 584.139 746.766 583.852 746.865C575.514 749.799 566.961 752.194 558.269 754.026L558.262 754.028C555.243 754.662 552.215 755.225 549.18 755.719C548.386 755.846 547.599 755.967 546.811 756.088C543.369 756.602 539.914 757.024 536.448 757.356L536.441 757.357C499.268 760.906 461.15 753.956 430.404 737.822C430.255 737.745 430.072 737.724 429.896 737.762C429.72 737.801 429.564 737.896 429.464 738.028C429.364 738.159 429.326 738.316 429.36 738.464C429.394 738.612 429.496 738.739 429.644 738.817Z" fill="url(#paint2_linear_963_3421)"/>
<path d="M3.23386 14.2704C32.8282 33.7792 72.0302 46.2959 112.297 49.2977C116.249 49.5942 120.211 49.7971 124.182 49.9064C125.063 49.9324 125.945 49.948 126.834 49.9636C128.273 49.9896 129.72 50 131.16 50C132.886 50 134.612 49.9827 136.338 49.948C146.33 49.7415 156.283 48.9709 166.102 47.6433C166.462 47.5913 166.814 47.5445 167.174 47.4925C168.724 47.2792 170.269 47.0503 171.809 46.8058C174.762 46.3428 177.7 45.8295 180.623 45.2659C181.571 45.0838 182.518 44.8965 183.466 44.6988C184.825 44.4231 186.176 44.1318 187.528 43.8352C188.035 43.7208 188.542 43.6115 189.048 43.4919C189.563 43.3774 190.077 43.2578 190.591 43.1329C193.727 42.4046 196.837 41.6138 199.92 40.7607C217.475 35.957 233.91 29.3084 248.67 21.0387C250.712 19.8889 252.784 18.682 254.782 17.5115C265.521 11.2375 276.627 4.75019 290.164 3.33516C304.781 1.81088 318.826 6.52419 332.4 11.0814C337.005 12.6265 341.765 14.2236 346.473 15.5606C369.457 21.9728 394.788 22.8305 418.531 18.0005C419.023 17.9069 419.515 17.8028 420 17.6988V16.6115C419.515 16.7155 419.023 16.8196 418.531 16.9184C394.987 21.7728 369.834 20.9548 347.017 14.593C342.353 13.2716 337.608 11.6797 333.024 10.1398C319.252 5.51494 305.009 0.733997 289.951 2.3051C276.01 3.76175 264.742 10.3427 253.849 16.7103C251.851 17.8756 249.787 19.0826 247.76 20.2271C233.097 28.4439 216.768 35.0471 199.325 39.8138H199.317C196.364 40.6254 193.375 41.3902 190.371 42.0977C189.937 42.1965 189.504 42.2954 189.07 42.3994C188.586 42.5086 188.094 42.6179 187.609 42.7271C186.367 43.0081 185.124 43.2751 183.877 43.5283C182.658 43.7884 181.431 44.0347 180.197 44.267H180.19C177.031 44.8757 173.853 45.4254 170.656 45.9162C169.209 46.1451 167.762 46.3532 166.3 46.5509C165.984 46.5977 165.661 46.6393 165.338 46.6809C155.918 47.9399 146.375 48.6809 136.794 48.8971H136.786C133.459 48.9699 130.137 48.9786 126.819 48.9231C125.952 48.9075 125.093 48.8867 124.233 48.8659C120.48 48.7619 116.731 48.5746 112.988 48.304H112.98C72.8381 45.3959 33.7316 32.952 4.23279 13.5057C4.08945 13.4125 3.89981 13.3634 3.70544 13.369C3.51105 13.3747 3.32773 13.4346 3.19562 13.5358C3.06348 13.6369 2.99335 13.771 3.00049 13.9087C3.00766 14.0464 3.09158 14.1765 3.23386 14.2704Z" fill="url(#paint3_linear_963_3421)"/>
<path d="M85.815 88.7398H98.135V95.9998H76.41V57.3898H85.815V88.7398ZM100.751 80.5998C100.751 77.4465 101.338 74.6781 102.511 72.2948C103.721 69.9115 105.353 68.0781 107.406 66.7948C109.459 65.5115 111.751 64.8698 114.281 64.8698C116.444 64.8698 118.333 65.3098 119.946 66.1898C121.596 67.0698 122.861 68.2248 123.741 69.6548V65.3098H133.146V95.9998H123.741V91.6548C122.824 93.0848 121.541 94.2398 119.891 95.1198C118.278 95.9998 116.389 96.4398 114.226 96.4398C111.733 96.4398 109.459 95.7982 107.406 94.5148C105.353 93.1948 103.721 91.3432 102.511 88.9598C101.338 86.5398 100.751 83.7531 100.751 80.5998ZM123.741 80.6548C123.741 78.3081 123.081 76.4565 121.761 75.0998C120.478 73.7431 118.901 73.0648 117.031 73.0648C115.161 73.0648 113.566 73.7431 112.246 75.0998C110.963 76.4198 110.321 78.2531 110.321 80.5998C110.321 82.9465 110.963 84.8165 112.246 86.2098C113.566 87.5665 115.161 88.2448 117.031 88.2448C118.901 88.2448 120.478 87.5665 121.761 86.2098C123.081 84.8532 123.741 83.0015 123.741 80.6548ZM171.295 95.9998L163.265 81.4248H161.01V95.9998H151.605V57.3898H167.39C170.434 57.3898 173.019 57.9215 175.145 58.9848C177.309 60.0481 178.922 61.5148 179.985 63.3848C181.049 65.2181 181.58 67.2715 181.58 69.5448C181.58 72.1115 180.847 74.4031 179.38 76.4198C177.95 78.4365 175.824 79.8665 173 80.7098L181.91 95.9998H171.295ZM161.01 74.7698H166.84C168.564 74.7698 169.847 74.3481 170.69 73.5048C171.57 72.6615 172.01 71.4698 172.01 69.9298C172.01 68.4631 171.57 67.3082 170.69 66.4648C169.847 65.6215 168.564 65.1998 166.84 65.1998H161.01V74.7698ZM217.789 65.3098V95.9998H208.384V91.8198C207.431 93.1765 206.129 94.2765 204.479 95.1198C202.866 95.9265 201.069 96.3298 199.089 96.3298C196.743 96.3298 194.671 95.8165 192.874 94.7898C191.078 93.7265 189.684 92.2048 188.694 90.2248C187.704 88.2448 187.209 85.9165 187.209 83.2398V65.3098H196.559V81.9748C196.559 84.0281 197.091 85.6231 198.154 86.7598C199.218 87.8965 200.648 88.4648 202.444 88.4648C204.278 88.4648 205.726 87.8965 206.789 86.7598C207.853 85.6231 208.384 84.0281 208.384 81.9748V65.3098H217.789ZM241.65 88.0248V95.9998H236.865C233.455 95.9998 230.796 95.1748 228.89 93.5248C226.983 91.8381 226.03 89.1065 226.03 85.3298V73.1198H222.29V65.3098H226.03V57.8298H235.435V65.3098H241.595V73.1198H235.435V85.4398C235.435 86.3565 235.655 87.0165 236.095 87.4198C236.535 87.8231 237.268 88.0248 238.295 88.0248H241.65ZM245.019 80.5998C245.019 77.4465 245.605 74.6781 246.779 72.2948C247.989 69.9115 249.62 68.0781 251.674 66.7948C253.727 65.5115 256.019 64.8698 258.549 64.8698C260.712 64.8698 262.6 65.3098 264.214 66.1898C265.864 67.0698 267.129 68.2248 268.009 69.6548V65.3098H277.414V95.9998H268.009V91.6548C267.092 93.0848 265.809 94.2398 264.159 95.1198C262.545 95.9998 260.657 96.4398 258.494 96.4398C256 96.4398 253.727 95.7982 251.674 94.5148C249.62 93.1948 247.989 91.3432 246.779 88.9598C245.605 86.5398 245.019 83.7531 245.019 80.5998ZM268.009 80.6548C268.009 78.3081 267.349 76.4565 266.029 75.0998C264.745 73.7431 263.169 73.0648 261.299 73.0648C259.429 73.0648 257.834 73.7431 256.514 75.0998C255.23 76.4198 254.589 78.2531 254.589 80.5998C254.589 82.9465 255.23 84.8165 256.514 86.2098C257.834 87.5665 259.429 88.2448 261.299 88.2448C263.169 88.2448 264.745 87.5665 266.029 86.2098C267.349 84.8532 268.009 83.0015 268.009 80.6548ZM294.003 80.5998C294.003 77.4465 294.59 74.6781 295.763 72.2948C296.973 69.9115 298.605 68.0781 300.658 66.7948C302.711 65.5115 305.003 64.8698 307.533 64.8698C309.55 64.8698 311.383 65.2915 313.033 66.1348C314.72 66.9781 316.04 68.1148 316.993 69.5448V55.2998H326.398V95.9998H316.993V91.5998C316.113 93.0665 314.848 94.2398 313.198 95.1198C311.585 95.9998 309.696 96.4398 307.533 96.4398C305.003 96.4398 302.711 95.7982 300.658 94.5148C298.605 93.1948 296.973 91.3432 295.763 88.9598C294.59 86.5398 294.003 83.7531 294.003 80.5998ZM316.993 80.6548C316.993 78.3081 316.333 76.4565 315.013 75.0998C313.73 73.7431 312.153 73.0648 310.283 73.0648C308.413 73.0648 306.818 73.7431 305.498 75.0998C304.215 76.4198 303.573 78.2531 303.573 80.5998C303.573 82.9465 304.215 84.8165 305.498 86.2098C306.818 87.5665 308.413 88.2448 310.283 88.2448C312.153 88.2448 313.73 87.5665 315.013 86.2098C316.333 84.8532 316.993 83.0015 316.993 80.6548ZM362.132 80.1598C362.132 81.0398 362.077 81.9565 361.967 82.9098H340.682C340.829 84.8165 341.434 86.2831 342.497 87.3098C343.597 88.2998 344.935 88.7948 346.512 88.7948C348.859 88.7948 350.49 87.8048 351.407 85.8248H361.417C360.904 87.8415 359.969 89.6565 358.612 91.2698C357.292 92.8832 355.624 94.1482 353.607 95.0648C351.59 95.9815 349.335 96.4398 346.842 96.4398C343.835 96.4398 341.159 95.7982 338.812 94.5148C336.465 93.2315 334.632 91.3982 333.312 89.0148C331.992 86.6315 331.332 83.8448 331.332 80.6548C331.332 77.4648 331.974 74.6781 333.257 72.2948C334.577 69.9115 336.41 68.0781 338.757 66.7948C341.104 65.5115 343.799 64.8698 346.842 64.8698C349.812 64.8698 352.452 65.4931 354.762 66.7398C357.072 67.9865 358.869 69.7648 360.152 72.0748C361.472 74.3848 362.132 77.0798 362.132 80.1598ZM352.507 77.6848C352.507 76.0715 351.957 74.7881 350.857 73.8348C349.757 72.8815 348.382 72.4048 346.732 72.4048C345.155 72.4048 343.817 72.8631 342.717 73.7798C341.654 74.6965 340.994 75.9981 340.737 77.6848H352.507ZM376.499 55.2998V95.9998H367.094V55.2998H376.499ZM424.395 69.8198C424.395 72.0565 423.881 74.1098 422.855 75.9798C421.828 77.8131 420.251 79.2981 418.125 80.4348C415.998 81.5715 413.358 82.1398 410.205 82.1398H404.375V95.9998H394.97V57.3898H410.205C413.285 57.3898 415.888 57.9215 418.015 58.9848C420.141 60.0481 421.736 61.5148 422.8 63.3848C423.863 65.2548 424.395 67.3998 424.395 69.8198ZM409.49 74.6598C411.286 74.6598 412.625 74.2381 413.505 73.3948C414.385 72.5515 414.825 71.3598 414.825 69.8198C414.825 68.2798 414.385 67.0881 413.505 66.2448C412.625 65.4015 411.286 64.9798 409.49 64.9798H404.375V74.6598H409.49ZM438.696 70.4248C439.796 68.7381 441.171 67.4181 442.821 66.4648C444.471 65.4748 446.304 64.9798 448.321 64.9798V74.9348H445.736C443.389 74.9348 441.629 75.4481 440.456 76.4748C439.283 77.4648 438.696 79.2248 438.696 81.7548V95.9998H429.291V65.3098H438.696V70.4248ZM466.786 96.4398C463.78 96.4398 461.066 95.7982 458.646 94.5148C456.263 93.2315 454.375 91.3982 452.981 89.0148C451.625 86.6315 450.946 83.8448 450.946 80.6548C450.946 77.5015 451.643 74.7331 453.036 72.3498C454.43 69.9298 456.336 68.0781 458.756 66.7948C461.176 65.5115 463.89 64.8698 466.896 64.8698C469.903 64.8698 472.616 65.5115 475.036 66.7948C477.456 68.0781 479.363 69.9298 480.756 72.3498C482.15 74.7331 482.846 77.5015 482.846 80.6548C482.846 83.8081 482.131 86.5948 480.701 89.0148C479.308 91.3982 477.383 93.2315 474.926 94.5148C472.506 95.7982 469.793 96.4398 466.786 96.4398ZM466.786 88.2998C468.583 88.2998 470.105 87.6398 471.351 86.3198C472.635 84.9998 473.276 83.1115 473.276 80.6548C473.276 78.1981 472.653 76.3098 471.406 74.9898C470.196 73.6698 468.693 73.0098 466.896 73.0098C465.063 73.0098 463.541 73.6698 462.331 74.9898C461.121 76.2731 460.516 78.1615 460.516 80.6548C460.516 83.1115 461.103 84.9998 462.276 86.3198C463.486 87.6398 464.99 88.2998 466.786 88.2998ZM499.496 64.8698C501.659 64.8698 503.547 65.3098 505.161 66.1898C506.811 67.0698 508.076 68.2248 508.956 69.6548V65.3098H518.361V95.9448C518.361 98.7682 517.792 101.316 516.656 103.59C515.556 105.9 513.851 107.733 511.541 109.09C509.267 110.446 506.426 111.125 503.016 111.125C498.469 111.125 494.784 110.043 491.961 107.88C489.137 105.753 487.524 102.856 487.121 99.1898H496.416C496.709 100.363 497.406 101.28 498.506 101.94C499.606 102.636 500.962 102.985 502.576 102.985C504.519 102.985 506.059 102.416 507.196 101.28C508.369 100.18 508.956 98.4015 508.956 95.9448V91.5998C508.039 93.0298 506.774 94.2032 505.161 95.1198C503.547 95.9998 501.659 96.4398 499.496 96.4398C496.966 96.4398 494.674 95.7982 492.621 94.5148C490.567 93.1948 488.936 91.3432 487.726 88.9598C486.552 86.5398 485.966 83.7531 485.966 80.5998C485.966 77.4465 486.552 74.6781 487.726 72.2948C488.936 69.9115 490.567 68.0781 492.621 66.7948C494.674 65.5115 496.966 64.8698 499.496 64.8698ZM508.956 80.6548C508.956 78.3081 508.296 76.4565 506.976 75.0998C505.692 73.7431 504.116 73.0648 502.246 73.0648C500.376 73.0648 498.781 73.7431 497.461 75.0998C496.177 76.4198 495.536 78.2531 495.536 80.5998C495.536 82.9465 496.177 84.8165 497.461 86.2098C498.781 87.5665 500.376 88.2448 502.246 88.2448C504.116 88.2448 505.692 87.5665 506.976 86.2098C508.296 84.8532 508.956 83.0015 508.956 80.6548ZM534.57 70.4248C535.67 68.7381 537.045 67.4181 538.695 66.4648C540.345 65.4748 542.178 64.9798 544.195 64.9798V74.9348H541.61C539.263 74.9348 537.503 75.4481 536.33 76.4748C535.157 77.4648 534.57 79.2248 534.57 81.7548V95.9998H525.165V65.3098H534.57V70.4248ZM546.82 80.5998C546.82 77.4465 547.407 74.6781 548.58 72.2948C549.79 69.9115 551.422 68.0781 553.475 66.7948C555.529 65.5115 557.82 64.8698 560.35 64.8698C562.514 64.8698 564.402 65.3098 566.015 66.1898C567.665 67.0698 568.93 68.2248 569.81 69.6548V65.3098H579.215V95.9998H569.81V91.6548C568.894 93.0848 567.61 94.2398 565.96 95.1198C564.347 95.9998 562.459 96.4398 560.295 96.4398C557.802 96.4398 555.529 95.7982 553.475 94.5148C551.422 93.1948 549.79 91.3432 548.58 88.9598C547.407 86.5398 546.82 83.7531 546.82 80.5998ZM569.81 80.6548C569.81 78.3081 569.15 76.4565 567.83 75.0998C566.547 73.7431 564.97 73.0648 563.1 73.0648C561.23 73.0648 559.635 73.7431 558.315 75.0998C557.032 76.4198 556.39 78.2531 556.39 80.5998C556.39 82.9465 557.032 84.8165 558.315 86.2098C559.635 87.5665 561.23 88.2448 563.1 88.2448C564.97 88.2448 566.547 87.5665 567.83 86.2098C569.15 84.8532 569.81 83.0015 569.81 80.6548ZM625.179 64.9798C628.993 64.9798 632.018 66.1348 634.254 68.4448C636.528 70.7548 637.664 73.9631 637.664 78.0698V95.9998H628.314V79.3348C628.314 77.3548 627.783 75.8331 626.719 74.7698C625.693 73.6698 624.263 73.1198 622.429 73.1198C620.596 73.1198 619.148 73.6698 618.084 74.7698C617.058 75.8331 616.544 77.3548 616.544 79.3348V95.9998H607.194V79.3348C607.194 77.3548 606.663 75.8331 605.599 74.7698C604.573 73.6698 603.143 73.1198 601.309 73.1198C599.476 73.1198 598.028 73.6698 596.964 74.7698C595.938 75.8331 595.424 77.3548 595.424 79.3348V95.9998H586.019V65.3098H595.424V69.1598C596.378 67.8765 597.624 66.8681 599.164 66.1348C600.704 65.3648 602.446 64.9798 604.389 64.9798C606.699 64.9798 608.753 65.4748 610.549 66.4648C612.383 67.4548 613.813 68.8665 614.839 70.6998C615.903 69.0131 617.351 67.6381 619.184 66.5748C621.018 65.5115 623.016 64.9798 625.179 64.9798ZM642.372 80.5998C642.372 77.4465 642.959 74.6781 644.132 72.2948C645.342 69.9115 646.974 68.0781 649.027 66.7948C651.08 65.5115 653.372 64.8698 655.902 64.8698C658.065 64.8698 659.954 65.3098 661.567 66.1898C663.217 67.0698 664.482 68.2248 665.362 69.6548V65.3098H674.767V95.9998H665.362V91.6548C664.445 93.0848 663.162 94.2398 661.512 95.1198C659.899 95.9998 658.01 96.4398 655.847 96.4398C653.354 96.4398 651.08 95.7982 649.027 94.5148C646.974 93.1948 645.342 91.3432 644.132 88.9598C642.959 86.5398 642.372 83.7531 642.372 80.5998ZM665.362 80.6548C665.362 78.3081 664.702 76.4565 663.382 75.0998C662.099 73.7431 660.522 73.0648 658.652 73.0648C656.782 73.0648 655.187 73.7431 653.867 75.0998C652.584 76.4198 651.942 78.2531 651.942 80.5998C651.942 82.9465 652.584 84.8165 653.867 86.2098C655.187 87.5665 656.782 88.2448 658.652 88.2448C660.522 88.2448 662.099 87.5665 663.382 86.2098C664.702 84.8532 665.362 83.0015 665.362 80.6548ZM679.701 80.5998C679.701 77.4465 680.288 74.6781 681.461 72.2948C682.671 69.9115 684.303 68.0781 686.356 66.7948C688.409 65.5115 690.701 64.8698 693.231 64.8698C695.248 64.8698 697.081 65.2915 698.731 66.1348C700.418 66.9781 701.738 68.1148 702.691 69.5448V55.2998H712.096V95.9998H702.691V91.5998C701.811 93.0665 700.546 94.2398 698.896 95.1198C697.283 95.9998 695.394 96.4398 693.231 96.4398C690.701 96.4398 688.409 95.7982 686.356 94.5148C684.303 93.1948 682.671 91.3432 681.461 88.9598C680.288 86.5398 679.701 83.7531 679.701 80.5998ZM702.691 80.6548C702.691 78.3081 702.031 76.4565 700.711 75.0998C699.428 73.7431 697.851 73.0648 695.981 73.0648C694.111 73.0648 692.516 73.7431 691.196 75.0998C689.913 76.4198 689.271 78.2531 689.271 80.5998C689.271 82.9465 689.913 84.8165 691.196 86.2098C692.516 87.5665 694.111 88.2448 695.981 88.2448C697.851 88.2448 699.428 87.5665 700.711 86.2098C702.031 84.8532 702.691 83.0015 702.691 80.6548ZM732.87 96.4398C729.864 96.4398 727.15 95.7982 724.73 94.5148C722.347 93.2315 720.459 91.3982 719.065 89.0148C717.709 86.6315 717.03 83.8448 717.03 80.6548C717.03 77.5015 717.727 74.7331 719.12 72.3498C720.514 69.9298 722.42 68.0781 724.84 66.7948C727.26 65.5115 729.974 64.8698 732.98 64.8698C735.987 64.8698 738.7 65.5115 741.12 66.7948C743.54 68.0781 745.447 69.9298 746.84 72.3498C748.234 74.7331 748.93 77.5015 748.93 80.6548C748.93 83.8081 748.215 86.5948 746.785 89.0148C745.392 91.3982 743.467 93.2315 741.01 94.5148C738.59 95.7982 735.877 96.4398 732.87 96.4398ZM732.87 88.2998C734.667 88.2998 736.189 87.6398 737.435 86.3198C738.719 84.9998 739.36 83.1115 739.36 80.6548C739.36 78.1981 738.737 76.3098 737.49 74.9898C736.28 73.6698 734.777 73.0098 732.98 73.0098C731.147 73.0098 729.625 73.6698 728.415 74.9898C727.205 76.2731 726.6 78.1615 726.6 80.6548C726.6 83.1115 727.187 84.9998 728.36 86.3198C729.57 87.6398 731.074 88.2998 732.87 88.2998ZM763.325 70.4248C764.425 68.7381 765.8 67.4181 767.45 66.4648C769.1 65.4748 770.933 64.9798 772.95 64.9798V74.9348H770.365C768.018 74.9348 766.258 75.4481 765.085 76.4748C763.911 77.4648 763.325 79.2248 763.325 81.7548V95.9998H753.92V65.3098H763.325V70.4248Z" fill="#F2F2F2"/>
<g clip-path="url(#clip0_963_3421)">
<path d="M404.267 661.592L410.331 675.195C405.402 674.41 400.818 678.621 400.715 684.03C400.612 689.438 405.009 695.065 409.938 695.834C408.996 700.033 404.931 701.884 401.402 703.582C397.873 705.279 394.07 708.094 394.333 712.568C394.543 716.16 397.513 719.332 400.666 720.608C403.819 721.883 407.128 721.687 410.322 721.473C405.482 726.538 405.01 736.058 409.26 742.888C413.51 749.718 421.998 753.08 428.353 750.451C423.863 756.04 424.838 766.274 430.411 772.042C436.029 777.856 444.171 778.418 451.288 777.806C469.414 776.273 486.684 769.425 500.939 758.12C506.38 753.794 511.462 748.706 514.566 742.07C517.67 735.434 518.585 727.032 515.694 719.481C516.473 728.941 525.937 736.412 534.451 736.83C542.965 737.249 550.398 732.451 556.715 726.98C565.116 719.704 572.893 709.505 571.74 696.921C571.17 690.691 568.45 684.699 565.783 678.896L560.611 667.645C558.524 663.102 556.389 658.484 553.246 654.672C550.104 650.86 545.743 647.909 541.378 647.937C542.376 643.376 543.379 638.644 542.542 633.798C541.706 628.952 538.504 623.934 534.149 622.799C528.606 621.354 523.908 626.472 518.335 625.989C512.971 625.525 508.539 620.139 503.33 618.005C501.186 617.077 498.817 616.795 496.515 617.194C494.213 617.592 492.077 618.654 490.368 620.248C487.067 623.473 485.69 628.922 486.875 634.077C487.913 638.593 490.675 642.577 492.352 646.932C494.028 651.287 494.289 656.888 491.069 659.267C487.183 662.137 481.269 658.231 478.234 653.506C475.198 648.78 473.455 643.058 469.617 639.084C465.086 634.394 457.994 633.295 453.33 636.56C448.665 639.825 446.881 647.137 449.233 653.353C451.156 658.435 455.56 663.576 454.033 668.362C452.418 673.42 445.353 672.779 441.092 669.205C436.83 665.63 434.001 660.246 429.791 656.591C425.516 652.879 419.933 651.253 415.032 652.291C412.546 652.868 410.246 654.063 408.342 655.764C406.439 657.466 404.995 659.619 404.143 662.026" fill="#E6E6E6"/>
<path d="M502.437 623.366L489.856 629.215C487.965 630.149 485.82 630.438 483.749 630.038C481.923 629.606 480.689 628.489 480.364 626.972L477.437 613.292C476.884 610.711 479.02 607.658 482.516 606.033L489.464 602.804C492.96 601.179 496.67 601.514 498.284 603.601L506.846 614.662C507.795 615.888 507.853 617.553 507.005 619.228C505.975 621.069 504.371 622.523 502.437 623.366Z" fill="#3F3D56"/>
<path opacity="0.7" d="M112.324 370.532C124.152 338.143 142.61 308.583 166.516 283.744C186.798 262.678 218.364 263.554 218.364 263.554L218.545 263.33C226.142 253.956 236.336 247.037 247.849 243.438C259.362 239.84 271.681 239.723 283.26 243.103C286.27 243.967 288.585 244.35 289.686 243.965C309.759 236.936 308.816 221.072 326.134 208.292C356.458 185.914 457.038 211.547 471.221 252.725C482.716 286.098 534.026 302.274 553.196 327.802C556.193 331.794 559.134 335.832 562.019 339.916C563.371 341.813 564.708 343.725 566.031 345.651C579.612 365.329 591.797 385.937 602.494 407.323C609.508 421.295 615.605 435.71 620.744 450.476C640.736 508.949 633.899 552.514 578.776 541.751C572.25 540.473 565.882 539.33 559.67 538.322C550.675 536.853 541.994 535.646 533.626 534.701C522.358 533.419 511.638 532.579 501.466 532.181C498.045 532.044 494.688 531.951 491.393 531.904C442.677 531.229 406.542 540.402 379.013 554.642C374.347 557.05 369.924 559.597 365.747 562.284C359.365 566.365 353.272 570.881 347.511 575.799C339.537 582.645 332.185 590.182 325.539 598.324L325.174 598.771C292.975 638.176 282.379 681.799 259.981 689.479C164.238 722.318 103.684 603.277 97.4746 486.828C97.161 480.961 96.9878 475.109 96.9549 469.275C96.9355 466.667 96.9483 464.066 96.9934 461.472C97.0916 454.705 97.3898 447.981 97.8892 441.338C98.0757 438.799 98.292 436.273 98.5381 433.76C98.8094 431.05 99.1044 428.356 99.4455 425.68C101.881 406.059 106.142 387.391 112.324 370.532Z" fill="#4DDAC5"/>
<path d="M409.081 434.601C401.434 438.162 401.308 454.115 403.706 459.285L408.051 468.641L435.747 455.767L431.402 446.41C429 441.243 416.733 431.051 409.081 434.601Z" fill="#3F3D56"/>
<path d="M334.654 568.932C334.167 568.932 333.686 568.814 333.254 568.589C332.822 568.363 332.45 568.037 332.171 567.638C331.892 567.238 331.713 566.777 331.65 566.294C331.587 565.81 331.641 565.318 331.808 564.86C331.944 564.486 332.152 564.143 332.421 563.85C332.691 563.556 333.015 563.32 333.377 563.153L476.407 496.666C476.768 496.499 477.158 496.404 477.555 496.387C477.952 496.37 478.349 496.431 478.722 496.568C479.096 496.704 479.439 496.913 479.732 497.182C480.025 497.451 480.261 497.776 480.429 498.136C480.766 498.865 480.801 499.698 480.526 500.453C480.25 501.207 479.687 501.821 478.959 502.16L335.928 568.647C335.529 568.834 335.094 568.931 334.654 568.932Z" fill="#3F3D56"/>
<path d="M446.536 461.734L405.651 480.739L469.785 618.846L510.67 599.84L446.536 461.734Z" fill="#E6E6E6"/>
<path d="M293.058 287.88C285.412 291.442 285.286 307.395 287.683 312.564L292.028 321.92L319.724 309.046L315.379 299.689C312.977 294.522 300.71 284.33 293.058 287.88Z" fill="#3F3D56"/>
<path d="M464.38 639.243L451.799 645.091C449.908 646.026 447.763 646.315 445.692 645.915C443.866 645.483 442.631 644.365 442.307 642.848L439.38 629.169C438.827 626.588 440.963 623.535 444.459 621.91L451.407 618.68C454.902 617.055 458.612 617.391 460.227 619.478L468.788 630.539C469.738 631.765 469.796 633.429 468.948 635.105C467.918 636.946 466.313 638.399 464.38 639.243Z" fill="#3F3D56"/>
<path d="M425.699 658.443L413.118 664.292C411.227 665.226 409.082 665.515 407.011 665.115C405.185 664.683 403.951 663.566 403.626 662.049L400.699 648.369C400.146 645.789 402.282 642.735 405.778 641.11L412.726 637.881C416.222 636.256 419.931 636.591 421.546 638.678L430.108 649.739C431.057 650.966 431.115 652.63 430.267 654.305C429.237 656.147 427.633 657.6 425.699 658.443Z" fill="#3F3D56"/>
<path d="M341.422 338.505L300.538 357.51L430.177 636.677L471.062 617.672L341.422 338.505Z" fill="#E6E6E6"/>
<path d="M383.844 482.415L379.257 472.315L381.897 471.097L386.471 481.164L452.699 628.081L450.061 629.307" fill="#3F3D56"/>
<path d="M435.587 474.02L431 463.92L433.641 462.702L438.214 472.769L504.442 619.686L501.804 620.912" fill="#3F3D56"/>
<path d="M360.72 360.846L305.323 386.597C301.796 381.107 291.164 352.975 293.551 344.628L291.759 336.669L330.01 318.888L335.13 325.19C342.73 327.523 357.525 353.947 360.72 360.846Z" fill="#E6E6E6"/>
<path d="M331.608 319.229L292.136 337.577C290.679 338.255 289.127 338.006 288.67 337.021C288.605 336.879 288.564 336.727 288.55 336.571L286.507 314.767C286.419 313.833 287.218 312.775 288.438 312.208L314.615 300.04C315.834 299.473 317.157 299.545 317.814 300.214L333.153 315.838C333.937 316.637 333.511 318.005 332.201 318.893C332.013 319.021 331.814 319.133 331.608 319.229Z" fill="#E6E6E6"/>
<path d="M362.568 490.059C362.14 490.06 361.714 490.01 361.299 489.91C360.714 489.788 360.164 489.534 359.692 489.167C359.219 488.801 358.837 488.33 358.575 487.793L334.442 435.826C333.444 433.675 334.784 430.924 337.431 429.693L372.767 413.267C375.415 412.036 378.38 412.786 379.38 414.937L403.512 466.904C403.753 467.452 403.866 468.047 403.842 468.645C403.817 469.242 403.657 469.826 403.372 470.352C402.752 471.543 401.748 472.489 400.523 473.037L365.187 489.463C364.367 489.85 363.474 490.053 362.568 490.059Z" fill="#3F3D56"/>
<path d="M367.4 497.925L326.515 516.931L390.649 655.038L431.534 636.032L367.4 497.925Z" fill="#E6E6E6"/>
<path d="M317.031 321.507L305.041 327.08C302.727 328.156 299.606 326.363 298.084 323.086C296.562 319.808 297.206 316.265 299.519 315.19L311.509 309.617C313.823 308.541 316.944 310.333 318.466 313.611C319.988 316.889 319.344 320.431 317.031 321.507Z" fill="#3F3D56"/>
<path d="M330.743 470.422C323.096 473.983 322.97 489.936 325.368 495.106L329.713 504.462L357.409 491.588L353.064 482.231C350.662 477.064 338.395 466.872 330.743 470.422Z" fill="#3F3D56"/>
<path d="M203.729 438.577C201.029 440.378 198.265 436.093 201.017 434.373C203.717 432.573 206.481 436.857 203.729 438.577Z" fill="#E6E6E6"/>
<path d="M484.82 377.014C482.12 378.814 479.356 374.53 482.108 372.81C484.809 371.01 487.572 375.294 484.82 377.014Z" fill="#E6E6E6"/>
<path d="M293.231 425.985C290.53 427.785 287.766 423.501 290.519 421.78C293.219 419.98 295.983 424.265 293.231 425.985Z" fill="#E6E6E6"/>
<path d="M203.729 593.885C201.029 595.685 198.265 591.4 201.017 589.68C203.717 587.88 206.481 592.165 203.729 593.885Z" fill="#E6E6E6"/>
<path d="M341.478 243.394C338.777 245.194 336.013 240.91 338.766 239.189C341.466 237.389 344.23 241.674 341.478 243.394Z" fill="#E6E6E6"/>
<path d="M208.624 325.945C205.923 327.745 203.159 323.46 205.912 321.74C208.612 319.94 211.376 324.225 208.624 325.945Z" fill="#E6E6E6"/>
<path d="M399.708 302.279L397.99 301.902L398.366 300.182L397.221 299.931L396.844 301.651L395.126 301.274L394.875 302.42L396.593 302.797L396.217 304.516L397.362 304.767L397.739 303.048L399.457 303.425L399.708 302.279Z" fill="#E6E6E6"/>
<path d="M119.948 445.538L118.23 445.161L118.606 443.442L117.461 443.191L117.084 444.91L115.365 444.534L115.114 445.679L116.833 446.057L116.456 447.776L117.602 448.027L117.979 446.308L119.697 446.684L119.948 445.538Z" fill="#E6E6E6"/>
<path d="M472.282 518.615C470.852 519.278 469.218 519.346 467.738 518.805C466.258 518.264 465.053 517.157 464.387 515.728L457.316 500.501C456.655 499.071 456.587 497.437 457.129 495.957C457.67 494.478 458.777 493.274 460.205 492.61C461.634 491.946 463.267 491.876 464.747 492.416C466.226 492.956 467.431 494.062 468.097 495.49L475.168 510.717C475.83 512.147 475.898 513.782 475.357 515.263C474.816 516.744 473.71 517.949 472.282 518.615Z" fill="#3F3D56"/>
<path d="M352.014 574.582C350.584 575.245 348.95 575.313 347.47 574.772C345.99 574.23 344.785 573.124 344.119 571.695L337.048 556.468C336.387 555.038 336.319 553.404 336.861 551.924C337.402 550.444 338.509 549.24 339.937 548.576C341.366 547.912 342.999 547.843 344.479 548.383C345.958 548.923 347.163 550.029 347.829 551.457L354.9 566.684C355.562 568.114 355.63 569.749 355.089 571.23C354.548 572.711 353.442 573.916 352.014 574.582Z" fill="#3F3D56"/>
<path d="M461.389 485.347L413.977 507.386C410.958 502.688 401.859 478.61 403.902 471.467L404.905 463.475L433.214 449.58L439.487 454.83C448.326 451.84 461.317 473.752 461.389 485.347Z" fill="#E6E6E6"/>
<path d="M439.377 483.819L427.388 489.392C425.074 490.468 421.553 487.816 419.541 483.483C417.529 479.149 417.774 474.747 420.087 473.672L432.077 468.098C434.391 467.023 437.911 469.674 439.923 474.008C441.936 478.341 441.691 482.743 439.377 483.819Z" fill="#3F3D56"/>
<path d="M337.695 512.497L333.107 502.397L335.748 501.179L340.322 511.246L406.55 658.163L403.911 659.389" fill="#3F3D56"/>
<path d="M383.051 521.168L335.639 543.207C328.644 539.594 317.955 515.951 325.564 507.288L326.567 499.296L354.876 485.401L361.149 490.651C367.654 492.648 380.317 515.263 383.051 521.168Z" fill="#E6E6E6"/>
<path d="M360.063 517.538L348.074 523.112C345.76 524.187 342.459 522.007 340.715 518.253C338.972 514.498 339.436 510.568 341.749 509.493L353.739 503.919C356.053 502.844 359.354 505.024 361.098 508.778C362.841 512.533 362.377 516.463 360.063 517.538Z" fill="#3F3D56"/>
<path d="M119.772 415.363C159.549 415.363 191.793 383.102 191.793 343.306C191.793 303.51 159.549 271.249 119.772 271.249C79.9964 271.249 47.7516 303.51 47.7516 343.306C47.7516 383.102 79.9964 415.363 119.772 415.363Z" fill="#FBCD99"/>
<path opacity="0.3" d="M415.068 418.357L458.835 290.466L410.776 416.826C410.538 417.126 410.376 417.478 410.301 417.853C410.227 418.229 410.243 418.617 410.348 418.984C410.454 419.352 410.645 419.69 410.907 419.969C411.169 420.248 411.493 420.461 411.854 420.589C412.214 420.718 412.6 420.759 412.979 420.708C413.358 420.658 413.72 420.518 414.034 420.299C414.349 420.081 414.606 419.791 414.786 419.453C414.966 419.115 415.062 418.739 415.068 418.357Z" fill="#F0F0F0"/>
<path d="M526.633 342.126C518.066 344.975 508.567 347.773 498.139 350.521C444.196 364.731 371.892 375.814 294.546 381.732C217.2 387.649 144.052 387.692 88.5779 381.854C61.5546 379.009 40.1806 374.918 25.0501 369.694C9.03111 364.164 0.613888 357.499 0.0319315 349.886C-1.10134 335.055 28.1499 322.002 52.8882 313.663L53.5582 315.652C19.5859 327.103 1.31957 339.205 2.12382 349.726C3.14771 363.128 34.7391 374.076 88.7974 379.766C144.15 385.592 217.163 385.547 294.387 379.639C371.61 373.731 443.781 362.669 497.605 348.492C550.168 334.646 579.73 319.019 578.705 305.617C577.855 294.491 555.933 284.972 516.979 278.815L517.306 276.742C545.611 281.216 579.603 289.83 580.797 305.457C581.379 313.07 574.072 320.937 559.08 328.84C550.534 333.345 539.675 337.789 526.633 342.126Z" fill="url(#paint4_linear_963_3421)"/>
<path d="M547.796 469.926C551.929 469.926 555.28 466.574 555.28 462.439C555.28 458.304 551.929 454.952 547.796 454.952C543.663 454.952 540.313 458.304 540.313 462.439C540.313 466.574 543.663 469.926 547.796 469.926Z" fill="#FBCD99"/>
<path d="M595.344 672.805C599.477 672.805 602.827 669.453 602.827 665.318C602.827 661.183 599.477 657.831 595.344 657.831C591.211 657.831 587.86 661.183 587.86 665.318C587.86 669.453 591.211 672.805 595.344 672.805Z" fill="#F2F2F2"/>
<path d="M340.124 718.392C348.182 718.392 354.714 711.857 354.714 703.795C354.714 695.733 348.182 689.197 340.124 689.197C332.066 689.197 325.534 695.733 325.534 703.795C325.534 711.857 332.066 718.392 340.124 718.392Z" fill="#F2F2F2"/>
<path d="M228.946 525.193C233.079 525.193 236.43 521.841 236.43 517.706C236.43 513.571 233.079 510.219 228.946 510.219C224.813 510.219 221.463 513.571 221.463 517.706C221.463 521.841 224.813 525.193 228.946 525.193Z" fill="#3F3D56"/>
<path d="M480.53 534.938L512.818 543.3L532.621 582.216L499.142 583.53L480.53 534.938Z" fill="#E6E6E6"/>
<path d="M406.006 478.835L423.776 496.624L468.909 594.255L460.6 601.437L406.006 478.835Z" fill="#CCCCCC"/>
<path d="M367.367 494.961L368.761 520.073L411.361 618.836L422.252 617.433L367.367 494.961Z" fill="#CCCCCC"/>
<path d="M366.204 596.409L348.815 624.884L361.634 666.627L386.605 644.278L366.204 596.409Z" fill="#E6E6E6"/>
<path d="M519.812 613.906C510.784 613.906 500.888 613.565 490.125 612.882C434.457 609.345 362.349 597.048 287.085 578.258C211.821 559.468 142.393 536.427 91.5901 513.383C66.8425 502.157 47.8488 491.53 35.1374 481.798C21.6792 471.496 15.7924 462.515 17.6398 455.107C21.2394 440.676 53.1126 437.518 79.217 437.411L79.2259 439.51C43.3776 439.657 22.2289 445.377 19.6754 455.616C16.4227 468.656 42.9505 489.014 92.4563 511.471C143.148 534.465 212.448 557.461 287.593 576.222C362.738 594.982 434.713 607.258 490.259 610.787C544.504 614.235 577.483 608.732 580.735 595.692C583.436 584.864 565.633 568.915 530.608 550.78L531.572 548.916C557.022 562.093 586.564 580.993 582.771 596.2C580.923 603.608 571.51 608.768 554.791 611.537C545.261 613.115 533.555 613.906 519.812 613.906Z" fill="url(#paint5_linear_963_3421)"/>
<path d="M103.363 213.757C103.163 211.961 104.013 210.392 105.262 210.253C106.511 210.113 107.686 211.456 107.887 213.251C108.088 215.047 107.238 216.616 105.988 216.755C104.739 216.895 103.564 215.553 103.363 213.757Z" fill="#4DDAC5"/>
<path d="M504.363 208.757C504.163 206.961 505.013 205.392 506.262 205.253C507.511 205.113 508.686 206.456 508.887 208.251C509.088 210.047 508.238 211.616 506.988 211.755C505.739 211.895 504.564 210.553 504.363 208.757Z" fill="#4DDAC5"/>
<path d="M200 710.787C198.895 710.787 198 709.891 198 708.787C198 707.682 198.895 706.787 200 706.787C201.105 706.787 202 707.682 202 708.787C202 709.891 201.105 710.787 200 710.787Z" fill="white"/>
<path d="M46.5459 736.705C46.3452 734.91 47.1952 733.341 48.4444 733.201C49.6936 733.062 50.8689 734.404 51.0696 736.2C51.2702 737.995 50.4202 739.564 49.171 739.704C47.9219 739.843 46.7465 738.501 46.5459 736.705Z" fill="#E6E6E6"/>
<path d="M88.0095 717.46C87.5209 715.532 89.3715 713.4 92.1428 712.697C94.9142 711.995 97.5569 712.989 98.0455 714.917C98.534 716.844 96.6835 718.977 93.9121 719.679C91.1408 720.381 88.4981 719.388 88.0095 717.46Z" fill="white"/>
<path d="M38.6299 689.821C38.1414 687.893 39.9919 685.761 42.7633 685.058C45.5346 684.356 48.1773 685.35 48.6659 687.278C49.1545 689.205 47.3039 691.338 44.5326 692.04C41.7612 692.742 39.1185 691.749 38.6299 689.821Z" fill="#227B9B"/>
<path d="M69.0613 679.849C68.5727 677.921 70.4233 675.789 73.1947 675.086C75.966 674.384 78.6087 675.378 79.0973 677.306C79.5859 679.234 77.7353 681.366 74.964 682.068C72.1926 682.77 69.5499 681.777 69.0613 679.849Z" fill="#FBCD99"/>
<path d="M61.172 690.437C60.9713 688.641 61.8213 687.072 63.0705 686.933C64.3197 686.793 65.495 688.136 65.6957 689.931C65.8963 691.727 65.0463 693.296 63.7971 693.435C62.5479 693.575 61.3726 692.232 61.172 690.437Z" fill="#E6E6E6"/>
<path d="M58.3892 711.644C58.1885 709.849 59.0385 708.28 60.2877 708.14C61.5369 708.001 62.7122 709.343 62.9128 711.139C63.1135 712.935 62.2635 714.504 61.0143 714.643C59.7651 714.783 58.5898 713.44 58.3892 711.644Z" fill="#4DDAC5"/>
<path d="M22.3633 709.497C22.1626 707.701 23.0126 706.133 24.2618 705.993C25.511 705.853 26.6863 707.196 26.8869 708.992C27.0876 710.787 26.2376 712.356 24.9884 712.496C23.7392 712.635 22.5639 711.293 22.3633 709.497Z" fill="#E6E6E6"/>
<path d="M28 654C26.8954 654 26 653.105 26 652C26 650.895 26.8954 650 28 650C29.1046 650 30 650.895 30 652C30 653.105 29.1046 654 28 654Z" fill="white"/>
<path opacity="0.3" d="M107.569 629.043L5.00196 541L104.556 632.462C104.747 632.794 105.014 633.075 105.335 633.284C105.656 633.492 106.022 633.621 106.403 633.659C106.784 633.698 107.168 633.645 107.524 633.505C107.881 633.365 108.198 633.143 108.451 632.856C108.704 632.569 108.885 632.225 108.979 631.854C109.072 631.484 109.076 631.096 108.99 630.723C108.904 630.35 108.73 630.003 108.482 629.711C108.235 629.419 107.922 629.19 107.569 629.043Z" fill="#F0F0F0"/>
</g>
<defs>
<linearGradient id="paint0_linear_963_3421" x1="-16.8638" y1="250.833" x2="439.478" y2="136.489" gradientUnits="userSpaceOnUse">
<stop stop-color="#2A112E"/>
<stop offset="0.490163" stop-color="#7452B0"/>
<stop offset="1" stop-color="#46FBF6"/>
</linearGradient>
<linearGradient id="paint1_linear_963_3421" x1="838.882" y1="117.192" x2="458.715" y2="186.762" gradientUnits="userSpaceOnUse">
<stop stop-color="#2A112E"/>
<stop offset="0.490163" stop-color="#7452B0"/>
<stop offset="1" stop-color="#FBCD99"/>
</linearGradient>
<linearGradient id="paint2_linear_963_3421" x1="811.923" y1="681.986" x2="431.755" y2="751.556" gradientUnits="userSpaceOnUse">
<stop stop-color="#2A112E"/>
<stop offset="0.490163" stop-color="#7452B0"/>
<stop offset="1" stop-color="#FBCD99"/>
</linearGradient>
<linearGradient id="paint3_linear_963_3421" x1="420" y1="26" x2="3" y2="26" gradientUnits="userSpaceOnUse">
<stop stop-color="#2A112E"/>
<stop offset="0.490163" stop-color="#7452B0"/>
<stop offset="1" stop-color="#46FBF6"/>
</linearGradient>
<linearGradient id="paint4_linear_963_3421" x1="-1.08188e-06" y1="331.471" x2="580.83" y2="331.471" gradientUnits="userSpaceOnUse">
<stop offset="0.130208" stop-color="#100626"/>
<stop offset="0.666667" stop-color="#227593"/>
<stop offset="1" stop-color="#48F5F3"/>
</linearGradient>
<linearGradient id="paint5_linear_963_3421" x1="17.3086" y1="525.659" x2="583.102" y2="525.658" gradientUnits="userSpaceOnUse">
<stop stop-color="#100626"/>
<stop offset="0.490163" stop-color="#923A9E"/>
<stop offset="1" stop-color="#FBCD99"/>
</linearGradient>
<clipPath id="clip0_963_3421">
<rect width="631" height="578" fill="white" transform="translate(0 200)"/>
</clipPath>
</defs>
</svg>
