<svg width="713" height="485" viewBox="0 0 713 485" fill="none" xmlns="http://www.w3.org/2000/svg">
<g clip-path="url(#clip0_204_776)">
<path d="M-13.442 292.64C19.2717 317.657 62.6059 333.707 107.117 337.556C111.486 337.936 115.865 338.197 120.255 338.337C121.229 338.37 122.203 338.39 123.186 338.41C124.777 338.443 126.377 338.457 127.968 338.457C129.876 338.457 131.785 338.435 133.693 338.39C144.738 338.125 155.739 337.137 166.593 335.435C166.991 335.368 167.381 335.308 167.779 335.241C169.492 334.968 171.2 334.674 172.902 334.361C176.166 333.767 179.414 333.109 182.646 332.386C183.693 332.153 184.74 331.913 185.788 331.659C187.29 331.305 188.784 330.932 190.278 330.552C190.838 330.405 191.398 330.265 191.959 330.111C192.527 329.965 193.095 329.811 193.664 329.651C197.131 328.717 200.568 327.703 203.976 326.609C223.382 320.449 241.549 311.924 257.865 301.319C260.122 299.845 262.412 298.297 264.621 296.796C276.492 288.751 288.768 280.432 303.733 278.618C319.891 276.663 335.415 282.707 350.42 288.551C355.511 290.532 360.773 292.58 365.977 294.295C391.384 302.517 419.385 303.617 445.63 297.423C446.174 297.303 446.718 297.17 447.254 297.037V295.642C446.718 295.776 446.174 295.909 445.63 296.036C419.605 302.261 391.8 301.212 366.578 293.054C361.422 291.359 356.177 289.318 351.11 287.344C335.886 281.413 320.142 275.282 303.497 277.297C288.086 279.165 275.631 287.604 263.59 295.769C261.381 297.263 259.099 298.811 256.858 300.279C240.65 310.815 222.601 319.283 203.318 325.395H203.31C200.046 326.436 196.741 327.416 193.42 328.324C192.941 328.45 192.462 328.577 191.983 328.71C191.447 328.851 190.903 328.991 190.367 329.131C188.995 329.491 187.62 329.833 186.243 330.158C184.895 330.492 183.539 330.807 182.175 331.105H182.167C178.675 331.886 175.162 332.591 171.627 333.22C170.028 333.514 168.428 333.78 166.812 334.034C166.463 334.094 166.106 334.147 165.749 334.201C155.336 335.815 144.787 336.765 134.196 337.043H134.188C130.51 337.136 126.837 337.147 123.17 337.076C122.212 337.056 121.262 337.029 120.312 337.003C116.163 336.869 112.019 336.629 107.881 336.282H107.872C63.4991 332.553 20.2705 316.596 -12.3378 291.66C-12.4962 291.54 -12.7058 291.477 -12.9207 291.484C-13.1356 291.492 -13.3382 291.569 -13.4843 291.698C-13.6303 291.828 -13.7079 292 -13.7 292.176C-13.692 292.353 -13.5993 292.52 -13.442 292.64Z" fill="url(#paint0_linear_204_776)"/>
<path d="M-45.1599 242.848C6.87482 218.989 75.8024 203.68 146.603 200.009C153.551 199.647 160.516 199.398 167.499 199.265C169.049 199.233 170.599 199.214 172.161 199.195C174.693 199.163 177.237 199.15 179.768 199.15C182.803 199.15 185.838 199.171 188.873 199.214C206.442 199.466 223.941 200.409 241.205 202.032C241.838 202.096 242.458 202.153 243.091 202.217C245.816 202.478 248.532 202.758 251.24 203.057C256.432 203.623 261.598 204.251 266.738 204.94C268.404 205.163 270.07 205.392 271.736 205.634C274.125 205.971 276.502 206.327 278.878 206.69C279.769 206.83 280.661 206.963 281.552 207.11C282.456 207.25 283.36 207.396 284.264 207.549C289.779 208.44 295.246 209.407 300.666 210.45C331.534 216.325 360.43 224.456 386.383 234.57C389.973 235.977 393.615 237.453 397.128 238.884C416.01 246.557 435.538 254.492 459.34 256.222C485.041 258.086 509.734 252.322 533.601 246.748C541.699 244.859 550.068 242.905 558.347 241.27C598.759 233.428 643.296 232.379 685.043 238.286C685.908 238.401 686.774 238.528 687.626 238.655V239.985C686.774 239.858 685.908 239.73 685.043 239.61C643.646 233.673 599.42 234.673 559.302 242.454C551.101 244.07 542.758 246.017 534.699 247.9C510.483 253.556 485.441 259.403 458.965 257.482C434.453 255.7 414.641 247.652 395.488 239.864C391.975 238.439 388.346 236.963 384.781 235.563C359.001 225.514 330.291 217.438 299.62 211.608H299.607C294.415 210.616 289.159 209.68 283.876 208.815C283.114 208.694 282.352 208.573 281.59 208.446C280.738 208.312 279.873 208.179 279.02 208.045C276.838 207.701 274.651 207.375 272.459 207.065C270.316 206.747 268.159 206.446 265.989 206.162H265.976C260.423 205.417 254.835 204.745 249.212 204.145C246.668 203.865 244.124 203.61 241.554 203.369C240.998 203.311 240.43 203.26 239.862 203.21C223.3 201.67 206.52 200.764 189.674 200.499H189.661C183.811 200.41 177.969 200.399 172.135 200.467C170.612 200.486 169.101 200.512 167.589 200.537C160.99 200.665 154.399 200.894 147.817 201.224H147.804C77.223 204.781 8.46338 220 -43.4034 243.783C-43.6555 243.897 -43.9889 243.957 -44.3306 243.951C-44.6724 243.944 -44.9948 243.87 -45.2271 243.747C-45.4594 243.623 -45.5827 243.459 -45.5701 243.291C-45.5576 243.122 -45.41 242.963 -45.1599 242.848Z" fill="url(#paint1_linear_204_776)"/>
<path d="M156.638 355.162C156.242 353.876 157.744 352.454 159.994 351.985C162.245 351.517 164.39 352.179 164.787 353.466C165.184 354.752 163.681 356.174 161.431 356.643C159.181 357.111 157.035 356.448 156.638 355.162Z" fill="white"/>
<path d="M63.1378 244.536C62.7411 243.25 64.2437 241.827 66.4939 241.359C68.7441 240.89 70.8899 241.553 71.2866 242.839C71.6833 244.125 70.1807 245.548 67.9305 246.016C65.6803 246.485 63.5345 245.822 63.1378 244.536Z" fill="white"/>
<path d="M184.118 355.017C183.721 353.731 185.224 352.308 187.474 351.84C189.724 351.371 191.87 352.034 192.267 353.32C192.664 354.606 191.161 356.029 188.911 356.497C186.661 356.966 184.515 356.303 184.118 355.017Z" fill="#227593"/>
<path d="M128.094 239.866C127.698 238.58 129.2 237.158 131.45 236.689C133.701 236.221 135.846 236.883 136.243 238.169C136.64 239.456 135.137 240.878 132.887 241.347C130.637 241.815 128.491 241.152 128.094 239.866Z" fill="#227593"/>
<path d="M163.131 436.89C162.734 435.604 164.237 434.181 166.487 433.713C168.737 433.244 170.883 433.907 171.279 435.193C171.676 436.479 170.174 437.902 167.923 438.37C165.673 438.839 163.527 438.176 163.131 436.89Z" fill="#FBCD99"/>
<path d="M99.6757 261.88C99.279 260.594 100.782 259.172 103.032 258.703C105.282 258.235 107.428 258.898 107.824 260.184C108.221 261.47 106.719 262.892 104.468 263.361C102.218 263.829 100.072 263.167 99.6757 261.88Z" fill="#FBCD99"/>
<path d="M156.725 443.953C156.562 442.755 157.252 441.708 158.267 441.615C159.281 441.522 160.235 442.418 160.398 443.616C160.561 444.813 159.871 445.86 158.857 445.953C157.842 446.046 156.888 445.151 156.725 443.953Z" fill="#E6E6E6"/>
<path d="M154.466 458.101C154.303 456.903 154.993 455.856 156.007 455.763C157.021 455.67 157.976 456.565 158.139 457.763C158.302 458.961 157.611 460.008 156.597 460.101C155.583 460.194 154.629 459.298 154.466 458.101Z" fill="#4DDAC5"/>
<path d="M182.559 431.139C182.396 429.941 183.087 428.895 184.101 428.801C185.115 428.708 186.069 429.604 186.232 430.802C186.395 432 185.705 433.046 184.691 433.139C183.677 433.233 182.722 432.337 182.559 431.139Z" fill="#E6E6E6"/>
<path d="M187.756 273.703C187.593 272.505 188.283 271.459 189.297 271.366C190.311 271.273 191.266 272.168 191.429 273.366C191.592 274.564 190.901 275.611 189.887 275.704C188.873 275.797 187.919 274.901 187.756 273.703Z" fill="#E6E6E6"/>
<path d="M443.992 451.198C443.026 450.291 442.865 449.108 443.632 448.556C444.4 448.003 445.806 448.29 446.773 449.197C447.739 450.104 447.901 451.287 447.133 451.839C446.365 452.391 444.959 452.104 443.992 451.198Z" fill="#E6E6E6"/>
<path d="M157.081 363.874C156.918 362.676 157.609 361.63 158.623 361.537C159.637 361.444 160.591 362.339 160.754 363.537C160.917 364.735 160.227 365.782 159.213 365.875C158.199 365.968 157.244 365.072 157.081 363.874Z" fill="#FBCD99"/>
<path d="M174.118 352.343C173.955 351.145 174.645 350.098 175.66 350.005C176.674 349.912 177.628 350.807 177.791 352.005C177.954 353.203 177.264 354.25 176.25 354.343C175.235 354.436 174.281 353.54 174.118 352.343Z" fill="#4DDAC5"/>
<path d="M114.192 259.027C114.029 257.829 114.72 256.783 115.734 256.689C116.748 256.596 117.702 257.492 117.865 258.69C118.028 259.888 117.338 260.934 116.324 261.027C115.31 261.121 114.355 260.225 114.192 259.027Z" fill="#4DDAC5"/>
<path d="M438.053 292.608C436.259 292.608 434.805 291.413 434.805 289.94C434.805 288.466 436.259 287.271 438.053 287.271C439.846 287.271 441.301 288.466 441.301 289.94C441.301 291.413 439.846 292.608 438.053 292.608Z" fill="white"/>
<path d="M28.4725 370.062C30.1862 369.627 32.005 370.415 32.5349 371.823C33.0649 373.231 32.1053 374.725 30.3917 375.161C28.678 375.596 26.8592 374.808 26.3293 373.4C25.7993 371.992 26.7589 370.497 28.4725 370.062Z" fill="white"/>
<path d="M517.624 317.958C516.728 317.958 516 317.36 516 316.624C516 315.887 516.728 315.289 517.624 315.289C518.521 315.289 519.248 315.887 519.248 316.624C519.248 317.36 518.521 317.958 517.624 317.958Z" fill="white"/>
<path d="M195.277 417.356C194.381 417.356 193.654 416.758 193.654 416.021C193.654 415.285 194.381 414.687 195.277 414.687C196.174 414.687 196.901 415.285 196.901 416.021C196.901 416.758 196.174 417.356 195.277 417.356Z" fill="white"/>
<path d="M404.763 355.982C403.866 355.982 403.139 355.385 403.139 354.648C403.139 353.911 403.866 353.314 404.763 353.314C405.659 353.314 406.386 353.911 406.386 354.648C406.386 355.385 405.659 355.982 404.763 355.982Z" fill="white"/>
<path d="M375.532 216.558C374.635 216.558 373.908 215.961 373.908 215.224C373.908 214.487 374.635 213.89 375.532 213.89C376.429 213.89 377.156 214.487 377.156 215.224C377.156 215.961 376.429 216.558 375.532 216.558Z" fill="white"/>
<path d="M115.55 427.54C116.407 427.323 117.316 427.717 117.581 428.421C117.846 429.125 117.366 429.872 116.509 430.09C115.653 430.307 114.743 429.913 114.478 429.209C114.213 428.505 114.693 427.758 115.55 427.54Z" fill="white"/>
<path d="M110.022 267.925C109.125 267.925 108.398 267.328 108.398 266.591C108.398 265.854 109.125 265.257 110.022 265.257C110.919 265.257 111.646 265.854 111.646 266.591C111.646 267.328 110.919 267.925 110.022 267.925Z" fill="white"/>
<path d="M350.735 314.017C351.592 313.799 352.502 314.194 352.767 314.898C353.032 315.602 352.552 316.349 351.695 316.566C350.838 316.784 349.929 316.39 349.664 315.686C349.399 314.982 349.879 314.235 350.735 314.017Z" fill="white"/>
<path d="M487.582 198.547C486.685 198.547 485.958 197.949 485.958 197.212C485.958 196.476 486.685 195.878 487.582 195.878C488.479 195.878 489.206 196.476 489.206 197.212C489.206 197.949 488.479 198.547 487.582 198.547Z" fill="white"/>
<path d="M192.03 191.876C190.236 191.876 188.782 190.681 188.782 189.207C188.782 187.734 190.236 186.539 192.03 186.539C193.823 186.539 195.278 187.734 195.278 189.207C195.278 190.681 193.823 191.876 192.03 191.876Z" fill="white"/>
<path d="M390.603 382.032C389.13 382.873 387.106 382.575 386.082 381.366C385.057 380.156 385.42 378.493 386.892 377.651C388.364 376.809 390.388 377.107 391.413 378.317C392.438 379.527 392.075 381.19 390.603 382.032Z" fill="white"/>
<path d="M299.736 406.578C301.45 406.143 303.269 406.931 303.799 408.339C304.329 409.747 303.369 411.241 301.655 411.677C299.942 412.112 298.123 411.324 297.593 409.916C297.063 408.508 298.023 407.013 299.736 406.578Z" fill="white"/>
<path d="M213.562 217.577C213.399 216.379 214.089 215.332 215.104 215.239C216.118 215.146 217.072 216.042 217.235 217.24C217.398 218.437 216.708 219.484 215.694 219.577C214.679 219.67 213.725 218.775 213.562 217.577Z" fill="#E6E6E6"/>
<path d="M426.146 393.019C425.179 392.112 425.018 390.929 425.786 390.377C426.554 389.824 427.96 390.112 428.926 391.018C429.893 391.925 430.054 393.108 429.286 393.66C428.519 394.213 427.113 393.926 426.146 393.019Z" fill="#E6E6E6"/>
<path d="M174.498 205.177C174.101 203.891 175.604 202.468 177.854 202C180.104 201.531 182.25 202.194 182.647 203.48C183.044 204.766 181.541 206.189 179.291 206.657C177.041 207.126 174.895 206.463 174.498 205.177Z" fill="#FBCD99"/>
<path d="M385.462 401.177C384.242 400.308 384.487 398.435 386.008 396.995C387.529 395.554 389.751 395.091 390.971 395.96C392.191 396.829 391.946 398.702 390.425 400.143C388.904 401.584 386.682 402.047 385.462 401.177Z" fill="#FBCD99"/>
<path d="M145.534 207.66C145.371 206.462 146.061 205.416 147.075 205.323C148.09 205.23 149.044 206.125 149.207 207.323C149.37 208.521 148.68 209.568 147.665 209.661C146.651 209.754 145.697 208.858 145.534 207.66Z" fill="#E6E6E6"/>
<path d="M165.833 226.388C165.67 225.19 166.36 224.143 167.374 224.05C168.389 223.957 169.343 224.853 169.506 226.05C169.669 227.248 168.979 228.295 167.964 228.388C166.95 228.481 165.996 227.586 165.833 226.388Z" fill="#4DDAC5"/>
<path d="M193.887 227.587C193.724 226.389 194.414 225.343 195.428 225.25C196.443 225.157 197.397 226.052 197.56 227.25C197.723 228.448 197.033 229.495 196.018 229.588C195.004 229.681 194.05 228.785 193.887 227.587Z" fill="#4DDAC5"/>
<path d="M416.958 410.47C415.992 409.564 415.83 408.381 416.598 407.828C417.366 407.276 418.772 407.563 419.738 408.469C420.705 409.376 420.866 410.559 420.099 411.112C419.331 411.664 417.925 411.377 416.958 410.47Z" fill="#4DDAC5"/>
<path opacity="0.3" d="M121.255 466.443L0.710693 383.937L117.818 469.747C118.044 470.061 118.359 470.326 118.735 470.52C119.111 470.714 119.539 470.832 119.981 470.863C120.424 470.894 120.869 470.838 121.28 470.7C121.691 470.561 122.056 470.345 122.345 470.067C122.633 469.79 122.837 469.46 122.94 469.104C123.042 468.749 123.04 468.379 122.933 468.025C122.827 467.671 122.619 467.342 122.327 467.067C122.035 466.792 121.668 466.578 121.255 466.443Z" fill="#F2F2F2"/>
<path d="M164.549 459.878C201.555 465.341 247.808 464.948 293.272 458.903C297.734 458.311 302.187 457.663 306.633 456.96C307.619 456.805 308.604 456.644 309.597 456.481C311.206 456.219 312.819 455.946 314.423 455.668C316.345 455.335 318.263 454.993 320.178 454.64C331.262 452.595 342.185 450.235 352.844 447.582C353.234 447.482 353.617 447.388 354.007 447.289C355.688 446.868 357.361 446.439 359.025 446.002C362.217 445.167 365.383 444.307 368.521 443.421C369.539 443.134 370.555 442.844 371.569 442.548C373.025 442.128 374.47 441.701 375.913 441.27C376.454 441.107 376.995 440.947 377.535 440.78C378.084 440.616 378.632 440.448 379.178 440.277C382.52 439.256 385.818 438.203 389.074 437.121C407.626 430.985 424.547 424.01 439.268 416.43C441.303 415.378 443.359 414.287 445.341 413.232C455.997 407.569 467.018 401.714 481.799 398.294C497.76 394.602 514.378 394.593 530.44 394.585C535.889 394.581 541.521 394.578 547.042 394.436C573.967 393.675 602.353 389.282 627.79 381.939C628.319 381.79 628.845 381.636 629.363 381.483L629.138 380.86C628.619 381.014 628.093 381.168 627.565 381.319C602.355 388.638 574.175 393.02 547.446 393.777C541.978 393.92 536.363 393.923 530.939 393.925C514.643 393.933 497.79 393.942 481.348 397.745C466.125 401.267 454.944 407.207 444.136 412.953C442.153 414.006 440.105 415.094 438.085 416.141C423.463 423.672 406.65 430.601 388.215 436.693L388.206 436.695C385.087 437.729 381.916 438.743 378.718 439.727C378.256 439.867 377.794 440.008 377.333 440.151C376.816 440.307 376.29 440.464 375.773 440.62C374.449 441.02 373.119 441.413 371.784 441.798C370.48 442.182 369.165 442.56 367.839 442.931L367.831 442.932C364.44 443.89 361.015 444.817 357.556 445.715C355.993 446.125 354.424 446.523 352.838 446.918C352.496 447.006 352.145 447.092 351.793 447.178C341.565 449.715 331.092 451.979 320.467 453.95L320.459 453.952C316.769 454.635 313.071 455.281 309.365 455.889C308.396 456.047 307.435 456.201 306.474 456.354C302.272 457.018 298.059 457.634 293.834 458.201L293.826 458.202C248.521 464.277 202.389 464.693 165.503 459.248C165.324 459.222 165.103 459.23 164.888 459.271C164.672 459.312 164.481 459.381 164.354 459.465C164.228 459.548 164.178 459.638 164.215 459.716C164.251 459.793 164.372 459.852 164.549 459.878Z" fill="url(#paint2_linear_204_776)"/>
</g>
<path d="M420.12 357.711C419.957 356.704 420.647 355.823 421.662 355.745C422.676 355.667 423.63 356.42 423.793 357.427C423.956 358.435 423.266 359.315 422.252 359.394C421.237 359.472 420.283 358.719 420.12 357.711Z" fill="#4DDAC5"/>
<path d="M355.019 143.557C354.856 142.55 355.546 141.669 356.56 141.591C357.575 141.513 358.529 142.266 358.692 143.273C358.855 144.281 358.165 145.161 357.15 145.24C356.136 145.318 355.182 144.565 355.019 143.557Z" fill="#4DDAC5"/>
<path d="M622.132 199.048C621.969 198.04 622.659 197.16 623.673 197.082C624.687 197.003 625.642 197.757 625.805 198.764C625.968 199.772 625.277 200.652 624.263 200.73C623.249 200.808 622.295 200.055 622.132 199.048Z" fill="#4DDAC5"/>
<path d="M576.662 194.559C576.499 193.552 577.189 192.671 578.203 192.593C579.218 192.515 580.172 193.268 580.335 194.275C580.498 195.283 579.808 196.163 578.793 196.242C577.779 196.32 576.825 195.567 576.662 194.559Z" fill="#4DDAC5"/>
<path d="M482.201 140.832C480.407 140.832 478.953 139.827 478.953 138.587C478.953 137.348 480.407 136.343 482.201 136.343C483.995 136.343 485.449 137.348 485.449 138.587C485.449 139.827 483.995 140.832 482.201 140.832Z" fill="white"/>
<path d="M561.773 162.153C560.876 162.153 560.149 161.65 560.149 161.03C560.149 160.411 560.876 159.908 561.773 159.908C562.67 159.908 563.397 160.411 563.397 161.03C563.397 161.65 562.67 162.153 561.773 162.153Z" fill="white"/>
<path d="M448.911 194.134C448.014 194.134 447.287 193.632 447.287 193.012C447.287 192.392 448.014 191.89 448.911 191.89C449.808 191.89 450.535 192.392 450.535 193.012C450.535 193.632 449.808 194.134 448.911 194.134Z" fill="white"/>
<path d="M1.55133 378.913C2.40815 378.73 3.31755 379.062 3.58253 379.654C3.84751 380.246 3.36772 380.875 2.51089 381.058C1.65407 381.241 0.744667 380.909 0.47969 380.317C0.214714 379.725 0.694502 379.097 1.55133 378.913Z" fill="white"/>
<path d="M419.68 76.8681C418.783 76.8681 418.056 76.3657 418.056 75.7459C418.056 75.1262 418.783 74.6238 419.68 74.6238C420.577 74.6238 421.304 75.1262 421.304 75.7459C421.304 76.3657 420.577 76.8681 419.68 76.8681Z" fill="white"/>
<path d="M154.171 120.071C153.274 120.071 152.547 119.569 152.547 118.949C152.547 118.33 153.274 117.827 154.171 117.827C155.067 117.827 155.794 118.33 155.794 118.949C155.794 119.569 155.067 120.071 154.171 120.071Z" fill="white"/>
<path d="M314.8 389.495C315.657 389.312 316.566 389.644 316.831 390.236C317.096 390.828 316.616 391.456 315.759 391.64C314.903 391.823 313.993 391.491 313.728 390.899C313.463 390.307 313.943 389.678 314.8 389.495Z" fill="white"/>
<path d="M531.731 61.7191C530.834 61.7191 530.107 61.2166 530.107 60.5969C530.107 59.9771 530.834 59.4747 531.731 59.4747C532.627 59.4747 533.354 59.9771 533.354 60.5969C533.354 61.2166 532.627 61.7191 531.731 61.7191Z" fill="white"/>
<path d="M236.178 56.1082C234.384 56.1082 232.93 55.1033 232.93 53.8638C232.93 52.6243 234.384 51.6195 236.178 51.6195C237.972 51.6195 239.426 52.6243 239.426 53.8638C239.426 55.1033 237.972 56.1082 236.178 56.1082Z" fill="white"/>
<path d="M29.5723 134.614C29.4094 133.606 30.0995 132.726 31.1138 132.648C32.1281 132.569 33.0824 133.323 33.2453 134.33C33.4082 135.338 32.718 136.218 31.7038 136.296C30.6895 136.375 29.7352 135.621 29.5723 134.614Z" fill="#E6E6E6"/>
<path d="M444.179 43.0068C444.016 41.9993 444.706 41.119 445.72 41.0407C446.735 40.9624 447.689 41.7157 447.852 42.7232C448.015 43.7307 447.324 44.611 446.31 44.6893C445.296 44.7676 444.342 44.0143 444.179 43.0068Z" fill="#E6E6E6"/>
<path d="M27.3128 146.513C27.1498 145.506 27.84 144.626 28.8543 144.547C29.8686 144.469 30.8229 145.222 30.9858 146.23C31.1487 147.237 30.4585 148.117 29.4443 148.196C28.43 148.274 27.4757 147.521 27.3128 146.513Z" fill="#4DDAC5"/>
<path d="M351.771 180.532C351.608 179.524 352.298 178.644 353.313 178.566C354.327 178.488 355.281 179.241 355.444 180.248C355.607 181.256 354.917 182.136 353.903 182.214C352.888 182.293 351.934 181.539 351.771 180.532Z" fill="#4DDAC5"/>
<path d="M467.881 64.9491C467.718 63.9415 468.408 63.0613 469.422 62.983C470.437 62.9047 471.391 63.6579 471.554 64.6655C471.717 65.673 471.027 66.5532 470.012 66.6315C468.998 66.7099 468.044 65.9566 467.881 64.9491Z" fill="#4DDAC5"/>
<path d="M709.032 110.397C708.869 109.389 709.559 108.509 710.574 108.431C711.588 108.352 712.542 109.106 712.705 110.113C712.868 111.121 712.178 112.001 711.163 112.079C710.149 112.157 709.195 111.404 709.032 110.397Z" fill="#4DDAC5"/>
<path d="M56.642 66.7879C56.2453 65.7061 57.7478 64.5098 59.9981 64.1157C62.2483 63.7217 64.394 64.2791 64.7907 65.3608C65.1874 66.4426 63.6849 67.6389 61.4347 68.033C59.1844 68.427 57.0387 67.8696 56.642 66.7879Z" fill="white"/>
<path d="M410.272 16.8234C409.875 15.7417 411.378 14.5453 413.628 14.1513C415.878 13.7572 418.024 14.3146 418.421 15.3964C418.817 16.4781 417.315 17.6744 415.065 18.0685C412.814 18.4626 410.669 17.9051 410.272 16.8234Z" fill="white"/>
<path d="M23.1449 108.308C22.7482 107.226 24.2508 106.03 26.501 105.636C28.7512 105.242 30.897 105.799 31.2937 106.881C31.6904 107.963 30.1878 109.159 27.9376 109.553C25.6874 109.947 23.5416 109.39 23.1449 108.308Z" fill="#227593"/>
<path d="M437.751 16.701C437.355 15.6192 438.857 14.4229 441.107 14.0288C443.358 13.6348 445.503 14.1922 445.9 15.2739C446.297 16.3556 444.794 17.552 442.544 17.9461C440.294 18.3401 438.148 17.7827 437.751 16.701Z" fill="#3F3D56"/>
<path d="M47.8539 102.713C47.4572 101.631 48.9598 100.435 51.21 100.041C53.4602 99.6467 55.606 100.204 56.0027 101.286C56.3994 102.368 54.8968 103.564 52.6466 103.958C50.3963 104.352 48.2506 103.795 47.8539 102.713Z" fill="#FBCD99"/>
<path d="M243.798 109.927C243.402 108.845 244.904 107.649 247.154 107.255C249.405 106.861 251.55 107.418 251.947 108.5C252.344 109.582 250.841 110.778 248.591 111.172C246.341 111.566 244.195 111.009 243.798 109.927Z" fill="#FBCD99"/>
<path d="M41.4482 108.654C41.2853 107.646 41.9755 106.766 42.9898 106.687C44.0041 106.609 44.9584 107.362 45.1213 108.37C45.2842 109.377 44.594 110.258 43.5797 110.336C42.5655 110.414 41.6112 109.661 41.4482 108.654Z" fill="#E6E6E6"/>
<path d="M237.392 115.868C237.229 114.86 237.92 113.98 238.934 113.902C239.948 113.823 240.902 114.576 241.065 115.584C241.228 116.592 240.538 117.472 239.524 117.55C238.51 117.628 237.555 116.875 237.392 115.868Z" fill="#E6E6E6"/>
<path d="M39.1887 120.553C39.0258 119.545 39.716 118.665 40.7303 118.587C41.7445 118.508 42.6988 119.262 42.8618 120.269C43.0247 121.277 42.3345 122.157 41.3202 122.235C40.306 122.314 39.3517 121.56 39.1887 120.553Z" fill="#4DDAC5"/>
<path d="M306.302 176.043C306.139 175.036 306.829 174.156 307.843 174.077C308.857 173.999 309.812 174.752 309.975 175.76C310.137 176.767 309.447 177.647 308.433 177.726C307.419 177.804 306.464 177.051 306.302 176.043Z" fill="#4DDAC5"/>
<path d="M396.45 50.4176C396.287 49.41 396.977 48.5298 397.991 48.4515C399.006 48.3732 399.96 49.1264 400.123 50.134C400.286 51.1415 399.596 52.0217 398.581 52.1001C397.567 52.1784 396.613 51.4251 396.45 50.4176Z" fill="#227593"/>
<path d="M9.93702 119.348C9.7741 118.34 10.4643 117.46 11.4785 117.382C12.4928 117.304 13.4471 118.057 13.61 119.064C13.773 120.072 13.0828 120.952 12.0685 121.03C11.0542 121.109 10.0999 120.356 9.93702 119.348Z" fill="#E6E6E6"/>
<path d="M263.227 105.09C263.064 104.083 263.754 103.203 264.768 103.124C265.783 103.046 266.737 103.799 266.9 104.807C267.063 105.814 266.373 106.694 265.358 106.773C264.344 106.851 263.39 106.098 263.227 105.09Z" fill="#E6E6E6"/>
<path d="M53.4536 94.2861C53.2907 93.2786 53.9809 92.3983 54.9951 92.32C56.0094 92.2417 56.9637 92.995 57.1266 94.0025C57.2896 95.01 56.5994 95.8903 55.5851 95.9686C54.5708 96.0469 53.6165 95.2936 53.4536 94.2861Z" fill="#FBCD99"/>
<path d="M249.398 101.5C249.235 100.493 249.925 99.6126 250.939 99.5342C251.954 99.4559 252.908 100.209 253.071 101.217C253.234 102.224 252.543 103.105 251.529 103.183C250.515 103.261 249.561 102.508 249.398 101.5Z" fill="#FBCD99"/>
<path d="M70.4902 84.5869C70.3273 83.5794 71.0175 82.6991 72.0318 82.6208C73.046 82.5425 74.0004 83.2958 74.1633 84.3033C74.3262 85.3108 73.636 86.1911 72.6217 86.2694C71.6075 86.3477 70.6532 85.5944 70.4902 84.5869Z" fill="#4DDAC5"/>
<path d="M266.435 91.8011C266.272 90.7936 266.962 89.9133 267.976 89.835C268.99 89.7567 269.945 90.51 270.108 91.5175C270.271 92.525 269.58 93.4053 268.566 93.4836C267.552 93.5619 266.597 92.8086 266.435 91.8011Z" fill="#3F3D56"/>
<path d="M14.514 88.2095C13.6172 88.2095 12.8901 87.7071 12.8901 87.0874C12.8901 86.4676 13.6172 85.9652 14.514 85.9652C15.4109 85.9652 16.1379 86.4676 16.1379 87.0874C16.1379 87.7071 15.4109 88.2095 14.514 88.2095Z" fill="white"/>
<path d="M210.458 95.4236C209.561 95.4236 208.834 94.9212 208.834 94.3015C208.834 93.6817 209.561 93.1793 210.458 93.1793C211.355 93.1793 212.082 93.6817 212.082 94.3015C212.082 94.9212 211.355 95.4236 210.458 95.4236Z" fill="white"/>
<path d="M669.368 7.06853C641.685 23.7321 602.249 38.1764 559.695 47.3708C555.519 48.2743 551.314 49.1259 547.078 49.9258C546.138 50.1043 545.196 50.2769 544.246 50.4509C542.708 50.7331 541.159 51.0077 539.615 51.275C537.764 51.5954 535.91 51.906 534.052 52.2066C523.295 53.9435 512.463 55.35 501.659 56.4129C501.263 56.45 500.875 56.4886 500.478 56.5257C498.772 56.6913 497.068 56.8471 495.366 56.993C492.103 57.2761 488.846 57.5278 485.595 57.7479C484.541 57.8195 483.486 57.8882 482.429 57.951C480.915 58.0454 479.405 58.1295 477.894 58.2107C477.327 58.2393 476.761 58.2708 476.193 58.2964C475.617 58.3263 475.041 58.3533 474.464 58.3773C470.95 58.5426 467.451 58.6672 463.969 58.751C444.147 59.2602 425.145 58.505 407.601 56.5108C405.173 56.2317 402.701 55.9253 400.316 55.626C387.499 54.0278 374.243 52.3756 359.434 54.0788C343.444 55.92 329.363 61.2259 315.754 66.3551C311.137 68.0948 306.365 69.8928 301.594 71.5324C278.28 79.4707 251.297 84.6646 224.836 86.3074C224.289 86.3452 223.739 86.377 223.198 86.4074L222.972 85.7849C223.514 85.7545 224.063 85.7227 224.611 85.6879C250.864 84.096 277.665 78.9578 300.81 71.0794C305.537 69.4569 310.295 67.6645 314.89 65.9319C328.697 60.7271 342.976 55.3457 359.448 53.4496C374.7 51.6952 388.148 53.371 401.15 54.9942C403.534 55.2904 405.998 55.5982 408.409 55.8771C425.837 57.8592 444.716 58.6081 464.41 58.0985L464.418 58.0971C467.753 58.0136 471.117 57.8964 474.485 57.7437C474.971 57.7198 475.456 57.6959 475.942 57.675C476.485 57.6476 477.035 57.6187 477.577 57.5913C478.967 57.5217 480.356 57.4436 481.745 57.3572C483.106 57.2797 484.473 57.193 485.844 57.0969L485.852 57.0955C489.365 56.8576 492.887 56.5823 496.418 56.2696C498.017 56.132 499.611 55.9825 501.22 55.8243C501.568 55.7924 501.923 55.7563 502.279 55.7201C512.64 54.6921 523.027 53.3445 533.345 51.6895L533.353 51.6881C536.936 51.1121 540.5 50.5002 544.046 49.8525C544.972 49.6826 545.89 49.5111 546.807 49.3397C550.81 48.5832 554.79 47.7801 558.748 46.9301L558.756 46.9288C601.195 37.8111 640.544 23.4263 668.138 6.81616C668.272 6.73622 668.465 6.67286 668.675 6.64C668.885 6.60714 669.094 6.60743 669.256 6.64081C669.419 6.67418 669.522 6.73792 669.543 6.81809C669.564 6.89825 669.501 6.98831 669.368 7.06853Z" fill="url(#paint3_linear_204_776)"/>
<path d="M1.34818 26.3195C36.0956 47.2993 82.1236 60.76 129.402 63.988C134.042 64.3069 138.693 64.5251 143.356 64.6426C144.391 64.6706 145.426 64.6874 146.47 64.7042C148.16 64.7321 149.859 64.7433 151.549 64.7433C153.576 64.7433 155.603 64.7247 157.63 64.6874C169.361 64.4654 181.047 63.6366 192.575 62.209C192.998 62.153 193.412 62.1027 193.834 62.0467C195.654 61.8173 197.468 61.5712 199.276 61.3082C202.743 60.8103 206.193 60.2583 209.626 59.6522C210.738 59.4564 211.851 59.255 212.963 59.0424C214.559 58.7459 216.146 58.4326 217.732 58.1137C218.328 57.9906 218.923 57.8731 219.518 57.7445C220.121 57.6214 220.725 57.4927 221.329 57.3584C225.011 56.5752 228.662 55.7248 232.282 54.8073C252.894 49.6413 272.191 42.4915 289.521 33.5981C291.919 32.3617 294.351 31.0637 296.697 29.8049C309.305 23.0578 322.345 16.0814 338.24 14.5596C355.402 12.9204 371.892 17.9891 387.83 22.89C393.237 24.5516 398.826 26.2691 404.354 27.707C431.34 34.6027 461.081 35.525 488.959 30.3308C489.537 30.2301 490.114 30.1182 490.684 30.0064V28.8371C490.114 28.949 489.537 29.0609 488.959 29.1672C461.315 34.3875 431.782 33.508 404.992 26.6664C399.516 25.2453 393.945 23.5334 388.563 21.8774C372.392 16.9038 355.67 11.7623 337.99 13.4519C321.621 15.0184 308.391 22.0956 295.601 28.9434C293.256 30.1966 290.832 31.4945 288.452 32.7253C271.236 41.5618 252.064 48.6629 231.583 53.7891H231.574C228.107 54.6618 224.597 55.4842 221.07 56.2451C220.561 56.3514 220.052 56.4577 219.544 56.5696C218.974 56.6871 218.397 56.8046 217.827 56.922C216.37 57.2242 214.909 57.5113 213.446 57.7836C212.014 58.0634 210.574 58.3282 209.125 58.578H209.117C205.408 59.2326 201.677 59.8238 197.922 60.3515C196.223 60.5977 194.524 60.8215 192.808 61.0341C192.437 61.0844 192.058 61.1292 191.678 61.174C180.618 62.5279 169.414 63.3247 158.164 63.5573H158.156C154.249 63.6356 150.348 63.6449 146.452 63.5852C145.435 63.5684 144.426 63.5461 143.417 63.5237C139.01 63.4118 134.608 63.2104 130.213 62.9195H130.204C83.0723 59.7921 37.1564 46.4098 2.52109 25.4971C2.35278 25.3969 2.13013 25.3441 1.90189 25.3501C1.67368 25.3562 1.4584 25.4207 1.30328 25.5294C1.14816 25.6382 1.0658 25.7824 1.07419 25.9305C1.08261 26.0785 1.18115 26.2184 1.34818 26.3195Z" fill="url(#paint4_linear_204_776)"/>
<path opacity="0.3" d="M690.437 128.868L569.892 59.4747L686.999 131.648C687.226 131.912 687.541 132.134 687.917 132.298C688.293 132.461 688.72 132.56 689.163 132.586C689.606 132.612 690.051 132.565 690.462 132.449C690.873 132.332 691.238 132.15 691.527 131.916C691.815 131.683 692.019 131.406 692.121 131.107C692.224 130.808 692.222 130.497 692.115 130.199C692.008 129.901 691.801 129.625 691.509 129.393C691.217 129.162 690.849 128.982 690.437 128.868Z" fill="#F2F2F2"/>
<defs>
<linearGradient id="paint0_linear_204_776" x1="447.254" y1="307.681" x2="-13.7005" y2="307.681" gradientUnits="userSpaceOnUse">
<stop stop-color="#2A112E"/>
<stop offset="0.490163" stop-color="#7452B0"/>
<stop offset="1" stop-color="#FBCD99"/>
</linearGradient>
<linearGradient id="paint1_linear_204_776" x1="687.626" y1="228.503" x2="-45.571" y2="228.503" gradientUnits="userSpaceOnUse">
<stop stop-color="#2A112E"/>
<stop offset="0.490163" stop-color="#7452B0"/>
<stop offset="1" stop-color="#46FBF6"/>
</linearGradient>
<linearGradient id="paint2_linear_204_776" x1="631.087" y1="386.236" x2="194.917" y2="544.391" gradientUnits="userSpaceOnUse">
<stop stop-color="#2A112E"/>
<stop offset="0.490163" stop-color="#7452B0"/>
<stop offset="1" stop-color="#46FBF6"/>
</linearGradient>
<linearGradient id="paint3_linear_204_776" x1="224.921" y1="91.16" x2="644.907" y2="-61.1267" gradientUnits="userSpaceOnUse">
<stop stop-color="#2A112E"/>
<stop offset="0.490163" stop-color="#7452B0"/>
<stop offset="1" stop-color="#FBCD99"/>
</linearGradient>
<linearGradient id="paint4_linear_204_776" x1="490.684" y1="38.9335" x2="1.07361" y2="38.9335" gradientUnits="userSpaceOnUse">
<stop stop-color="#2A112E"/>
<stop offset="0.490163" stop-color="#7452B0"/>
<stop offset="1" stop-color="#46FBF6"/>
</linearGradient>
<clipPath id="clip0_204_776">
<rect width="562.686" height="345.626" fill="white" transform="matrix(-1 0 0 1 566.645 139.148)"/>
</clipPath>
</defs>
</svg>
