<svg width="841" height="832" viewBox="0 0 841 832" fill="none" xmlns="http://www.w3.org/2000/svg">
<path d="M514.416 639.51C514.216 637.714 515.066 636.145 516.315 636.006C517.564 635.866 518.739 637.209 518.94 639.004C519.141 640.8 518.291 642.369 517.042 642.509C515.792 642.648 514.617 641.306 514.416 639.51Z" fill="#4DDAC5"/>
<path d="M434.238 257.83C434.038 256.034 434.888 254.465 436.137 254.325C437.386 254.186 438.561 255.528 438.762 257.324C438.963 259.12 438.113 260.689 436.864 260.828C435.614 260.968 434.439 259.625 434.238 257.83Z" fill="#4DDAC5"/>
<path d="M590.875 252.972C588.666 252.972 586.875 251.181 586.875 248.972C586.875 246.763 588.666 244.972 590.875 244.972C593.084 244.972 594.875 246.763 594.875 248.972C594.875 251.181 593.084 252.972 590.875 252.972Z" fill="white"/>
<path d="M549.875 347.972C548.77 347.972 547.875 347.076 547.875 345.972C547.875 344.867 548.77 343.972 549.875 343.972C550.98 343.972 551.875 344.867 551.875 345.972C551.875 347.076 550.98 347.972 549.875 347.972Z" fill="white"/>
<path d="M-1.08931 677.298C-0.0340526 676.972 1.08596 677.563 1.4123 678.618C1.73864 679.674 1.14774 680.794 0.0924802 681.12C-0.96278 681.446 -2.08279 680.855 -2.40913 679.8C-2.73548 678.745 -2.14457 677.625 -1.08931 677.298Z" fill="white"/>
<path d="M513.875 138.972C512.77 138.972 511.875 138.076 511.875 136.972C511.875 135.867 512.77 134.972 513.875 134.972C514.98 134.972 515.875 135.867 515.875 136.972C515.875 138.076 514.98 138.972 513.875 138.972Z" fill="white"/>
<path d="M186.875 215.972C185.771 215.972 184.875 215.076 184.875 213.972C184.875 212.867 185.771 211.972 186.875 211.972C187.98 211.972 188.875 212.867 188.875 213.972C188.875 215.076 187.98 215.972 186.875 215.972Z" fill="white"/>
<path d="M253 286.787C251.895 286.787 251 285.891 251 284.787C251 283.682 251.895 282.787 253 282.787C254.105 282.787 255 283.682 255 284.787C255 285.891 254.105 286.787 253 286.787Z" fill="white"/>
<path d="M176 58.7867C174.895 58.7867 174 57.8913 174 56.7867C174 55.6822 174.895 54.7867 176 54.7867C177.105 54.7867 178 55.6822 178 56.7867C178 57.8913 177.105 58.7867 176 58.7867Z" fill="white"/>
<path d="M384.705 696.158C385.76 695.832 386.88 696.423 387.207 697.478C387.533 698.533 386.942 699.653 385.887 699.98C384.832 700.306 383.712 699.715 383.385 698.66C383.059 697.605 383.65 696.485 384.705 696.158Z" fill="white"/>
<path d="M522 82.6108C520.895 82.6108 520 81.7154 520 80.6108C520 79.5063 520.895 78.6108 522 78.6108C523.104 78.6108 524 79.5063 524 80.6108C524 81.7154 523.104 82.6108 522 82.6108Z" fill="white"/>
<path d="M33.421 241.89C33.2204 240.094 34.0704 238.526 35.3195 238.386C36.5687 238.246 37.744 239.589 37.9447 241.385C38.1453 243.18 37.2953 244.749 36.0461 244.889C34.797 245.028 33.6217 243.686 33.421 241.89Z" fill="#E6E6E6"/>
<path d="M544.047 78.622C543.846 76.8263 544.696 75.2575 545.945 75.1179C547.195 74.9783 548.37 76.3208 548.571 78.1165C548.771 79.9122 547.921 81.4811 546.672 81.6207C545.423 81.7602 544.248 80.4177 544.047 78.622Z" fill="#E6E6E6"/>
<path d="M30.6381 263.098C30.4375 261.302 31.2875 259.734 32.5366 259.594C33.7858 259.454 34.9611 260.797 35.1618 262.593C35.3624 264.388 34.5124 265.957 33.2633 266.097C32.0141 266.236 30.8388 264.894 30.6381 263.098Z" fill="#4DDAC5"/>
<path d="M96.763 333.913C96.5623 332.117 97.4123 330.549 98.6615 330.409C99.9107 330.269 101.086 331.612 101.287 333.408C101.487 335.203 100.637 336.772 99.3881 336.912C98.139 337.051 96.9636 335.709 96.763 333.913Z" fill="#4DDAC5"/>
<path d="M19.763 105.913C19.5623 104.117 20.4123 102.549 21.6615 102.409C22.9107 102.269 24.086 103.612 24.2867 105.408C24.4873 107.203 23.6373 108.772 22.3881 108.912C21.139 109.051 19.9636 107.709 19.763 105.913Z" fill="#4DDAC5"/>
<path d="M430.238 323.729C430.038 321.933 430.888 320.364 432.137 320.224C433.386 320.085 434.561 321.427 434.762 323.223C434.963 325.019 434.113 326.588 432.864 326.727C431.614 326.867 430.439 325.524 430.238 323.729Z" fill="#4DDAC5"/>
<path d="M496.363 394.544C496.163 392.748 497.013 391.179 498.262 391.039C499.511 390.9 500.686 392.242 500.887 394.038C501.088 395.834 500.238 397.403 498.988 397.542C497.739 397.682 496.564 396.339 496.363 394.544Z" fill="#4DDAC5"/>
<path d="M74.8846 222.645C74.396 220.717 76.2466 218.585 79.0179 217.883C81.7893 217.18 84.432 218.174 84.9205 220.102C85.4091 222.03 83.5586 224.162 80.7872 224.864C78.0158 225.566 75.3732 224.573 74.8846 222.645Z" fill="white"/>
<path d="M141.009 293.46C140.521 291.532 142.371 289.4 145.143 288.697C147.914 287.995 150.557 288.989 151.045 290.917C151.534 292.844 149.683 294.977 146.912 295.679C144.141 296.381 141.498 295.388 141.009 293.46Z" fill="white"/>
<path d="M64.0095 65.4599C63.5209 63.532 65.3714 61.3998 68.1428 60.6974C70.9141 59.9951 73.5568 60.9887 74.0454 62.9166C74.534 64.8445 72.6834 66.9767 69.9121 67.679C67.1407 68.3813 64.498 67.3878 64.0095 65.4599Z" fill="white"/>
<path d="M25.5051 195.006C25.0165 193.078 26.867 190.946 29.6384 190.243C32.4097 189.541 35.0524 190.535 35.541 192.463C36.0296 194.39 34.179 196.523 31.4077 197.225C28.6363 197.927 25.9936 196.934 25.5051 195.006Z" fill="#227B9B"/>
<path d="M495.936 60.0341C495.448 58.1062 497.298 55.974 500.07 55.2717C502.841 54.5693 505.484 55.5629 505.972 57.4908C506.461 59.4187 504.61 61.5509 501.839 62.2532C499.068 62.9556 496.425 61.962 495.936 60.0341Z" fill="#FBCD99"/>
<path d="M48.0471 195.622C47.8465 193.826 48.6965 192.257 49.9456 192.118C51.1948 191.978 52.3701 193.32 52.5708 195.116C52.7714 196.912 51.9214 198.481 50.6722 198.62C49.4231 198.76 48.2478 197.417 48.0471 195.622Z" fill="#E6E6E6"/>
<path d="M488.047 70.622C487.846 68.8263 488.696 67.2575 489.946 67.1179C491.195 66.9783 492.37 68.3208 492.571 70.1165C492.771 71.9122 491.921 73.4811 490.672 73.6207C489.423 73.7602 488.248 72.4177 488.047 70.622Z" fill="#E6E6E6"/>
<path d="M45.2643 216.83C45.0636 215.034 45.9136 213.465 47.1628 213.325C48.412 213.186 49.5873 214.528 49.7879 216.324C49.9886 218.12 49.1386 219.689 47.8894 219.828C46.6403 219.968 45.4649 218.625 45.2643 216.83Z" fill="#4DDAC5"/>
<path d="M374.238 315.729C374.038 313.933 374.888 312.364 376.137 312.224C377.386 312.085 378.561 313.427 378.762 315.223C378.963 317.019 378.113 318.588 376.864 318.727C375.614 318.867 374.439 317.524 374.238 315.729Z" fill="#4DDAC5"/>
<path d="M440.363 386.544C440.163 384.748 441.013 383.179 442.262 383.039C443.511 382.9 444.686 384.242 444.887 386.038C445.088 387.834 444.238 389.403 442.988 389.542C441.739 389.682 440.564 388.339 440.363 386.544Z" fill="#4DDAC5"/>
<path d="M485.264 91.8298C485.064 90.0341 485.914 88.4653 487.163 88.3257C488.412 88.1861 489.587 89.5286 489.788 91.3243C489.989 93.12 489.139 94.6888 487.889 94.8284C486.64 94.968 485.465 93.6255 485.264 91.8298Z" fill="#227B9B"/>
<path d="M9.2384 214.682C9.03775 212.887 9.88775 211.318 11.1369 211.178C12.3861 211.039 13.5614 212.381 13.7621 214.177C13.9627 215.972 13.1127 217.541 11.8635 217.681C10.6144 217.82 9.43904 216.478 9.2384 214.682Z" fill="#E6E6E6"/>
<path d="M14.8751 159.185C13.7706 159.185 12.8751 158.29 12.8751 157.185C12.8751 156.08 13.7706 155.185 14.8751 155.185C15.9797 155.185 16.8751 156.08 16.8751 157.185C16.8751 158.29 15.9797 159.185 14.8751 159.185Z" fill="white"/>
<path d="M81 230C79.8954 230 79 229.105 79 228C79 226.895 79.8954 226 81 226C82.1046 226 83 226.895 83 228C83 229.105 82.1046 230 81 230Z" fill="white"/>
<path d="M4 2C2.89543 2 2 1.10457 2 0C2 -1.10457 2.89543 -2 4 -2C5.10457 -2 6 -1.10457 6 0C6 1.10457 5.10457 2 4 2Z" fill="white"/>
<path d="M1.61066 409.124C31.7374 384.059 73.6399 364.732 118.156 355.141C122.525 354.197 126.918 353.35 131.337 352.598C132.317 352.43 133.299 352.272 134.289 352.113C135.893 351.855 137.507 351.612 139.115 351.38C141.043 351.103 142.973 350.844 144.905 350.603C156.094 349.214 167.324 348.418 178.487 348.223C178.897 348.22 179.297 348.212 179.707 348.208C181.47 348.182 183.229 348.172 184.985 348.179C188.352 348.187 191.71 348.25 195.059 348.367C196.144 348.405 197.23 348.447 198.318 348.501C199.877 348.57 201.43 348.656 202.983 348.748C203.567 348.786 204.149 348.818 204.733 348.861C205.324 348.898 205.916 348.94 206.509 348.987C210.121 349.242 213.711 349.566 217.281 349.96C237.605 352.142 256.953 356.426 274.674 362.666C277.126 363.536 279.62 364.46 282.026 365.358C294.958 370.166 308.331 375.137 323.66 374.437C340.211 373.677 355.188 366.514 369.664 359.589C374.576 357.241 379.652 354.814 384.71 352.665C409.416 342.298 437.573 337.338 464.81 338.554C465.374 338.573 465.939 338.602 466.496 338.633L466.659 339.765C466.102 339.734 465.537 339.705 464.972 339.681C437.954 338.407 409.988 343.298 385.461 353.586C380.451 355.711 375.39 358.13 370.502 360.469C355.815 367.496 340.627 374.761 323.576 375.543C307.79 376.265 294.222 371.222 281.105 366.342C278.699 365.449 276.213 364.524 273.778 363.658C256.175 357.456 236.952 353.203 216.759 351.041L216.751 351.042C213.332 350.671 209.879 350.355 206.418 350.101C205.919 350.067 205.42 350.034 204.921 349.995C204.363 349.959 203.797 349.925 203.24 349.889C201.811 349.796 200.382 349.717 198.953 349.654C197.552 349.579 196.146 349.519 194.733 349.476L194.725 349.477C191.106 349.35 187.475 349.288 183.831 349.291C182.181 349.285 180.534 349.3 178.872 349.329C178.512 349.331 178.145 349.34 177.778 349.348C167.07 349.55 156.303 350.311 145.571 351.624L145.563 351.625C141.837 352.084 138.125 352.608 134.429 353.199C133.463 353.354 132.506 353.514 131.55 353.673C127.374 354.385 123.216 355.181 119.076 356.064L119.068 356.065C74.6769 365.539 32.8702 384.776 2.84067 409.76C2.69455 409.88 2.49016 409.962 2.27225 409.987C2.05434 410.013 1.84062 409.98 1.67795 409.896C1.51527 409.811 1.41684 409.683 1.40423 409.539C1.39162 409.394 1.46587 409.245 1.61066 409.124Z" fill="url(#paint0_linear_1009_3881)"/>
<path d="M453.604 227.634C484.449 243.819 522.669 250.832 559.974 247.364C563.635 247.025 567.287 246.584 570.93 246.04C571.738 245.921 572.545 245.791 573.358 245.66C574.676 245.447 575.997 245.217 577.31 244.977C578.884 244.689 580.454 244.382 582.021 244.057C591.089 242.166 600.01 239.671 608.698 236.596C609.016 236.48 609.328 236.37 609.646 236.254C611.017 235.764 612.38 235.259 613.736 234.737C616.336 233.743 618.913 232.697 621.466 231.599C622.294 231.244 623.121 230.883 623.945 230.511C625.13 229.986 626.304 229.445 627.478 228.898C627.917 228.69 628.357 228.487 628.796 228.273C629.242 228.063 629.687 227.848 630.131 227.627C632.846 226.315 635.524 224.94 638.165 223.502C653.219 215.372 666.884 205.431 678.703 194.014C680.336 192.429 681.986 190.777 683.575 189.176C692.122 180.591 700.962 171.714 713.023 167.923C726.048 163.834 739.785 166.595 753.063 169.264C757.568 170.169 762.224 171.104 766.782 171.766C789.006 174.874 812.269 171.577 832.958 162.386C833.388 162.203 833.816 162.008 834.237 161.814L834.022 160.637C833.601 160.831 833.173 161.025 832.744 161.215C812.241 170.399 789.147 173.709 767.085 170.628C762.571 169.975 757.93 169.043 753.446 168.141C739.974 165.431 726.042 162.63 712.625 166.844C700.204 170.747 691.235 179.752 682.566 188.464C680.975 190.059 679.333 191.71 677.711 193.288C665.972 204.631 652.394 214.504 637.435 222.576L637.429 222.577C634.897 223.948 632.324 225.275 629.725 226.543C629.349 226.722 628.974 226.901 628.599 227.086C628.179 227.285 627.752 227.486 627.332 227.685C626.256 228.196 625.175 228.693 624.089 229.175C623.028 229.66 621.959 230.131 620.88 230.589L620.873 230.59C618.114 231.776 615.326 232.901 612.508 233.966C611.234 234.455 609.956 234.922 608.663 235.38C608.384 235.483 608.098 235.582 607.811 235.681C599.473 238.616 590.92 241.011 582.228 242.843L582.221 242.844C579.202 243.478 576.174 244.042 573.139 244.535C572.346 244.663 571.558 244.784 570.77 244.905C567.328 245.418 563.873 245.841 560.407 246.173L560.4 246.174C523.227 249.722 485.109 242.773 454.363 226.639C454.214 226.562 454.031 226.54 453.855 226.579C453.679 226.618 453.523 226.713 453.423 226.845C453.323 226.976 453.285 227.133 453.319 227.281C453.353 227.429 453.455 227.556 453.604 227.634Z" fill="url(#paint1_linear_1009_3881)"/>
<path d="M426.644 792.428C457.49 808.613 495.71 815.626 533.015 812.158C536.676 811.82 540.328 811.378 543.97 810.834C544.779 810.715 545.586 810.585 546.399 810.454C547.717 810.242 549.038 810.012 550.351 809.771C551.924 809.483 553.495 809.177 555.061 808.851C564.13 806.961 573.051 804.466 581.739 801.39C582.057 801.274 582.369 801.164 582.687 801.048C584.058 800.558 585.421 800.053 586.776 799.531C589.377 798.537 591.954 797.491 594.507 796.393C595.335 796.038 596.162 795.677 596.986 795.305C598.17 794.78 599.345 794.239 600.518 793.692C600.958 793.484 601.398 793.281 601.837 793.067C602.283 792.857 602.728 792.642 603.172 792.421C605.887 791.109 608.565 789.734 611.206 788.296C626.26 780.166 639.925 770.225 651.743 758.809C653.377 757.223 655.026 755.571 656.616 753.97C665.163 745.385 674.003 736.508 686.064 732.718C699.088 728.629 712.826 731.389 726.104 734.059C730.609 734.963 735.265 735.898 739.822 736.56C762.047 739.669 785.31 736.371 805.999 727.18C806.429 726.997 806.857 726.802 807.278 726.609L807.063 725.431C806.641 725.625 806.213 725.82 805.784 726.009C785.282 735.193 762.188 738.504 740.126 735.422C735.612 734.769 730.971 733.837 726.487 732.935C713.014 730.225 699.083 727.425 685.666 731.638C673.245 735.541 664.276 744.546 655.607 753.258C654.016 754.853 652.374 756.504 650.752 758.082C639.013 769.425 625.435 779.299 610.476 787.37L610.469 787.371C607.938 788.743 605.364 790.069 602.766 791.337C602.39 791.516 602.015 791.695 601.64 791.88C601.22 792.079 600.793 792.28 600.372 792.479C599.296 792.99 598.215 793.487 597.129 793.969C596.069 794.454 595 794.925 593.921 795.383L593.914 795.384C591.155 796.57 588.367 797.695 585.549 798.76C584.275 799.25 582.997 799.716 581.703 800.174C581.425 800.278 581.138 800.377 580.852 800.476C572.514 803.41 563.96 805.805 555.268 807.637L555.262 807.638C552.243 808.272 549.215 808.836 546.18 809.33C545.386 809.457 544.599 809.578 543.811 809.699C540.369 810.213 536.914 810.635 533.447 810.967L533.441 810.968C496.268 814.516 458.15 807.567 427.403 791.433C427.254 791.356 427.072 791.335 426.896 791.373C426.719 791.412 426.564 791.507 426.464 791.639C426.363 791.77 426.326 791.927 426.36 792.075C426.394 792.223 426.496 792.35 426.644 792.428Z" fill="url(#paint2_linear_1009_3881)"/>
<path d="M0.233826 58.8813C29.8281 78.39 69.0301 90.9068 109.297 93.9085C113.249 94.2051 117.21 94.408 121.182 94.5172C122.063 94.5432 122.945 94.5588 123.834 94.5744C125.273 94.6004 126.72 94.6108 128.16 94.6108C129.886 94.6108 131.612 94.5935 133.338 94.5588C143.33 94.3524 153.283 93.5817 163.102 92.2542C163.462 92.2022 163.814 92.1553 164.174 92.1033C165.724 91.89 167.269 91.6611 168.809 91.4166C171.762 90.9536 174.7 90.4403 177.623 89.8767C178.571 89.6946 179.518 89.5074 180.466 89.3097C181.825 89.0339 183.176 88.7426 184.528 88.4461C185.035 88.3316 185.542 88.2224 186.048 88.1027C186.563 87.9883 187.077 87.8686 187.591 87.7438C190.727 87.0154 193.837 86.2247 196.919 85.3715C214.475 80.5678 230.91 73.9193 245.67 65.6495C247.712 64.4998 249.784 63.2928 251.782 62.1223C262.521 55.8483 273.627 49.361 287.164 47.946C301.781 46.4217 315.826 51.135 329.4 55.6923C334.005 57.2374 338.765 58.8345 343.473 60.1715C366.457 66.5836 391.788 67.4413 415.531 62.6113C416.023 62.5177 416.515 62.4137 417 62.3096V61.2223C416.515 61.3264 416.023 61.4304 415.531 61.5293C391.987 66.3836 366.834 65.5657 344.017 59.2038C339.353 57.8824 334.608 56.2905 330.024 54.7506C316.252 50.1258 302.009 45.3448 286.951 46.9159C273.01 48.3726 261.742 54.9535 250.849 61.3212C248.851 62.4865 246.787 63.6934 244.76 64.8379C230.097 73.0548 213.768 79.658 196.325 84.4247H196.317C193.364 85.2362 190.375 86.001 187.371 86.7085C186.937 86.8074 186.504 86.9062 186.07 87.0102C185.586 87.1195 185.094 87.2287 184.609 87.338C183.367 87.6189 182.124 87.886 180.877 88.1391C179.658 88.3993 178.431 88.6455 177.197 88.8779H177.19C174.031 89.4865 170.853 90.0363 167.656 90.527C166.209 90.7559 164.762 90.964 163.3 91.1617C162.984 91.2085 162.661 91.2501 162.338 91.2918C152.918 92.5508 143.375 93.2917 133.794 93.5079H133.786C130.459 93.5808 127.136 93.5894 123.819 93.534C122.952 93.5183 122.093 93.4975 121.233 93.4767C117.48 93.3727 113.731 93.1854 109.988 92.9149H109.98C69.8381 90.0068 30.7316 77.5628 1.23276 58.1165C1.08942 58.0234 0.89978 57.9742 0.705414 57.9799C0.511017 57.9855 0.327698 58.0455 0.195587 58.1466C0.063446 58.2477 -0.00668335 58.3818 0.000457764 58.5195C0.00762939 58.6572 0.0915527 58.7873 0.233826 58.8813Z" fill="url(#paint3_linear_1009_3881)"/>
<path d="M85.815 142.74H98.135V150H76.41V111.39H85.815V142.74ZM100.751 134.6C100.751 131.446 101.338 128.678 102.511 126.295C103.721 123.911 105.353 122.078 107.406 120.795C109.459 119.511 111.751 118.87 114.281 118.87C116.444 118.87 118.333 119.31 119.946 120.19C121.596 121.07 122.861 122.225 123.741 123.655V119.31H133.146V150H123.741V145.655C122.824 147.085 121.541 148.24 119.891 149.12C118.278 150 116.389 150.44 114.226 150.44C111.733 150.44 109.459 149.798 107.406 148.515C105.353 147.195 103.721 145.343 102.511 142.96C101.338 140.54 100.751 137.753 100.751 134.6ZM123.741 134.655C123.741 132.308 123.081 130.456 121.761 129.1C120.478 127.743 118.901 127.065 117.031 127.065C115.161 127.065 113.566 127.743 112.246 129.1C110.963 130.42 110.321 132.253 110.321 134.6C110.321 136.946 110.963 138.816 112.246 140.21C113.566 141.566 115.161 142.245 117.031 142.245C118.901 142.245 120.478 141.566 121.761 140.21C123.081 138.853 123.741 137.001 123.741 134.655ZM171.295 150L163.265 135.425H161.01V150H151.605V111.39H167.39C170.434 111.39 173.019 111.921 175.145 112.985C177.309 114.048 178.922 115.515 179.985 117.385C181.049 119.218 181.58 121.271 181.58 123.545C181.58 126.111 180.847 128.403 179.38 130.42C177.95 132.436 175.824 133.866 173 134.71L181.91 150H171.295ZM161.01 128.77H166.84C168.564 128.77 169.847 128.348 170.69 127.505C171.57 126.661 172.01 125.47 172.01 123.93C172.01 122.463 171.57 121.308 170.69 120.465C169.847 119.621 168.564 119.2 166.84 119.2H161.01V128.77ZM217.789 119.31V150H208.384V145.82C207.431 147.176 206.129 148.276 204.479 149.12C202.866 149.926 201.069 150.33 199.089 150.33C196.743 150.33 194.671 149.816 192.874 148.79C191.078 147.726 189.684 146.205 188.694 144.225C187.704 142.245 187.209 139.916 187.209 137.24V119.31H196.559V135.975C196.559 138.028 197.091 139.623 198.154 140.76C199.218 141.896 200.648 142.465 202.444 142.465C204.278 142.465 205.726 141.896 206.789 140.76C207.853 139.623 208.384 138.028 208.384 135.975V119.31H217.789ZM241.65 142.025V150H236.865C233.455 150 230.796 149.175 228.89 147.525C226.983 145.838 226.03 143.106 226.03 139.33V127.12H222.29V119.31H226.03V111.83H235.435V119.31H241.595V127.12H235.435V139.44C235.435 140.356 235.655 141.016 236.095 141.42C236.535 141.823 237.268 142.025 238.295 142.025H241.65ZM245.019 134.6C245.019 131.446 245.605 128.678 246.779 126.295C247.989 123.911 249.62 122.078 251.674 120.795C253.727 119.511 256.019 118.87 258.549 118.87C260.712 118.87 262.6 119.31 264.214 120.19C265.864 121.07 267.129 122.225 268.009 123.655V119.31H277.414V150H268.009V145.655C267.092 147.085 265.809 148.24 264.159 149.12C262.545 150 260.657 150.44 258.494 150.44C256 150.44 253.727 149.798 251.674 148.515C249.62 147.195 247.989 145.343 246.779 142.96C245.605 140.54 245.019 137.753 245.019 134.6ZM268.009 134.655C268.009 132.308 267.349 130.456 266.029 129.1C264.745 127.743 263.169 127.065 261.299 127.065C259.429 127.065 257.834 127.743 256.514 129.1C255.23 130.42 254.589 132.253 254.589 134.6C254.589 136.946 255.23 138.816 256.514 140.21C257.834 141.566 259.429 142.245 261.299 142.245C263.169 142.245 264.745 141.566 266.029 140.21C267.349 138.853 268.009 137.001 268.009 134.655ZM294.003 134.6C294.003 131.446 294.59 128.678 295.763 126.295C296.973 123.911 298.605 122.078 300.658 120.795C302.711 119.511 305.003 118.87 307.533 118.87C309.55 118.87 311.383 119.291 313.033 120.135C314.72 120.978 316.04 122.115 316.993 123.545V109.3H326.398V150H316.993V145.6C316.113 147.066 314.848 148.24 313.198 149.12C311.585 150 309.696 150.44 307.533 150.44C305.003 150.44 302.711 149.798 300.658 148.515C298.605 147.195 296.973 145.343 295.763 142.96C294.59 140.54 294.003 137.753 294.003 134.6ZM316.993 134.655C316.993 132.308 316.333 130.456 315.013 129.1C313.73 127.743 312.153 127.065 310.283 127.065C308.413 127.065 306.818 127.743 305.498 129.1C304.215 130.42 303.573 132.253 303.573 134.6C303.573 136.946 304.215 138.816 305.498 140.21C306.818 141.566 308.413 142.245 310.283 142.245C312.153 142.245 313.73 141.566 315.013 140.21C316.333 138.853 316.993 137.001 316.993 134.655ZM362.132 134.16C362.132 135.04 362.077 135.956 361.967 136.91H340.682C340.829 138.816 341.434 140.283 342.497 141.31C343.597 142.3 344.935 142.795 346.512 142.795C348.859 142.795 350.49 141.805 351.407 139.825H361.417C360.904 141.841 359.969 143.656 358.612 145.27C357.292 146.883 355.624 148.148 353.607 149.065C351.59 149.981 349.335 150.44 346.842 150.44C343.835 150.44 341.159 149.798 338.812 148.515C336.465 147.231 334.632 145.398 333.312 143.015C331.992 140.631 331.332 137.845 331.332 134.655C331.332 131.465 331.974 128.678 333.257 126.295C334.577 123.911 336.41 122.078 338.757 120.795C341.104 119.511 343.799 118.87 346.842 118.87C349.812 118.87 352.452 119.493 354.762 120.74C357.072 121.986 358.869 123.765 360.152 126.075C361.472 128.385 362.132 131.08 362.132 134.16ZM352.507 131.685C352.507 130.071 351.957 128.788 350.857 127.835C349.757 126.881 348.382 126.405 346.732 126.405C345.155 126.405 343.817 126.863 342.717 127.78C341.654 128.696 340.994 129.998 340.737 131.685H352.507ZM376.499 109.3V150H367.094V109.3H376.499ZM424.395 123.82C424.395 126.056 423.881 128.11 422.855 129.98C421.828 131.813 420.251 133.298 418.125 134.435C415.998 135.571 413.358 136.14 410.205 136.14H404.375V150H394.97V111.39H410.205C413.285 111.39 415.888 111.921 418.015 112.985C420.141 114.048 421.736 115.515 422.8 117.385C423.863 119.255 424.395 121.4 424.395 123.82ZM409.49 128.66C411.286 128.66 412.625 128.238 413.505 127.395C414.385 126.551 414.825 125.36 414.825 123.82C414.825 122.28 414.385 121.088 413.505 120.245C412.625 119.401 411.286 118.98 409.49 118.98H404.375V128.66H409.49ZM438.696 124.425C439.796 122.738 441.171 121.418 442.821 120.465C444.471 119.475 446.304 118.98 448.321 118.98V128.935H445.736C443.389 128.935 441.629 129.448 440.456 130.475C439.283 131.465 438.696 133.225 438.696 135.755V150H429.291V119.31H438.696V124.425ZM466.786 150.44C463.78 150.44 461.066 149.798 458.646 148.515C456.263 147.231 454.375 145.398 452.981 143.015C451.625 140.631 450.946 137.845 450.946 134.655C450.946 131.501 451.643 128.733 453.036 126.35C454.43 123.93 456.336 122.078 458.756 120.795C461.176 119.511 463.89 118.87 466.896 118.87C469.903 118.87 472.616 119.511 475.036 120.795C477.456 122.078 479.363 123.93 480.756 126.35C482.15 128.733 482.846 131.501 482.846 134.655C482.846 137.808 482.131 140.595 480.701 143.015C479.308 145.398 477.383 147.231 474.926 148.515C472.506 149.798 469.793 150.44 466.786 150.44ZM466.786 142.3C468.583 142.3 470.105 141.64 471.351 140.32C472.635 139 473.276 137.111 473.276 134.655C473.276 132.198 472.653 130.31 471.406 128.99C470.196 127.67 468.693 127.01 466.896 127.01C465.063 127.01 463.541 127.67 462.331 128.99C461.121 130.273 460.516 132.161 460.516 134.655C460.516 137.111 461.103 139 462.276 140.32C463.486 141.64 464.99 142.3 466.786 142.3ZM499.496 118.87C501.659 118.87 503.547 119.31 505.161 120.19C506.811 121.07 508.076 122.225 508.956 123.655V119.31H518.361V149.945C518.361 152.768 517.792 155.316 516.656 157.59C515.556 159.9 513.851 161.733 511.541 163.09C509.267 164.446 506.426 165.125 503.016 165.125C498.469 165.125 494.784 164.043 491.961 161.88C489.137 159.753 487.524 156.856 487.121 153.19H496.416C496.709 154.363 497.406 155.28 498.506 155.94C499.606 156.636 500.962 156.985 502.576 156.985C504.519 156.985 506.059 156.416 507.196 155.28C508.369 154.18 508.956 152.401 508.956 149.945V145.6C508.039 147.03 506.774 148.203 505.161 149.12C503.547 150 501.659 150.44 499.496 150.44C496.966 150.44 494.674 149.798 492.621 148.515C490.567 147.195 488.936 145.343 487.726 142.96C486.552 140.54 485.966 137.753 485.966 134.6C485.966 131.446 486.552 128.678 487.726 126.295C488.936 123.911 490.567 122.078 492.621 120.795C494.674 119.511 496.966 118.87 499.496 118.87ZM508.956 134.655C508.956 132.308 508.296 130.456 506.976 129.1C505.692 127.743 504.116 127.065 502.246 127.065C500.376 127.065 498.781 127.743 497.461 129.1C496.177 130.42 495.536 132.253 495.536 134.6C495.536 136.946 496.177 138.816 497.461 140.21C498.781 141.566 500.376 142.245 502.246 142.245C504.116 142.245 505.692 141.566 506.976 140.21C508.296 138.853 508.956 137.001 508.956 134.655ZM534.57 124.425C535.67 122.738 537.045 121.418 538.695 120.465C540.345 119.475 542.178 118.98 544.195 118.98V128.935H541.61C539.263 128.935 537.503 129.448 536.33 130.475C535.157 131.465 534.57 133.225 534.57 135.755V150H525.165V119.31H534.57V124.425ZM546.82 134.6C546.82 131.446 547.407 128.678 548.58 126.295C549.79 123.911 551.422 122.078 553.475 120.795C555.529 119.511 557.82 118.87 560.35 118.87C562.514 118.87 564.402 119.31 566.015 120.19C567.665 121.07 568.93 122.225 569.81 123.655V119.31H579.215V150H569.81V145.655C568.894 147.085 567.61 148.24 565.96 149.12C564.347 150 562.459 150.44 560.295 150.44C557.802 150.44 555.529 149.798 553.475 148.515C551.422 147.195 549.79 145.343 548.58 142.96C547.407 140.54 546.82 137.753 546.82 134.6ZM569.81 134.655C569.81 132.308 569.15 130.456 567.83 129.1C566.547 127.743 564.97 127.065 563.1 127.065C561.23 127.065 559.635 127.743 558.315 129.1C557.032 130.42 556.39 132.253 556.39 134.6C556.39 136.946 557.032 138.816 558.315 140.21C559.635 141.566 561.23 142.245 563.1 142.245C564.97 142.245 566.547 141.566 567.83 140.21C569.15 138.853 569.81 137.001 569.81 134.655ZM625.179 118.98C628.993 118.98 632.018 120.135 634.254 122.445C636.528 124.755 637.664 127.963 637.664 132.07V150H628.314V133.335C628.314 131.355 627.783 129.833 626.719 128.77C625.693 127.67 624.263 127.12 622.429 127.12C620.596 127.12 619.148 127.67 618.084 128.77C617.058 129.833 616.544 131.355 616.544 133.335V150H607.194V133.335C607.194 131.355 606.663 129.833 605.599 128.77C604.573 127.67 603.143 127.12 601.309 127.12C599.476 127.12 598.028 127.67 596.964 128.77C595.938 129.833 595.424 131.355 595.424 133.335V150H586.019V119.31H595.424V123.16C596.378 121.876 597.624 120.868 599.164 120.135C600.704 119.365 602.446 118.98 604.389 118.98C606.699 118.98 608.753 119.475 610.549 120.465C612.383 121.455 613.813 122.866 614.839 124.7C615.903 123.013 617.351 121.638 619.184 120.575C621.018 119.511 623.016 118.98 625.179 118.98ZM642.372 134.6C642.372 131.446 642.959 128.678 644.132 126.295C645.342 123.911 646.974 122.078 649.027 120.795C651.08 119.511 653.372 118.87 655.902 118.87C658.065 118.87 659.954 119.31 661.567 120.19C663.217 121.07 664.482 122.225 665.362 123.655V119.31H674.767V150H665.362V145.655C664.445 147.085 663.162 148.24 661.512 149.12C659.899 150 658.01 150.44 655.847 150.44C653.354 150.44 651.08 149.798 649.027 148.515C646.974 147.195 645.342 145.343 644.132 142.96C642.959 140.54 642.372 137.753 642.372 134.6ZM665.362 134.655C665.362 132.308 664.702 130.456 663.382 129.1C662.099 127.743 660.522 127.065 658.652 127.065C656.782 127.065 655.187 127.743 653.867 129.1C652.584 130.42 651.942 132.253 651.942 134.6C651.942 136.946 652.584 138.816 653.867 140.21C655.187 141.566 656.782 142.245 658.652 142.245C660.522 142.245 662.099 141.566 663.382 140.21C664.702 138.853 665.362 137.001 665.362 134.655ZM679.701 134.6C679.701 131.446 680.288 128.678 681.461 126.295C682.671 123.911 684.303 122.078 686.356 120.795C688.409 119.511 690.701 118.87 693.231 118.87C695.248 118.87 697.081 119.291 698.731 120.135C700.418 120.978 701.738 122.115 702.691 123.545V109.3H712.096V150H702.691V145.6C701.811 147.066 700.546 148.24 698.896 149.12C697.283 150 695.394 150.44 693.231 150.44C690.701 150.44 688.409 149.798 686.356 148.515C684.303 147.195 682.671 145.343 681.461 142.96C680.288 140.54 679.701 137.753 679.701 134.6ZM702.691 134.655C702.691 132.308 702.031 130.456 700.711 129.1C699.428 127.743 697.851 127.065 695.981 127.065C694.111 127.065 692.516 127.743 691.196 129.1C689.913 130.42 689.271 132.253 689.271 134.6C689.271 136.946 689.913 138.816 691.196 140.21C692.516 141.566 694.111 142.245 695.981 142.245C697.851 142.245 699.428 141.566 700.711 140.21C702.031 138.853 702.691 137.001 702.691 134.655ZM732.87 150.44C729.864 150.44 727.15 149.798 724.73 148.515C722.347 147.231 720.459 145.398 719.065 143.015C717.709 140.631 717.03 137.845 717.03 134.655C717.03 131.501 717.727 128.733 719.12 126.35C720.514 123.93 722.42 122.078 724.84 120.795C727.26 119.511 729.974 118.87 732.98 118.87C735.987 118.87 738.7 119.511 741.12 120.795C743.54 122.078 745.447 123.93 746.84 126.35C748.234 128.733 748.93 131.501 748.93 134.655C748.93 137.808 748.215 140.595 746.785 143.015C745.392 145.398 743.467 147.231 741.01 148.515C738.59 149.798 735.877 150.44 732.87 150.44ZM732.87 142.3C734.667 142.3 736.189 141.64 737.435 140.32C738.719 139 739.36 137.111 739.36 134.655C739.36 132.198 738.737 130.31 737.49 128.99C736.28 127.67 734.777 127.01 732.98 127.01C731.147 127.01 729.625 127.67 728.415 128.99C727.205 130.273 726.6 132.161 726.6 134.655C726.6 137.111 727.187 139 728.36 140.32C729.57 141.64 731.074 142.3 732.87 142.3ZM763.325 124.425C764.425 122.738 765.8 121.418 767.45 120.465C769.1 119.475 770.933 118.98 772.95 118.98V128.935H770.365C768.018 128.935 766.258 129.448 765.085 130.475C763.911 131.465 763.325 133.225 763.325 135.755V150H753.92V119.31H763.325V124.425Z" fill="#F2F2F2"/>
<g clip-path="url(#clip0_1009_3881)">
<path d="M244.248 490.766C270.824 473.602 307.428 480.271 333.321 498.456C341.771 504.472 349.532 511.402 356.464 519.12C360.506 523.557 364.338 528.215 368.003 533.034C368.906 534.216 369.805 535.41 370.687 536.616C371.29 537.431 371.888 538.252 372.481 539.078C379.915 549.418 386.73 560.297 393.402 571.076C410.057 597.985 427.146 625.695 452.523 644.587C457.751 648.479 465.046 651.983 470.402 648.267C475.051 645.04 475.25 638.255 474.192 632.694C470.259 612.092 456.072 595.02 441.001 580.446C425.929 565.872 409.244 552.51 397.857 534.899C386.469 517.289 381.266 493.778 391.24 475.334C399.837 459.44 418.332 450.524 436.386 450.109C454.438 449.698 471.977 456.72 487.25 466.363C502.521 476.009 515.95 488.249 529.965 499.645C538.413 506.521 550.209 513.344 559.415 507.522C567.192 502.602 567.799 490.792 563.164 482.84C558.529 474.888 550.257 469.891 542.327 465.231C517.706 450.756 493.084 436.283 468.462 421.811C460.908 417.374 453.189 412.796 447.613 406.032C442.035 399.271 438.939 389.769 442.013 381.56C445.046 373.469 453.517 368.332 462.087 367.26C470.652 366.19 479.29 368.567 487.301 371.786C517.324 383.852 588.018 462.789 606.859 476.285C618.967 484.953 631.687 495.927 632.911 510.774C634.437 529.257 616.059 544.596 597.612 546.389C579.168 548.187 561.292 540.161 544.812 531.676C528.332 523.191 511.513 513.836 493.015 512.658C474.518 511.481 453.764 521.376 449.379 539.396C445.566 555.077 455.26 571.257 467.888 581.29C477.772 589.146 489.372 594.377 500.577 600.259C503.688 601.888 506.767 603.572 509.77 605.372C517.458 609.989 524.644 615.396 531.213 621.504C538.108 627.906 544.298 635.029 549.676 642.752C553.967 648.905 557.711 655.423 560.865 662.231C561.346 663.271 561.812 664.325 562.265 665.394C562.694 666.416 563.109 667.451 563.503 668.496C568.646 682.054 570.65 697.247 564.08 709.903C557.526 722.525 543.331 729.999 529.157 731.036C520.958 731.525 512.742 730.439 504.952 727.836C499.222 725.973 493.676 723.588 488.383 720.71C463.843 707.528 444.415 686.626 426.672 665.138C408.933 643.652 392.229 621.028 371.17 602.789C350.112 584.546 323.723 570.754 295.87 570.963C268.018 571.169 239.306 588.151 231.395 614.875C219.865 594.993 212.068 572.327 213.097 549.364C214.127 526.402 224.948 503.232 244.248 490.766Z" fill="#2D355C"/>
<path d="M498.585 604.333C499.082 602.899 499.75 601.531 500.577 600.259C503.688 601.888 506.767 603.572 509.77 605.372C517.458 609.989 524.645 615.396 531.213 621.504C528.569 625.099 524.725 627.627 520.378 628.627C516.031 629.628 511.469 629.036 507.521 626.958C503.573 624.881 500.501 621.455 498.861 617.304C497.221 613.153 497.124 608.551 498.585 604.333Z" fill="#FBCD99"/>
<path d="M500.751 680.992C503.698 672.454 508.631 664.739 515.144 658.484C516.004 657.66 516.888 656.864 517.797 656.096C526.8 648.475 537.931 643.815 549.676 642.752C553.967 648.905 557.711 655.423 560.865 662.231C561.346 663.271 561.812 664.325 562.265 665.394C562.694 666.416 563.11 667.451 563.503 668.496C568.646 682.054 570.65 697.247 564.08 709.903C557.526 722.525 543.331 729.999 529.157 731.036C520.958 731.525 512.742 730.439 504.952 727.836C500.732 720.345 498.252 712.001 497.695 703.42C497.625 702.34 497.59 701.259 497.579 700.173C497.534 693.645 498.606 687.157 500.751 680.992Z" fill="#227B9B"/>
<path d="M477.089 669.656C479.96 661.376 490.703 656.502 507.343 655.926C510.673 655.809 514.335 657.194 517.797 656.096C534.591 650.766 549.827 654.249 562.265 665.394C562.694 666.415 563.109 667.451 563.503 668.496C563.338 668.434 563.171 668.376 563.004 668.318C546.198 662.481 529.515 659.074 515.144 658.484C512.488 658.377 509.321 656.839 507.429 658.45C492.238 671.388 481.963 665.967 479.472 670.484C475.833 677.082 482.288 687.362 493.969 697.263C495.124 698.243 496.328 699.213 497.579 700.173C497.59 701.259 497.625 702.34 497.695 703.42C495.811 702.026 494.025 700.616 492.339 699.19C479.633 688.422 474.218 677.932 477.089 669.656Z" fill="#FBCD99"/>
<path d="M540.033 728.301C541.02 728.301 541.821 727.5 541.821 726.512C541.821 725.524 541.02 724.723 540.033 724.723C539.046 724.723 538.245 725.524 538.245 726.512C538.245 727.5 539.046 728.301 540.033 728.301Z" fill="#FBCD99"/>
<path d="M508.403 705.29C509.39 705.29 510.19 704.489 510.19 703.501C510.19 702.513 509.39 701.712 508.403 701.712C507.415 701.712 506.615 702.513 506.615 703.501C506.615 704.489 507.415 705.29 508.403 705.29Z" fill="#FBCD99"/>
<path d="M532.603 710.152C542.204 710.152 549.988 702.363 549.988 692.755C549.988 683.146 542.204 675.357 532.603 675.357C523.001 675.357 515.217 683.146 515.217 692.755C515.217 702.363 523.001 710.152 532.603 710.152Z" fill="#FBCD99"/>
<path opacity="0.3" d="M259.454 500.42C263.518 500.612 271.924 502.631 281.032 505.242C290.135 507.856 300.009 511.045 309.757 514.198C326.821 519.715 343.884 525.23 360.947 530.743C363.293 531.5 365.645 532.263 368.003 533.034C368.907 534.216 369.805 535.41 370.687 536.616C368.613 535.882 366.532 535.173 364.456 534.496C355.589 531.613 347.895 529.711 339.29 527.087C326.046 523.054 312.075 517.756 298.524 512.823C284.975 507.886 269.43 502.571 259.454 500.42Z" fill="#F0F0F0"/>
<path d="M544.143 653.568C545.13 653.568 545.93 652.767 545.93 651.779C545.93 650.791 545.13 649.99 544.143 649.99C543.155 649.99 542.355 650.791 542.355 651.779C542.355 652.767 543.155 653.568 544.143 653.568Z" fill="#FBCD99"/>
<path d="M230.566 647.663C236.896 647.663 242.027 642.527 242.027 636.193C242.027 629.859 236.896 624.724 230.566 624.724C224.236 624.724 219.105 629.859 219.105 636.193C219.105 642.527 224.236 647.663 230.566 647.663Z" fill="#00BFA6"/>
<path d="M223.776 629.896C222.621 629.58 221.548 629.014 220.635 628.238C219.722 627.462 218.99 626.495 218.49 625.405C217.991 624.315 217.736 623.129 217.744 621.93C217.752 620.731 218.023 619.549 218.537 618.466L197.784 598.02L212.585 594.86L230.023 614.76C231.783 615.745 233.122 617.342 233.784 619.249C234.447 621.155 234.388 623.239 233.618 625.105C232.848 626.97 231.421 628.489 229.607 629.372C227.793 630.255 225.718 630.441 223.776 629.896Z" fill="#C38282"/>
<path d="M124.55 470.774L136.123 478.408L149.67 481.584C149.67 481.584 160.414 558.428 165.694 563.038C170.974 567.647 166.525 568.084 167.956 574.442C169.387 580.8 172.698 593.807 172.698 593.807C140.537 613.756 111.806 616.192 87.2931 597.086C86.9104 595.827 86.9691 594.475 87.4597 593.254C87.9502 592.032 88.8431 591.016 89.9902 590.372C94.1349 587.795 85.1449 577.702 88.5378 575.68C91.9307 573.659 85.9352 558.538 85.9352 558.538L86.9814 526.066L84.0686 521.086L88.1719 489.114L98.7495 484.41L102.371 473.667L124.55 470.774Z" fill="#4DDAC5"/>
<path d="M148.703 542.997L158.602 541.629C158.602 541.629 159.557 556.563 164.292 558.827C169.027 561.09 167.431 561.463 167.989 563.859C168.548 566.255 163.779 572.894 167.53 574.545C171.28 576.196 204.062 617.555 204.062 617.555L223.403 599.634C222.074 596.03 215.677 598.963 215.276 595.142C214.772 589.365 204.647 573.583 202.493 571.56C200.338 569.536 201.19 565.969 200.073 561.177C198.957 556.385 199.732 560.828 197.871 552.841C196.01 544.855 170.788 504.159 169.911 496.785C169.034 489.41 158.766 485.07 158.766 485.07L150.785 486.932L148.703 542.997Z" fill="#23213B"/>
<path d="M65.1262 808.573L76.7764 811.634L94.1208 768.121L76.9262 763.602L65.1262 808.573Z" fill="#C38282"/>
<path d="M61.5241 820.627L97.3503 830.041L97.4693 829.588C98.4403 825.887 97.9026 821.952 95.9743 818.647C94.0461 815.343 90.8853 812.941 87.1872 811.969L87.1863 811.968L81.9461 805.28L68.4323 807.04L65.3049 806.218L61.5241 820.627Z" fill="#2F2E41"/>
<path d="M124.85 817.294L136.895 817.294L142.625 770.799L124.847 770.8L124.85 817.294Z" fill="#C38282"/>
<path d="M124.426 829.869L161.466 829.868V829.399C161.466 825.573 159.947 821.903 157.243 819.197C154.54 816.492 150.873 814.972 147.049 814.971H147.048L140.282 809.835L127.658 814.972L124.425 814.972L124.426 829.869Z" fill="#2F2E41"/>
<path d="M94.723 594.8C91.8133 598.44 93.2681 610.815 93.2681 610.815C93.2681 610.815 88.1761 650.853 90.3584 654.492C92.5407 658.132 88.9036 661.044 86.7213 666.14C84.539 671.235 82.3567 683.611 82.3567 683.611C69.9904 693.802 70.7179 740.391 70.7179 740.391L66.3533 781.884C67.8082 786.252 88.1762 786.98 91.0859 786.252C93.9956 785.524 122.365 682.883 122.365 682.883C122.365 682.883 120.91 781.884 120.91 786.252C120.91 790.62 140.551 788.436 144.916 788.436C149.28 788.436 176.922 610.087 176.922 610.087V599.896L173.285 594.8C173.285 594.8 97.6327 591.161 94.723 594.8Z" fill="#2D355C"/>
<path d="M101.628 475.621L83.7643 487.01L75.124 494.258L86.5851 567.376C86.5851 567.376 69.1721 633.839 96.6137 629.741C124.055 625.644 122.517 565.915 122.517 565.915L101.628 475.621Z" fill="#23213B"/>
<path d="M129.565 473.47L148.648 479.83C148.648 479.83 169.759 477.599 170.614 509.047C171.469 540.495 167.535 557.37 167.535 557.37C167.535 557.37 211.448 645.741 163.88 619.641L149.98 564.867L135.653 478.846L129.565 473.47Z" fill="#23213B"/>
<path d="M125.531 579.488C124.5 580.099 123.348 580.476 122.155 580.593C120.963 580.71 119.76 580.565 118.63 580.166C117.5 579.767 116.471 579.125 115.616 578.286C114.761 577.446 114.1 576.429 113.68 575.306L84.5657 576.01L92.5896 563.169L119.007 564.47C120.938 563.889 123.016 564.037 124.846 564.887C126.675 565.736 128.13 567.228 128.935 569.079C129.739 570.93 129.836 573.012 129.209 574.931C128.582 576.849 127.273 578.471 125.531 579.488Z" fill="#C38282"/>
<path d="M111.006 465.733C123.712 465.733 134.013 455.425 134.013 442.709C134.013 429.993 123.712 419.685 111.006 419.685C98.299 419.685 87.9982 429.993 87.9982 442.709C87.9982 455.425 98.299 465.733 111.006 465.733Z" fill="#C38282"/>
<path d="M84.9088 427.581C87.4923 423.581 92.3404 420.915 97.0402 421.665C97.4777 418.663 98.7296 415.839 100.66 413.5C102.59 411.161 105.124 409.397 107.987 408.4C110.849 407.403 113.931 407.211 116.895 407.845C119.859 408.478 122.593 409.914 124.798 411.995C125.523 411.484 126.368 411.169 127.251 411.08C128.133 410.992 129.024 411.133 129.836 411.49C131.453 412.226 132.861 413.357 133.929 414.778C136.626 418.143 138.36 422.178 138.947 426.452C139.535 430.725 138.953 435.079 137.264 439.048C137.839 436.958 135.746 434.992 133.632 434.523C131.518 434.054 129.3 434.498 127.156 434.193C124.408 433.801 121.938 432.206 119.185 431.847C116.872 431.545 114.546 432.139 112.29 432.734C110.034 433.329 107.714 433.935 105.398 433.66C103.081 433.385 100.097 442.17 100.137 448.358C100.145 449.53 99.9036 451.036 98.7585 451.285C97.3482 451.591 96.531 449.643 95.1887 449.113C94.5701 448.935 93.9068 449.005 93.3386 449.307C92.7705 449.61 92.3417 450.121 92.1429 450.733C91.9737 451.356 91.9556 452.01 92.09 452.641C92.2245 453.272 92.5076 453.862 92.9158 454.362C93.7409 455.352 94.7204 456.202 95.8164 456.88L95.2636 457.34C94.344 458.555 92.4366 458.608 91.1111 457.856C89.8437 456.997 88.8173 455.827 88.1297 454.459C85.6776 450.377 83.5267 446.029 82.6613 441.346C81.7959 436.663 82.3255 431.581 84.9088 427.581Z" fill="#1A1928"/>
<path d="M93.0321 496.409L82.6933 487.543C82.6933 487.543 70.6217 491.312 68.5749 499.237C52.4638 519.852 43.7872 543.929 41.4568 570.96C62.4907 578.91 88.2464 581.731 115.954 582.43L110.224 560.925L70.826 553.756L93.0321 496.409Z" fill="#23213B"/>
<path d="M51.5573 814.785L55.126 820.524C55.1261 820.525 55.1262 820.525 55.1263 820.525C55.1263 820.525 55.1263 820.525 55.1264 820.525C57.0225 823.577 58.6142 826.419 58.3109 829.304L58.3001 829.406L58.3009 829.43C58.2899 829.512 58.2771 829.593 58.2627 829.674H37.0051C36.8666 829.398 36.733 829.119 36.6045 828.838L36.6045 828.838L36.5992 828.826C34.3054 823.912 33.3211 818.392 32.3486 812.754C32.3485 812.754 32.3485 812.754 32.3485 812.754L31.408 807.296C35.4222 810.219 39.438 813.14 43.4553 816.057C45.0848 817.245 46.713 818.455 48.2338 819.755L50.178 821.416L50.6792 818.909C50.8558 818.025 51.047 817.132 51.2399 816.245L51.24 816.245L51.5573 814.785Z" fill="#4DDAC5" stroke="#227B9B" stroke-width="3"/>
<path d="M263.667 810.321L272.162 796.661L273.463 802.647L273.463 802.647C273.828 804.326 274.192 806.025 274.528 807.708L275.03 810.216L276.974 808.554C279.894 806.059 283.011 803.742 286.097 801.493C294.586 795.328 303.071 789.156 311.553 782.976L309.214 796.554C307.379 807.19 305.493 817.813 301.066 827.298L301.066 827.298L301.061 827.309C300.696 828.108 300.31 828.898 299.903 829.674H257.8C257.646 829.107 257.532 828.53 257.457 827.947L257.457 827.941L257.459 827.878L257.448 827.776C256.819 821.79 260.123 816.027 263.667 810.321C263.667 810.321 263.667 810.321 263.667 810.321Z" fill="#4DDAC5" stroke="#227B9B" stroke-width="3"/>
<path d="M254.195 830.032H206.221C204.433 830.03 202.718 829.318 201.452 828.052C200.187 826.786 199.476 825.07 199.473 823.279V654.84C199.476 653.049 200.187 651.333 201.452 650.067C202.717 648.801 204.432 648.089 206.22 648.087H254.196C255.984 648.089 257.699 648.801 258.964 650.067C260.229 651.333 260.941 653.05 260.943 654.841V823.278C260.941 825.069 260.229 826.786 258.964 828.052C257.698 829.318 255.983 830.03 254.195 830.032Z" fill="#F2F2F2" stroke="url(#paint4_linear_1009_3881)" stroke-width="3"/>
<path d="M242.868 650.888H218.265C217.443 650.887 216.655 650.56 216.074 649.979C215.493 649.397 215.166 648.609 215.165 647.786V638.936C215.166 638.114 215.493 637.326 216.074 636.744C216.655 636.163 217.443 635.836 218.265 635.835H242.868C243.69 635.836 244.477 636.163 245.058 636.744C245.639 637.326 245.966 638.114 245.967 638.936V647.786C245.966 648.609 245.639 649.397 245.058 649.979C244.477 650.56 243.69 650.887 242.868 650.888Z" fill="#3F3D56"/>
<path d="M313.232 831.78L16.8529 832C16.6271 831.999 16.4108 831.909 16.2514 831.749C16.092 831.589 16.0024 831.372 16.0024 831.146C16.0024 830.921 16.092 830.704 16.2514 830.544C16.4108 830.384 16.6271 830.294 16.8529 830.293L313.232 830.073C313.457 830.073 313.674 830.163 313.833 830.323C313.993 830.483 314.082 830.7 314.082 830.926C314.082 831.152 313.993 831.369 313.833 831.529C313.674 831.689 313.457 831.779 313.232 831.78Z" fill="#227B9B"/>
<path d="M367 440.787C365.895 440.787 365 439.891 365 438.787C365 437.682 365.895 436.787 367 436.787C368.105 436.787 369 437.682 369 438.787C369 439.891 368.105 440.787 367 440.787Z" fill="white"/>
<path d="M350.097 808.258C349.708 807.225 350.23 806.071 351.264 805.682C352.297 805.292 353.451 805.815 353.841 806.848C354.23 807.882 353.708 809.035 352.674 809.425C351.64 809.814 350.487 809.292 350.097 808.258Z" fill="white"/>
<path d="M210.763 487.913C210.562 486.117 211.412 484.549 212.662 484.409C213.911 484.269 215.086 485.612 215.287 487.408C215.487 489.203 214.637 490.772 213.388 490.912C212.139 491.051 210.964 489.709 210.763 487.913Z" fill="#4DDAC5"/>
<path d="M304.37 705.811C306.001 704.674 308.649 705.654 310.283 708C311.918 710.346 311.92 713.169 310.288 714.306C308.656 715.443 306.008 714.463 304.374 712.117C302.74 709.772 302.738 706.948 304.37 705.811Z" fill="white"/>
<path d="M205.63 419.821C205.141 417.893 206.992 415.761 209.763 415.058C212.535 414.356 215.177 415.35 215.666 417.278C216.154 419.205 214.304 421.338 211.533 422.04C208.761 422.742 206.119 421.749 205.63 419.821Z" fill="#227B9B"/>
<path d="M312.825 649.858C314.457 648.721 317.104 649.701 318.739 652.047C320.373 654.393 320.375 657.216 318.743 658.353C317.111 659.49 314.463 658.51 312.829 656.164C311.195 653.818 311.193 650.995 312.825 649.858Z" fill="#227B9B"/>
<path d="M332.885 674.82C334.517 673.683 337.165 674.663 338.799 677.009C340.433 679.355 340.435 682.178 338.804 683.315C337.172 684.452 334.524 683.472 332.89 681.126C331.255 678.78 331.253 675.957 332.885 674.82Z" fill="#FBCD99"/>
<path d="M299.369 676.043C300.978 675.222 302.746 675.464 303.317 676.584C303.888 677.704 303.046 679.277 301.437 680.098C299.827 680.919 298.059 680.676 297.488 679.556C296.917 678.437 297.759 676.864 299.369 676.043Z" fill="#4DDAC5"/>
<path d="M242.958 394.83C242.757 393.034 243.607 391.465 244.856 391.326C246.105 391.186 247.281 392.529 247.481 394.325C247.682 396.12 246.832 397.689 245.583 397.829C244.334 397.968 243.158 396.626 242.958 394.83Z" fill="#FBCD99"/>
<path d="M349.371 675.978C350.981 675.158 352.749 675.4 353.32 676.52C353.891 677.639 353.049 679.213 351.439 680.033C349.829 680.854 348.062 680.612 347.491 679.492C346.92 678.372 347.762 676.799 349.371 675.978Z" fill="#FBCD99"/>
<path d="M195 384C193.895 384 193 383.105 193 382C193 380.895 193.895 380 195 380C196.105 380 197 380.895 197 382C197 383.105 196.105 384 195 384Z" fill="white"/>
<path d="M342.598 627.282C342.209 626.248 342.731 625.095 343.764 624.705C344.798 624.316 345.952 624.838 346.341 625.872C346.731 626.905 346.208 628.059 345.175 628.448C344.141 628.838 342.987 628.315 342.598 627.282Z" fill="white"/>
<path d="M600 574.787C598.895 574.787 598 573.891 598 572.787C598 571.682 598.895 570.787 600 570.787C601.105 570.787 602 571.682 602 572.787C602 573.891 601.105 574.787 600 574.787Z" fill="white"/>
<path d="M550 780.787C548.895 780.787 548 779.891 548 778.787C548 777.682 548.895 776.787 550 776.787C551.105 776.787 552 777.682 552 778.787C552 779.891 551.105 780.787 550 780.787Z" fill="white"/>
<path d="M443.763 621.913C443.562 620.117 444.412 618.549 445.662 618.409C446.911 618.269 448.086 619.612 448.287 621.408C448.487 623.203 447.637 624.772 446.388 624.912C445.139 625.051 443.964 623.709 443.763 621.913Z" fill="#4DDAC5"/>
<path d="M393.763 827.913C393.562 826.117 394.412 824.549 395.662 824.409C396.911 824.269 398.086 825.612 398.287 827.408C398.487 829.203 397.637 830.772 396.388 830.912C395.139 831.051 393.964 829.709 393.763 827.913Z" fill="#4DDAC5"/>
<path d="M488.009 581.46C487.521 579.532 489.371 577.4 492.143 576.697C494.914 575.995 497.557 576.989 498.045 578.917C498.534 580.844 496.683 582.977 493.912 583.679C491.141 584.381 488.498 583.388 488.009 581.46Z" fill="white"/>
<path d="M438.009 787.46C437.521 785.532 439.371 783.4 442.143 782.697C444.914 781.995 447.557 782.989 448.045 784.917C448.534 786.844 446.683 788.977 443.912 789.679C441.141 790.381 438.498 789.388 438.009 787.46Z" fill="white"/>
<path d="M378 724C376.895 724 376 723.105 376 722C376 720.895 376.895 720 378 720C379.105 720 380 720.895 380 722C380 723.105 379.105 724 378 724Z" fill="white"/>
</g>
<path opacity="0.3" d="M288 163C292.064 163.191 300.47 165.211 309.578 167.822C318.681 170.435 328.555 173.624 338.303 176.778C355.367 182.295 372.43 187.81 389.493 193.323C391.838 194.08 394.191 194.843 396.549 195.613C397.452 196.795 398.351 197.989 399.232 199.195C397.159 198.462 395.078 197.752 393.002 197.076C384.135 194.192 376.441 192.291 367.835 189.667C354.592 185.633 340.621 180.336 327.07 175.402C313.521 170.465 297.976 165.151 288 163Z" fill="#F0F0F0"/>
<path opacity="0.3" d="M562 324C566.064 324.191 574.47 326.211 583.578 328.822C592.681 331.435 602.555 334.624 612.303 337.778C629.367 343.295 646.43 348.81 663.493 354.323C665.838 355.08 668.191 355.843 670.549 356.613C671.452 357.795 672.351 358.989 673.232 360.195C671.159 359.462 669.078 358.752 667.002 358.076C658.135 355.192 650.441 353.291 641.835 350.667C628.592 346.633 614.621 341.336 601.07 336.402C587.521 331.465 571.976 326.151 562 324Z" fill="#F0F0F0"/>
<path opacity="0.3" d="M568 632C572.064 632.191 580.47 634.211 589.578 636.822C598.681 639.435 608.555 642.624 618.303 645.778C635.367 651.295 652.43 656.81 669.493 662.323C671.838 663.08 674.191 663.843 676.549 664.613C677.452 665.795 678.351 666.989 679.232 668.195C677.159 667.462 675.078 666.752 673.002 666.076C664.135 663.192 656.441 661.291 647.835 658.667C634.592 654.633 620.621 649.336 607.07 644.402C593.521 639.465 577.976 634.151 568 632Z" fill="#F0F0F0"/>
<defs>
<linearGradient id="paint0_linear_1009_3881" x1="465.253" y1="329.989" x2="-0.406651" y2="396.949" gradientUnits="userSpaceOnUse">
<stop stop-color="#2A112E"/>
<stop offset="0.490163" stop-color="#7452B0"/>
<stop offset="1" stop-color="#46FBF6"/>
</linearGradient>
<linearGradient id="paint1_linear_1009_3881" x1="835.882" y1="170.803" x2="455.714" y2="240.373" gradientUnits="userSpaceOnUse">
<stop stop-color="#2A112E"/>
<stop offset="0.490163" stop-color="#7452B0"/>
<stop offset="1" stop-color="#FBCD99"/>
</linearGradient>
<linearGradient id="paint2_linear_1009_3881" x1="808.923" y1="735.597" x2="428.755" y2="805.167" gradientUnits="userSpaceOnUse">
<stop stop-color="#2A112E"/>
<stop offset="0.490163" stop-color="#7452B0"/>
<stop offset="1" stop-color="#FBCD99"/>
</linearGradient>
<linearGradient id="paint3_linear_1009_3881" x1="417" y1="70.6108" x2="-2.97409e-05" y2="70.6108" gradientUnits="userSpaceOnUse">
<stop stop-color="#2A112E"/>
<stop offset="0.490163" stop-color="#7452B0"/>
<stop offset="1" stop-color="#46FBF6"/>
</linearGradient>
<linearGradient id="paint4_linear_1009_3881" x1="197.973" y1="739.06" x2="262.443" y2="739.06" gradientUnits="userSpaceOnUse">
<stop stop-color="#100626"/>
<stop offset="0.490163" stop-color="#923A9E"/>
<stop offset="1" stop-color="#FBCD99"/>
</linearGradient>
<clipPath id="clip0_1009_3881">
<rect width="617" height="465" fill="white" transform="translate(16 367)"/>
</clipPath>
</defs>
</svg>
