<svg width="688" height="616" viewBox="0 0 688 616" fill="none" xmlns="http://www.w3.org/2000/svg">
<g clip-path="url(#clip0_57_747)">
<path opacity="0.3" d="M303.88 783.309C522.881 746.829 687.58 640.192 671.745 545.128C655.91 450.064 465.537 402.573 246.536 439.052C27.5354 475.532 -137.163 582.169 -121.328 677.233C-105.493 772.297 84.8793 819.789 303.88 783.309Z" fill="#4DDAC5"/>
<path opacity="0.5" d="M625.62 540.991C629.044 561.522 623.084 583.41 608.08 605.405C593.076 627.4 569.322 649.071 538.175 669.18C507.028 689.29 469.097 707.444 426.55 722.605C384.003 737.767 337.672 749.64 290.203 757.545C247.892 764.582 205.378 768.375 164.57 768.752C100.759 769.311 43.1562 761.446 -1.96691 746.013C-47.09 730.581 -78.0038 708.171 -91.3426 681.225C-104.681 654.279 -99.9339 623.829 -77.617 593.19C-55.3 562.551 -16.269 532.898 35.2265 507.459C86.722 482.02 148.708 461.77 214.437 448.914C280.165 436.058 347.117 431.088 408.002 434.546C468.887 438.004 521.372 449.757 559.743 468.526C598.114 487.295 620.9 512.359 625.62 540.991Z" fill="#227B9B"/>
<path d="M-20.6816 198.586C19.6083 236.086 72.9784 260.146 127.798 265.916C133.178 266.486 138.572 266.876 143.978 267.086C145.178 267.136 146.378 267.166 147.588 267.196C149.548 267.246 151.518 267.266 153.478 267.266C155.828 267.266 158.178 267.233 160.528 267.166C174.131 266.77 187.681 265.288 201.048 262.736C201.538 262.636 202.018 262.546 202.508 262.446C204.618 262.036 206.722 261.596 208.818 261.126C212.838 260.236 216.838 259.25 220.818 258.166C222.108 257.816 223.398 257.456 224.688 257.076C226.538 256.546 228.378 255.986 230.218 255.416C230.908 255.196 231.598 254.986 232.288 254.756C232.988 254.536 233.688 254.306 234.388 254.066C238.658 252.666 242.892 251.146 247.088 249.506C270.989 240.273 293.363 227.493 313.458 211.596C316.238 209.386 319.058 207.066 321.778 204.816C336.398 192.756 351.518 180.286 369.948 177.566C389.848 174.636 408.968 183.696 427.448 192.456C433.718 195.426 440.198 198.496 446.608 201.066C477.899 213.392 512.384 215.041 544.708 205.756C545.378 205.576 546.048 205.376 546.708 205.176V203.086C546.048 203.286 545.378 203.486 544.708 203.676C512.655 213.008 478.412 211.435 447.348 199.206C440.998 196.666 434.538 193.606 428.298 190.646C409.548 181.756 390.158 172.566 369.658 175.586C350.678 178.386 335.338 191.036 320.508 203.276C317.788 205.516 314.978 207.836 312.218 210.036C292.257 225.831 270.027 238.524 246.278 247.686H246.268C242.248 249.246 238.178 250.716 234.088 252.076C233.498 252.266 232.908 252.456 232.318 252.656C231.658 252.866 230.988 253.076 230.328 253.286C228.638 253.826 226.945 254.34 225.248 254.826C223.588 255.326 221.918 255.8 220.238 256.246H220.228C215.928 257.416 211.602 258.473 207.248 259.416C205.278 259.856 203.308 260.256 201.318 260.636C200.888 260.726 200.448 260.806 200.008 260.886C187.184 263.307 174.192 264.731 161.148 265.146H161.138C156.608 265.286 152.085 265.303 147.568 265.196C146.388 265.166 145.218 265.126 144.048 265.086C138.938 264.886 133.835 264.526 128.738 264.006H128.728C74.0784 258.416 20.8384 234.496 -19.3217 197.116C-19.5168 196.937 -19.775 196.843 -20.0396 196.854C-20.3043 196.865 -20.5538 196.98 -20.7337 197.174C-20.9136 197.369 -21.0091 197.626 -20.9993 197.891C-20.9896 198.156 -20.8753 198.406 -20.6816 198.586Z" fill="url(#paint0_linear_57_747)"/>
<path d="M-65.4936 123.504C-1.40814 87.7382 83.4825 64.7908 170.68 59.2876C179.237 58.7439 187.816 58.372 196.416 58.1717C198.324 58.124 200.233 58.0954 202.158 58.0668C205.275 58.0191 208.409 58 211.526 58C215.264 58 219.002 58.0318 222.74 58.0954C244.377 58.4739 265.929 59.8867 287.191 62.3205C287.971 62.4159 288.734 62.5017 289.514 62.5971C292.87 62.9882 296.215 63.4078 299.55 63.8561C305.945 64.7049 312.307 65.646 318.638 66.6792C320.689 67.013 322.741 67.3564 324.793 67.7188C327.736 68.2243 330.663 68.7584 333.589 69.3021C334.687 69.5119 335.784 69.7122 336.882 69.9315C337.995 70.1414 339.109 70.3607 340.222 70.5896C347.014 71.9249 353.748 73.3746 360.423 74.9388C398.439 83.7456 434.028 95.9345 465.991 111.096C470.413 113.204 474.899 115.416 479.225 117.562C502.48 129.065 526.53 140.958 555.845 143.552C587.498 146.347 617.91 137.706 647.304 129.351C657.277 126.518 667.585 123.59 677.78 121.139C727.552 109.383 782.404 107.811 833.819 116.666C834.884 116.837 835.95 117.028 837 117.219V119.212C835.95 119.022 834.884 118.831 833.819 118.65C782.835 109.75 728.367 111.249 678.957 122.913C668.857 125.335 658.582 128.254 648.656 131.077C618.833 139.556 587.991 148.321 555.383 145.441C525.194 142.77 500.794 130.705 477.205 119.031C472.879 116.895 468.409 114.682 464.019 112.584C432.268 97.5195 396.909 85.4136 359.134 76.6746H359.119C352.724 75.1868 346.251 73.7847 339.745 72.4876C338.806 72.3064 337.868 72.1252 336.93 71.9344C335.88 71.7341 334.814 71.5339 333.764 71.3336C331.076 70.8185 328.383 70.3289 325.684 69.8648C323.044 69.3879 320.387 68.9365 317.715 68.5104H317.699C310.859 67.3945 303.977 66.3867 297.053 65.487C293.92 65.0674 290.786 64.6859 287.621 64.3234C286.937 64.2376 286.237 64.1613 285.537 64.085C265.139 61.7768 244.474 60.4184 223.726 60.022H223.71C216.505 59.8885 209.31 59.8726 202.126 59.9743C200.249 60.0029 198.388 60.041 196.527 60.0792C188.399 60.2699 180.281 60.6133 172.175 61.1093H172.159C85.2322 66.4408 0.548401 89.2547 -63.3304 124.906C-63.6408 125.077 -64.0515 125.167 -64.4724 125.157C-64.8933 125.146 -65.2903 125.037 -65.5764 124.851C-65.8625 124.666 -66.0144 124.42 -65.9989 124.167C-65.9834 123.915 -65.8017 123.676 -65.4936 123.504Z" fill="url(#paint1_linear_57_747)"/>
<path d="M183.039 291.866C182.551 289.938 184.401 287.806 187.173 287.103C189.944 286.401 192.587 287.395 193.075 289.323C193.564 291.25 191.713 293.383 188.942 294.085C186.171 294.787 183.528 293.794 183.039 291.866Z" fill="white"/>
<path d="M67.8846 126.034C67.3961 124.106 69.2466 121.974 72.018 121.272C74.7893 120.569 77.432 121.563 77.9206 123.491C78.4092 125.419 76.5586 127.551 73.7873 128.253C71.0159 128.956 68.3732 127.962 67.8846 126.034Z" fill="white"/>
<path d="M216.883 291.648C216.395 289.72 218.245 287.588 221.017 286.885C223.788 286.183 226.431 287.176 226.919 289.104C227.408 291.032 225.557 293.164 222.786 293.867C220.015 294.569 217.372 293.576 216.883 291.648Z" fill="#227B9B"/>
<path d="M147.885 119.034C147.396 117.106 149.247 114.974 152.018 114.272C154.789 113.569 157.432 114.563 157.921 116.491C158.409 118.419 156.559 120.551 153.787 121.253C151.016 121.956 148.373 120.962 147.885 119.034Z" fill="#227B9B"/>
<path d="M176.689 319.944C176.2 318.016 178.05 315.884 180.822 315.182C183.593 314.48 186.236 315.473 186.724 317.401C187.213 319.329 185.363 321.461 182.591 322.163C179.82 322.866 177.177 321.872 176.689 319.944Z" fill="#FBCD99"/>
<path d="M112.885 152.034C112.396 150.106 114.247 147.974 117.018 147.272C119.789 146.569 122.432 147.563 122.921 149.491C123.409 151.419 121.559 153.551 118.787 154.253C116.016 154.956 113.373 153.962 112.885 152.034Z" fill="#FBCD99"/>
<path d="M168.799 330.532C168.599 328.736 169.449 327.167 170.698 327.028C171.947 326.888 173.122 328.231 173.323 330.026C173.524 331.822 172.674 333.391 171.424 333.531C170.175 333.67 169 332.328 168.799 330.532Z" fill="#E6E6E6"/>
<path d="M166.016 351.74C165.816 349.944 166.666 348.375 167.915 348.236C169.164 348.096 170.339 349.439 170.54 351.234C170.741 353.03 169.891 354.599 168.641 354.738C167.392 354.878 166.217 353.535 166.016 351.74Z" fill="#4DDAC5"/>
<path d="M200.617 311.324C200.416 309.528 201.266 307.959 202.515 307.82C203.764 307.68 204.94 309.023 205.14 310.818C205.341 312.614 204.491 314.183 203.242 314.323C201.993 314.462 200.817 313.12 200.617 311.324Z" fill="#E6E6E6"/>
<path d="M221.363 169.757C221.163 167.961 222.013 166.392 223.262 166.253C224.511 166.113 225.686 167.456 225.887 169.251C226.088 171.047 225.238 172.616 223.988 172.755C222.739 172.895 221.564 171.553 221.363 169.757Z" fill="#E6E6E6"/>
<path d="M183.585 304.925C183.384 303.13 184.234 301.561 185.483 301.421C186.733 301.282 187.908 302.624 188.109 304.42C188.309 306.216 187.459 307.785 186.21 307.924C184.961 308.064 183.786 306.721 183.585 304.925Z" fill="#FBCD99"/>
<path d="M204.567 287.639C204.367 285.843 205.217 284.274 206.466 284.135C207.715 283.995 208.89 285.338 209.091 287.134C209.292 288.929 208.442 290.498 207.192 290.638C205.943 290.777 204.768 289.435 204.567 287.639Z" fill="#4DDAC5"/>
<path d="M130.763 147.757C130.563 145.961 131.413 144.392 132.662 144.253C133.911 144.113 135.086 145.456 135.287 147.251C135.488 149.047 134.638 150.616 133.388 150.755C132.139 150.895 130.964 149.553 130.763 147.757Z" fill="#4DDAC5"/>
<path d="M529.627 198.095C527.418 198.095 525.627 196.304 525.627 194.095C525.627 191.886 527.418 190.095 529.627 190.095C531.836 190.095 533.627 191.886 533.627 194.095C533.627 196.304 531.836 198.095 529.627 198.095Z" fill="white"/>
<path d="M25.1914 314.201C27.3019 313.548 29.5419 314.73 30.1946 316.841C30.8473 318.951 29.6655 321.191 27.555 321.844C25.4444 322.497 23.2044 321.315 22.5517 319.204C21.899 317.094 23.0808 314.854 25.1914 314.201Z" fill="white"/>
<path d="M627.627 236.095C626.523 236.095 625.627 235.2 625.627 234.095C625.627 232.991 626.523 232.095 627.627 232.095C628.732 232.095 629.627 232.991 629.627 234.095C629.627 235.2 628.732 236.095 627.627 236.095Z" fill="white"/>
<path d="M230.627 385.095C229.523 385.095 228.627 384.2 228.627 383.095C228.627 381.991 229.523 381.095 230.627 381.095C231.732 381.095 232.627 381.991 232.627 383.095C232.627 384.2 231.732 385.095 230.627 385.095Z" fill="white"/>
<path d="M488.627 293.095C487.523 293.095 486.627 292.2 486.627 291.095C486.627 289.991 487.523 289.095 488.627 289.095C489.732 289.095 490.627 289.991 490.627 291.095C490.627 292.2 489.732 293.095 488.627 293.095Z" fill="white"/>
<path d="M452.627 84.0953C451.523 84.0953 450.627 83.1999 450.627 82.0953C450.627 80.9908 451.523 80.0953 452.627 80.0953C453.732 80.0953 454.627 80.9908 454.627 82.0953C454.627 83.1999 453.732 84.0953 452.627 84.0953Z" fill="white"/>
<path d="M132.435 400.362C133.49 400.036 134.61 400.627 134.937 401.682C135.263 402.737 134.672 403.857 133.617 404.184C132.562 404.51 131.442 403.919 131.115 402.864C130.789 401.809 131.38 400.689 132.435 400.362Z" fill="white"/>
<path d="M125.627 161.095C124.523 161.095 123.627 160.2 123.627 159.095C123.627 157.991 124.523 157.095 125.627 157.095C126.732 157.095 127.627 157.991 127.627 159.095C127.627 160.2 126.732 161.095 125.627 161.095Z" fill="white"/>
<path d="M422.088 230.188C423.143 229.862 424.263 230.453 424.589 231.508C424.916 232.563 424.325 233.683 423.27 234.01C422.214 234.336 421.094 233.745 420.768 232.69C420.442 231.635 421.033 230.515 422.088 230.188Z" fill="white"/>
<path d="M590.627 57.0953C589.523 57.0953 588.627 56.1999 588.627 55.0953C588.627 53.9908 589.523 53.0953 590.627 53.0953C591.732 53.0953 592.627 53.9908 592.627 55.0953C592.627 56.1999 591.732 57.0953 590.627 57.0953Z" fill="white"/>
<path d="M226.627 47.0953C224.418 47.0953 222.627 45.3045 222.627 43.0953C222.627 40.8862 224.418 39.0953 226.627 39.0953C228.836 39.0953 230.627 40.8862 230.627 43.0953C230.627 45.3045 228.836 47.0953 226.627 47.0953Z" fill="white"/>
<path d="M359.278 368.939C361.388 368.287 363.628 369.468 364.281 371.579C364.934 373.69 363.752 375.93 361.641 376.582C359.531 377.235 357.291 376.053 356.638 373.943C355.985 371.832 357.167 369.592 359.278 368.939Z" fill="white"/>
<path d="M327.627 134.095C305.536 134.095 287.627 116.187 287.627 94.0953C287.627 72.0039 305.536 54.0953 327.627 54.0953C349.719 54.0953 367.627 72.0039 367.627 94.0953C367.627 116.187 349.719 134.095 327.627 134.095Z" fill="#F2F2F2"/>
<path d="M333.627 137.095C311.536 137.095 293.627 119.187 293.627 97.0953C293.627 75.0039 311.536 57.0953 333.627 57.0953C355.719 57.0953 373.627 75.0039 373.627 97.0953C373.627 119.187 355.719 137.095 333.627 137.095Z" fill="#F2F2F2"/>
<path d="M289.628 535.04L327.12 535.039V534.565C327.12 530.695 325.582 526.983 322.846 524.247C320.109 521.51 316.397 519.972 312.527 519.972L305.678 514.777L292.9 519.973L289.627 519.973L289.628 535.04Z" fill="#3F3D56"/>
<path d="M307.081 514.791L339.114 534.274L339.36 533.869C341.371 530.562 341.986 526.592 341.07 522.832C340.154 519.071 337.782 515.829 334.476 513.817L331.324 505.819L317.707 503.618L314.911 501.918L307.081 514.791Z" fill="#3F3D56"/>
<path d="M285.057 408.565C285.227 409.765 285.477 413.845 285.767 419.785C287.177 448.585 289.627 521.095 289.627 521.095L304.897 516.345C304.897 516.345 323.057 461.565 320.057 431.565L322.217 421.125L325.917 403.285V403.275L337.187 348.945C337.187 348.945 339.657 363.665 339.857 367.115C340.057 370.565 342.057 371.565 343.057 371.565C348.067 371.565 346.527 370.675 345.797 375.625C345.267 379.185 349.607 399.595 352.087 410.755C353.047 415.095 353.727 418.035 353.727 418.035L349.487 427.175L314.337 502.975L327.627 510.095L380.647 431.515L385.877 423.765L386.997 415.075L395.817 346.705C395.817 346.705 398.567 338.975 395.817 338.775C393.057 338.565 391.497 339.435 392.277 336.505C393.057 333.565 377.057 284.565 377.057 284.565L294.057 302.565C294.057 302.565 285.877 318.825 289.057 326.565C292.247 334.305 286.447 394.245 289.757 396.906C293.057 399.565 295.187 397.435 290.627 402.005C289.93 402.733 289.106 403.33 288.197 403.765C285.377 405.045 284.257 402.965 285.057 408.565Z" fill="#F2F2F2"/>
<path d="M324.272 324.376C324.606 322.073 324.027 319.731 322.66 317.848C321.293 315.964 319.245 314.689 316.952 314.293C316.484 314.22 316.011 314.185 315.538 314.19L291.431 258.208L274.894 270.624L307.092 323.658C307.264 325.618 308.08 327.466 309.413 328.914C310.745 330.362 312.519 331.328 314.459 331.661C315.564 331.84 316.693 331.799 317.783 331.542C318.873 331.284 319.901 330.815 320.809 330.16C321.717 329.505 322.487 328.678 323.076 327.725C323.664 326.772 324.059 325.713 324.238 324.608C324.25 324.531 324.262 324.454 324.272 324.376Z" fill="#4DDAC5"/>
<path d="M391.803 328.94C390.181 327.271 389.274 325.035 389.275 322.708C389.276 320.381 390.185 318.146 391.809 316.479C392.144 316.145 392.507 315.84 392.892 315.566L379.538 256.095L400.214 256.436L405.288 318.271C406.3 319.959 406.725 321.934 406.496 323.888C406.267 325.842 405.398 327.666 404.024 329.074C403.235 329.868 402.297 330.499 401.263 330.93C400.23 331.361 399.122 331.585 398.002 331.588C396.883 331.591 395.773 331.373 394.738 330.948C393.702 330.522 392.761 329.897 391.967 329.107C391.912 329.052 391.857 328.996 391.803 328.94Z" fill="#4DDAC5"/>
<path d="M286.06 282.566C292.06 276.626 290.95 249.556 290.95 249.556C290.95 249.556 284.98 158.656 293.06 152.566C298.647 148.534 304.592 145.023 310.82 142.076C311.18 141.916 311.37 141.826 311.37 141.826L316.53 127.276L348.32 125.626L353.87 136.406C353.87 136.406 354.74 136.466 356.1 136.656C361.18 137.356 373.12 139.836 372.06 147.566C370.72 157.366 380.18 217.556 383.06 220.566C385.94 223.576 385.18 234.576 378.06 241.566C370.94 248.556 376.06 267.566 381.06 275.566C384.061 280.463 385.446 286.179 385.02 291.906C385.02 291.906 381.06 313.566 371.06 306.566C367.25 303.896 361.84 303.556 355.33 304.046C355.267 304.051 355.198 304.059 355.134 304.064L355.33 305.046C346.29 305.716 335.12 307.986 323.17 307.856L323.524 306.852C323.405 306.851 323.289 306.858 323.17 306.856C321.15 306.836 319.12 306.746 317.06 306.566C299.24 305.016 291.37 309.916 289.06 304.566C286.75 299.216 280.06 288.506 286.06 282.566Z" fill="#F2F2F2"/>
<path opacity="0.3" d="M337 126C320.431 126 307 112.569 307 96C307 79.4315 320.431 66 337 66C353.569 66 367 79.4315 367 96C367 112.569 353.569 126 337 126Z" fill="#4DDAC5"/>
<path d="M348.057 142.385C348.057 142.385 352.617 157.525 357.927 174.995C359.597 180.495 361.347 186.225 363.047 191.795C368.597 209.905 373.657 226.225 374.127 226.875C375.187 228.365 375.057 232.385 374.127 237.075C373.937 238.015 374.367 241.675 375.177 246.925C376.237 253.815 377.947 263.435 379.767 273.255C381.217 281.105 382.737 289.075 384.047 295.865C386.097 306.405 387.627 314.095 387.627 314.095H406.627C406.627 314.095 403.057 234.385 399.057 228.635C395.057 222.875 399.057 227.385 402.057 223.385C405.057 219.385 400.057 221.385 395.017 216.245C389.977 211.115 394.057 213.385 398.057 209.385C399.537 207.905 396.227 198.475 391.467 187.185C389.247 181.945 386.717 176.295 384.217 170.855C379.047 159.625 373.977 149.295 371.967 145.215C371.967 145.205 371.957 145.195 371.957 145.185L371.057 143.385L348.057 142.385Z" fill="#F2F2F2"/>
<path d="M306.627 146.095C327.506 154.205 346.278 155.603 361.627 146.095V128.095C343.55 138.942 325.21 138.645 306.627 128.095V146.095Z" fill="#3F3D56"/>
<path d="M290.627 261.095C322.895 269.205 351.906 270.603 375.627 261.095V243.095C347.69 253.942 319.346 253.645 290.627 243.095V261.095Z" fill="#3F3D56"/>
<path d="M258.557 229.385C261.557 233.385 265.557 228.875 261.557 234.635C258.807 238.595 274.567 275.715 284.657 298.455C289.217 308.745 292.627 316.095 292.627 316.095L309.637 306.245L311.627 305.095C311.627 305.095 296.027 265.835 291.007 251.725C290.177 249.385 289.627 247.735 289.497 247.075C288.557 242.385 288.437 238.365 289.497 236.875C289.748 236.32 289.962 235.749 290.137 235.165C292.147 229.275 298.267 209.385 303.997 190.575C305.667 185.055 307.317 179.635 308.817 174.685C312.667 161.975 315.557 152.385 315.557 152.385L292.557 153.385C292.557 153.385 292.177 154.025 291.507 155.185C289.907 157.945 286.627 163.635 282.827 170.475C280.087 175.395 277.067 180.925 274.217 186.365C266.957 200.205 260.707 213.535 262.557 215.385C266.557 219.385 270.647 217.115 265.607 222.245C260.557 227.385 255.557 225.385 258.557 229.385Z" fill="#F2F2F2"/>
<path d="M285.057 408.565C285.227 409.765 285.477 413.845 285.767 419.785C297.815 421.737 310.058 422.188 322.217 421.125L325.917 403.285C313.46 405.56 300.708 405.722 288.197 403.765C285.377 405.045 284.257 402.965 285.057 408.565Z" fill="#3F3D56"/>
<path d="M349.487 427.175C359.74 429.457 370.161 430.908 380.647 431.515L385.877 423.765L386.997 415.075C375.21 415.379 363.444 413.923 352.087 410.755C353.047 415.095 353.727 418.035 353.727 418.035L349.487 427.175Z" fill="#3F3D56"/>
<path d="M346.627 184.095C346.627 186.747 347.681 189.291 349.556 191.166C351.432 193.042 353.975 194.095 356.627 194.095C359.279 194.095 361.823 193.042 363.698 191.166C365.574 189.291 366.627 186.747 366.627 184.095C366.627 178.572 357.627 167.095 356.627 174.095C355.627 181.095 346.627 178.572 346.627 184.095Z" fill="#4DDAC5"/>
<path d="M355.54 167.14C355.9 167.11 356.26 167.1 356.63 167.1C360.983 167.105 365.169 168.778 368.327 171.774C371.485 174.771 373.376 178.863 373.61 183.21C373.62 183.5 373.63 183.8 373.63 184.1C373.63 184.51 373.62 184.91 373.58 185.31C373.329 188.87 371.962 192.26 369.675 194.999C367.388 197.739 364.297 199.688 360.839 200.572C357.382 201.455 353.734 201.227 350.413 199.92C347.093 198.613 344.268 196.293 342.34 193.29C341.953 192.697 341.605 192.079 341.3 191.44C340.098 188.933 339.529 186.168 339.645 183.39C339.76 180.612 340.555 177.904 341.961 175.505C343.367 173.106 345.341 171.089 347.708 169.63C350.076 168.172 352.765 167.317 355.54 167.14ZM343.8 193C345.368 194.886 347.328 196.409 349.544 197.462C351.759 198.515 354.177 199.074 356.63 199.1C360.283 199.095 363.808 197.759 366.547 195.342C369.286 192.925 371.05 189.593 371.51 185.97C371.59 185.35 371.631 184.725 371.63 184.1C371.632 184.013 371.628 183.926 371.62 183.84C371.551 179.909 369.942 176.162 367.139 173.405C364.335 170.648 360.562 169.102 356.63 169.1C356.54 169.34 356.45 169.57 356.35 169.79C352.08 179.89 342.82 179.13 341.63 184.1C341.054 186.502 341.404 189.034 342.61 191.19C342.949 191.829 343.347 192.435 343.8 193Z" fill="#FBCD99"/>
<path d="M253.146 85.6217C252.946 83.8261 253.796 82.2572 255.045 82.1176C256.294 81.9781 257.469 83.3206 257.67 85.1163C257.871 86.912 257.021 88.4808 255.771 88.6204C254.522 88.76 253.347 87.4174 253.146 85.6217Z" fill="#E6E6E6"/>
<path d="M205.036 67.0341C204.547 65.1062 206.398 62.974 209.169 62.2717C211.94 61.5693 214.583 62.5629 215.072 64.4908C215.56 66.4187 213.71 68.5509 210.938 69.2532C208.167 69.9556 205.524 68.962 205.036 67.0341Z" fill="#FBCD99"/>
<path d="M169.363 70.7569C169.163 68.9612 170.013 67.3923 171.262 67.2528C172.511 67.1132 173.686 68.4557 173.887 70.2514C174.088 72.0471 173.238 73.616 171.988 73.7555C170.739 73.8951 169.564 72.5526 169.363 70.7569Z" fill="#E6E6E6"/>
<path d="M194.363 98.8297C194.163 97.034 195.013 95.4651 196.262 95.3255C197.511 95.186 198.686 96.5285 198.887 98.3242C199.088 100.12 198.238 101.689 196.988 101.828C195.739 101.968 194.564 100.625 194.363 98.8297Z" fill="#4DDAC5"/>
<path d="M228.914 100.628C228.714 98.8322 229.564 97.2633 230.813 97.1238C232.062 96.9842 233.237 98.3267 233.438 100.122C233.638 101.918 232.788 103.487 231.539 103.627C230.29 103.766 229.115 102.424 228.914 100.628Z" fill="#4DDAC5"/>
<path opacity="0.3" d="M139.462 458.678L-9 335L135.228 463.632C135.507 464.102 135.895 464.499 136.358 464.79C136.822 465.081 137.348 465.257 137.893 465.304C138.438 465.351 138.986 465.267 139.493 465.059C139.999 464.852 140.448 464.527 140.804 464.111C141.159 463.695 141.41 463.2 141.536 462.668C141.662 462.135 141.66 461.581 141.529 461.05C141.397 460.518 141.141 460.026 140.782 459.614C140.422 459.201 139.97 458.88 139.462 458.678Z" fill="#F2F2F2"/>
</g>
<defs>
<linearGradient id="paint0_linear_57_747" x1="546.708" y1="221.133" x2="-21" y2="221.133" gradientUnits="userSpaceOnUse">
<stop stop-color="#2A112E"/>
<stop offset="0.490163" stop-color="#7452B0"/>
<stop offset="1" stop-color="#FBCD99"/>
</linearGradient>
<linearGradient id="paint1_linear_57_747" x1="837" y1="102" x2="-66" y2="102" gradientUnits="userSpaceOnUse">
<stop stop-color="#2A112E"/>
<stop offset="0.490163" stop-color="#7452B0"/>
<stop offset="1" stop-color="#46FBF6"/>
</linearGradient>
<clipPath id="clip0_57_747">
<rect width="693" height="616" fill="white" transform="matrix(-1 0 0 1 688 0)"/>
</clipPath>
</defs>
</svg>
